<svg xmlns="http://www.w3.org/2000/svg" width="96" height="94" viewBox="0 0 96 94">
  <g id="Group_3" data-name="Group 3" transform="translate(-2402 -3779)">
    <g id="Group_2" data-name="Group 2" transform="translate(4)">
      <circle id="Ellipse_1" data-name="Ellipse 1" cx="47" cy="47" r="47" transform="translate(2400 3779)" fill="#da8102"/>
      <circle id="Ellipse_2" data-name="Ellipse 2" cx="36" cy="36" r="36" transform="translate(2413 3790)" fill="#da8102"/>
      <circle id="Ellipse_3" data-name="Ellipse 3" cx="34.5" cy="34.5" r="34.5" transform="translate(2416 3792)" fill="#da8102"/>
    </g>
    <g id="Group_1" data-name="Group 1">
      <circle id="Ellipse_1-2" data-name="Ellipse 1" cx="47" cy="47" r="47" transform="translate(2402 3779)" fill="#fecb03"/>
      <circle id="Ellipse_2-2" data-name="Ellipse 2" cx="36" cy="36" r="36" transform="translate(2413 3790)" fill="#da8102"/>
      <circle id="Ellipse_3-2" data-name="Ellipse 3" cx="34.5" cy="34.5" r="34.5" transform="translate(2416 3792)" fill="#f0aa00"/>
    </g>
    <path id="Path_123" data-name="Path 123" d="M23.008-10.338a8.128,8.128,0,0,0-3.23-3.327,13.577,13.577,0,0,0-4.738-1.393v-3.481H10.9v3.481a16.025,16.025,0,0,0-3.307.716,11.32,11.32,0,0,0-2.9,1.451,6.69,6.69,0,0,0-2.108,2.379,6.836,6.836,0,0,0-.774,3.269,7.935,7.935,0,0,0,.406,2.63A4.818,4.818,0,0,0,3.435-2.679a10.044,10.044,0,0,0,1.7,1.315A8.693,8.693,0,0,0,7.4-.454q1.373.367,2.437.561t2.688.387q1.625.232,2.785.5a13.516,13.516,0,0,1,2.282.754,4.012,4.012,0,0,1,1.7,1.276,3.029,3.029,0,0,1,.58,1.837,3.569,3.569,0,0,1-2.089,3.443A11.333,11.333,0,0,1,12.68,9.351a11.688,11.688,0,0,1-4.971-1.1,6.17,6.17,0,0,1-3.23-3L.805,7.185a8.8,8.8,0,0,0,4.023,4.274,15.418,15.418,0,0,0,6.073,1.76v3.713H15V13.065a11.888,11.888,0,0,0,6.615-2.4,6.944,6.944,0,0,0,2.746-5.8,6.877,6.877,0,0,0-.7-3.153,7.025,7.025,0,0,0-1.7-2.224,8.974,8.974,0,0,0-2.65-1.47,20.655,20.655,0,0,0-3.036-.909q-1.393-.29-3.327-.561-1.7-.232-2.65-.425A12.911,12.911,0,0,1,8.251-4.5,3.51,3.51,0,0,1,6.646-5.6a2.743,2.743,0,0,1-.5-1.683A3.355,3.355,0,0,1,8.1-10.454a9.7,9.7,0,0,1,4.7-1.083,10.545,10.545,0,0,1,4.042.851,5.5,5.5,0,0,1,2.688,2.2Z" transform="translate(2438.417 3826.803)" fill="#da8102"/>
    <path id="Path_122" data-name="Path 122" d="M23.008-10.338a8.128,8.128,0,0,0-3.23-3.327,13.577,13.577,0,0,0-4.738-1.393v-3.481H10.9v3.481a16.025,16.025,0,0,0-3.307.716,11.32,11.32,0,0,0-2.9,1.451,6.69,6.69,0,0,0-2.108,2.379,6.836,6.836,0,0,0-.774,3.269,7.935,7.935,0,0,0,.406,2.63A4.818,4.818,0,0,0,3.435-2.679a10.044,10.044,0,0,0,1.7,1.315A8.693,8.693,0,0,0,7.4-.454q1.373.367,2.437.561t2.688.387q1.625.232,2.785.5a13.516,13.516,0,0,1,2.282.754,4.012,4.012,0,0,1,1.7,1.276,3.029,3.029,0,0,1,.58,1.837,3.569,3.569,0,0,1-2.089,3.443A11.333,11.333,0,0,1,12.68,9.351a11.688,11.688,0,0,1-4.971-1.1,6.17,6.17,0,0,1-3.23-3L.805,7.185a8.8,8.8,0,0,0,4.023,4.274,15.418,15.418,0,0,0,6.073,1.76v3.713H15V13.065a11.888,11.888,0,0,0,6.615-2.4,6.944,6.944,0,0,0,2.746-5.8,6.877,6.877,0,0,0-.7-3.153,7.025,7.025,0,0,0-1.7-2.224,8.974,8.974,0,0,0-2.65-1.47,20.655,20.655,0,0,0-3.036-.909q-1.393-.29-3.327-.561-1.7-.232-2.65-.425A12.911,12.911,0,0,1,8.251-4.5,3.51,3.51,0,0,1,6.646-5.6a2.743,2.743,0,0,1-.5-1.683A3.355,3.355,0,0,1,8.1-10.454a9.7,9.7,0,0,1,4.7-1.083,10.545,10.545,0,0,1,4.042.851,5.5,5.5,0,0,1,2.688,2.2Z" transform="translate(2436.417 3826.803)" fill="#fdca05"/>
  </g>
</svg>
