<svg id="Group_8" data-name="Group 8" xmlns="http://www.w3.org/2000/svg" width="66.207" height="98.966" viewBox="0 0 66.207 98.966">
  <g id="Group_2" data-name="Group 2" transform="translate(4.997 -0.001)">
    <path id="Ellipse_1" data-name="Ellipse 1" d="M29.221,2.234a21,21,0,0,1,12.1,2.934,32.408,32.408,0,0,1,10.209,9.8,52.565,52.565,0,0,1,7.056,15.322,69.668,69.668,0,0,1,2.623,19.19,69.66,69.66,0,0,1-2.623,19.189,52.549,52.549,0,0,1-7.056,15.32,32.4,32.4,0,0,1-10.209,9.8,21,21,0,0,1-12.1,2.931,22.394,22.394,0,0,1-11.683-4.468A35.757,35.757,0,0,1,8.293,81.847,55.26,55.26,0,0,1,2.2,67.129a71.791,71.791,0,0,1,0-35.307A55.244,55.244,0,0,1,8.293,17.1,35.742,35.742,0,0,1,17.538,6.7,22.388,22.388,0,0,1,29.221,2.234Z" transform="translate(0 0)" fill="#da8102"/>
    <path id="Ellipse_2" data-name="Ellipse 2" d="M22.568,1.293A16.127,16.127,0,0,1,31.781,3.68a25.064,25.064,0,0,1,7.712,7.562,40.486,40.486,0,0,1,5.3,11.67,53.411,53.411,0,0,1,1.963,14.536,53.4,53.4,0,0,1-1.963,14.535,40.473,40.473,0,0,1-5.3,11.669,25.053,25.053,0,0,1-7.712,7.56A16.124,16.124,0,0,1,22.568,73.6,16.943,16.943,0,0,1,13.6,70.313,27.03,27.03,0,0,1,6.452,62.4,42.068,42.068,0,0,1,1.719,51.08a54.962,54.962,0,0,1,0-27.274A42.055,42.055,0,0,1,6.452,12.49,27.019,27.019,0,0,1,13.6,4.576,16.939,16.939,0,0,1,22.568,1.293Z" transform="translate(6.003 12.032)" fill="#da8102"/>
    <path id="Ellipse_3" data-name="Ellipse 3" d="M21.719,1.172a15.537,15.537,0,0,1,8.85,2.316,24.135,24.135,0,0,1,7.4,7.271,38.891,38.891,0,0,1,5.081,11.2,51.211,51.211,0,0,1,1.882,13.933,51.175,51.175,0,0,1-1.882,13.93,38.814,38.814,0,0,1-5.081,11.188,24.072,24.072,0,0,1-7.4,7.258,15.517,15.517,0,0,1-8.85,2.3A16.29,16.29,0,0,1,13.1,67.422a25.942,25.942,0,0,1-6.88-7.6A40.343,40.343,0,0,1,1.656,48.954a52.671,52.671,0,0,1,0-26.208A40.267,40.267,0,0,1,6.215,11.884,25.875,25.875,0,0,1,13.1,4.3,16.263,16.263,0,0,1,21.719,1.172Z" transform="translate(7.826 14.113)" fill="#da8102"/>
  </g>
  <g id="Group_1" data-name="Group 1" transform="translate(0 0.319)">
    <path id="Ellipse_1-2" data-name="Ellipse 1" d="M28.76,2.2A20.534,20.534,0,0,1,40.665,5.116a32.005,32.005,0,0,1,10.04,9.725,52.341,52.341,0,0,1,6.938,15.195,69.63,69.63,0,0,1,2.579,19.028,69.63,69.63,0,0,1-2.579,19.028,52.341,52.341,0,0,1-6.938,15.195,32,32,0,0,1-10.04,9.725A20.534,20.534,0,0,1,28.76,95.926a21.918,21.918,0,0,1-11.5-4.424,35.352,35.352,0,0,1-9.1-10.321,55.042,55.042,0,0,1-5.994-14.6,71.772,71.772,0,0,1,0-35.033,55.042,55.042,0,0,1,5.994-14.6,35.352,35.352,0,0,1,9.1-10.321A21.918,21.918,0,0,1,28.76,2.2Z" fill="#fecb03"/>
    <path id="Ellipse_2-2" data-name="Ellipse 2" d="M22.253,1.278A15.811,15.811,0,0,1,31.334,3.65a24.792,24.792,0,0,1,7.6,7.509,40.334,40.334,0,0,1,5.221,11.585A53.384,53.384,0,0,1,46.09,37.172,53.385,53.385,0,0,1,44.155,51.6a40.334,40.334,0,0,1-5.221,11.585,24.792,24.792,0,0,1-7.6,7.509,15.811,15.811,0,0,1-9.081,2.372,16.623,16.623,0,0,1-8.841-3.257,26.757,26.757,0,0,1-7.048-7.858A41.919,41.919,0,0,1,1.7,50.715a54.949,54.949,0,0,1,0-27.086A41.919,41.919,0,0,1,6.363,12.393a26.757,26.757,0,0,1,7.048-7.858A16.623,16.623,0,0,1,22.253,1.278Z" transform="translate(6.507 11.892)" fill="#da8102"/>
    <path id="Ellipse_3-2" data-name="Ellipse 3" d="M21.415,1.158a15.232,15.232,0,0,1,8.723,2.3,23.872,23.872,0,0,1,7.293,7.219,38.745,38.745,0,0,1,5.006,11.115,51.186,51.186,0,0,1,1.854,13.831,51.156,51.156,0,0,1-1.854,13.828,38.681,38.681,0,0,1-5.006,11.108,23.82,23.82,0,0,1-7.293,7.208,15.216,15.216,0,0,1-8.723,2.288,15.982,15.982,0,0,1-8.5-3.116A25.679,25.679,0,0,1,6.129,59.4a40.2,40.2,0,0,1-4.5-10.793,52.659,52.659,0,0,1,0-26.027,40.136,40.136,0,0,1,4.5-10.787,25.623,25.623,0,0,1,6.784-7.53A15.959,15.959,0,0,1,21.415,1.158Z" transform="translate(8.305 13.957)" fill="#f0aa00"/>
  </g>
  <path id="Path_123" data-name="Path 123" d="M14.234,8.3q-.209-.573-.445-1.066a8.66,8.66,0,0,0-.5-.908,6.325,6.325,0,0,0-.554-.75,4.788,4.788,0,0,0-.609-.592,5.983,5.983,0,0,0-.669-.468,6.229,6.229,0,0,0-.735-.379,6.82,6.82,0,0,0-.8-.289,7.784,7.784,0,0,0-.866-.2V.16L6.4.23V3.7q-.278.054-.549.129T5.313,4q-.264.095-.52.209t-.505.25q-.249.135-.488.294T3.331,5.1q-.23.184-.45.394t-.431.443a5.494,5.494,0,0,0-.4.5A6.193,6.193,0,0,0,1.695,7q-.166.3-.31.626t-.266.689Q1,8.672.906,9.055t-.152.787q-.061.4-.091.832t-.03.876q0,.363.016.707t.048.669q.032.325.08.631t.112.592q.064.287.144.549t.176.5q.1.239.208.454a4.287,4.287,0,0,0,.24.406q.128.191.259.368t.266.34q.134.163.272.311t.278.283a3.8,3.8,0,0,0,.3.258q.16.123.339.236t.378.215q.2.1.417.194t.424.172q.206.081.4.151t.376.129q.182.059.352.108t.362.1q.192.048.407.1t.453.1q.238.049.5.1t.5.119q.242.061.466.124t.43.129q.206.066.393.134t.373.15q.186.082.37.177t.368.2q.183.109.365.231a3.246,3.246,0,0,1,.342.264,3.089,3.089,0,0,1,.552.644,3.306,3.306,0,0,1,.211.38,3.612,3.612,0,0,1,.165.415,3.989,3.989,0,0,1,.118.447,4.564,4.564,0,0,1,.071.478q.024.247.024.51a6.922,6.922,0,0,1-.085,1.12,4.625,4.625,0,0,1-.255.948,3.385,3.385,0,0,1-.424.775,2.97,2.97,0,0,1-.593.6,4.693,4.693,0,0,1-.714.449,4.794,4.794,0,0,1-.787.316,5.361,5.361,0,0,1-.86.183,6.44,6.44,0,0,1-.932.051,4.944,4.944,0,0,1-.822-.081,5.071,5.071,0,0,1-.8-.218,5.628,5.628,0,0,1-.784-.354,6.654,6.654,0,0,1-.766-.49,5.574,5.574,0,0,1-.695-.606,5.3,5.3,0,0,1-.572-.7,5.5,5.5,0,0,1-.451-.8,6.184,6.184,0,0,1-.329-.894L0,25.809a11.4,11.4,0,0,0,.449,1.3,9.133,9.133,0,0,0,.572,1.145,7.668,7.668,0,0,0,.695.989,6.892,6.892,0,0,0,.818.833,8.865,8.865,0,0,0,.9.68,7.794,7.794,0,0,0,.944.531,7.233,7.233,0,0,0,.987.382A7.153,7.153,0,0,0,6.4,31.9v3.7l2.633.07V31.8a6.089,6.089,0,0,0,1.2-.227,5.828,5.828,0,0,0,1.117-.463,6.324,6.324,0,0,0,1.03-.7,7.643,7.643,0,0,0,.941-.938,6.6,6.6,0,0,0,.786-1.157,7.633,7.633,0,0,0,.562-1.358,9.716,9.716,0,0,0,.338-1.559,13.062,13.062,0,0,0,.113-1.757q0-.449-.029-.873t-.086-.822q-.057-.4-.143-.771t-.2-.72q-.114-.347-.241-.661t-.266-.595q-.139-.281-.291-.528a5.407,5.407,0,0,0-.316-.462A5.076,5.076,0,0,0,13.2,17.8a5.49,5.49,0,0,0-.406-.385q-.216-.185-.458-.355t-.509-.325q-.267-.155-.524-.289t-.5-.248q-.246-.113-.482-.206t-.461-.165q-.225-.072-.472-.143t-.515-.14q-.268-.069-.557-.137t-.6-.134q-.273-.057-.516-.111t-.455-.107q-.212-.052-.394-.1t-.333-.1q-.151-.048-.309-.109t-.321-.138q-.163-.076-.333-.167t-.345-.2a2.975,2.975,0,0,1-.327-.225,2.594,2.594,0,0,1-.279-.257,2.382,2.382,0,0,1-.414-.607,2.8,2.8,0,0,1-.14-.356,3.435,3.435,0,0,1-.1-.4,4.33,4.33,0,0,1-.06-.438q-.02-.229-.02-.479a5.657,5.657,0,0,1,.068-.975,4.169,4.169,0,0,1,.229-.853,3.443,3.443,0,0,1,.391-.73,3.358,3.358,0,0,1,.553-.609,4.741,4.741,0,0,1,.663-.481,4.42,4.42,0,0,1,.721-.348,4.541,4.541,0,0,1,.78-.215,5.12,5.12,0,0,1,.84-.081A4.789,4.789,0,0,1,8.3,7.25a4.637,4.637,0,0,1,.663.154,4.786,4.786,0,0,1,.64.252,5.244,5.244,0,0,1,.618.349,4.579,4.579,0,0,1,.564.436,4.324,4.324,0,0,1,.479.511,4.41,4.41,0,0,1,.393.585,4.842,4.842,0,0,1,.307.66Z" transform="translate(22.566 31.464)" fill="#da8102"/>
  <path id="Path_122" data-name="Path 122" d="M14.151,8.273q-.208-.571-.443-1.063a8.643,8.643,0,0,0-.5-.905,6.305,6.305,0,0,0-.551-.748,4.767,4.767,0,0,0-.605-.59A5.948,5.948,0,0,0,11.39,4.5a6.186,6.186,0,0,0-.73-.377,6.767,6.767,0,0,0-.8-.288A7.719,7.719,0,0,0,9,3.635V.159L6.36.229V3.691q-.277.054-.546.128t-.532.168q-.262.094-.517.209t-.5.249q-.247.134-.486.294t-.467.343q-.228.184-.448.392t-.429.442a5.474,5.474,0,0,0-.4.5,6.177,6.177,0,0,0-.353.561q-.165.3-.308.624t-.264.687q-.121.36-.212.741t-.151.785q-.06.4-.091.829t-.03.874q0,.362.016.705t.048.667q.032.324.079.629t.111.591q.064.286.143.548t.175.5q.1.238.207.453a4.277,4.277,0,0,0,.239.405q.127.191.258.367t.264.339q.134.162.27.31t.277.282a3.781,3.781,0,0,0,.3.257q.159.123.337.236t.376.214q.2.1.414.193t.422.172q.2.08.4.15t.374.129q.181.059.35.107t.36.1q.191.048.405.1t.45.1q.236.049.5.1t.5.119q.241.061.464.124t.427.129q.2.066.391.134t.371.15q.185.081.368.176t.365.2q.182.108.363.23a3.229,3.229,0,0,1,.34.263,3.077,3.077,0,0,1,.549.642,3.3,3.3,0,0,1,.209.379,3.607,3.607,0,0,1,.164.414,3.987,3.987,0,0,1,.117.446,4.564,4.564,0,0,1,.07.477q.023.246.023.508a6.922,6.922,0,0,1-.084,1.117,4.623,4.623,0,0,1-.253.945,3.378,3.378,0,0,1-.422.773,2.957,2.957,0,0,1-.589.6,4.664,4.664,0,0,1-.71.447,4.758,4.758,0,0,1-.783.315,5.316,5.316,0,0,1-.855.183,6.384,6.384,0,0,1-.927.051,4.9,4.9,0,0,1-.818-.081,5.03,5.03,0,0,1-.8-.217,5.586,5.586,0,0,1-.78-.353,6.612,6.612,0,0,1-.761-.489,5.547,5.547,0,0,1-.691-.6,5.28,5.28,0,0,1-.569-.7,5.484,5.484,0,0,1-.448-.8A6.178,6.178,0,0,1,2.3,23.85L0,25.734a11.385,11.385,0,0,0,.447,1.3,9.117,9.117,0,0,0,.568,1.142,7.645,7.645,0,0,0,.691.986,6.862,6.862,0,0,0,.814.83,8.816,8.816,0,0,0,.9.678,7.742,7.742,0,0,0,.939.53,7.179,7.179,0,0,0,.981.381,7.093,7.093,0,0,0,1.024.231V35.5l2.618.069V31.711a6.038,6.038,0,0,0,1.2-.227,5.784,5.784,0,0,0,1.111-.462,6.287,6.287,0,0,0,1.024-.7,7.61,7.61,0,0,0,.936-.935,6.581,6.581,0,0,0,.781-1.154,7.624,7.624,0,0,0,.559-1.354,9.712,9.712,0,0,0,.336-1.554,13.061,13.061,0,0,0,.112-1.752q0-.448-.028-.871t-.085-.82q-.057-.4-.142-.769t-.2-.718q-.113-.346-.239-.659t-.264-.593q-.138-.28-.289-.527a5.392,5.392,0,0,0-.314-.461,5.058,5.058,0,0,0-.352-.413,5.464,5.464,0,0,0-.4-.383q-.215-.184-.455-.354t-.506-.324q-.266-.155-.521-.288t-.5-.247q-.245-.113-.479-.206T9.8,15.778q-.224-.072-.469-.142T8.817,15.5q-.266-.069-.554-.137t-.6-.134q-.272-.057-.513-.111T6.7,15.008q-.211-.052-.392-.1t-.331-.1q-.15-.047-.307-.109t-.319-.138q-.162-.076-.331-.166T4.679,14.2a2.958,2.958,0,0,1-.325-.225,2.582,2.582,0,0,1-.277-.256,2.376,2.376,0,0,1-.412-.606,2.8,2.8,0,0,1-.139-.355,3.434,3.434,0,0,1-.1-.4,4.329,4.329,0,0,1-.059-.436q-.02-.228-.02-.477a5.657,5.657,0,0,1,.068-.972,4.166,4.166,0,0,1,.228-.85A3.436,3.436,0,0,1,4.032,8.9a3.345,3.345,0,0,1,.549-.607,4.714,4.714,0,0,1,.659-.48,4.388,4.388,0,0,1,.717-.347,4.5,4.5,0,0,1,.776-.214,5.075,5.075,0,0,1,.835-.081,4.747,4.747,0,0,1,.68.057,4.6,4.6,0,0,1,.659.154,4.75,4.75,0,0,1,.637.251,5.21,5.21,0,0,1,.615.348,4.554,4.554,0,0,1,.561.435,4.307,4.307,0,0,1,.476.509,4.4,4.4,0,0,1,.391.584,4.835,4.835,0,0,1,.305.658Z" transform="translate(20.648 31.522)" fill="#fdca05"/>
</svg>
