<svg id="Group_6" data-name="Group 6" xmlns="http://www.w3.org/2000/svg" width="87.687" height="97.109" viewBox="0 0 87.687 97.109">
  <g id="Group_2" data-name="Group 2" transform="translate(5.761 -0.001)">
    <path id="Ellipse_1" data-name="Ellipse 1" d="M39.756,1.428a36.094,36.094,0,0,1,16.115,3.2,40.84,40.84,0,0,1,13.44,9.895A47.869,47.869,0,0,1,78.519,29.7a53.885,53.885,0,0,1,0,37.709,47.86,47.86,0,0,1-9.207,15.175,40.832,40.832,0,0,1-13.44,9.893,36.091,36.091,0,0,1-16.115,3.2,36.471,36.471,0,0,1-15.75-4.2,41.651,41.651,0,0,1-12.6-10.288A48.456,48.456,0,0,1,3.042,66.408a53.945,53.945,0,0,1,0-35.717,48.447,48.447,0,0,1,8.365-14.783,41.643,41.643,0,0,1,12.6-10.286A36.468,36.468,0,0,1,39.756,1.428Z" transform="translate(0 0)" fill="#da8102"/>
    <path id="Ellipse_2" data-name="Ellipse 2" d="M30.619.83A27.613,27.613,0,0,1,42.914,3.371a31.306,31.306,0,0,1,10.2,7.612,36.7,36.7,0,0,1,6.963,11.582,41.277,41.277,0,0,1,0,28.678,36.689,36.689,0,0,1-6.963,11.581,31.3,31.3,0,0,1-10.2,7.611,27.64,27.64,0,0,1-24.376-.585,31.783,31.783,0,0,1-9.711-7.842,37.042,37.042,0,0,1-6.47-11.352,41.313,41.313,0,0,1,0-27.511,37.035,37.035,0,0,1,6.47-11.351,31.777,31.777,0,0,1,9.711-7.841A27.832,27.832,0,0,1,30.619.83Z" transform="translate(8.267 11.649)" fill="#da8102"/>
    <path id="Ellipse_3" data-name="Ellipse 3" d="M29.425.751A26.541,26.541,0,0,1,41.225,3.2a30.079,30.079,0,0,1,9.786,7.31,35.216,35.216,0,0,1,6.675,11.108,39.561,39.561,0,0,1,0,27.485,35.177,35.177,0,0,1-6.675,11.1,30.042,30.042,0,0,1-9.786,7.3,26.559,26.559,0,0,1-23.4-.547,30.516,30.516,0,0,1-9.333-7.522,35.532,35.532,0,0,1-6.221-10.9,39.593,39.593,0,0,1,0-26.411A35.493,35.493,0,0,1,8.488,11.246a30.479,30.479,0,0,1,9.333-7.514A26.729,26.729,0,0,1,29.425.751Z" transform="translate(10.767 13.699)" fill="#da8102"/>
  </g>
  <g id="Group_1" data-name="Group 1" transform="translate(0 0.12)">
    <path id="Ellipse_1-2" data-name="Ellipse 1" d="M39.412,1.418A35.641,35.641,0,0,1,55.386,4.605a40.491,40.491,0,0,1,13.32,9.851,47.694,47.694,0,0,1,9.125,15.109,53.871,53.871,0,0,1,0,37.539,47.694,47.694,0,0,1-9.125,15.109,40.491,40.491,0,0,1-13.32,9.851,35.641,35.641,0,0,1-15.973,3.188A36.025,36.025,0,0,1,23.8,91.077,41.317,41.317,0,0,1,11.309,80.836a48.294,48.294,0,0,1-8.293-14.72,53.932,53.932,0,0,1,0-35.564,48.294,48.294,0,0,1,8.293-14.72A41.317,41.317,0,0,1,23.8,5.592,36.025,36.025,0,0,1,39.412,1.418Z" transform="translate(0)" fill="#fecb03"/>
    <path id="Ellipse_2-2" data-name="Ellipse 2" d="M30.391.826a27.316,27.316,0,0,1,12.2,2.532,31.077,31.077,0,0,1,10.125,7.583,36.582,36.582,0,0,1,6.91,11.537,41.268,41.268,0,0,1,0,28.568,36.582,36.582,0,0,1-6.91,11.537,31.077,31.077,0,0,1-10.125,7.583A27.339,27.339,0,0,1,18.4,69.588a31.562,31.562,0,0,1-9.638-7.812A36.934,36.934,0,0,1,2.34,50.467a41.3,41.3,0,0,1,0-27.409A36.934,36.934,0,0,1,8.762,11.749,31.563,31.563,0,0,1,18.4,3.937,27.541,27.541,0,0,1,30.391.826Z" transform="translate(9.022 11.573)" fill="#da8102"/>
    <path id="Ellipse_3-2" data-name="Ellipse 3" d="M29.205.748A26.256,26.256,0,0,1,40.916,3.193a29.859,29.859,0,0,1,9.711,7.283A35.107,35.107,0,0,1,57.252,21.54a39.551,39.551,0,0,1,0,27.379,35.074,35.074,0,0,1-6.624,11.06,29.829,29.829,0,0,1-9.711,7.276,26.27,26.27,0,0,1-23.228-.541,30.3,30.3,0,0,1-9.263-7.492A35.429,35.429,0,0,1,2.25,48.367a39.584,39.584,0,0,1,0-26.313A35.4,35.4,0,0,1,8.426,11.2a30.272,30.272,0,0,1,9.263-7.486A26.45,26.45,0,0,1,29.205.748Z" transform="translate(11.503 13.615)" fill="#f0aa00"/>
  </g>
  <path id="Path_123" data-name="Path 123" d="M19.2,8.265A10.582,10.582,0,0,0,18.6,7.2a8.374,8.374,0,0,0-.67-.909,6.889,6.889,0,0,0-.743-.752,6.023,6.023,0,0,0-.816-.595,8.557,8.557,0,0,0-.9-.472,9.755,9.755,0,0,0-.987-.383q-.516-.169-1.076-.295t-1.165-.206V.1L8.663.15V3.626q-.376.052-.742.125T7.2,3.915q-.356.093-.7.206t-.683.246q-.337.133-.661.292T4.517,5q-.311.183-.61.392t-.584.442a6.16,6.16,0,0,0-.541.5A6.272,6.272,0,0,0,2.3,6.9a6.655,6.655,0,0,0-.421.627,7.325,7.325,0,0,0-.361.691,6.85,6.85,0,0,0-.289.745,7.3,7.3,0,0,0-.206.79,8.071,8.071,0,0,0-.124.835q-.041.429-.041.88,0,.365.022.71t.065.672q.043.326.108.633t.152.595q.087.288.2.552a5.2,5.2,0,0,0,.239.5,4.622,4.622,0,0,0,.282.456,4.264,4.264,0,0,0,.326.408q.174.192.352.37t.36.341q.182.163.369.312T3.7,17.3q.191.135.407.258t.46.237q.243.113.512.215t.564.194q.3.092.574.172t.541.151q.262.07.508.129t.475.108q.229.048.489.1t.55.1q.29.049.611.1t.672.1q.351.058.678.119t.628.124q.3.063.579.129t.529.134q.252.068.5.15t.5.176q.248.095.494.2t.49.23a4.454,4.454,0,0,1,.459.263,3.788,3.788,0,0,1,.4.3,3.371,3.371,0,0,1,.342.34,3.179,3.179,0,0,1,.283.379,3.132,3.132,0,0,1,.222.414,3.2,3.2,0,0,1,.158.446,3.475,3.475,0,0,1,.095.477,3.989,3.989,0,0,1,.032.509,5.187,5.187,0,0,1-.114,1.118,3.737,3.737,0,0,1-.342.947,3.267,3.267,0,0,1-.569.775,3.662,3.662,0,0,1-.8.6,6.95,6.95,0,0,1-.96.452,7.9,7.9,0,0,1-1.059.319,9.444,9.444,0,0,1-1.158.188,11.668,11.668,0,0,1-1.256.056,8.914,8.914,0,0,1-1.109-.077,8.782,8.782,0,0,1-1.084-.214,9.069,9.069,0,0,1-1.06-.351,9.79,9.79,0,0,1-1.035-.488,7.317,7.317,0,0,1-.94-.6,6,6,0,0,1-.775-.7,5.342,5.342,0,0,1-.611-.8,5.277,5.277,0,0,1-.446-.9L0,25.783a9.577,9.577,0,0,0,.61,1.305,8.491,8.491,0,0,0,.776,1.147,8.133,8.133,0,0,0,.943.989,8.474,8.474,0,0,0,1.11.83,12.325,12.325,0,0,0,1.221.676,11.925,11.925,0,0,0,2.612.9,12.563,12.563,0,0,0,1.391.225v3.708l3.55.045V31.738a10.783,10.783,0,0,0,1.62-.236,9.545,9.545,0,0,0,1.5-.47,9.132,9.132,0,0,0,1.382-.706,9.51,9.51,0,0,0,1.262-.941,6.924,6.924,0,0,0,1.052-1.159,6.735,6.735,0,0,0,.753-1.357,7.637,7.637,0,0,0,.452-1.555,9.762,9.762,0,0,0,.151-1.752q0-.448-.038-.87t-.115-.819a7.258,7.258,0,0,0-.191-.768,6.561,6.561,0,0,0-.267-.717q-.153-.346-.322-.659t-.356-.593a6.481,6.481,0,0,0-.39-.527,5.652,5.652,0,0,0-.423-.461,5.847,5.847,0,0,0-.475-.413q-.255-.2-.544-.384T16.649,17q-.324-.17-.683-.325t-.7-.289q-.345-.134-.675-.248t-.647-.206q-.317-.093-.619-.165t-.634-.143q-.332-.071-.693-.14t-.751-.138q-.39-.068-.808-.135-.368-.057-.7-.112t-.613-.107q-.286-.053-.531-.1t-.45-.1q-.2-.048-.417-.11t-.433-.139q-.221-.077-.45-.168t-.466-.2a4.3,4.3,0,0,1-.442-.226,3.351,3.351,0,0,1-.377-.258,2.717,2.717,0,0,1-.313-.289A2.346,2.346,0,0,1,5,13.081a2.439,2.439,0,0,1-.189-.357,2.747,2.747,0,0,1-.135-.4,3.294,3.294,0,0,1-.081-.439,4.116,4.116,0,0,1-.027-.48,4.229,4.229,0,0,1,.092-.978,3.354,3.354,0,0,1,.31-.854,3.277,3.277,0,0,1,.529-.73,3.98,3.98,0,0,1,.747-.607,6.676,6.676,0,0,1,.9-.479,7.015,7.015,0,0,1,.974-.345A7.849,7.849,0,0,1,9.169,7.2,9.232,9.232,0,0,1,10.3,7.127a8.655,8.655,0,0,1,.922.061,8.133,8.133,0,0,1,.892.158,7.924,7.924,0,0,1,.862.255,8.021,8.021,0,0,1,.831.352,6.32,6.32,0,0,1,.759.438,5.224,5.224,0,0,1,.644.512,4.607,4.607,0,0,1,.528.586,4.419,4.419,0,0,1,.412.66Z" transform="translate(31.024 30.597)" fill="#da8102"/>
  <path id="Path_122" data-name="Path 122" d="M19.124,8.25a10.567,10.567,0,0,0-.594-1.064,8.357,8.357,0,0,0-.667-.907,6.869,6.869,0,0,0-.74-.75,6,6,0,0,0-.813-.594,8.518,8.518,0,0,0-.894-.471,9.706,9.706,0,0,0-.983-.382q-.514-.169-1.072-.294T12.2,3.582V.1L8.63.15V3.619q-.374.052-.739.124t-.719.165q-.355.093-.7.206t-.681.246q-.335.133-.658.291T4.5,4.992q-.31.183-.607.391t-.582.441a6.14,6.14,0,0,0-.539.5,6.256,6.256,0,0,0-.479.562,6.643,6.643,0,0,0-.419.625,7.316,7.316,0,0,0-.359.689,6.845,6.845,0,0,0-.288.744,7.3,7.3,0,0,0-.206.788,8.07,8.07,0,0,0-.123.833q-.041.428-.041.878,0,.364.022.709t.065.671q.043.326.108.632t.151.594q.086.287.194.551a5.193,5.193,0,0,0,.238.5,4.614,4.614,0,0,0,.281.455,4.255,4.255,0,0,0,.324.407q.173.192.35.369t.359.34q.182.163.367.312t.376.283q.19.134.406.258t.458.236q.242.113.51.215t.562.194q.294.091.572.172t.539.151q.261.07.506.129t.473.107q.228.048.487.1t.548.1q.289.048.609.1t.67.1q.35.058.675.119t.626.124q.3.063.576.129t.527.134q.251.068.5.149t.5.176q.247.095.492.2t.488.229a4.435,4.435,0,0,1,.457.262,3.774,3.774,0,0,1,.4.3,3.362,3.362,0,0,1,.34.34,3.173,3.173,0,0,1,.282.379,3.127,3.127,0,0,1,.221.414,3.193,3.193,0,0,1,.158.445,3.474,3.474,0,0,1,.095.476,3.989,3.989,0,0,1,.032.508,5.187,5.187,0,0,1-.114,1.116,3.734,3.734,0,0,1-.341.945,3.26,3.26,0,0,1-.567.774,3.648,3.648,0,0,1-.793.6,6.917,6.917,0,0,1-.956.451,7.86,7.86,0,0,1-1.055.319,9.392,9.392,0,0,1-1.154.187,11.6,11.6,0,0,1-1.252.056,8.864,8.864,0,0,1-1.1-.077,8.733,8.733,0,0,1-1.08-.214,9.022,9.022,0,0,1-1.056-.35,9.744,9.744,0,0,1-1.031-.487,7.287,7.287,0,0,1-.937-.6,5.98,5.98,0,0,1-.772-.7,5.331,5.331,0,0,1-.608-.8,5.272,5.272,0,0,1-.445-.894L0,25.734a9.567,9.567,0,0,0,.608,1.3,8.476,8.476,0,0,0,.773,1.145,8.111,8.111,0,0,0,.939.987A8.443,8.443,0,0,0,3.426,30a12.27,12.27,0,0,0,1.217.675,11.864,11.864,0,0,0,2.6.9A12.494,12.494,0,0,0,8.63,31.8v3.7l3.536.045V31.678a10.722,10.722,0,0,0,1.613-.235,9.495,9.495,0,0,0,1.5-.469,9.09,9.09,0,0,0,1.377-.7,9.476,9.476,0,0,0,1.257-.939,6.906,6.906,0,0,0,1.048-1.156,6.726,6.726,0,0,0,.75-1.354,7.633,7.633,0,0,0,.45-1.552,9.762,9.762,0,0,0,.15-1.748q0-.447-.038-.869t-.114-.818a7.256,7.256,0,0,0-.19-.767,6.556,6.556,0,0,0-.266-.716q-.152-.345-.321-.657t-.355-.592a6.468,6.468,0,0,0-.388-.526,5.637,5.637,0,0,0-.422-.46,5.828,5.828,0,0,0-.473-.412q-.254-.2-.542-.383t-.611-.354q-.323-.169-.68-.324t-.7-.289q-.343-.134-.673-.247t-.645-.206q-.315-.093-.617-.165t-.632-.143q-.33-.071-.69-.14t-.748-.138q-.388-.068-.805-.135-.367-.057-.693-.112t-.611-.107q-.285-.052-.529-.1t-.448-.1q-.2-.048-.415-.11t-.432-.139q-.22-.076-.448-.167t-.464-.2a4.276,4.276,0,0,1-.44-.226,3.338,3.338,0,0,1-.376-.257,2.708,2.708,0,0,1-.312-.289,2.341,2.341,0,0,1-.247-.32,2.436,2.436,0,0,1-.188-.356,2.746,2.746,0,0,1-.134-.4,3.293,3.293,0,0,1-.081-.438,4.116,4.116,0,0,1-.027-.479,4.229,4.229,0,0,1,.092-.976,3.352,3.352,0,0,1,.309-.852,3.27,3.27,0,0,1,.527-.729,3.967,3.967,0,0,1,.745-.606,6.646,6.646,0,0,1,.893-.478A6.98,6.98,0,0,1,8.086,7.4a7.806,7.806,0,0,1,1.049-.21,9.179,9.179,0,0,1,1.128-.076,8.606,8.606,0,0,1,.919.06,8.088,8.088,0,0,1,.889.157,7.882,7.882,0,0,1,.858.255,7.982,7.982,0,0,1,.828.352,6.293,6.293,0,0,1,.756.437,5.206,5.206,0,0,1,.641.511,4.6,4.6,0,0,1,.526.585,4.412,4.412,0,0,1,.411.659Z" transform="translate(28.415 30.637)" fill="#fdca05"/>
</svg>
