<svg id="Group_4" data-name="Group 4" xmlns="http://www.w3.org/2000/svg" width="99.584" height="95.107" viewBox="0 0 99.584 95.107">
  <g id="Group_2" data-name="Group 2" transform="translate(6.8 0.023)">
    <path id="Ellipse_1" data-name="Ellipse 1" d="M45.918.485A45.674,45.674,0,0,1,64.046,4.01,46.42,46.42,0,0,1,78.958,14.026a47.456,47.456,0,0,1,0,67.032A46.418,46.418,0,0,1,64.046,91.073a45.938,45.938,0,0,1-36.113-.346A46.455,46.455,0,0,1,13.353,80.576a47.463,47.463,0,0,1,0-66.071A46.452,46.452,0,0,1,27.934,4.354,45.689,45.689,0,0,1,45.918.485Z" transform="translate(0 0)" fill="#da8102"/>
    <path id="Ellipse_2" data-name="Ellipse 2" d="M35.24.283A34.962,34.962,0,0,1,49.106,3.014,35.541,35.541,0,0,1,60.492,10.7a36.347,36.347,0,0,1,0,51.245,35.539,35.539,0,0,1-11.386,7.682,35.162,35.162,0,0,1-27.649-.2,35.563,35.563,0,0,1-11.193-7.762,36.351,36.351,0,0,1,0-50.681A35.56,35.56,0,0,1,21.457,3.216,34.97,34.97,0,0,1,35.24.283Z" transform="translate(9.692 11.222)" fill="#da8102"/>
    <path id="Ellipse_3" data-name="Ellipse 3" d="M33.8.256A33.539,33.539,0,0,1,47.1,2.88a34.089,34.089,0,0,1,10.915,7.368,34.835,34.835,0,0,1,0,49.115A34.076,34.076,0,0,1,47.1,66.727a33.728,33.728,0,0,1-26.514-.189A34.108,34.108,0,0,1,9.849,59.1a34.839,34.839,0,0,1,0-48.6A34.1,34.1,0,0,1,20.586,3.062,33.542,33.542,0,0,1,33.8.256Z" transform="translate(12.607 13.24)" fill="#da8102"/>
  </g>
  <g id="Group_1" data-name="Group 1">
    <path id="Ellipse_1-2" data-name="Ellipse 1" d="M45.779.484A45.474,45.474,0,0,1,63.851,4,46.273,46.273,0,0,1,78.717,14a47.431,47.431,0,0,1,0,66.929,46.273,46.273,0,0,1-14.866,10,45.733,45.733,0,0,1-36-.344A46.311,46.311,0,0,1,13.312,80.454a47.439,47.439,0,0,1,0-65.971A46.311,46.311,0,0,1,27.849,4.348,45.491,45.491,0,0,1,45.779.484Z" transform="translate(0 0)" fill="#fecb03"/>
    <path id="Ellipse_2-2" data-name="Ellipse 2" d="M35.148.283A34.83,34.83,0,0,1,48.978,3.01a35.445,35.445,0,0,1,11.356,7.672,36.331,36.331,0,0,1,0,51.178,35.445,35.445,0,0,1-11.356,7.672,35.027,35.027,0,0,1-27.576-.2,35.467,35.467,0,0,1-11.164-7.752,36.335,36.335,0,0,1,0-50.615A35.467,35.467,0,0,1,21.4,3.212,34.84,34.84,0,0,1,35.148.283Z" transform="translate(10.631 11.197)" fill="#da8102"/>
    <path id="Ellipse_3-2" data-name="Ellipse 3" d="M33.716.256a33.412,33.412,0,0,1,13.261,2.62,34,34,0,0,1,10.886,7.358,34.82,34.82,0,0,1,0,49.05,33.986,33.986,0,0,1-10.886,7.355,33.6,33.6,0,0,1-26.444-.188A34.016,34.016,0,0,1,9.823,59.02a34.824,34.824,0,0,1,0-48.533A34.006,34.006,0,0,1,20.532,3.059,33.417,33.417,0,0,1,33.716.256Z" transform="translate(13.539 13.212)" fill="#f0aa00"/>
  </g>
  <path id="Path_123" data-name="Path 123" d="M21.859,8.225a10.329,10.329,0,0,0-.673-1.065,8.558,8.558,0,0,0-.757-.909,7.439,7.439,0,0,0-.84-.754,6.9,6.9,0,0,0-.923-.6,10.262,10.262,0,0,0-1.016-.476q-.534-.216-1.118-.389t-1.22-.3Q14.676,3.6,13.99,3.52V.036L9.913.052v3.48q-.428.05-.846.12t-.824.161q-.407.091-.8.2t-.781.243q-.385.132-.755.288t-.727.339q-.356.182-.7.389t-.669.44a6.753,6.753,0,0,0-.62.5,6.564,6.564,0,0,0-.551.562,6.66,6.66,0,0,0-.483.627,7.046,7.046,0,0,0-.414.692,6.364,6.364,0,0,0-.332.747,6.6,6.6,0,0,0-.237.793,7.161,7.161,0,0,0-.142.839,8.079,8.079,0,0,0-.047.884q0,.367.025.714t.075.675q.05.328.124.637t.174.6a5.574,5.574,0,0,0,.224.555,4.969,4.969,0,0,0,.274.506A4.6,4.6,0,0,0,2.2,15.5a4.441,4.441,0,0,0,.373.41q.2.193.4.371t.413.343q.209.164.422.314t.432.285q.218.135.466.259t.526.238q.278.113.585.216t.645.194q.337.092.656.173t.618.151q.3.07.58.129t.542.108q.262.048.558.1t.627.1q.331.048.7.1t.765.1q.4.058.772.119t.715.124q.343.063.658.128t.6.133q.286.068.57.149t.565.176q.281.095.561.2t.556.229a5.253,5.253,0,0,1,.52.262,4.282,4.282,0,0,1,.453.3,3.621,3.621,0,0,1,.387.339,3.23,3.23,0,0,1,.32.378,3.016,3.016,0,0,1,.251.413,2.942,2.942,0,0,1,.179.445,3.1,3.1,0,0,1,.107.476,3.515,3.515,0,0,1,.036.507,4.592,4.592,0,0,1-.129,1.116,3.466,3.466,0,0,1-.387.946,3.335,3.335,0,0,1-.645.776,4.161,4.161,0,0,1-.9.606,8.438,8.438,0,0,1-1.088.455,9.926,9.926,0,0,1-1.2.324,12.105,12.105,0,0,1-1.315.193q-.686.064-1.429.062a11.517,11.517,0,0,1-1.263-.072,11.219,11.219,0,0,1-1.236-.209,11.347,11.347,0,0,1-1.209-.347,11.9,11.9,0,0,1-1.182-.484,8.544,8.544,0,0,1-1.075-.6,6.6,6.6,0,0,1-.887-.7,5.48,5.48,0,0,1-.7-.8,5.052,5.052,0,0,1-.511-.9L0,25.751a9.091,9.091,0,0,0,.7,1.31,8.519,8.519,0,0,0,.891,1.149,8.7,8.7,0,0,0,1.081.988,9.658,9.658,0,0,0,1.271.828A14.662,14.662,0,0,0,6.8,31.217a15.146,15.146,0,0,0,1.523.368q.778.146,1.586.216v3.712l4.039.016V31.659a13.828,13.828,0,0,0,1.838-.246,11.96,11.96,0,0,0,1.7-.479,10.985,10.985,0,0,0,1.564-.712,10.838,10.838,0,0,0,1.427-.946,7.347,7.347,0,0,0,1.188-1.16,6.564,6.564,0,0,0,.849-1.355,6.967,6.967,0,0,0,.51-1.55,8.627,8.627,0,0,0,.17-1.745,8.505,8.505,0,0,0-.043-.867,7.338,7.338,0,0,0-.129-.816,6.536,6.536,0,0,0-.215-.765,6.065,6.065,0,0,0-.3-.714q-.172-.344-.364-.656t-.4-.59a6.576,6.576,0,0,0-.44-.525,5.971,5.971,0,0,0-.478-.459,6.44,6.44,0,0,0-.537-.412q-.288-.2-.615-.383t-.694-.354q-.367-.169-.773-.324t-.8-.289q-.39-.134-.765-.248t-.734-.207q-.359-.093-.7-.165t-.72-.144q-.377-.071-.787-.141t-.853-.139q-.443-.069-.919-.136-.419-.058-.792-.113t-.7-.108q-.326-.053-.606-.1t-.513-.1q-.233-.048-.476-.111t-.495-.14q-.252-.077-.513-.169t-.532-.2a5.2,5.2,0,0,1-.5-.228,3.9,3.9,0,0,1-.431-.259,3,3,0,0,1-.357-.291,2.428,2.428,0,0,1-.284-.322,2.368,2.368,0,0,1-.216-.358,2.537,2.537,0,0,1-.154-.4,2.946,2.946,0,0,1-.093-.441,3.629,3.629,0,0,1-.031-.482,3.736,3.736,0,0,1,.106-.98A3.1,3.1,0,0,1,5.7,9.476a3.322,3.322,0,0,1,.6-.73,4.461,4.461,0,0,1,.854-.606,7.989,7.989,0,0,1,1.023-.476A8.733,8.733,0,0,1,9.29,7.324a10.022,10.022,0,0,1,1.2-.206,11.926,11.926,0,0,1,1.289-.071q.533.008,1.049.065t1.014.162a9.976,9.976,0,0,1,.979.259,9.849,9.849,0,0,1,.943.356,7.494,7.494,0,0,1,.86.441,5.893,5.893,0,0,1,.729.514,4.886,4.886,0,0,1,.6.587,4.388,4.388,0,0,1,.467.66Z" transform="translate(36.178 29.686)" fill="#da8102"/>
  <path id="Path_122" data-name="Path 122" d="M21.83,8.22a10.322,10.322,0,0,0-.672-1.064,8.551,8.551,0,0,0-.756-.909,7.431,7.431,0,0,0-.839-.753,6.887,6.887,0,0,0-.922-.6,10.246,10.246,0,0,0-1.015-.476q-.533-.216-1.117-.389t-1.219-.3q-.635-.129-1.32-.213V.036L9.9.052V3.53q-.428.05-.844.12t-.823.161q-.406.091-.8.2t-.78.243q-.384.131-.754.288t-.726.339q-.356.182-.7.389t-.668.44a6.745,6.745,0,0,0-.62.5,6.557,6.557,0,0,0-.551.562,6.655,6.655,0,0,0-.482.627,7.042,7.042,0,0,0-.413.692,6.362,6.362,0,0,0-.331.747,6.6,6.6,0,0,0-.237.792,7.16,7.16,0,0,0-.142.838,8.079,8.079,0,0,0-.047.884q0,.366.025.714t.075.675q.05.328.124.636t.174.6a5.573,5.573,0,0,0,.224.554,4.967,4.967,0,0,0,.273.506,4.594,4.594,0,0,0,.323.458,4.437,4.437,0,0,0,.373.41q.2.193.4.371t.412.342q.208.164.422.313t.431.285q.218.135.466.259t.525.238q.277.113.585.216t.644.194q.337.092.655.173t.617.151q.3.07.579.129t.541.108q.261.048.557.1t.626.1q.33.048.7.1t.764.1q.4.058.77.119t.714.123q.343.063.657.128t.6.133q.286.068.569.149t.564.176q.281.094.56.2t.555.229a5.245,5.245,0,0,1,.52.262,4.276,4.276,0,0,1,.453.3,3.617,3.617,0,0,1,.386.339,3.228,3.228,0,0,1,.32.378,3.015,3.015,0,0,1,.25.413,2.942,2.942,0,0,1,.179.444,3.1,3.1,0,0,1,.107.476,3.515,3.515,0,0,1,.036.507,4.591,4.591,0,0,1-.129,1.115,3.465,3.465,0,0,1-.386.946,3.332,3.332,0,0,1-.644.776,4.156,4.156,0,0,1-.9.605,8.424,8.424,0,0,1-1.086.455,9.907,9.907,0,0,1-1.2.324,12.082,12.082,0,0,1-1.314.193q-.685.064-1.427.062a11.493,11.493,0,0,1-1.261-.072,11.2,11.2,0,0,1-1.234-.209,11.326,11.326,0,0,1-1.207-.347,11.879,11.879,0,0,1-1.181-.484,8.531,8.531,0,0,1-1.073-.6,6.6,6.6,0,0,1-.886-.7,5.476,5.476,0,0,1-.7-.8,5.05,5.05,0,0,1-.511-.9L0,25.734a9.087,9.087,0,0,0,.7,1.309,8.513,8.513,0,0,0,.89,1.148,8.694,8.694,0,0,0,1.08.988,9.645,9.645,0,0,0,1.27.827A14.637,14.637,0,0,0,6.795,31.2a15.12,15.12,0,0,0,1.521.368q.776.146,1.584.216v3.71l4.033.016V31.638a13.8,13.8,0,0,0,1.836-.246,11.937,11.937,0,0,0,1.7-.479A10.967,10.967,0,0,0,19.03,30.2a10.824,10.824,0,0,0,1.425-.945A7.34,7.34,0,0,0,21.642,28.1a6.56,6.56,0,0,0,.848-1.354A6.966,6.966,0,0,0,23,25.193a8.627,8.627,0,0,0,.17-1.744,8.5,8.5,0,0,0-.043-.866A7.338,7.338,0,0,0,23,21.768,6.536,6.536,0,0,0,22.781,21a6.065,6.065,0,0,0-.3-.714q-.172-.344-.363-.655t-.4-.59a6.572,6.572,0,0,0-.439-.524,5.965,5.965,0,0,0-.478-.459,6.432,6.432,0,0,0-.536-.412q-.288-.2-.615-.382t-.693-.353q-.366-.169-.772-.324t-.8-.289q-.39-.134-.764-.248t-.733-.207q-.359-.093-.7-.165t-.719-.144q-.376-.071-.786-.141t-.852-.139q-.442-.069-.918-.136-.419-.058-.791-.113t-.7-.108q-.326-.053-.6-.1t-.512-.1q-.233-.048-.475-.111t-.494-.14q-.252-.077-.513-.169t-.532-.2a5.2,5.2,0,0,1-.5-.228,3.9,3.9,0,0,1-.431-.259,3,3,0,0,1-.357-.29,2.425,2.425,0,0,1-.283-.322,2.366,2.366,0,0,1-.216-.358,2.536,2.536,0,0,1-.154-.4,2.946,2.946,0,0,1-.092-.44,3.629,3.629,0,0,1-.031-.481,3.736,3.736,0,0,1,.106-.98,3.1,3.1,0,0,1,.355-.855,3.32,3.32,0,0,1,.6-.73,4.455,4.455,0,0,1,.853-.605,7.976,7.976,0,0,1,1.022-.475,8.717,8.717,0,0,1,1.11-.341,10,10,0,0,1,1.2-.206,11.9,11.9,0,0,1,1.287-.071q.533.008,1.048.065t1.012.162a9.957,9.957,0,0,1,.977.259,9.831,9.831,0,0,1,.942.356,7.482,7.482,0,0,1,.859.441,5.885,5.885,0,0,1,.728.514,4.881,4.881,0,0,1,.6.587,4.385,4.385,0,0,1,.466.66Z" transform="translate(33.177 29.703)" fill="#fdca05"/>
</svg>
