<svg id="Group_10" data-name="Group 10" xmlns="http://www.w3.org/2000/svg" width="38.586" height="99.082" viewBox="0 0 38.586 99.082">
  <g id="Group_2" data-name="Group 2" transform="translate(5.955 0.091)">
    <path id="Ellipse_1" data-name="Ellipse 1" d="M15.42,2.712c2.263-.357,4.451.625,6.47,2.73a28.656,28.656,0,0,1,5.5,9.613,77.713,77.713,0,0,1,3.82,15.207A124.639,124.639,0,0,1,32.63,49.4a124.647,124.647,0,0,1-1.424,19.143,77.729,77.729,0,0,1-3.82,15.208,28.667,28.667,0,0,1-5.5,9.614c-2.018,2.106-4.207,3.088-6.47,2.732-2.229-.351-4.322-1.967-6.2-4.568a37.819,37.819,0,0,1-4.873-10.34A86.277,86.277,0,0,1,1.154,66.71,126.417,126.417,0,0,1,0,49.409a126.424,126.424,0,0,1,1.154-17.3A86.293,86.293,0,0,1,4.348,17.623,37.832,37.832,0,0,1,9.221,7.282C11.1,4.681,13.191,3.064,15.42,2.712Z" transform="translate(0 0.002)" fill="#da8102"/>
    <path id="Ellipse_2" data-name="Ellipse 2" d="M11.93,1.567c1.726-.208,3.39.6,4.919,2.26a22.7,22.7,0,0,1,4.139,7.43,60.309,60.309,0,0,1,2.856,11.568A95.64,95.64,0,0,1,24.9,37.289a95.646,95.646,0,0,1-1.061,14.465,60.321,60.321,0,0,1-2.856,11.569,22.709,22.709,0,0,1-4.139,7.431c-1.529,1.659-3.192,2.469-4.919,2.262-1.706-.206-3.314-1.388-4.761-3.336a28.074,28.074,0,0,1-3.776-7.854A65.329,65.329,0,0,1,.9,50.681,96.681,96.681,0,0,1,0,37.293,96.686,96.686,0,0,1,.9,23.9,65.342,65.342,0,0,1,3.393,12.759,28.084,28.084,0,0,1,7.169,4.9C8.616,2.955,10.223,1.773,11.93,1.567Z" transform="translate(3.146 12.117)" fill="#da8102"/>
    <path id="Ellipse_3" data-name="Ellipse 3" d="M11.491,1.421c1.66-.189,3.258.6,4.727,2.2a21.927,21.927,0,0,1,3.973,7.148,57.982,57.982,0,0,1,2.739,11.1,91.713,91.713,0,0,1,1.017,13.866A91.651,91.651,0,0,1,22.93,49.6a57.857,57.857,0,0,1-2.739,11.094,21.842,21.842,0,0,1-3.973,7.136c-1.469,1.6-3.067,2.379-4.727,2.184C9.85,69.82,8.3,68.689,6.91,66.822a26.876,26.876,0,0,1-3.637-7.539,62.6,62.6,0,0,1-2.4-10.711A92.668,92.668,0,0,1,0,35.7a92.61,92.61,0,0,1,.871-12.87,62.475,62.475,0,0,1,2.4-10.7A26.78,26.78,0,0,1,6.91,4.6C8.3,2.734,9.85,1.608,11.491,1.421Z" transform="translate(4.103 14.189)" fill="#da8102"/>
  </g>
  <g id="Group_1" data-name="Group 1">
    <path id="Ellipse_1-2" data-name="Ellipse 1" d="M15.133,2.725c2.221-.358,4.369.625,6.35,2.736a28.875,28.875,0,0,1,5.4,9.637,79.28,79.28,0,0,1,3.75,15.248,127.6,127.6,0,0,1,1.4,19.2,127.6,127.6,0,0,1-1.4,19.2,79.28,79.28,0,0,1-3.75,15.248,28.875,28.875,0,0,1-5.4,9.637c-1.981,2.11-4.129,3.094-6.35,2.736-2.188-.353-4.241-1.975-6.084-4.583A38.3,38.3,0,0,1,4.266,81.407,88.117,88.117,0,0,1,1.132,66.886,129.436,129.436,0,0,1,0,49.542,129.436,129.436,0,0,1,1.132,32.2,88.116,88.116,0,0,1,4.266,17.676,38.3,38.3,0,0,1,9.049,7.308C10.891,4.7,12.945,3.078,15.133,2.725Z" transform="translate(0 0)" fill="#fecb03"/>
    <path id="Ellipse_2-2" data-name="Ellipse 2" d="M11.735,1.577c1.7-.21,3.335.6,4.839,2.267A22.907,22.907,0,0,1,20.647,11.3a61.545,61.545,0,0,1,2.81,11.613A97.915,97.915,0,0,1,24.5,37.436a97.916,97.916,0,0,1-1.044,14.522,61.545,61.545,0,0,1-2.81,11.613,22.908,22.908,0,0,1-4.073,7.457c-1.5,1.664-3.141,2.477-4.839,2.267-1.679-.207-3.26-1.395-4.683-3.351A28.44,28.44,0,0,1,3.338,62.06,66.729,66.729,0,0,1,.888,50.873,98.991,98.991,0,0,1,0,37.436,98.991,98.991,0,0,1,.888,24a66.729,66.729,0,0,1,2.45-11.187A28.44,28.44,0,0,1,7.051,4.928C8.475,2.972,10.056,1.784,11.735,1.577Z" transform="translate(3.399 12.105)" fill="#da8102"/>
    <path id="Ellipse_3-2" data-name="Ellipse 3" d="M11.028,1.353c1.591-.18,3.123.594,4.531,2.161A21.6,21.6,0,0,1,19.365,10.5,57.616,57.616,0,0,1,21.987,21.35a91.326,91.326,0,0,1,.973,13.538,91.258,91.258,0,0,1-.973,13.535A57.48,57.48,0,0,1,19.365,59.26a21.506,21.506,0,0,1-3.806,6.978c-1.408,1.562-2.94,2.331-4.531,2.145C9.454,68.2,7.97,67.1,6.634,65.276a26.423,26.423,0,0,1-3.491-7.364A62.128,62.128,0,0,1,.836,47.44,92.26,92.26,0,0,1,0,34.849,92.2,92.2,0,0,1,.836,22.262,61.993,61.993,0,0,1,3.143,11.8,26.318,26.318,0,0,1,6.634,4.445C7.97,2.627,9.454,1.531,11.028,1.353Z" transform="translate(4.94 15.173)" fill="#f0aa00"/>
  </g>
  <path id="Path_123" data-name="Path 123" d="M7.567,8.318q-.112-.573-.238-1.067t-.267-.908a7.6,7.6,0,0,0-.3-.749A4.465,4.465,0,0,0,6.442,5a4.156,4.156,0,0,0-.357-.466,3.3,3.3,0,0,0-.392-.375,2.808,2.808,0,0,0-.426-.285,2.622,2.622,0,0,0-.461-.2V.2L3.392.283V3.752a2.558,2.558,0,0,0-.292.131,2.856,2.856,0,0,0-.284.171,3.3,3.3,0,0,0-.276.211q-.136.116-.268.251a3.85,3.85,0,0,0-.259.3q-.127.16-.249.345t-.239.395Q1.409,5.763,1.3,6t-.212.5q-.1.266-.188.563t-.164.626q-.076.328-.141.689t-.113.742Q.431,9.5.4,9.9t-.048.83q-.016.426-.016.874,0,.362.008.705t.025.667q.017.324.042.629T.47,14.2q.034.286.076.548t.093.5q.051.238.11.453t.127.4q.068.191.137.367t.141.339q.071.162.144.31t.148.282q.075.134.159.257t.18.236a2.91,2.91,0,0,0,.422.408q.116.091.225.172t.212.151q.1.07.2.129t.187.108q.09.048.192.1t.216.1q.114.049.241.1t.265.1q.139.059.268.12t.248.125q.119.064.229.129t.209.134q.1.068.2.15t.2.177q.1.1.2.2t.194.231a2.5,2.5,0,0,1,.182.264,3.026,3.026,0,0,1,.159.3q.074.161.136.342t.112.381q.05.2.088.416t.063.448q.025.232.038.479t.013.51q0,.6-.045,1.121a8.031,8.031,0,0,1-.136.948,4.811,4.811,0,0,1-.226.774,2.875,2.875,0,0,1-.316.6,2.963,2.963,0,0,1-.38.447,2.117,2.117,0,0,1-.419.313,1.77,1.77,0,0,1-.458.18,1.847,1.847,0,0,1-.5.048,1.461,1.461,0,0,1-.437-.084,1.841,1.841,0,0,1-.427-.221,2.742,2.742,0,0,1-.417-.357,4.336,4.336,0,0,1-.406-.492,4.808,4.808,0,0,1-.369-.607,6.021,6.021,0,0,1-.3-.7,7.773,7.773,0,0,1-.239-.8q-.1-.422-.175-.892L0,25.822q.1.689.238,1.3t.3,1.144a9.646,9.646,0,0,0,.368.989,6.793,6.793,0,0,0,.434.834,6.723,6.723,0,0,0,.478.683,4.548,4.548,0,0,0,.5.535,3.175,3.175,0,0,0,.524.386,2.431,2.431,0,0,0,.547.237v3.7l1.4.085V31.841a1.95,1.95,0,0,0,.641-.222,2.624,2.624,0,0,0,.6-.458,4.272,4.272,0,0,0,.549-.7,7.278,7.278,0,0,0,.5-.935A8.369,8.369,0,0,0,7.5,28.373a12.075,12.075,0,0,0,.3-1.359q.12-.73.181-1.561t.06-1.761q0-.45-.015-.875t-.046-.824q-.031-.4-.076-.773T7.8,20.5q-.061-.348-.129-.662t-.142-.6q-.074-.281-.155-.529T7.2,18.249q-.088-.215-.189-.415T6.8,17.449q-.115-.185-.244-.355t-.271-.325q-.142-.155-.279-.289t-.268-.248q-.131-.113-.257-.206t-.245-.164q-.12-.072-.251-.142t-.274-.139q-.143-.069-.3-.137t-.319-.134q-.145-.057-.274-.111t-.242-.106q-.113-.052-.209-.1t-.177-.1a1.9,1.9,0,0,1-.164-.109q-.084-.062-.17-.138t-.177-.166q-.09-.09-.183-.195a2.051,2.051,0,0,1-.173-.225,2.322,2.322,0,0,1-.148-.256,2.74,2.74,0,0,1-.123-.287,3.327,3.327,0,0,1-.1-.319q-.042-.167-.074-.355t-.053-.4q-.021-.208-.032-.437t-.011-.478q0-.517.036-.974a7.268,7.268,0,0,1,.122-.852,4.989,4.989,0,0,1,.207-.73,3.521,3.521,0,0,1,.293-.609,3.465,3.465,0,0,1,.352-.483,2.268,2.268,0,0,1,.383-.35,1.66,1.66,0,0,1,.415-.217,1.511,1.511,0,0,1,.446-.084A1.391,1.391,0,0,1,4.4,7.29a1.569,1.569,0,0,1,.353.152,2.081,2.081,0,0,1,.341.249,3.014,3.014,0,0,1,.329.347,3.489,3.489,0,0,1,.3.434,4.367,4.367,0,0,1,.255.509,5.639,5.639,0,0,1,.21.585q.093.311.164.66Z" transform="translate(11.849 31.586)" fill="#da8102"/>
  <path id="Path_122" data-name="Path 122" d="M7.511,8.287Q7.4,7.716,7.275,7.224t-.265-.9a7.588,7.588,0,0,0-.294-.746,4.455,4.455,0,0,0-.322-.588,4.14,4.14,0,0,0-.354-.464,3.286,3.286,0,0,0-.389-.374,2.788,2.788,0,0,0-.423-.284,2.6,2.6,0,0,0-.457-.2V.2L3.367.28V3.736a2.534,2.534,0,0,0-.29.13,2.832,2.832,0,0,0-.282.171,3.277,3.277,0,0,0-.274.211q-.135.115-.266.25A3.83,3.83,0,0,0,2,4.793q-.126.16-.247.344t-.237.393q-.116.209-.227.442t-.21.5q-.1.265-.187.561t-.163.623q-.076.327-.14.686T.476,9.08q-.048.38-.08.783t-.048.827q-.016.424-.016.871,0,.361.008.7t.025.665q.017.323.042.626t.059.588q.034.285.076.546t.092.5q.05.237.109.451t.126.4q.067.19.136.366t.14.337q.071.162.143.309t.146.281q.074.133.158.256t.179.235a2.894,2.894,0,0,0,.419.406q.115.091.224.171t.211.15q.1.07.2.129t.185.107q.09.048.191.1t.215.1q.113.048.239.1t.263.1q.138.058.266.119t.246.124q.118.063.227.129t.208.134q.1.068.2.15t.2.176q.1.095.194.2t.193.23a2.49,2.49,0,0,1,.181.263,3.02,3.02,0,0,1,.158.3q.073.161.135.341t.111.379q.05.2.087.415t.062.446q.025.231.037.477t.012.508q0,.6-.045,1.117a8.029,8.029,0,0,1-.135.945,4.806,4.806,0,0,1-.224.772,2.868,2.868,0,0,1-.314.6,2.949,2.949,0,0,1-.378.445,2.1,2.1,0,0,1-.416.312,1.753,1.753,0,0,1-.454.18,1.827,1.827,0,0,1-.492.048,1.445,1.445,0,0,1-.434-.084,1.825,1.825,0,0,1-.424-.22,2.725,2.725,0,0,1-.413-.355,4.317,4.317,0,0,1-.4-.49,4.794,4.794,0,0,1-.366-.6,6.011,6.011,0,0,1-.3-.7,7.766,7.766,0,0,1-.237-.794q-.1-.421-.173-.889L0,25.725q.1.686.236,1.294t.3,1.14a9.632,9.632,0,0,0,.365.985,6.777,6.777,0,0,0,.43.831,6.7,6.7,0,0,0,.475.68,4.524,4.524,0,0,0,.5.533,3.152,3.152,0,0,0,.52.385,2.408,2.408,0,0,0,.543.236V35.5l1.39.085V31.721a1.931,1.931,0,0,0,.636-.221,2.606,2.606,0,0,0,.591-.457,4.254,4.254,0,0,0,.545-.694,7.26,7.26,0,0,0,.5-.931,8.359,8.359,0,0,0,.416-1.152,12.069,12.069,0,0,0,.3-1.354q.119-.727.179-1.555t.06-1.754q0-.449-.015-.872t-.045-.821q-.03-.4-.076-.77t-.106-.719q-.061-.346-.128-.66t-.141-.594q-.074-.28-.154-.527t-.168-.461q-.087-.214-.188-.413t-.215-.384q-.114-.184-.242-.354t-.269-.324q-.141-.155-.277-.288t-.266-.247q-.13-.113-.255-.205T5.193,15.8q-.119-.072-.249-.142t-.272-.139q-.142-.069-.294-.136t-.317-.133q-.144-.056-.272-.111t-.24-.106q-.112-.052-.208-.1t-.176-.1A1.89,1.89,0,0,1,3,14.728q-.083-.061-.169-.137t-.175-.166q-.089-.09-.182-.194a2.044,2.044,0,0,1-.172-.224,2.316,2.316,0,0,1-.147-.255,2.735,2.735,0,0,1-.122-.286q-.055-.151-.1-.317T1.865,12.8q-.031-.187-.052-.394t-.031-.435q-.01-.228-.01-.476,0-.515.036-.97a7.265,7.265,0,0,1,.121-.848,4.984,4.984,0,0,1,.206-.728,3.513,3.513,0,0,1,.291-.607,3.45,3.45,0,0,1,.349-.481,2.254,2.254,0,0,1,.38-.349,1.645,1.645,0,0,1,.412-.216,1.494,1.494,0,0,1,.443-.084,1.376,1.376,0,0,1,.361.054,1.555,1.555,0,0,1,.35.151,2.067,2.067,0,0,1,.338.249,3,3,0,0,1,.327.346,3.478,3.478,0,0,1,.3.433,4.358,4.358,0,0,1,.253.508,5.633,5.633,0,0,1,.208.582q.093.31.163.657Z" transform="translate(10.801 31.693)" fill="#fdca05"/>
</svg>
