<svg id="Group_9" data-name="Group 9" xmlns="http://www.w3.org/2000/svg" width="53.377" height="98.688" viewBox="0 0 53.377 98.688">
  <g id="Group_2" data-name="Group 2" transform="translate(6.358 0.597)">
    <path id="Ellipse_1" data-name="Ellipse 1" d="M22.329,2.447a13.367,13.367,0,0,1,9.31,2.794,28.649,28.649,0,0,1,7.882,9.585A58.948,58.948,0,0,1,44.985,29.9a86.277,86.277,0,0,1,2.034,18.928,86.268,86.268,0,0,1-2.034,18.927,58.93,58.93,0,0,1-5.463,15.072,28.636,28.636,0,0,1-7.882,9.582,13.363,13.363,0,0,1-9.31,2.791,15.343,15.343,0,0,1-8.953-4.465,34.035,34.035,0,0,1-7.06-10.245A63.608,63.608,0,0,1,1.677,66.075a89.59,89.59,0,0,1,0-34.508A63.59,63.59,0,0,1,6.316,17.152a34.019,34.019,0,0,1,7.06-10.243A15.337,15.337,0,0,1,22.329,2.447Z" transform="translate(0)" fill="#da8102"/>
    <path id="Ellipse_2" data-name="Ellipse 2" d="M17.261,1.415a10.333,10.333,0,0,1,7.083,2.293,22.369,22.369,0,0,1,5.945,7.4,45.563,45.563,0,0,1,4.093,11.474A66.173,66.173,0,0,1,35.9,36.9a66.166,66.166,0,0,1-1.519,14.319,45.549,45.549,0,0,1-4.093,11.472,22.358,22.358,0,0,1-5.945,7.4,10.331,10.331,0,0,1-7.083,2.291,11.491,11.491,0,0,1-6.874-3.271,25.528,25.528,0,0,1-5.465-7.787A48.3,48.3,0,0,1,1.31,50.238a68.577,68.577,0,0,1,0-26.68A48.283,48.283,0,0,1,4.922,12.47a25.516,25.516,0,0,1,5.465-7.786A11.486,11.486,0,0,1,17.261,1.415Z" transform="translate(4.57 11.924)" fill="#da8102"/>
    <path id="Ellipse_3" data-name="Ellipse 3" d="M16.619,1.282A9.971,9.971,0,0,1,23.424,3.51a21.568,21.568,0,0,1,5.706,7.119,43.787,43.787,0,0,1,3.925,11.01,63.452,63.452,0,0,1,1.455,13.726,63.4,63.4,0,0,1-1.455,13.723,43.686,43.686,0,0,1-3.925,11,21.492,21.492,0,0,1-5.706,7.1A9.95,9.95,0,0,1,16.619,69.4a11.039,11.039,0,0,1-6.613-3.129A24.476,24.476,0,0,1,4.744,58.8,46.3,46.3,0,0,1,1.263,48.147a65.716,65.716,0,0,1,0-25.645A46.2,46.2,0,0,1,4.744,11.856a24.393,24.393,0,0,1,5.263-7.461A11.01,11.01,0,0,1,16.619,1.282Z" transform="translate(5.959 13.976)" fill="#da8102"/>
  </g>
  <g id="Group_1" data-name="Group 1">
    <path id="Ellipse_1-2" data-name="Ellipse 1" d="M22.231,2.5a13.177,13.177,0,0,1,9.275,2.812,28.815,28.815,0,0,1,7.856,9.676,60.041,60.041,0,0,1,5.446,15.227,88.3,88.3,0,0,1,2.028,19.127,88.3,88.3,0,0,1-2.028,19.127A60.041,60.041,0,0,1,39.361,83.7a28.815,28.815,0,0,1-7.856,9.676,13.177,13.177,0,0,1-9.275,2.812,15.213,15.213,0,0,1-8.916-4.516A34.41,34.41,0,0,1,6.286,81.32,64.9,64.9,0,0,1,1.669,66.763a91.735,91.735,0,0,1,0-34.838A64.9,64.9,0,0,1,6.286,17.368a34.41,34.41,0,0,1,7.029-10.35A15.213,15.213,0,0,1,22.231,2.5Z" transform="translate(0 0.001)" fill="#fecb03"/>
    <path id="Ellipse_2-2" data-name="Ellipse 2" d="M17.222,1.45a10.221,10.221,0,0,1,7.071,2.312,22.54,22.54,0,0,1,5.937,7.48,46.435,46.435,0,0,1,4.089,11.6,67.731,67.731,0,0,1,1.517,14.484,67.731,67.731,0,0,1-1.517,14.484,46.435,46.435,0,0,1-4.089,11.6,22.541,22.541,0,0,1-5.937,7.48,10.221,10.221,0,0,1-7.071,2.312,11.415,11.415,0,0,1-6.86-3.312,25.825,25.825,0,0,1-5.452-7.875,49.286,49.286,0,0,1-3.6-11.209,70.219,70.219,0,0,1,0-26.966,49.286,49.286,0,0,1,3.6-11.209,25.825,25.825,0,0,1,5.452-7.875A11.415,11.415,0,0,1,17.222,1.45Z" transform="translate(5.009 12.017)" fill="#da8102"/>
    <path id="Ellipse_3-2" data-name="Ellipse 3" d="M16.175,1.244a9.629,9.629,0,0,1,6.618,2.2,21.2,21.2,0,0,1,5.547,7.009,43.447,43.447,0,0,1,3.814,10.834,63.169,63.169,0,0,1,1.414,13.5,63.126,63.126,0,0,1-1.414,13.5A43.359,43.359,0,0,1,28.34,59.114a21.134,21.134,0,0,1-5.547,7A9.611,9.611,0,0,1,16.175,68.3a10.673,10.673,0,0,1-6.434-3.072A24.062,24.062,0,0,1,4.619,57.87,45.926,45.926,0,0,1,1.23,47.381a65.435,65.435,0,0,1,0-25.255A45.839,45.839,0,0,1,4.619,11.644,23.989,23.989,0,0,1,9.741,4.3,10.648,10.648,0,0,1,16.175,1.244Z" transform="translate(7.276 15.075)" fill="#f0aa00"/>
  </g>
  <path id="Path_123" data-name="Path 123" d="M11.067,8.311q-.163-.573-.347-1.067a9.6,9.6,0,0,0-.39-.908A6.464,6.464,0,0,0,9.9,5.587,4.361,4.361,0,0,0,9.424,5,4.829,4.829,0,0,0,8.9,4.529a4.553,4.553,0,0,0-1.2-.664,4.937,4.937,0,0,0-.674-.2V.181L4.966.261V3.732q-.216.055-.427.13t-.415.17q-.2.1-.4.211t-.392.251a4.8,4.8,0,0,0-.379.3q-.186.16-.364.345t-.35.394q-.171.209-.335.444a5.509,5.509,0,0,0-.31.5q-.146.266-.275.563t-.241.626q-.112.329-.206.689T.7,9.092q-.071.382-.118.787t-.071.831q-.024.426-.024.875,0,.363.012.706t.037.668q.025.324.062.63t.087.591q.05.286.112.548t.136.5q.074.239.161.453t.186.406q.1.191.2.368t.206.339q.1.162.211.311t.216.282a3.31,3.31,0,0,0,.233.257,3.486,3.486,0,0,0,.263.236q.139.113.294.215t.324.193q.169.091.33.172t.311.151q.151.07.292.129t.273.108q.132.048.281.1t.317.1q.167.049.352.1t.388.1q.2.059.391.12t.363.124q.174.063.334.129t.306.134q.146.068.29.15t.288.177q.144.1.286.2t.284.231a2.729,2.729,0,0,1,.266.264,2.876,2.876,0,0,1,.232.3,3.187,3.187,0,0,1,.2.342,3.676,3.676,0,0,1,.164.381,4.275,4.275,0,0,1,.129.416q.055.216.092.447t.055.479q.018.247.018.51a8.859,8.859,0,0,1-.066,1.121,5.7,5.7,0,0,1-.2.948,3.756,3.756,0,0,1-.33.775,2.751,2.751,0,0,1-.462.6,3.653,3.653,0,0,1-.556.447,3.3,3.3,0,0,1-.613.314,3.381,3.381,0,0,1-.669.182,3.91,3.91,0,0,1-.725.049A3.024,3.024,0,0,1,5.214,28a3.284,3.284,0,0,1-.624-.22,4,4,0,0,1-.61-.356,5.237,5.237,0,0,1-.595-.491,4.906,4.906,0,0,1-.54-.607,5.272,5.272,0,0,1-.445-.7,6.082,6.082,0,0,1-.35-.8,7.4,7.4,0,0,1-.256-.893L0,25.82q.151.689.349,1.3a10.393,10.393,0,0,0,.443,1.145,8.007,8.007,0,0,0,.539.989,6.427,6.427,0,0,0,.635.833,7.4,7.4,0,0,0,.7.682A5.888,5.888,0,0,0,3.4,31.3a4.962,4.962,0,0,0,.767.384,4.545,4.545,0,0,0,.8.235v3.7l2.048.079V31.829a3.809,3.809,0,0,0,.937-.224,4.036,4.036,0,0,0,.87-.46,5.051,5.051,0,0,0,.8-.7,7.026,7.026,0,0,0,.734-.936,6.924,6.924,0,0,0,.612-1.157A8.949,8.949,0,0,0,11.408,27a12.137,12.137,0,0,0,.263-1.56,16.737,16.737,0,0,0,.088-1.76q0-.45-.022-.875t-.067-.824q-.045-.4-.111-.772t-.156-.721q-.089-.347-.188-.662t-.207-.6q-.109-.281-.227-.529t-.246-.463a4.962,4.962,0,0,0-.593-.8q-.168-.185-.357-.355t-.4-.325q-.208-.155-.408-.289t-.391-.248q-.192-.113-.375-.206t-.358-.165q-.175-.072-.367-.142t-.4-.14q-.208-.069-.434-.137T5.988,15.3q-.212-.057-.4-.111t-.354-.106q-.165-.052-.306-.1t-.259-.1q-.118-.047-.24-.109t-.249-.138q-.127-.076-.259-.166t-.268-.2a2.392,2.392,0,0,1-.254-.225,2.319,2.319,0,0,1-.217-.256A2.393,2.393,0,0,1,3,13.5a2.621,2.621,0,0,1-.142-.319,3.313,3.313,0,0,1-.108-.355q-.046-.188-.077-.4t-.046-.437q-.015-.229-.015-.478a7.247,7.247,0,0,1,.053-.974,5.145,5.145,0,0,1,.178-.852,3.858,3.858,0,0,1,.3-.73,3.221,3.221,0,0,1,.429-.609,3.9,3.9,0,0,1,.515-.482,3.193,3.193,0,0,1,.561-.349A2.947,2.947,0,0,1,5.258,7.3a3.131,3.131,0,0,1,.653-.083,2.912,2.912,0,0,1,1.048.208,3.276,3.276,0,0,1,.5.25,3.943,3.943,0,0,1,.481.348,3.833,3.833,0,0,1,.439.435,4.079,4.079,0,0,1,.373.51,4.644,4.644,0,0,1,.306.585,5.566,5.566,0,0,1,.239.66Z" transform="translate(17.422 31.402)" fill="#da8102"/>
  <path id="Path_122" data-name="Path 122" d="M10.995,8.282q-.162-.571-.345-1.063a9.59,9.59,0,0,0-.387-.9,6.448,6.448,0,0,0-.429-.747,4.345,4.345,0,0,0-.471-.589,4.8,4.8,0,0,0-.517-.465,4.519,4.519,0,0,0-1.187-.662,4.892,4.892,0,0,0-.669-.2V.18L4.934.259V3.718q-.215.055-.424.129t-.413.17q-.2.095-.4.21t-.39.25a4.765,4.765,0,0,0-.377.294q-.185.16-.362.344t-.347.393q-.17.209-.333.442a5.494,5.494,0,0,0-.308.5q-.145.265-.273.561t-.239.624q-.111.328-.2.687T.7,9.06q-.07.381-.117.784t-.07.828q-.023.425-.023.872,0,.362.012.7t.037.666q.025.323.062.628t.086.589q.049.285.111.547t.136.5q.074.238.16.452t.185.4q.1.19.2.366t.2.338q.1.162.21.31t.215.281a3.3,3.3,0,0,0,.232.256,3.468,3.468,0,0,0,.262.235q.138.112.292.214t.322.193q.168.091.327.171t.309.15q.15.07.29.129t.272.107q.131.048.28.1t.315.1q.166.048.35.1t.385.1q.2.058.389.119t.36.124q.173.063.332.129t.3.134q.145.068.288.15T7.7,20q.143.095.284.2t.282.23a2.715,2.715,0,0,1,.264.263,2.865,2.865,0,0,1,.231.3,3.179,3.179,0,0,1,.2.341,3.671,3.671,0,0,1,.163.379,4.271,4.271,0,0,1,.128.415q.055.215.091.446t.055.477q.018.246.018.508a8.859,8.859,0,0,1-.066,1.117,5.694,5.694,0,0,1-.2.945,3.751,3.751,0,0,1-.328.772,2.741,2.741,0,0,1-.459.6,3.631,3.631,0,0,1-.552.446,3.273,3.273,0,0,1-.609.313,3.351,3.351,0,0,1-.665.181,3.872,3.872,0,0,1-.721.049,3,3,0,0,1-.635-.082,3.255,3.255,0,0,1-.62-.219,3.965,3.965,0,0,1-.606-.355,5.206,5.206,0,0,1-.591-.49,4.885,4.885,0,0,1-.536-.6,5.257,5.257,0,0,1-.442-.7,6.072,6.072,0,0,1-.348-.795,7.39,7.39,0,0,1-.254-.89L0,25.734q.15.687.346,1.3a10.379,10.379,0,0,0,.441,1.141,7.988,7.988,0,0,0,.535.986,6.4,6.4,0,0,0,.631.831,7.361,7.361,0,0,0,.7.679,5.849,5.849,0,0,0,.728.532,4.923,4.923,0,0,0,.762.383,4.5,4.5,0,0,0,.8.234v3.69l2.035.078V31.723A3.774,3.774,0,0,0,7.9,31.5a4,4,0,0,0,.864-.459,5.023,5.023,0,0,0,.8-.7,7,7,0,0,0,.729-.933,6.909,6.909,0,0,0,.608-1.153,8.941,8.941,0,0,0,.435-1.354,12.134,12.134,0,0,0,.262-1.555,16.737,16.737,0,0,0,.087-1.754q0-.449-.022-.872t-.066-.821q-.044-.4-.111-.77t-.155-.718q-.088-.346-.187-.66t-.206-.593q-.108-.28-.225-.527t-.245-.461a4.945,4.945,0,0,0-.589-.8q-.167-.184-.354-.354T9.129,16.7q-.207-.155-.405-.288t-.389-.247q-.19-.113-.372-.205t-.356-.164q-.174-.072-.365-.142t-.4-.139q-.207-.069-.431-.136t-.464-.134q-.211-.057-.4-.111T5.2,15.027q-.164-.052-.3-.1t-.257-.1q-.117-.047-.238-.109t-.248-.137q-.126-.076-.257-.166t-.266-.194A2.379,2.379,0,0,1,3.377,14a2.31,2.31,0,0,1-.215-.255,2.387,2.387,0,0,1-.178-.287,2.616,2.616,0,0,1-.141-.318,3.31,3.31,0,0,1-.108-.354q-.046-.187-.077-.395t-.046-.436q-.015-.228-.015-.477a7.247,7.247,0,0,1,.053-.971,5.143,5.143,0,0,1,.177-.849,3.852,3.852,0,0,1,.3-.728,3.21,3.21,0,0,1,.426-.607,3.88,3.88,0,0,1,.512-.481,3.17,3.17,0,0,1,.557-.348,2.921,2.921,0,0,1,.6-.216,3.1,3.1,0,0,1,.648-.082,2.888,2.888,0,0,1,.529.055,2.918,2.918,0,0,1,.512.152,3.25,3.25,0,0,1,.5.25A3.918,3.918,0,0,1,7.886,8a3.814,3.814,0,0,1,.437.434,4.065,4.065,0,0,1,.371.508,4.634,4.634,0,0,1,.3.583,5.56,5.56,0,0,1,.238.658Z" transform="translate(15.935 31.469)" fill="#fdca05"/>
</svg>
