<svg id="Group_7" data-name="Group 7" xmlns="http://www.w3.org/2000/svg" width="77.627" height="98.022" viewBox="0 0 77.627 98.022">
  <g id="Group_2" data-name="Group 2" transform="translate(5.014 0.001)">
    <path id="Ellipse_1" data-name="Ellipse 1" d="M34.931,1.853A28.794,28.794,0,0,1,49.254,4.91a36.628,36.628,0,0,1,12.018,9.839,49.236,49.236,0,0,1,8.272,15.243,60.475,60.475,0,0,1,0,38.037,49.224,49.224,0,0,1-8.272,15.242,36.617,36.617,0,0,1-12.018,9.837,28.791,28.791,0,0,1-14.323,3.054,29.6,29.6,0,0,1-13.907-4.338A38.442,38.442,0,0,1,9.964,81.478,50.61,50.61,0,0,1,2.652,66.739a60.619,60.619,0,0,1,0-35.471A50.6,50.6,0,0,1,9.964,16.532,38.43,38.43,0,0,1,21.024,6.189,29.6,29.6,0,0,1,34.931,1.853Z" transform="translate(0 0)" fill="#da8102"/>
    <path id="Ellipse_2" data-name="Ellipse 2" d="M26.943,1.074A22.048,22.048,0,0,1,37.858,3.532a28.161,28.161,0,0,1,9.1,7.58,37.812,37.812,0,0,1,6.232,11.62,46.332,46.332,0,0,1,0,28.866,37.8,37.8,0,0,1-6.232,11.619,28.153,28.153,0,0,1-9.1,7.579,22.045,22.045,0,0,1-10.915,2.455,22.524,22.524,0,0,1-10.671-3.208,29.227,29.227,0,0,1-8.539-7.877A38.62,38.62,0,0,1,2.062,50.843a46.417,46.417,0,0,1,0-27.364A38.61,38.61,0,0,1,7.733,12.155a29.219,29.219,0,0,1,8.539-7.875A22.52,22.52,0,0,1,26.943,1.074Z" transform="translate(7.217 11.844)" fill="#da8102"/>
    <path id="Ellipse_3" data-name="Ellipse 3" d="M25.913.974A21.215,21.215,0,0,1,36.393,3.353a27.085,27.085,0,0,1,8.73,7.284A36.306,36.306,0,0,1,51.1,21.784a44.406,44.406,0,0,1,0,27.666,36.25,36.25,0,0,1-5.976,11.14,27.036,27.036,0,0,1-8.73,7.273,21.2,21.2,0,0,1-10.481,2.365,21.653,21.653,0,0,1-10.256-3.069A28.064,28.064,0,0,1,7.443,59.6,37.045,37.045,0,0,1,1.985,48.728a44.484,44.484,0,0,1,0-26.283A36.99,36.99,0,0,1,7.443,11.577a28.012,28.012,0,0,1,8.214-7.546A21.632,21.632,0,0,1,25.913.974Z" transform="translate(9.404 13.909)" fill="#da8102"/>
  </g>
  <g id="Group_1" data-name="Group 1" transform="translate(0 0.189)">
    <path id="Ellipse_1-2" data-name="Ellipse 1" d="M34.545,1.835A28.335,28.335,0,0,1,48.705,4.877a36.258,36.258,0,0,1,11.88,9.784,49.041,49.041,0,0,1,8.176,15.155,60.458,60.458,0,0,1,0,37.814,49.041,49.041,0,0,1-8.176,15.155,36.258,36.258,0,0,1-11.88,9.784,28.335,28.335,0,0,1-14.161,3.042A29.148,29.148,0,0,1,20.793,91.3,38.084,38.084,0,0,1,9.855,81.018,50.428,50.428,0,0,1,2.624,66.362a60.6,60.6,0,0,1,0-35.277A50.428,50.428,0,0,1,9.855,16.429,38.084,38.084,0,0,1,20.793,6.144,29.148,29.148,0,0,1,34.545,1.835Z" transform="translate(0 0.001)" fill="#fecb03"/>
    <path id="Ellipse_2-2" data-name="Ellipse 2" d="M26.687,1.067A21.747,21.747,0,0,1,37.5,3.514a27.919,27.919,0,0,1,9.01,7.544A37.685,37.685,0,0,1,52.677,22.62a46.321,46.321,0,0,1,0,28.722,37.685,37.685,0,0,1-6.171,11.563,27.919,27.919,0,0,1-9.01,7.544A21.747,21.747,0,0,1,26.687,72.9a22.225,22.225,0,0,1-10.569-3.19A28.991,28.991,0,0,1,7.66,61.869,38.5,38.5,0,0,1,2.043,50.6a46.407,46.407,0,0,1,0-27.235A38.5,38.5,0,0,1,7.66,12.094a28.991,28.991,0,0,1,8.458-7.837A22.225,22.225,0,0,1,26.687,1.067Z" transform="translate(7.858 11.743)" fill="#da8102"/>
    <path id="Ellipse_3-2" data-name="Ellipse 3" d="M25.665.967A20.925,20.925,0,0,1,36.044,3.335a26.852,26.852,0,0,1,8.644,7.249A36.183,36.183,0,0,1,50.6,21.675a44.4,44.4,0,0,1,0,27.528,36.136,36.136,0,0,1-5.916,11.086,26.811,26.811,0,0,1-8.644,7.24,20.911,20.911,0,0,1-10.379,2.357,21.365,21.365,0,0,1-10.157-3.052,27.836,27.836,0,0,1-8.135-7.518A36.929,36.929,0,0,1,1.967,48.493a44.474,44.474,0,0,1,0-26.159A36.883,36.883,0,0,1,7.373,11.518a27.793,27.793,0,0,1,8.135-7.51A21.347,21.347,0,0,1,25.665.967Z" transform="translate(10.024 13.797)" fill="#f0aa00"/>
  </g>
  <path id="Path_123" data-name="Path 123" d="M16.971,8.283a11.02,11.02,0,0,0-.529-1.066,8.379,8.379,0,0,0-.594-.908,6.548,6.548,0,0,0-.659-.751,5.4,5.4,0,0,0-.724-.593,7.3,7.3,0,0,0-.8-.47,8.044,8.044,0,0,0-.874-.381,9.2,9.2,0,0,0-.953-.292q-.5-.124-1.031-.2V.135L7.642.194V3.667q-.332.053-.655.127t-.638.167q-.315.094-.621.208t-.6.248q-.3.134-.583.293t-.561.343q-.275.184-.538.393t-.515.442a5.781,5.781,0,0,0-.477.5,6.146,6.146,0,0,0-.424.563,6.784,6.784,0,0,0-.371.626q-.172.329-.318.69a7.423,7.423,0,0,0-.255.744A8.092,8.092,0,0,0,.9,9.8q-.073.405-.109.833t-.036.878q0,.364.019.709t.057.67q.038.326.1.632t.134.594q.076.287.172.55t.21.5a4.749,4.749,0,0,0,.249.455,4.21,4.21,0,0,0,.287.407q.153.192.31.369t.317.34q.161.163.325.312t.333.283q.168.134.359.258t.405.237q.214.113.452.215t.5.194q.261.091.507.172t.478.151q.232.07.449.129t.42.108q.2.048.432.1t.486.1q.257.049.54.1t.594.1q.311.058.6.119t.556.124q.267.063.512.129t.468.134q.223.068.444.15t.441.177q.22.1.438.2t.434.23a3.86,3.86,0,0,1,.407.263,3.431,3.431,0,0,1,.355.3,3.189,3.189,0,0,1,.553.721,3.291,3.291,0,0,1,.2.415,3.484,3.484,0,0,1,.14.446,3.881,3.881,0,0,1,.084.478,4.5,4.5,0,0,1,.028.509,5.837,5.837,0,0,1-.1,1.119,4.057,4.057,0,0,1-.3.948,3.271,3.271,0,0,1-.5.775,3.308,3.308,0,0,1-.706.6,5.849,5.849,0,0,1-.85.45,6.4,6.4,0,0,1-.938.317,7.467,7.467,0,0,1-1.025.185A9.135,9.135,0,0,1,9,28.038a6.959,6.959,0,0,1-1.939-.3,7.393,7.393,0,0,1-.936-.353,8.252,8.252,0,0,1-.914-.489,6.443,6.443,0,0,1-.83-.605,5.607,5.607,0,0,1-.684-.7,5.33,5.33,0,0,1-.538-.8,5.585,5.585,0,0,1-.394-.894L0,25.8a10.206,10.206,0,0,0,.538,1.3,8.641,8.641,0,0,0,.684,1.146,7.813,7.813,0,0,0,.831.989,7.657,7.657,0,0,0,.978.832,10.612,10.612,0,0,0,1.077.678,9.9,9.9,0,0,0,1.127.529,9.679,9.679,0,0,0,1.178.379,9.936,9.936,0,0,0,1.229.229v3.705l3.139.058V31.774a8.511,8.511,0,0,0,1.434-.231,7.7,7.7,0,0,0,2.555-1.169,8.562,8.562,0,0,0,1.119-.939,6.688,6.688,0,0,0,.934-1.158,7.021,7.021,0,0,0,.668-1.358,8.4,8.4,0,0,0,.4-1.557,11,11,0,0,0,.134-1.755q0-.449-.034-.872t-.1-.821q-.068-.4-.17-.77a7.13,7.13,0,0,0-.237-.719q-.136-.346-.286-.66t-.316-.594q-.165-.28-.346-.528a5.327,5.327,0,0,0-.8-.875q-.226-.2-.483-.384t-.544-.355q-.287-.17-.605-.325t-.623-.289q-.305-.134-.6-.248t-.573-.206q-.28-.093-.548-.165t-.562-.143q-.294-.071-.613-.14t-.664-.137q-.345-.068-.715-.135-.326-.057-.615-.112t-.542-.107q-.253-.052-.47-.1t-.4-.1q-.181-.048-.368-.11t-.383-.138q-.2-.076-.4-.167t-.412-.2a3.646,3.646,0,0,1-.39-.226A2.969,2.969,0,0,1,4.9,13.73a2.539,2.539,0,0,1-.276-.289,2.328,2.328,0,0,1-.219-.32,2.556,2.556,0,0,1-.167-.356,3,3,0,0,1-.119-.4,3.679,3.679,0,0,1-.071-.438,4.646,4.646,0,0,1-.024-.479,4.765,4.765,0,0,1,.081-.976,3.649,3.649,0,0,1,.274-.853,3.3,3.3,0,0,1,.467-.73,3.652,3.652,0,0,1,.66-.608,5.709,5.709,0,0,1,1.652-.827,6.244,6.244,0,0,1,.931-.213,7.238,7.238,0,0,1,1-.079,6.781,6.781,0,0,1,.816.059,6.4,6.4,0,0,1,1.552.409,6.67,6.67,0,0,1,.736.351,5.462,5.462,0,0,1,.672.437,4.758,4.758,0,0,1,.57.511,4.457,4.457,0,0,1,.468.586,4.537,4.537,0,0,1,.366.66Z" transform="translate(27.145 31.022)" fill="#da8102"/>
  <path id="Path_122" data-name="Path 122" d="M16.888,8.263A11,11,0,0,0,16.361,7.2a8.36,8.36,0,0,0-.591-.906,6.528,6.528,0,0,0-.656-.749,5.375,5.375,0,0,0-.72-.592,7.258,7.258,0,0,0-.792-.469,7.994,7.994,0,0,0-.87-.38,9.138,9.138,0,0,0-.948-.291q-.493-.123-1.026-.2V.134L7.6.193V3.658q-.33.053-.652.126t-.635.167Q6,4.045,5.7,4.158t-.6.247q-.3.134-.58.292t-.558.342q-.273.183-.535.392t-.513.441a5.76,5.76,0,0,0-.475.5,6.13,6.13,0,0,0-.422.561,6.771,6.771,0,0,0-.369.625q-.171.328-.316.688a7.417,7.417,0,0,0-.254.742Q.969,9.37.9,9.775t-.109.831q-.036.427-.036.876,0,.363.019.707t.057.669q.038.325.1.63t.133.592q.076.287.171.549t.209.5a4.741,4.741,0,0,0,.247.454,4.2,4.2,0,0,0,.286.406q.152.191.308.368t.316.339q.16.163.323.311t.331.282a4.405,4.405,0,0,0,.358.257q.19.123.4.236T4.458,18q.236.1.5.193t.5.172q.245.081.475.15t.447.129q.216.059.418.107t.43.1q.228.048.484.1t.537.1q.282.049.591.1t.6.119q.288.061.553.124t.509.129q.244.066.466.134t.442.149q.22.081.439.176t.435.2q.217.108.432.23a3.84,3.84,0,0,1,.4.262,3.416,3.416,0,0,1,.353.3,3.18,3.18,0,0,1,.55.719,3.286,3.286,0,0,1,.2.414,3.481,3.481,0,0,1,.14.445,3.881,3.881,0,0,1,.084.477,4.5,4.5,0,0,1,.028.508,5.836,5.836,0,0,1-.1,1.117,4.054,4.054,0,0,1-.3.945,3.23,3.23,0,0,1-1.2,1.374,5.815,5.815,0,0,1-.846.449,6.354,6.354,0,0,1-.933.317,7.414,7.414,0,0,1-1.02.185,9.068,9.068,0,0,1-1.106.053,6.909,6.909,0,0,1-1.929-.295,7.346,7.346,0,0,1-.931-.352,8.205,8.205,0,0,1-.91-.488,6.412,6.412,0,0,1-.826-.6,5.587,5.587,0,0,1-.68-.7,5.318,5.318,0,0,1-.536-.8,5.578,5.578,0,0,1-.392-.892L0,25.734a10.2,10.2,0,0,0,.535,1.3,8.624,8.624,0,0,0,.68,1.143,7.789,7.789,0,0,0,.827.986,7.624,7.624,0,0,0,.973.83,10.556,10.556,0,0,0,1.072.677,9.841,9.841,0,0,0,1.122.528,9.615,9.615,0,0,0,1.172.378A9.866,9.866,0,0,0,7.6,31.8v3.7l3.124.058V31.7a8.45,8.45,0,0,0,1.427-.231A7.658,7.658,0,0,0,14.7,30.3a8.525,8.525,0,0,0,1.114-.937,6.669,6.669,0,0,0,.929-1.155,7.011,7.011,0,0,0,.665-1.354,8.4,8.4,0,0,0,.4-1.553,11,11,0,0,0,.133-1.751q0-.448-.034-.87t-.1-.819q-.068-.4-.169-.768a7.124,7.124,0,0,0-.236-.717q-.135-.346-.285-.658t-.315-.592q-.165-.28-.344-.526a5.309,5.309,0,0,0-.793-.873q-.225-.2-.481-.383t-.542-.354q-.286-.169-.6-.324t-.62-.289q-.3-.134-.6-.247t-.57-.206q-.279-.093-.546-.164t-.559-.143q-.292-.071-.61-.14t-.661-.137q-.343-.068-.711-.134-.324-.057-.612-.112t-.54-.107q-.252-.052-.467-.1t-.4-.1q-.18-.048-.367-.109T6.4,14.54q-.194-.076-.4-.167t-.41-.2a3.626,3.626,0,0,1-.388-.225,2.955,2.955,0,0,1-.331-.257,2.531,2.531,0,0,1-.275-.288,2.322,2.322,0,0,1-.218-.319,2.553,2.553,0,0,1-.166-.355,3,3,0,0,1-.118-.4,3.679,3.679,0,0,1-.071-.437,4.646,4.646,0,0,1-.024-.478,4.764,4.764,0,0,1,.081-.974A3.646,3.646,0,0,1,4.359,9.6a3.294,3.294,0,0,1,.464-.729,3.637,3.637,0,0,1,.657-.607,5.675,5.675,0,0,1,1.644-.825,6.2,6.2,0,0,1,.926-.212,7.185,7.185,0,0,1,1-.079,6.732,6.732,0,0,1,.812.058,6.358,6.358,0,0,1,1.544.408,6.63,6.63,0,0,1,.732.35A5.434,5.434,0,0,1,12.8,8.4a4.739,4.739,0,0,1,.567.51,4.445,4.445,0,0,1,.466.584,4.529,4.529,0,0,1,.364.658Z" transform="translate(24.849 31.073)" fill="#fdca05"/>
</svg>
