<svg xmlns="http://www.w3.org/2000/svg" width="22.177" height="99.472" viewBox="0 0 22.177 99.472">
  <g id="Group_13" data-name="Group 13" transform="translate(-2445.386 -4624.755)">
    <path id="Path_124" data-name="Path 124" d="M2453.827,4627.6l5.528.334-2.68,3.175-1.187-2.174Z" fill="#da8102"/>
    <path id="Path_125" data-name="Path 125" d="M2454.009,4628.226l5.688.192-2.113,3.5-2.349-2.526Z" transform="translate(4913.065 9349.703) rotate(180)" fill="#da8102"/>
    <g id="Group_11" data-name="Group 11" transform="translate(2445.386 4624.755)">
      <g id="Group_2" data-name="Group 2" transform="translate(5.315 0.423)">
        <path id="Ellipse_1" data-name="Ellipse 1" d="M7.946,2.829c1.169-.371,2.3.6,3.346,2.691a40.181,40.181,0,0,1,2.848,9.6,139.873,139.873,0,0,1,1.982,15.223c.476,5.857.74,12.349.74,19.187s-.264,13.329-.74,19.184a139.668,139.668,0,0,1-1.982,15.216,40.055,40.055,0,0,1-2.848,9.584c-1.044,2.09-2.176,3.053-3.346,2.678-1.151-.37-2.231-2-3.2-4.615a59.086,59.086,0,0,1-2.51-10.356c-.7-4.2-1.259-9.1-1.643-14.465C.211,61.413,0,55.588,0,49.493S.211,37.574.593,32.238c.385-5.366.945-10.264,1.643-14.459A58.931,58.931,0,0,1,4.747,7.432C5.715,4.823,6.8,3.194,7.946,2.829Z" transform="translate(-0.001)" fill="#da8102"/>
        <path id="Ellipse_2" data-name="Ellipse 2" d="M6.15,1.63c.892-.216,1.752.586,2.543,2.238a32.349,32.349,0,0,1,2.143,7.42,108.891,108.891,0,0,1,1.48,11.577c.354,4.43.55,9.331.55,14.488s-.2,10.057-.55,14.486a108.735,108.735,0,0,1-1.48,11.572,32.25,32.25,0,0,1-2.143,7.412C7.9,72.471,7.042,73.271,6.15,73.051s-1.711-1.409-2.457-3.365a43.434,43.434,0,0,1-1.946-7.864C1.2,58.605.765,54.833.464,50.689.165,46.562,0,42.052,0,37.329S.165,28.1.464,23.97c.3-4.143.738-7.914,1.283-11.128A43.318,43.318,0,0,1,3.693,4.985C4.439,3.032,5.269,1.843,6.15,1.63Z" transform="translate(1.617 12.167)" fill="#da8102"/>
        <path id="Ellipse_3" data-name="Ellipse 3" d="M5.925,1.477c.858-.2,1.684.585,2.444,2.18a31.3,31.3,0,0,1,2.057,7.14,104.717,104.717,0,0,1,1.419,11.111c.339,4.248.527,8.946.527,13.888s-.188,9.638-.527,13.883a104.3,104.3,0,0,1-1.419,11.1,31.034,31.034,0,0,1-2.057,7.119c-.76,1.587-1.586,2.359-2.444,2.154S4.279,68.705,3.56,66.831a41.515,41.515,0,0,1-1.875-7.55C1.16,56.19.738,52.564.448,48.58.159,44.611,0,40.273,0,35.731s.159-8.878.448-12.843c.29-3.981.712-7.6,1.237-10.688A41.2,41.2,0,0,1,3.56,4.67C4.279,2.8,5.078,1.671,5.925,1.477Z" transform="translate(2.109 14.243)" fill="#da8102"/>
      </g>
      <g id="Group_1" data-name="Group 1">
        <path id="Ellipse_1-2" data-name="Ellipse 1" d="M7.66,2.86c1.127-.375,2.219.592,3.226,2.688a41.39,41.39,0,0,1,2.746,9.612,145.383,145.383,0,0,1,1.911,15.258c.459,5.871.713,12.38.713,19.236S16,63.019,15.542,68.89a145.384,145.384,0,0,1-1.911,15.258,41.389,41.389,0,0,1-2.746,9.612c-1.007,2.1-2.1,3.064-3.226,2.688-1.11-.369-2.151-2.005-3.084-4.623a61.132,61.132,0,0,1-2.42-10.378C1.482,77.242.942,72.33.572,66.951.2,61.6,0,55.764,0,49.655s.2-11.947.572-17.3c.371-5.379.911-10.291,1.584-14.5A61.133,61.133,0,0,1,4.576,7.483C5.509,4.865,6.55,3.229,7.66,2.86Z" fill="#fecb03"/>
        <path id="Ellipse_2-2" data-name="Ellipse 2" d="M5.943,1.654c.862-.22,1.693.584,2.457,2.24a33.347,33.347,0,0,1,2.071,7.442A113.2,113.2,0,0,1,11.9,22.954c.342,4.446.532,9.366.532,14.543s-.19,10.1-.532,14.543a113.2,113.2,0,0,1-1.431,11.618A33.348,33.348,0,0,1,8.4,71.1c-.764,1.656-1.6,2.459-2.457,2.24S4.29,71.927,3.568,69.965a44.938,44.938,0,0,1-1.88-7.891C1.162,58.847.739,55.062.449,50.9.159,46.763,0,42.237,0,37.5S.159,28.231.449,24.09c.291-4.158.713-7.944,1.239-11.171a44.938,44.938,0,0,1,1.88-7.891C4.29,3.067,5.091,1.871,5.943,1.654Z" transform="translate(1.717 12.158)" fill="#da8102"/>
        <path id="Ellipse_3-2" data-name="Ellipse 3" d="M5.587,1.42c.808-.189,1.586.577,2.3,2.137a31.518,31.518,0,0,1,1.936,6.979,106.008,106.008,0,0,1,1.335,10.851c.319,4.147.5,8.733.5,13.558s-.177,9.41-.5,13.555A105.732,105.732,0,0,1,9.824,59.341a31.344,31.344,0,0,1-1.936,6.965c-.715,1.555-1.494,2.316-2.3,2.121s-1.551-1.3-2.229-3.129a41.631,41.631,0,0,1-1.768-7.37c-.5-3.02-.893-6.564-1.167-10.46C.15,43.589,0,39.347,0,34.9S.15,26.22.423,22.342C.7,18.448,1.095,14.906,1.59,11.89A41.429,41.429,0,0,1,3.358,4.532C4.036,2.71,4.788,1.606,5.587,1.42Z" transform="translate(2.496 15.23)" fill="#f0aa00"/>
      </g>
      <path id="Path_123" data-name="Path 123" d="M3.84,8.321q-.057-.573-.121-1.066t-.136-.907q-.071-.414-.15-.748T3.268,5.01q-.086-.255-.181-.465a3.1,3.1,0,0,0-.2-.375,1.867,1.867,0,0,0-.217-.284,1.16,1.16,0,0,0-.234-.195V.206L1.72.3V3.764a1.2,1.2,0,0,0-.148.132,1.741,1.741,0,0,0-.144.172,2.537,2.537,0,0,0-.14.212q-.069.116-.136.252t-.131.3q-.064.161-.126.346t-.121.395q-.059.21-.116.444t-.107.5q-.051.266-.1.563T.371,7.7Q.333,8.029.3,8.388T.243,9.13Q.218,9.511.2,9.915t-.024.829q-.008.426-.008.873,0,.362,0,.7t.013.666q.009.324.021.628t.03.59q.017.285.039.547t.047.5q.026.238.056.452t.064.4q.034.19.07.367t.071.338q.036.162.073.31t.075.282q.038.134.081.257t.091.236q.048.113.1.214t.112.193q.059.091.114.172t.108.15q.052.07.1.129t.095.108q.046.048.1.1t.11.1q.058.049.122.1t.134.1q.07.059.136.12t.126.125q.061.064.116.129t.106.134q.051.068.1.15t.1.177q.05.1.1.2t.1.231q.049.122.092.264t.081.3q.037.161.069.342t.057.381q.026.2.045.416t.032.448q.013.232.019.479t.006.51q0,.6-.023,1.121t-.069.948q-.046.43-.115.774a4.321,4.321,0,0,1-.161.6,3.306,3.306,0,0,1-.193.446,1.566,1.566,0,0,1-.213.312.743.743,0,0,1-.232.18.5.5,0,0,1-.252.047.442.442,0,0,1-.222-.085.968.968,0,0,1-.217-.221,2.334,2.334,0,0,1-.211-.357,4.993,4.993,0,0,1-.206-.492q-.1-.28-.187-.607t-.154-.7q-.069-.375-.121-.8t-.089-.892L0,25.82q.052.688.121,1.3t.153,1.143q.085.533.187.989t.22.834q.118.379.242.683a4.736,4.736,0,0,0,.254.535,2.343,2.343,0,0,0,.266.387,1.105,1.105,0,0,0,.278.238v3.7l.711.089V31.843a.751.751,0,0,0,.326-.22,1.992,1.992,0,0,0,.3-.457,5.046,5.046,0,0,0,.279-.7q.134-.407.255-.934t.213-1.156q.092-.629.153-1.359t.092-1.561q.031-.831.031-1.761,0-.45-.008-.876T4.05,22q-.016-.4-.039-.773t-.054-.722q-.031-.348-.065-.663t-.072-.6q-.038-.281-.079-.53t-.086-.463q-.045-.215-.1-.415t-.11-.385q-.059-.185-.124-.355t-.138-.325q-.072-.155-.142-.289t-.136-.247q-.067-.113-.13-.206t-.125-.164q-.061-.072-.128-.142t-.139-.139q-.072-.069-.151-.136t-.162-.134Q2,15.259,1.935,15.2T1.813,15.1q-.057-.052-.106-.1t-.09-.1a1.263,1.263,0,0,1-.083-.109q-.042-.062-.086-.137t-.09-.166q-.046-.09-.093-.195t-.088-.224q-.041-.12-.075-.256t-.062-.287q-.028-.151-.049-.318t-.038-.354q-.016-.187-.027-.4T.91,12.023Q.9,11.794.9,11.545q0-.517.018-.973t.062-.851q.042-.4.105-.73a5.531,5.531,0,0,1,.149-.609A4.365,4.365,0,0,1,1.417,7.9a2.053,2.053,0,0,1,.194-.351.885.885,0,0,1,.21-.218.455.455,0,0,1,.227-.085.4.4,0,0,1,.185.054.7.7,0,0,1,.179.151,1.509,1.509,0,0,1,.173.249,3.082,3.082,0,0,1,.167.347,4.525,4.525,0,0,1,.153.434q.071.236.13.509t.107.584q.047.311.083.659Z" transform="translate(5.994 31.694)" fill="#da8102"/>
      <path id="Path_122" data-name="Path 122" d="M3.81,8.288q-.056-.571-.12-1.062t-.135-.9q-.071-.412-.149-.745T3.243,4.99q-.085-.254-.18-.463a3.1,3.1,0,0,0-.2-.373,1.861,1.861,0,0,0-.215-.283,1.154,1.154,0,0,0-.232-.194V.2L1.707.293V3.747a1.189,1.189,0,0,0-.147.131,1.73,1.73,0,0,0-.143.171,2.525,2.525,0,0,0-.139.211q-.068.115-.135.251t-.13.3q-.064.16-.125.344t-.12.393q-.059.209-.115.442t-.107.5q-.05.265-.095.56t-.083.623Q.33,7.995.3,8.353t-.057.738q-.024.38-.041.782T.176,10.7q-.008.424-.008.87,0,.361,0,.7t.013.664q.009.322.021.626t.03.588q.017.284.038.545t.047.5q.026.237.055.45t.064.4q.034.19.069.365t.071.337q.036.162.073.309t.074.281q.038.133.08.256t.091.235q.048.112.1.214t.111.192q.058.091.113.171t.107.15q.052.07.1.129t.094.107q.045.048.1.1t.109.1q.058.048.121.1t.133.1q.07.058.135.119t.125.124q.06.063.115.129t.105.134q.05.068.1.15t.1.176q.05.095.1.2t.1.23q.049.122.092.263t.08.3q.037.161.068.341t.057.379q.025.2.044.415t.032.446q.013.231.019.477t.006.508q0,.6-.023,1.117t-.068.944q-.046.429-.114.771A4.318,4.318,0,0,1,2.9,27a3.3,3.3,0,0,1-.192.444,1.56,1.56,0,0,1-.211.311.737.737,0,0,1-.231.179.5.5,0,0,1-.25.047.437.437,0,0,1-.22-.084.962.962,0,0,1-.215-.22,2.327,2.327,0,0,1-.21-.356,4.985,4.985,0,0,1-.2-.491q-.1-.279-.186-.6t-.153-.7q-.068-.373-.12-.794t-.088-.889L0,25.718q.052.686.12,1.293T.272,28.15q.084.531.185.985t.218.831q.117.377.241.68a4.726,4.726,0,0,0,.252.533,2.334,2.334,0,0,0,.264.385,1.1,1.1,0,0,0,.275.237v3.684l.705.089V31.718a.745.745,0,0,0,.323-.219,1.985,1.985,0,0,0,.3-.455,5.038,5.038,0,0,0,.277-.692q.133-.406.253-.93t.211-1.151q.091-.626.151-1.353t.091-1.555q.03-.828.03-1.754,0-.449-.008-.872t-.023-.821q-.015-.4-.038-.77t-.054-.719q-.031-.346-.065-.66t-.072-.594q-.037-.28-.078-.527t-.085-.461q-.044-.214-.1-.413t-.109-.384q-.058-.184-.123-.354t-.137-.324q-.072-.154-.141-.288t-.135-.247q-.066-.113-.129-.205T2.633,15.8q-.06-.072-.127-.142t-.138-.139q-.072-.069-.149-.136t-.161-.133q-.073-.056-.138-.11T1.8,15.038q-.057-.052-.105-.1t-.089-.1a1.257,1.257,0,0,1-.083-.108q-.042-.061-.086-.137t-.089-.165q-.045-.09-.092-.194t-.087-.224q-.04-.12-.074-.255t-.062-.286Q1,13.322.982,13.155T.945,12.8q-.016-.187-.027-.394T.9,11.974Q.9,11.746.9,11.5q0-.515.018-.969t.061-.848q.041-.394.1-.727a5.525,5.525,0,0,1,.148-.607,4.357,4.357,0,0,1,.177-.481A2.046,2.046,0,0,1,1.6,7.516.88.88,0,0,1,1.807,7.3a.45.45,0,0,1,.225-.084.391.391,0,0,1,.183.054.7.7,0,0,1,.178.151,1.5,1.5,0,0,1,.172.248,3.077,3.077,0,0,1,.166.346,4.522,4.522,0,0,1,.152.432q.07.235.129.507t.106.582q.047.31.083.657Z" transform="translate(5.463 31.804)" fill="#fdca05"/>
    </g>
    <g id="Group_12" data-name="Group 12" transform="translate(2445.386 4624.755)">
      <g id="Group_2-2" data-name="Group 2" transform="translate(5.315 0.423)">
        <path id="Ellipse_1-3" data-name="Ellipse 1" d="M7.946,2.829c1.169-.371,2.3.6,3.346,2.691a40.181,40.181,0,0,1,2.848,9.6,139.873,139.873,0,0,1,1.982,15.223c.476,5.857.74,12.349.74,19.187s-.264,13.329-.74,19.184a139.668,139.668,0,0,1-1.982,15.216,40.055,40.055,0,0,1-2.848,9.584c-1.044,2.09-2.176,3.053-3.346,2.678-1.151-.37-2.231-2-3.2-4.615a59.086,59.086,0,0,1-2.51-10.356c-.7-4.2-1.259-9.1-1.643-14.465C.211,61.413,0,55.588,0,49.493S.211,37.574.593,32.238c.385-5.366.945-10.264,1.643-14.459A58.931,58.931,0,0,1,4.747,7.432C5.715,4.823,6.8,3.194,7.946,2.829Z" transform="translate(-0.001)" fill="#da8102"/>
        <path id="Ellipse_2-3" data-name="Ellipse 2" d="M6.15,1.63c.892-.216,1.752.586,2.543,2.238a32.349,32.349,0,0,1,2.143,7.42,108.891,108.891,0,0,1,1.48,11.577c.354,4.43.55,9.331.55,14.488s-.2,10.057-.55,14.486a108.735,108.735,0,0,1-1.48,11.572,32.25,32.25,0,0,1-2.143,7.412C7.9,72.471,7.042,73.271,6.15,73.051s-1.711-1.409-2.457-3.365a43.434,43.434,0,0,1-1.946-7.864C1.2,58.605.765,54.833.464,50.689.165,46.562,0,42.052,0,37.329S.165,28.1.464,23.97c.3-4.143.738-7.914,1.283-11.128A43.318,43.318,0,0,1,3.693,4.985C4.439,3.032,5.269,1.843,6.15,1.63Z" transform="translate(1.617 12.167)" fill="#da8102"/>
        <path id="Ellipse_3-3" data-name="Ellipse 3" d="M5.925,1.477c.858-.2,1.684.585,2.444,2.18a31.3,31.3,0,0,1,2.057,7.14,104.717,104.717,0,0,1,1.419,11.111c.339,4.248.527,8.946.527,13.888s-.188,9.638-.527,13.883a104.3,104.3,0,0,1-1.419,11.1,31.034,31.034,0,0,1-2.057,7.119c-.76,1.587-1.586,2.359-2.444,2.154S4.279,68.705,3.56,66.831a41.515,41.515,0,0,1-1.875-7.55C1.16,56.19.738,52.564.448,48.58.159,44.611,0,40.273,0,35.731s.159-8.878.448-12.843c.29-3.981.712-7.6,1.237-10.688A41.2,41.2,0,0,1,3.56,4.67C4.279,2.8,5.078,1.671,5.925,1.477Z" transform="translate(2.109 14.243)" fill="#da8102"/>
      </g>
      <g id="Group_1-2" data-name="Group 1">
        <path id="Ellipse_1-4" data-name="Ellipse 1" d="M7.66,2.86c1.127-.375,2.219.592,3.226,2.688a41.39,41.39,0,0,1,2.746,9.612,145.383,145.383,0,0,1,1.911,15.258c.459,5.871.713,12.38.713,19.236S16,63.019,15.542,68.89a145.384,145.384,0,0,1-1.911,15.258,41.389,41.389,0,0,1-2.746,9.612c-1.007,2.1-2.1,3.064-3.226,2.688-1.11-.369-2.151-2.005-3.084-4.623a61.132,61.132,0,0,1-2.42-10.378C1.482,77.242.942,72.33.572,66.951.2,61.6,0,55.764,0,49.655s.2-11.947.572-17.3c.371-5.379.911-10.291,1.584-14.5A61.133,61.133,0,0,1,4.576,7.483C5.509,4.865,6.55,3.229,7.66,2.86Z" fill="#fecb03"/>
        <path id="Ellipse_2-4" data-name="Ellipse 2" d="M5.943,1.654c.862-.22,1.693.584,2.457,2.24a33.347,33.347,0,0,1,2.071,7.442A113.2,113.2,0,0,1,11.9,22.954c.342,4.446.532,9.366.532,14.543s-.19,10.1-.532,14.543a113.2,113.2,0,0,1-1.431,11.618A33.348,33.348,0,0,1,8.4,71.1c-.764,1.656-1.6,2.459-2.457,2.24S4.29,71.927,3.568,69.965a44.938,44.938,0,0,1-1.88-7.891C1.162,58.847.739,55.062.449,50.9.159,46.763,0,42.237,0,37.5S.159,28.231.449,24.09c.291-4.158.713-7.944,1.239-11.171a44.938,44.938,0,0,1,1.88-7.891C4.29,3.067,5.091,1.871,5.943,1.654Z" transform="translate(1.717 12.158)" fill="#da8102"/>
        <path id="Ellipse_3-4" data-name="Ellipse 3" d="M5.587,1.42c.808-.189,1.586.577,2.3,2.137a31.518,31.518,0,0,1,1.936,6.979,106.008,106.008,0,0,1,1.335,10.851c.319,4.147.5,8.733.5,13.558s-.177,9.41-.5,13.555A105.732,105.732,0,0,1,9.824,59.341a31.344,31.344,0,0,1-1.936,6.965c-.715,1.555-1.494,2.316-2.3,2.121s-1.551-1.3-2.229-3.129a41.631,41.631,0,0,1-1.768-7.37c-.5-3.02-.893-6.564-1.167-10.46C.15,43.589,0,39.347,0,34.9S.15,26.22.423,22.342C.7,18.448,1.095,14.906,1.59,11.89A41.429,41.429,0,0,1,3.358,4.532C4.036,2.71,4.788,1.606,5.587,1.42Z" transform="translate(2.496 15.23)" fill="#f0aa00"/>
      </g>
      <path id="Path_123-2" data-name="Path 123" d="M3.84,8.321q-.057-.573-.121-1.066t-.136-.907q-.071-.414-.15-.748T3.268,5.01q-.086-.255-.181-.465a3.1,3.1,0,0,0-.2-.375,1.867,1.867,0,0,0-.217-.284,1.16,1.16,0,0,0-.234-.195V.206L1.72.3V3.764a1.2,1.2,0,0,0-.148.132,1.741,1.741,0,0,0-.144.172,2.537,2.537,0,0,0-.14.212q-.069.116-.136.252t-.131.3q-.064.161-.126.346t-.121.395q-.059.21-.116.444t-.107.5q-.051.266-.1.563T.371,7.7Q.333,8.029.3,8.388T.243,9.13Q.218,9.511.2,9.915t-.024.829q-.008.426-.008.873,0,.362,0,.7t.013.666q.009.324.021.628t.03.59q.017.285.039.547t.047.5q.026.238.056.452t.064.4q.034.19.07.367t.071.338q.036.162.073.31t.075.282q.038.134.081.257t.091.236q.048.113.1.214t.112.193q.059.091.114.172t.108.15q.052.07.1.129t.095.108q.046.048.1.1t.11.1q.058.049.122.1t.134.1q.07.059.136.12t.126.125q.061.064.116.129t.106.134q.051.068.1.15t.1.177q.05.1.1.2t.1.231q.049.122.092.264t.081.3q.037.161.069.342t.057.381q.026.2.045.416t.032.448q.013.232.019.479t.006.51q0,.6-.023,1.121t-.069.948q-.046.43-.115.774a4.321,4.321,0,0,1-.161.6,3.306,3.306,0,0,1-.193.446,1.566,1.566,0,0,1-.213.312.743.743,0,0,1-.232.18.5.5,0,0,1-.252.047.442.442,0,0,1-.222-.085.968.968,0,0,1-.217-.221,2.334,2.334,0,0,1-.211-.357,4.993,4.993,0,0,1-.206-.492q-.1-.28-.187-.607t-.154-.7q-.069-.375-.121-.8t-.089-.892L0,25.82q.052.688.121,1.3t.153,1.143q.085.533.187.989t.22.834q.118.379.242.683a4.736,4.736,0,0,0,.254.535,2.343,2.343,0,0,0,.266.387,1.105,1.105,0,0,0,.278.238v3.7l.711.089V31.843a.751.751,0,0,0,.326-.22,1.992,1.992,0,0,0,.3-.457,5.046,5.046,0,0,0,.279-.7q.134-.407.255-.934t.213-1.156q.092-.629.153-1.359t.092-1.561q.031-.831.031-1.761,0-.45-.008-.876T4.05,22q-.016-.4-.039-.773t-.054-.722q-.031-.348-.065-.663t-.072-.6q-.038-.281-.079-.53t-.086-.463q-.045-.215-.1-.415t-.11-.385q-.059-.185-.124-.355t-.138-.325q-.072-.155-.142-.289t-.136-.247q-.067-.113-.13-.206t-.125-.164q-.061-.072-.128-.142t-.139-.139q-.072-.069-.151-.136t-.162-.134Q2,15.259,1.935,15.2T1.813,15.1q-.057-.052-.106-.1t-.09-.1a1.263,1.263,0,0,1-.083-.109q-.042-.062-.086-.137t-.09-.166q-.046-.09-.093-.195t-.088-.224q-.041-.12-.075-.256t-.062-.287q-.028-.151-.049-.318t-.038-.354q-.016-.187-.027-.4T.91,12.023Q.9,11.794.9,11.545q0-.517.018-.973t.062-.851q.042-.4.105-.73a5.531,5.531,0,0,1,.149-.609A4.365,4.365,0,0,1,1.417,7.9a2.053,2.053,0,0,1,.194-.351.885.885,0,0,1,.21-.218.455.455,0,0,1,.227-.085.4.4,0,0,1,.185.054.7.7,0,0,1,.179.151,1.509,1.509,0,0,1,.173.249,3.082,3.082,0,0,1,.167.347,4.525,4.525,0,0,1,.153.434q.071.236.13.509t.107.584q.047.311.083.659Z" transform="translate(5.994 31.694)" fill="#da8102"/>
      <path id="Path_122-2" data-name="Path 122" d="M3.81,8.288q-.056-.571-.12-1.062t-.135-.9q-.071-.412-.149-.745T3.243,4.99q-.085-.254-.18-.463a3.1,3.1,0,0,0-.2-.373,1.861,1.861,0,0,0-.215-.283,1.154,1.154,0,0,0-.232-.194V.2L1.707.293V3.747a1.189,1.189,0,0,0-.147.131,1.73,1.73,0,0,0-.143.171,2.525,2.525,0,0,0-.139.211q-.068.115-.135.251t-.13.3q-.064.16-.125.344t-.12.393q-.059.209-.115.442t-.107.5q-.05.265-.095.56t-.083.623Q.33,7.995.3,8.353t-.057.738q-.024.38-.041.782T.176,10.7q-.008.424-.008.87,0,.361,0,.7t.013.664q.009.322.021.626t.03.588q.017.284.038.545t.047.5q.026.237.055.45t.064.4q.034.19.069.365t.071.337q.036.162.073.309t.074.281q.038.133.08.256t.091.235q.048.112.1.214t.111.192q.058.091.113.171t.107.15q.052.07.1.129t.094.107q.045.048.1.1t.109.1q.058.048.121.1t.133.1q.07.058.135.119t.125.124q.06.063.115.129t.105.134q.05.068.1.15t.1.176q.05.095.1.2t.1.23q.049.122.092.263t.08.3q.037.161.068.341t.057.379q.025.2.044.415t.032.446q.013.231.019.477t.006.508q0,.6-.023,1.117t-.068.944q-.046.429-.114.771A4.318,4.318,0,0,1,2.9,27a3.3,3.3,0,0,1-.192.444,1.56,1.56,0,0,1-.211.311.737.737,0,0,1-.231.179.5.5,0,0,1-.25.047.437.437,0,0,1-.22-.084.962.962,0,0,1-.215-.22,2.327,2.327,0,0,1-.21-.356,4.985,4.985,0,0,1-.2-.491q-.1-.279-.186-.6t-.153-.7q-.068-.373-.12-.794t-.088-.889L0,25.718q.052.686.12,1.293T.272,28.15q.084.531.185.985t.218.831q.117.377.241.68a4.726,4.726,0,0,0,.252.533,2.334,2.334,0,0,0,.264.385,1.1,1.1,0,0,0,.275.237v3.684l.705.089V31.718a.745.745,0,0,0,.323-.219,1.985,1.985,0,0,0,.3-.455,5.038,5.038,0,0,0,.277-.692q.133-.406.253-.93t.211-1.151q.091-.626.151-1.353t.091-1.555q.03-.828.03-1.754,0-.449-.008-.872t-.023-.821q-.015-.4-.038-.77t-.054-.719q-.031-.346-.065-.66t-.072-.594q-.037-.28-.078-.527t-.085-.461q-.044-.214-.1-.413t-.109-.384q-.058-.184-.123-.354t-.137-.324q-.072-.154-.141-.288t-.135-.247q-.066-.113-.129-.205T2.633,15.8q-.06-.072-.127-.142t-.138-.139q-.072-.069-.149-.136t-.161-.133q-.073-.056-.138-.11T1.8,15.038q-.057-.052-.105-.1t-.089-.1a1.257,1.257,0,0,1-.083-.108q-.042-.061-.086-.137t-.089-.165q-.045-.09-.092-.194t-.087-.224q-.04-.12-.074-.255t-.062-.286Q1,13.322.982,13.155T.945,12.8q-.016-.187-.027-.394T.9,11.974Q.9,11.746.9,11.5q0-.515.018-.969t.061-.848q.041-.394.1-.727a5.525,5.525,0,0,1,.148-.607,4.357,4.357,0,0,1,.177-.481A2.046,2.046,0,0,1,1.6,7.516.88.88,0,0,1,1.807,7.3a.45.45,0,0,1,.225-.084.391.391,0,0,1,.183.054.7.7,0,0,1,.178.151,1.5,1.5,0,0,1,.172.248,3.077,3.077,0,0,1,.166.346,4.522,4.522,0,0,1,.152.432q.07.235.129.507t.106.582q.047.31.083.657Z" transform="translate(5.463 31.804)" fill="#fdca05"/>
    </g>
  </g>
</svg>
