<svg id="Group_5" data-name="Group 5" xmlns="http://www.w3.org/2000/svg" width="95.076" height="96.118" viewBox="0 0 95.076 96.118">
  <g id="Group_2" data-name="Group 2" transform="translate(6.365 -0.001)">
    <path id="Ellipse_1" data-name="Ellipse 1" d="M43.463.966A41.947,41.947,0,0,1,60.857,4.324a44.259,44.259,0,0,1,14.41,9.955,47.351,47.351,0,0,1,9.821,15.1,49.95,49.95,0,0,1,0,37.353,47.346,47.346,0,0,1-9.821,15.1,44.253,44.253,0,0,1-14.41,9.953,42.12,42.12,0,0,1-34.518-.682A44.513,44.513,0,0,1,12.551,80.887a47.53,47.53,0,0,1-9.2-14.835,49.967,49.967,0,0,1,0-35.993,47.524,47.524,0,0,1,9.2-14.835A44.507,44.507,0,0,1,26.339,5,42.064,42.064,0,0,1,43.463.966Z" transform="translate(0 0)" fill="#da8102"/>
    <path id="Ellipse_2" data-name="Ellipse 2" d="M33.417.563A32.092,32.092,0,0,1,46.7,3.2a33.888,33.888,0,0,1,10.97,7.647,36.269,36.269,0,0,1,7.458,11.539,38.26,38.26,0,0,1,0,28.473,36.265,36.265,0,0,1-7.458,11.539A33.884,33.884,0,0,1,46.7,70.04a32.213,32.213,0,0,1-26.416-.4,34.038,34.038,0,0,1-10.606-7.8A36.374,36.374,0,0,1,2.589,50.454a38.27,38.27,0,0,1,0-27.675A36.37,36.37,0,0,1,9.682,11.4a34.034,34.034,0,0,1,10.606-7.8A32.161,32.161,0,0,1,33.417.563Z" transform="translate(9.103 11.439)" fill="#da8102"/>
    <path id="Ellipse_3" data-name="Ellipse 3" d="M32.085.51A30.816,30.816,0,0,1,44.832,3.046a32.531,32.531,0,0,1,10.519,7.339A34.79,34.79,0,0,1,62.5,21.449a36.667,36.667,0,0,1,0,27.288A34.764,34.764,0,0,1,55.352,59.8,32.506,32.506,0,0,1,44.832,67.13a30.928,30.928,0,0,1-25.348-.373A32.668,32.668,0,0,1,9.3,59.273a34.886,34.886,0,0,1-6.813-10.92,36.677,36.677,0,0,1,0-26.554A34.861,34.861,0,0,1,9.3,10.883,32.643,32.643,0,0,1,19.484,3.406,30.87,30.87,0,0,1,32.085.51Z" transform="translate(11.849 13.474)" fill="#da8102"/>
  </g>
  <g id="Group_1" data-name="Group 1" transform="translate(0 0.049)">
    <path id="Ellipse_1-2" data-name="Ellipse 1" d="M43.2.962a41.585,41.585,0,0,1,17.29,3.349,43.988,43.988,0,0,1,14.322,9.924,47.221,47.221,0,0,1,9.761,15.057,49.939,49.939,0,0,1,0,37.239,47.221,47.221,0,0,1-9.761,15.057,43.988,43.988,0,0,1-14.322,9.924,41.752,41.752,0,0,1-34.311-.676A44.252,44.252,0,0,1,12.477,80.646,47.407,47.407,0,0,1,3.334,65.855a49.957,49.957,0,0,1,0-35.886,47.406,47.406,0,0,1,9.144-14.791A44.252,44.252,0,0,1,26.183,4.987,41.709,41.709,0,0,1,43.2.962Z" transform="translate(0 -0.001)" fill="#fecb03"/>
    <path id="Ellipse_2-2" data-name="Ellipse 2" d="M33.246.562A31.855,31.855,0,0,1,46.464,3.188a33.711,33.711,0,0,1,10.913,7.627A36.183,36.183,0,0,1,64.8,22.324a38.252,38.252,0,0,1,0,28.4,36.183,36.183,0,0,1-7.419,11.509,33.711,33.711,0,0,1-10.913,7.627,31.972,31.972,0,0,1-26.28-.4A33.866,33.866,0,0,1,9.633,61.678,36.292,36.292,0,0,1,2.576,50.325a38.263,38.263,0,0,1,0-27.6A36.292,36.292,0,0,1,9.633,11.368,33.866,33.866,0,0,1,20.184,3.585,31.928,31.928,0,0,1,33.246.562Z" transform="translate(9.959 11.388)" fill="#da8102"/>
    <path id="Ellipse_3-2" data-name="Ellipse 3" d="M31.921.509A30.588,30.588,0,0,1,44.6,3.038a32.36,32.36,0,0,1,10.465,7.319,34.708,34.708,0,0,1,7.112,11.035,36.66,36.66,0,0,1,0,27.216,34.687,34.687,0,0,1-7.112,11.032A32.34,32.34,0,0,1,44.6,66.955a30.7,30.7,0,0,1-25.217-.37A32.5,32.5,0,0,1,9.253,59.122,34.807,34.807,0,0,1,2.475,48.23a36.67,36.67,0,0,1,0-26.487A34.786,34.786,0,0,1,9.253,10.856,32.481,32.481,0,0,1,19.385,3.4,30.646,30.646,0,0,1,31.921.509Z" transform="translate(12.691 13.417)" fill="#f0aa00"/>
  </g>
  <path id="Path_123" data-name="Path 123" d="M20.843,8.246A10.4,10.4,0,0,0,20.2,7.18a8.466,8.466,0,0,0-.724-.909,7.212,7.212,0,0,0-.8-.753,6.549,6.549,0,0,0-.883-.6,9.588,9.588,0,0,0-.972-.474,11.148,11.148,0,0,0-1.069-.386q-.559-.171-1.166-.3t-1.263-.21V.071L9.428.1V3.58q-.408.051-.806.122t-.785.163q-.387.092-.764.2t-.743.245q-.366.132-.719.29t-.691.34q-.339.183-.664.391t-.636.441a6.51,6.51,0,0,0-.59.5,6.436,6.436,0,0,0-.524.563,6.641,6.641,0,0,0-.458.627,7.132,7.132,0,0,0-.393.691,6.529,6.529,0,0,0-.315.746,6.843,6.843,0,0,0-.225.791,7.479,7.479,0,0,0-.135.837,8.463,8.463,0,0,0-.045.882q0,.366.024.712t.071.674q.047.327.118.635t.165.6a5.721,5.721,0,0,0,.213.553,5.038,5.038,0,0,0,.26.505,4.591,4.591,0,0,0,.307.457,4.358,4.358,0,0,0,.355.409q.189.192.383.371t.392.342q.2.164.4.313t.411.284q.208.135.443.259t.5.237q.264.113.557.216t.614.194q.321.092.624.173t.588.151q.285.07.552.129t.516.108q.249.048.531.1t.6.1q.315.048.664.1t.73.1q.382.058.736.119t.682.124q.327.063.628.129t.573.134q.273.068.544.149t.54.176q.269.095.536.2t.531.229a4.941,4.941,0,0,1,.5.262,4.088,4.088,0,0,1,.434.3,3.521,3.521,0,0,1,.37.34,3.205,3.205,0,0,1,.306.379,3.027,3.027,0,0,1,.411.859,3.234,3.234,0,0,1,.1.477,3.68,3.68,0,0,1,.034.508,4.8,4.8,0,0,1-.123,1.117,3.557,3.557,0,0,1-.37.947,3.3,3.3,0,0,1-.617.776,3.962,3.962,0,0,1-.863.6,7.85,7.85,0,0,1-1.04.453,9.126,9.126,0,0,1-1.148.322,11.055,11.055,0,0,1-1.256.19q-.655.062-1.363.059a10.487,10.487,0,0,1-1.2-.074,10.255,10.255,0,0,1-1.178-.212,10.443,10.443,0,0,1-1.152-.349,11.061,11.061,0,0,1-1.126-.486,8.053,8.053,0,0,1-1.023-.6,6.357,6.357,0,0,1-.844-.7,5.414,5.414,0,0,1-.665-.8,5.123,5.123,0,0,1-.486-.9L0,25.767a9.248,9.248,0,0,0,.666,1.308,8.429,8.429,0,0,0,1.873,2.136,9.18,9.18,0,0,0,1.208.829,13.754,13.754,0,0,0,1.329.674,13.579,13.579,0,0,0,1.39.523,13.894,13.894,0,0,0,1.451.372,14.714,14.714,0,0,0,1.511.221v3.71l3.853.031V31.7a12.628,12.628,0,0,0,1.756-.241,11.008,11.008,0,0,0,1.626-.475,10.232,10.232,0,0,0,2.861-1.652,7.17,7.17,0,0,0,1.138-1.159,6.611,6.611,0,0,0,.814-1.356,7.2,7.2,0,0,0,.488-1.553,9.023,9.023,0,0,0,.163-1.749q0-.447-.041-.869a7.668,7.668,0,0,0-.124-.818,6.788,6.788,0,0,0-.206-.767,6.237,6.237,0,0,0-.289-.716Q21.3,20,21.118,19.69t-.385-.591a6.53,6.53,0,0,0-.421-.526,5.841,5.841,0,0,0-.458-.46,6.206,6.206,0,0,0-.514-.413q-.276-.2-.589-.383t-.664-.354q-.351-.17-.739-.325t-.761-.289q-.373-.134-.731-.248t-.7-.207q-.343-.093-.671-.165t-.688-.143q-.36-.071-.751-.141t-.814-.138q-.423-.068-.877-.136-.4-.058-.755-.113t-.666-.108q-.311-.053-.577-.1t-.489-.1q-.222-.048-.453-.11T7.942,14.5q-.24-.077-.489-.168t-.507-.2a4.838,4.838,0,0,1-.481-.227,3.678,3.678,0,0,1-.41-.259,2.881,2.881,0,0,1-.34-.29,2.353,2.353,0,0,1-.476-.679,2.607,2.607,0,0,1-.147-.4A3.066,3.066,0,0,1,5,11.842a3.8,3.8,0,0,1-.029-.481,3.909,3.909,0,0,1,.1-.979,3.187,3.187,0,0,1,.338-.855,3.3,3.3,0,0,1,.575-.73A4.268,4.268,0,0,1,6.8,8.191a7.466,7.466,0,0,1,.974-.477A8.052,8.052,0,0,1,8.835,7.37a9.161,9.161,0,0,1,1.144-.208,10.86,10.86,0,0,1,1.229-.074q.509.007,1,.063a9.513,9.513,0,0,1,.968.16,9.126,9.126,0,0,1,1.835.611,7.028,7.028,0,0,1,.822.44,5.625,5.625,0,0,1,.7.513,4.768,4.768,0,0,1,.572.587,4.388,4.388,0,0,1,.447.66Z" transform="translate(34.073 30.139)" fill="#da8102"/>
  <path id="Path_122" data-name="Path 122" d="M20.789,8.235a10.384,10.384,0,0,0-.643-1.064,8.453,8.453,0,0,0-.723-.908,7.2,7.2,0,0,0-.8-.752,6.531,6.531,0,0,0-.881-.6,9.558,9.558,0,0,0-.969-.474A11.109,11.109,0,0,0,15.7,4.057q-.557-.171-1.163-.3T13.283,3.55V.071L9.4.1V3.576Q9,3.626,8.6,3.7t-.783.163q-.386.092-.762.2t-.741.244q-.365.132-.717.29t-.689.34q-.338.183-.662.39t-.635.44a6.5,6.5,0,0,0-.588.5,6.425,6.425,0,0,0-.523.562,6.632,6.632,0,0,0-.457.626,7.125,7.125,0,0,0-.392.69,6.525,6.525,0,0,0-.314.745,6.841,6.841,0,0,0-.224.79,7.478,7.478,0,0,0-.135.836,8.463,8.463,0,0,0-.045.881q0,.365.024.711t.071.673q.047.327.118.634t.165.6a5.718,5.718,0,0,0,.212.552,5.034,5.034,0,0,0,.259.5,4.585,4.585,0,0,0,.307.456,4.351,4.351,0,0,0,.354.408q.189.192.382.37t.391.341q.2.163.4.313t.41.284q.207.135.442.259t.5.237q.264.113.555.216t.612.194q.32.092.623.172t.587.151q.284.07.551.129t.515.108q.249.048.53.1t.6.1q.314.048.662.1t.728.1q.381.058.734.119t.68.124q.327.063.626.128t.572.133q.272.068.543.149t.538.176q.268.095.534.2t.53.229a4.925,4.925,0,0,1,.5.262,4.077,4.077,0,0,1,.432.3,3.513,3.513,0,0,1,.369.339,3.2,3.2,0,0,1,.305.378,3.025,3.025,0,0,1,.41.858,3.234,3.234,0,0,1,.1.476,3.681,3.681,0,0,1,.034.507,4.8,4.8,0,0,1-.123,1.116,3.555,3.555,0,0,1-.369.945,3.3,3.3,0,0,1-.615.775,3.951,3.951,0,0,1-.86.6,7.825,7.825,0,0,1-1.037.453,9.094,9.094,0,0,1-1.145.321,11.013,11.013,0,0,1-1.253.19q-.653.062-1.36.059a10.445,10.445,0,0,1-1.2-.074,10.215,10.215,0,0,1-1.175-.212A10.405,10.405,0,0,1,7.546,27.3a11.023,11.023,0,0,1-1.123-.485,8.029,8.029,0,0,1-1.02-.6,6.342,6.342,0,0,1-.841-.7,5.4,5.4,0,0,1-.663-.8,5.118,5.118,0,0,1-.485-.9L0,25.733a9.24,9.24,0,0,0,.664,1.306,8.415,8.415,0,0,0,1.868,2.134A9.155,9.155,0,0,0,3.738,30a13.711,13.711,0,0,0,1.326.673A13.532,13.532,0,0,0,6.45,31.2a13.844,13.844,0,0,0,1.447.372,14.657,14.657,0,0,0,1.507.221v3.705l3.842.031V31.658A12.579,12.579,0,0,0,15,31.418a10.969,10.969,0,0,0,1.622-.474,10.2,10.2,0,0,0,2.854-1.65,7.156,7.156,0,0,0,1.135-1.158,6.6,6.6,0,0,0,.811-1.354,7.193,7.193,0,0,0,.487-1.551,9.022,9.022,0,0,0,.162-1.746q0-.446-.041-.867A7.666,7.666,0,0,0,21.9,21.8a6.786,6.786,0,0,0-.206-.766,6.233,6.233,0,0,0-.288-.715q-.165-.345-.347-.656t-.384-.591a6.52,6.52,0,0,0-.42-.525,5.83,5.83,0,0,0-.457-.459,6.192,6.192,0,0,0-.512-.412q-.275-.2-.587-.383t-.662-.353q-.35-.169-.737-.324t-.759-.289q-.372-.134-.729-.247t-.7-.206q-.342-.093-.669-.165t-.686-.143q-.359-.071-.749-.141t-.812-.138q-.422-.068-.875-.135-.4-.057-.753-.113t-.664-.108q-.31-.053-.576-.1t-.487-.1q-.222-.048-.452-.11t-.47-.139q-.239-.077-.488-.168t-.506-.2a4.823,4.823,0,0,1-.479-.227,3.668,3.668,0,0,1-.409-.258,2.875,2.875,0,0,1-.339-.29,2.35,2.35,0,0,1-.474-.678,2.606,2.606,0,0,1-.146-.4,3.066,3.066,0,0,1-.088-.439,3.8,3.8,0,0,1-.029-.48,3.908,3.908,0,0,1,.1-.978A3.185,3.185,0,0,1,5.4,9.515a3.292,3.292,0,0,1,.574-.73,4.257,4.257,0,0,1,.811-.606A7.443,7.443,0,0,1,7.756,7.7a8.023,8.023,0,0,1,1.056-.342,9.126,9.126,0,0,1,1.141-.208,10.817,10.817,0,0,1,1.226-.074q.507.007,1,.063a9.477,9.477,0,0,1,.965.16,9.094,9.094,0,0,1,1.831.61,7.007,7.007,0,0,1,.82.439,5.61,5.61,0,0,1,.7.512,4.759,4.759,0,0,1,.57.586,4.382,4.382,0,0,1,.445.659Z" transform="translate(31.227 30.168)" fill="#fdca05"/>
</svg>
