<svg width="410" height="390" viewBox="0 0 136 189" fill="none" xmlns="http://www.w3.org/2000/svg">
<path d="M47.959 82.3333C46.7257 82.3333 45.6465 81.8708 44.7215 80.9458C43.7965 80.0208 43.334 78.9417 43.334 77.7083V66.6854H47.959V77.7083H88.0423V66.6854H92.6673V77.7083C92.6673 78.9417 92.2048 80.0208 91.2798 80.9458C90.3548 81.8708 89.2756 82.3333 88.0423 82.3333H47.959ZM68.0007 70.5396L53.1236 55.6625L56.4382 52.3479L65.6881 61.5979V33H70.3132V61.5979L79.5631 52.3479L82.8777 55.6625L68.0007 70.5396Z" fill="white"/>
<path d="M133 19.2314C81.7205 -10.1652 24.9669 6.98281 3 19.2314C3 80.6786 46.419 119.347 68.1285 131C120.231 104.665 133.085 45.5149 133 19.2314Z" stroke="white" stroke-width="5"/>
<path d="M8.69219 159.5V159.475H15.0672C16.4922 159.475 17.7922 159.725 18.9422 160.2C20.0922 160.7 21.0172 161.35 21.7172 162.15C22.4172 162.975 22.9422 163.9 23.3172 164.9C23.6672 165.9 23.8672 166.95 23.8672 168.05C23.8672 169.2 23.6922 170.3 23.3422 171.35C22.9922 172.4 22.4672 173.35 21.7672 174.2C21.0672 175.05 20.1422 175.75 18.9922 176.25C17.8422 176.75 16.5172 177 15.0672 177H8.69219V159.5ZM15.0672 174.825C17.2172 174.825 18.8672 174.175 19.9922 172.825C21.1172 171.475 21.6922 169.875 21.6922 168.025C21.6922 166.275 21.1172 164.75 19.9672 163.475C18.8172 162.225 17.1672 161.575 15.0672 161.575H10.8672V174.825H15.0672ZM26.0701 170.85C26.0701 168.95 26.6701 167.4 27.8701 166.2C29.0701 165 30.6201 164.375 32.4701 164.375C34.3451 164.375 35.8951 164.975 37.0951 166.175C38.2951 167.375 38.8951 168.95 38.8951 170.85C38.8951 172.725 38.2701 174.25 37.0701 175.45C35.8701 176.65 34.3201 177.225 32.4701 177.225C30.6201 177.225 29.0701 176.65 27.8701 175.45C26.6701 174.25 26.0701 172.725 26.0701 170.85ZM36.8701 170.85C36.8701 169.5 36.4451 168.4 35.6201 167.55C34.7701 166.7 33.7451 166.25 32.4951 166.25C31.2201 166.25 30.1701 166.675 29.3451 167.525C28.5201 168.375 28.1201 169.5 28.1201 170.85C28.1201 172.15 28.5201 173.225 29.3451 174.05C30.1451 174.9 31.1951 175.3 32.4701 175.3C33.7201 175.3 34.7701 174.9 35.5951 174.05C36.4201 173.225 36.8451 172.15 36.8701 170.85ZM40.3453 164.65H42.6203L45.9453 174.825L49.2203 164.65H50.8953L54.1703 174.825L57.4953 164.65H59.7453L55.4203 177.025H53.0703L51.3953 172.425L50.0703 167.925L48.7203 172.425L47.0453 177.025H44.7203L40.3453 164.65ZM62.417 164.65V164.625H64.292L64.392 166.6C65.442 165.175 66.842 164.45 68.617 164.45C70.217 164.45 71.517 164.975 72.517 166C73.517 167.025 74.042 168.425 74.042 170.175V177H71.992V170.2C71.992 169 71.642 168.075 70.992 167.375C70.317 166.7 69.392 166.35 68.242 166.35C67.117 166.375 66.192 166.775 65.492 167.525C64.792 168.3 64.442 169.25 64.442 170.375V177H62.417V164.65ZM79.827 159.5V177H77.777V159.5H79.827ZM82.9305 170.85C82.9305 168.95 83.5305 167.4 84.7305 166.2C85.9305 165 87.4805 164.375 89.3305 164.375C91.2055 164.375 92.7555 164.975 93.9555 166.175C95.1555 167.375 95.7555 168.95 95.7555 170.85C95.7555 172.725 95.1305 174.25 93.9305 175.45C92.7305 176.65 91.1805 177.225 89.3305 177.225C87.4805 177.225 85.9305 176.65 84.7305 175.45C83.5305 174.25 82.9305 172.725 82.9305 170.85ZM93.7305 170.85C93.7305 169.5 93.3055 168.4 92.4805 167.55C91.6305 166.7 90.6055 166.25 89.3555 166.25C88.0805 166.25 87.0305 166.675 86.2055 167.525C85.3805 168.375 84.9805 169.5 84.9805 170.85C84.9805 172.15 85.3805 173.225 86.2055 174.05C87.0055 174.9 88.0555 175.3 89.3305 175.3C90.5805 175.3 91.6305 174.9 92.4555 174.05C93.2805 173.225 93.7055 172.15 93.7305 170.85ZM108.896 177L108.846 177.05L108.796 174.8C108.321 175.625 107.671 176.25 106.846 176.675C105.996 177.1 105.146 177.3 104.246 177.3C102.421 177.3 100.921 176.725 99.7213 175.55C98.5213 174.375 97.9213 172.8 97.9213 170.825C97.9213 168.875 98.5213 167.325 99.7213 166.175C100.921 165.025 102.446 164.45 104.271 164.45C105.221 164.45 106.096 164.675 106.946 165.1C107.771 165.525 108.396 166.125 108.846 166.9L108.871 164.65H110.871V177H108.896ZM104.371 166.375L104.346 166.4C103.096 166.4 102.046 166.825 101.196 167.65C100.346 168.475 99.9213 169.55 99.9213 170.9C99.9213 172.25 100.346 173.35 101.196 174.175C102.046 175.025 103.096 175.425 104.346 175.425C105.146 175.425 105.871 175.275 106.521 174.925C107.171 174.6 107.646 174.175 107.996 173.625C108.321 173.1 108.571 172.525 108.721 171.875C108.871 171.225 108.871 170.6 108.721 169.95C108.571 169.3 108.321 168.725 107.996 168.175C107.646 167.65 107.171 167.225 106.546 166.875C105.896 166.55 105.171 166.375 104.371 166.375ZM126.739 159.5L126.764 159.475V176.975H124.839L124.739 174.725C124.239 175.55 123.589 176.175 122.764 176.6C121.939 177.025 121.064 177.225 120.114 177.225C118.289 177.225 116.789 176.675 115.614 175.525C114.439 174.375 113.864 172.825 113.864 170.825C113.864 168.825 114.439 167.25 115.614 166.125C116.764 165 118.264 164.425 120.089 164.425C121.014 164.425 121.914 164.65 122.789 165.075C123.639 165.5 124.289 166.1 124.714 166.9V159.5H126.739ZM120.239 166.325H120.264C119.014 166.325 117.964 166.725 117.139 167.525C116.314 168.325 115.914 169.4 115.914 170.8C115.914 172.2 116.314 173.275 117.139 174.075C117.964 174.875 119.014 175.275 120.264 175.275C121.514 175.275 122.539 174.875 123.389 174.025C124.214 173.2 124.639 172.125 124.639 170.775C124.639 169.475 124.214 168.425 123.364 167.575C122.514 166.75 121.489 166.325 120.239 166.325Z" fill="white"/>
</svg>
