<svg width="410" height="390" viewBox="0 0 410 390" fill="none" xmlns="http://www.w3.org/2000/svg">
<path d="M138.499 136.5C138.499 61.9416 198.941 1.50001 273.499 1.50002C348.057 1.50003 408.499 61.9416 408.499 136.5C408.499 211.058 348.057 271.5 273.499 271.5C198.941 271.5 138.499 211.058 138.499 136.5Z" stroke="url(#paint0_linear_234_100859)" stroke-width="3"/>
<circle cx="136.5" cy="136.5" r="135" transform="rotate(-180 136.5 136.5)" stroke="url(#paint1_linear_234_100859)" stroke-width="3"/>
<path d="M70.5 253.5C70.5 178.942 130.942 118.5 205.5 118.5C280.058 118.5 340.5 178.942 340.5 253.5C340.5 328.058 280.058 388.5 205.5 388.5C130.942 388.5 70.5 328.058 70.5 253.5Z" stroke="url(#paint2_linear_234_100859)" stroke-width="3"/>
<defs>
<linearGradient id="paint0_linear_234_100859" x1="377.5" y1="43.5" x2="197" y2="251" gradientUnits="userSpaceOnUse">
<stop stop-color="#248CFE"/>
<stop offset="1" stop-color="#248CFE" stop-opacity="0"/>
</linearGradient>
<linearGradient id="paint1_linear_234_100859" x1="136.5" y1="-1.52588e-05" x2="136.5" y2="273" gradientUnits="userSpaceOnUse">
<stop stop-color="#2684FE"/>
<stop offset="1" stop-color="#2684FE" stop-opacity="0"/>
</linearGradient>
<linearGradient id="paint2_linear_234_100859" x1="205.5" y1="390" x2="205.5" y2="117" gradientUnits="userSpaceOnUse">
<stop stop-color="#2684FE"/>
<stop offset="1" stop-color="#2684FE" stop-opacity="0"/>
</linearGradient>
</defs>
</svg>
