<svg width="612" height="459" viewBox="0 0 612 459" fill="none" xmlns="http://www.w3.org/2000/svg">
<path d="M308.01 222.345C301.622 222.358 295.292 221.132 289.37 218.736C283.766 216.469 278.649 213.148 274.297 208.953C270.062 204.879 266.684 199.999 264.362 194.601C262.035 189.148 260.891 183.263 261.008 177.336C261.125 171.408 262.499 165.573 265.039 160.216C267.517 155.018 270.984 150.352 275.246 146.479C279.572 142.539 284.59 139.434 290.046 137.319C301.606 132.865 314.409 132.865 325.97 137.319C331.429 139.433 336.449 142.538 340.778 146.479C345.037 150.352 348.502 155.016 350.978 160.213C353.518 165.57 354.892 171.405 355.009 177.333C355.125 183.26 353.982 189.145 351.655 194.598C349.333 199.997 345.955 204.877 341.72 208.951C337.367 213.147 332.25 216.469 326.646 218.737C320.725 221.132 314.397 222.357 308.01 222.345Z" fill="#DA8102"/>
<path d="M305.98 211.633C301.11 211.642 296.285 210.712 291.768 208.894C287.491 207.172 283.582 204.648 280.253 201.459C277.009 198.356 274.417 194.638 272.628 190.522C270.83 186.352 269.937 181.848 270.01 177.308C270.083 172.768 271.118 168.295 273.049 164.186C274.936 160.187 277.585 156.595 280.849 153.612C284.169 150.571 288.026 148.173 292.222 146.541C301.111 143.098 310.966 143.098 319.856 146.541C324.048 148.173 327.901 150.571 331.217 153.612C334.475 156.595 337.119 160.187 338.999 164.186C340.922 168.299 341.949 172.773 342.014 177.314C342.078 181.854 341.177 186.356 339.372 190.522C337.574 194.639 334.975 198.357 331.725 201.459C328.39 204.648 324.477 207.171 320.197 208.894C315.678 210.712 310.851 211.642 305.98 211.633Z" fill="#DA8102"/>
<path d="M304.457 209.696C299.794 209.704 295.173 208.813 290.848 207.071C286.754 205.425 283.013 203.012 279.825 199.961C276.719 196.992 274.238 193.433 272.525 189.492C270.802 185.498 269.948 181.184 270.018 176.834C270.087 172.485 271.08 168.201 272.93 164.264C274.739 160.431 277.279 156.988 280.407 154.128C283.589 151.213 287.285 148.913 291.307 147.347C299.829 144.046 309.277 144.046 317.799 147.347C321.817 148.912 325.508 151.212 328.684 154.128C331.804 156.988 334.333 160.432 336.13 164.264C337.967 168.206 338.947 172.494 339.003 176.843C339.059 181.192 338.19 185.504 336.455 189.492C334.728 193.434 332.235 196.993 329.119 199.961C325.922 203.011 322.173 205.424 318.072 207.071C313.744 208.812 309.122 209.703 304.457 209.696Z" fill="#DA8102"/>
<path d="M308.032 218.034C301.658 218.046 295.342 216.826 289.432 214.439C283.841 212.182 278.733 208.874 274.387 204.694C270.16 200.639 266.787 195.779 264.466 190.4C262.143 184.969 261.001 179.105 261.117 173.198C261.234 167.291 262.605 161.476 265.141 156.14C267.614 150.961 271.073 146.314 275.323 142.457C279.645 138.529 284.655 135.434 290.102 133.328C301.643 128.891 314.419 128.891 325.96 133.328C331.407 135.434 336.418 138.529 340.739 142.457C344.99 146.314 348.448 150.961 350.921 156.14C353.457 161.476 354.829 167.291 354.945 173.198C355.061 179.105 353.92 184.969 351.596 190.4C349.278 195.781 345.906 200.643 341.68 204.7C337.334 208.88 332.227 212.188 326.635 214.445C320.724 216.83 314.407 218.049 308.032 218.034Z" fill="#FECB03"/>
<path d="M308.032 207.362C303.172 207.372 298.355 206.446 293.845 204.634C289.575 202.919 285.672 200.405 282.345 197.227C279.105 194.137 276.514 190.431 274.724 186.327C272.926 182.176 272.032 177.689 272.101 173.166C272.17 168.642 273.201 164.185 275.124 160.09C277.004 156.108 279.644 152.531 282.896 149.56C286.208 146.53 290.055 144.141 294.239 142.515C303.113 139.086 312.947 139.086 321.821 142.515C326.006 144.141 329.853 146.53 333.166 149.56C336.419 152.532 339.059 156.111 340.939 160.095C342.862 164.19 343.893 168.647 343.962 173.171C344.031 177.694 343.137 182.181 341.339 186.332C339.549 190.436 336.958 194.142 333.718 197.232C330.391 200.41 326.488 202.924 322.218 204.639C317.708 206.449 312.892 207.373 308.032 207.362Z" fill="#DA8102"/>
<path d="M307.988 207.482C303.329 207.491 298.711 206.603 294.388 204.867C290.295 203.223 286.553 200.813 283.363 197.767C280.256 194.803 277.772 191.25 276.054 187.316C274.326 183.333 273.465 179.028 273.527 174.687C273.589 170.346 274.573 166.068 276.414 162.137C278.217 158.31 280.752 154.874 283.874 152.021C287.05 149.11 290.74 146.815 294.755 145.253C303.27 141.957 312.707 141.957 321.222 145.253C325.237 146.815 328.927 149.11 332.104 152.021C335.225 154.874 337.757 158.311 339.559 162.137C341.401 166.068 342.386 170.346 342.449 174.687C342.511 179.028 341.65 183.333 339.923 187.316C338.205 191.25 335.721 194.802 332.614 197.765C329.424 200.811 325.682 203.221 321.589 204.865C317.265 206.602 312.648 207.491 307.988 207.482Z" fill="#F0AA00"/>
<path d="M297.54 186.27C297.745 186.62 297.972 186.957 298.219 187.278C298.454 187.583 298.709 187.871 298.984 188.14C299.249 188.4 299.534 188.639 299.835 188.856C300.132 189.07 300.445 189.261 300.772 189.426C301.108 189.596 301.453 189.748 301.805 189.881C302.167 190.019 302.546 190.143 302.943 190.253C303.34 190.363 303.754 190.46 304.186 190.543C304.618 190.626 305.067 190.695 305.534 190.75V194.067H309.705V190.75C309.997 190.72 310.285 190.682 310.57 190.638C310.855 190.594 311.136 190.544 311.413 190.487C311.69 190.431 311.964 190.367 312.233 190.297C312.502 190.227 312.769 190.151 313.033 190.068C313.296 189.986 313.553 189.895 313.806 189.796C314.059 189.698 314.306 189.591 314.549 189.476C314.792 189.362 315.03 189.239 315.263 189.107C315.496 188.976 315.724 188.837 315.947 188.69C316.167 188.546 316.379 188.388 316.581 188.218C316.778 188.052 316.964 187.875 317.14 187.686C317.316 187.498 317.48 187.3 317.632 187.091C317.785 186.881 317.926 186.662 318.053 186.434C318.181 186.206 318.294 185.969 318.39 185.725C318.486 185.48 318.566 185.229 318.629 184.973C318.693 184.712 318.741 184.446 318.771 184.178C318.802 183.9 318.817 183.62 318.815 183.34C318.815 183.109 318.805 182.884 318.786 182.664C318.767 182.445 318.74 182.232 318.707 182.025C318.672 181.819 318.629 181.619 318.577 181.425C318.525 181.232 318.465 181.044 318.396 180.86C318.329 180.682 318.252 180.507 318.165 180.336C318.081 180.172 317.986 180.012 317.883 179.858C317.68 179.557 317.44 179.282 317.168 179.039C317.035 178.918 316.897 178.801 316.755 178.689C316.613 178.577 316.472 178.47 316.333 178.366C316.191 178.263 316.047 178.163 315.901 178.066C315.755 177.97 315.608 177.88 315.46 177.798C315.311 177.714 315.153 177.632 314.984 177.554C314.815 177.476 314.634 177.403 314.44 177.333C314.251 177.262 314.051 177.195 313.84 177.133C313.629 177.071 313.41 177.01 313.183 176.95C312.954 176.893 312.732 176.839 312.516 176.788C312.3 176.738 312.09 176.69 311.887 176.646C311.687 176.602 311.49 176.562 311.297 176.525C311.104 176.489 310.92 176.455 310.746 176.425C310.569 176.395 310.38 176.365 310.179 176.334C309.978 176.304 309.769 176.27 309.55 176.233C309.326 176.203 309.09 176.173 308.843 176.142C308.596 176.112 308.337 176.081 308.066 176.051C307.795 176.015 307.534 175.978 307.283 175.94C307.032 175.902 306.79 175.864 306.558 175.824C306.326 175.785 306.104 175.745 305.891 175.704C305.678 175.664 305.475 175.622 305.282 175.579C305.089 175.537 304.896 175.49 304.705 175.44C304.514 175.39 304.323 175.336 304.133 175.276C303.943 175.218 303.754 175.155 303.566 175.087C303.378 175.02 303.191 174.949 303.004 174.873C302.824 174.801 302.649 174.719 302.478 174.628C302.32 174.544 302.167 174.45 302.02 174.347C301.883 174.251 301.752 174.145 301.63 174.03C301.514 173.921 301.406 173.803 301.308 173.677C301.213 173.556 301.129 173.427 301.056 173.291C300.984 173.159 300.924 173.02 300.876 172.876C300.828 172.732 300.793 172.584 300.77 172.433C300.746 172.277 300.734 172.118 300.735 171.959C300.733 171.608 300.778 171.257 300.869 170.917C300.953 170.604 301.086 170.306 301.262 170.033C301.441 169.76 301.662 169.516 301.915 169.309C302.194 169.083 302.5 168.893 302.827 168.743C303.184 168.577 303.551 168.435 303.927 168.317C304.325 168.194 304.73 168.093 305.14 168.016C305.579 167.933 306.022 167.872 306.468 167.833C306.93 167.793 307.411 167.772 307.912 167.772C308.338 167.772 308.765 167.794 309.189 167.836C310.029 167.922 310.859 168.094 311.664 168.35C312.071 168.48 312.472 168.63 312.864 168.8C313.24 168.962 313.605 169.149 313.955 169.36C314.273 169.553 314.574 169.771 314.855 170.013C315.116 170.238 315.354 170.488 315.567 170.759C315.771 171.02 315.946 171.301 316.09 171.598L319.747 169.793C319.542 169.366 319.302 168.957 319.028 168.57C318.756 168.188 318.452 167.829 318.118 167.499C317.777 167.163 317.409 166.856 317.018 166.58C316.607 166.292 316.175 166.036 315.726 165.812C315.263 165.582 314.791 165.375 314.308 165.191C313.825 165.008 313.332 164.848 312.828 164.711C312.325 164.578 311.811 164.465 311.287 164.373C310.763 164.281 310.23 164.215 309.687 164.173V160.73H305.609V164.316C304.987 164.356 304.368 164.434 303.756 164.55C303.174 164.662 302.601 164.813 302.04 165.002C301.499 165.185 300.972 165.407 300.463 165.667C299.962 165.925 299.481 166.219 299.024 166.549C298.583 166.865 298.179 167.228 297.82 167.633C297.482 168.015 297.192 168.437 296.959 168.89C296.727 169.348 296.552 169.833 296.44 170.333C296.321 170.868 296.26 171.413 296.26 171.96C296.258 172.231 296.271 172.501 296.299 172.769C296.325 173.026 296.368 173.28 296.425 173.531C296.481 173.774 296.552 174.013 296.639 174.246C296.724 174.475 296.824 174.698 296.939 174.913C297.054 175.128 297.175 175.332 297.303 175.526C297.431 175.72 297.564 175.904 297.703 176.078C297.842 176.25 297.989 176.414 298.145 176.569C298.298 176.722 298.458 176.865 298.627 176.999C298.801 177.137 298.981 177.266 299.168 177.385C299.362 177.509 299.569 177.629 299.789 177.744C300.009 177.86 300.242 177.97 300.489 178.076C300.736 178.182 300.997 178.282 301.27 178.376C301.543 178.47 301.812 178.561 302.076 178.648C302.343 178.732 302.601 178.81 302.851 178.881C303.101 178.953 303.349 179.018 303.595 179.076C303.838 179.135 304.075 179.187 304.307 179.232C304.539 179.278 304.783 179.323 305.038 179.367C305.293 179.412 305.559 179.456 305.838 179.5C306.117 179.544 306.405 179.588 306.704 179.631C307.004 179.675 307.315 179.718 307.638 179.76C307.922 179.797 308.189 179.833 308.438 179.867C308.687 179.902 308.924 179.935 309.148 179.967C309.369 180.001 309.575 180.034 309.764 180.067C309.953 180.101 310.127 180.132 310.286 180.16C310.444 180.191 310.605 180.224 310.77 180.26C310.935 180.296 311.101 180.34 311.27 180.392C311.441 180.441 311.616 180.494 311.793 180.551C311.97 180.609 312.151 180.671 312.336 180.738C312.511 180.801 312.683 180.873 312.851 180.953C313.003 181.026 313.149 181.108 313.291 181.198C313.419 181.281 313.541 181.373 313.656 181.473C313.761 181.565 313.858 181.665 313.946 181.773C314.03 181.88 314.104 181.993 314.167 182.112C314.231 182.233 314.284 182.36 314.326 182.49C314.371 182.626 314.404 182.766 314.426 182.907C314.448 183.058 314.459 183.211 314.459 183.363C314.468 183.676 314.433 183.989 314.354 184.291C314.278 184.579 314.156 184.852 313.994 185.101C313.823 185.361 313.616 185.593 313.378 185.792C313.111 186.016 312.818 186.209 312.507 186.365C312.169 186.538 311.821 186.688 311.463 186.814C311.092 186.945 310.713 187.052 310.328 187.135C309.924 187.223 309.515 187.287 309.103 187.328C308.666 187.372 308.227 187.393 307.788 187.392C307.425 187.386 307.069 187.365 306.718 187.328C306.367 187.292 306.023 187.24 305.685 187.172C305.347 187.106 305.014 187.023 304.685 186.924C304.356 186.826 304.036 186.713 303.725 186.585C303.425 186.464 303.133 186.324 302.851 186.166C302.593 186.022 302.345 185.859 302.111 185.678C301.893 185.511 301.691 185.325 301.505 185.122C301.328 184.93 301.17 184.721 301.033 184.498L297.54 186.27Z" fill="#DA8102"/>
<path d="M297.563 184.252C297.768 184.602 297.994 184.94 298.241 185.262C298.476 185.566 298.731 185.854 299.005 186.123C299.271 186.382 299.555 186.621 299.856 186.838C300.154 187.051 300.467 187.241 300.793 187.406C301.129 187.575 301.474 187.727 301.825 187.86C302.187 187.997 302.566 188.121 302.962 188.232C303.359 188.342 303.773 188.439 304.204 188.521C304.636 188.603 305.085 188.672 305.551 188.728V192.039H309.718V188.728C310.01 188.697 310.298 188.66 310.582 188.617C310.867 188.573 311.148 188.523 311.424 188.467C311.701 188.41 311.974 188.347 312.244 188.278C312.514 188.208 312.781 188.132 313.044 188.05C313.306 187.967 313.564 187.876 313.816 187.778C314.069 187.679 314.316 187.572 314.558 187.458C314.801 187.343 315.039 187.22 315.271 187.09C315.504 186.959 315.732 186.82 315.954 186.674C316.174 186.529 316.386 186.372 316.587 186.203C316.785 186.037 316.973 185.859 317.149 185.671C317.325 185.483 317.489 185.285 317.64 185.077C317.793 184.867 317.934 184.648 318.06 184.422C318.188 184.194 318.301 183.958 318.396 183.715C318.493 183.47 318.573 183.22 318.635 182.965C318.7 182.704 318.747 182.439 318.777 182.172C318.809 181.894 318.823 181.615 318.821 181.336C318.821 181.104 318.812 180.879 318.792 180.661C318.773 180.442 318.747 180.229 318.713 180.023C318.679 179.816 318.635 179.616 318.583 179.423C318.532 179.232 318.472 179.044 318.402 178.859C318.333 178.678 318.253 178.501 318.163 178.329C318.079 178.164 317.985 178.005 317.881 177.852C317.677 177.55 317.436 177.275 317.163 177.033C317.03 176.911 316.893 176.795 316.751 176.683C316.61 176.571 316.469 176.463 316.329 176.361C316.187 176.258 316.044 176.158 315.898 176.061C315.753 175.963 315.606 175.874 315.457 175.793C315.309 175.708 315.15 175.627 314.981 175.549C314.813 175.471 314.634 175.396 314.445 175.326C314.257 175.254 314.057 175.188 313.845 175.126C313.634 175.064 313.415 175.003 313.189 174.943C312.961 174.885 312.738 174.831 312.522 174.781C312.306 174.73 312.097 174.683 311.894 174.639C311.694 174.595 311.498 174.554 311.305 174.518C311.113 174.481 310.929 174.448 310.754 174.418C310.577 174.388 310.388 174.357 310.188 174.327C309.988 174.296 309.776 174.266 309.552 174.236C309.328 174.206 309.093 174.175 308.846 174.145C308.6 174.114 308.341 174.084 308.07 174.054C307.8 174.018 307.539 173.981 307.288 173.943C307.038 173.905 306.796 173.866 306.564 173.827C306.332 173.787 306.11 173.747 305.898 173.707C305.686 173.666 305.484 173.624 305.29 173.582C305.097 173.54 304.905 173.493 304.713 173.443C304.522 173.392 304.331 173.337 304.141 173.279C303.951 173.22 303.762 173.157 303.574 173.09C303.386 173.022 303.199 172.951 303.012 172.876C302.833 172.804 302.658 172.722 302.487 172.632C302.329 172.548 302.176 172.454 302.029 172.352C301.892 172.255 301.762 172.15 301.639 172.035C301.523 171.926 301.415 171.808 301.317 171.682C301.223 171.561 301.139 171.432 301.065 171.297C300.994 171.164 300.934 171.025 300.886 170.882C300.838 170.737 300.802 170.589 300.779 170.438C300.755 170.281 300.744 170.123 300.744 169.965C300.743 169.614 300.788 169.264 300.878 168.925C300.963 168.612 301.095 168.315 301.271 168.044C301.451 167.771 301.67 167.527 301.923 167.321C302.205 167.096 302.514 166.908 302.843 166.762C303.2 166.596 303.568 166.454 303.943 166.337C304.342 166.213 304.747 166.113 305.156 166.037C305.596 165.954 306.039 165.893 306.484 165.855C306.946 165.814 307.427 165.794 307.927 165.794C308.354 165.794 308.779 165.815 309.203 165.858C310.042 165.94 310.87 166.109 311.673 166.362C312.081 166.491 312.481 166.641 312.873 166.811C313.249 166.972 313.613 167.159 313.963 167.37C314.281 167.562 314.582 167.78 314.863 168.022C315.124 168.246 315.363 168.496 315.575 168.767C315.779 169.027 315.954 169.308 316.097 169.605L319.749 167.805C319.545 167.378 319.304 166.97 319.03 166.584C318.759 166.202 318.454 165.844 318.12 165.515C317.78 165.179 317.412 164.872 317.02 164.597C316.61 164.309 316.178 164.053 315.729 163.83C315.267 163.599 314.795 163.392 314.312 163.21C313.83 163.027 313.337 162.867 312.833 162.731C312.33 162.597 311.817 162.485 311.293 162.394C310.77 162.302 310.237 162.236 309.693 162.194V158.758H305.623V162.338C304.999 162.378 304.378 162.457 303.763 162.575C303.183 162.685 302.61 162.834 302.05 163.023C301.509 163.205 300.983 163.427 300.474 163.687C299.973 163.943 299.493 164.237 299.036 164.567C298.597 164.88 298.195 165.242 297.836 165.645C297.498 166.027 297.209 166.45 296.976 166.905C296.746 167.362 296.574 167.846 296.463 168.346C296.344 168.879 296.284 169.424 296.283 169.97C296.282 170.239 296.295 170.509 296.322 170.777C296.349 171.032 296.391 171.286 296.448 171.537C296.504 171.779 296.575 172.017 296.661 172.25C296.746 172.478 296.846 172.701 296.961 172.916C297.076 173.13 297.197 173.334 297.325 173.528C297.453 173.722 297.587 173.905 297.725 174.079C297.864 174.25 298.011 174.414 298.167 174.57C298.32 174.722 298.48 174.865 298.648 175C298.822 175.137 299.003 175.266 299.189 175.385C299.383 175.509 299.59 175.628 299.81 175.743C300.031 175.857 300.264 175.968 300.51 176.074C300.757 176.18 301.017 176.28 301.291 176.374C301.565 176.468 301.834 176.558 302.096 176.645C302.36 176.729 302.618 176.806 302.87 176.878C303.123 176.949 303.371 177.014 303.613 177.072C303.856 177.13 304.093 177.182 304.325 177.228C304.557 177.274 304.801 177.319 305.055 177.363C305.31 177.407 305.577 177.452 305.855 177.496C306.134 177.54 306.423 177.583 306.721 177.627C307.021 177.67 307.332 177.713 307.654 177.755C307.938 177.791 308.205 177.827 308.454 177.862C308.704 177.896 308.94 177.93 309.164 177.962C309.385 177.995 309.59 178.028 309.78 178.062C309.97 178.095 310.144 178.126 310.301 178.155C310.459 178.185 310.621 178.218 310.785 178.255C310.95 178.291 311.117 178.335 311.285 178.387C311.457 178.435 311.631 178.488 311.808 178.546C311.986 178.603 312.166 178.665 312.35 178.733C312.526 178.796 312.697 178.868 312.865 178.948C313.017 179.02 313.164 179.102 313.305 179.193C313.434 179.275 313.556 179.366 313.67 179.467C313.776 179.558 313.873 179.658 313.96 179.767C314.044 179.873 314.118 179.986 314.181 180.105C314.245 180.226 314.298 180.352 314.339 180.482C314.384 180.618 314.417 180.757 314.439 180.898C314.461 181.048 314.472 181.201 314.472 181.353C314.482 181.665 314.446 181.977 314.367 182.279C314.291 182.566 314.169 182.838 314.007 183.087C313.837 183.345 313.63 183.578 313.392 183.777C313.125 184 312.833 184.192 312.521 184.348C312.184 184.52 311.836 184.67 311.478 184.796C311.107 184.926 310.729 185.033 310.344 185.116C309.94 185.203 309.532 185.267 309.12 185.308C308.684 185.351 308.245 185.373 307.806 185.372C307.444 185.366 307.087 185.344 306.737 185.308C306.387 185.271 306.043 185.219 305.705 185.152C305.367 185.085 305.034 185.003 304.705 184.905C304.377 184.807 304.057 184.694 303.746 184.566C303.447 184.445 303.156 184.305 302.873 184.148C302.615 184.004 302.368 183.841 302.133 183.661C301.916 183.493 301.713 183.308 301.527 183.106C301.351 182.913 301.193 182.705 301.055 182.483L297.563 184.252Z" fill="#FDCA05"/>
<path d="M552.732 210.764C551.107 211.007 549.441 211.345 547.722 211.778C540.382 213.645 532.975 217.148 525.988 221.774L534.397 230.417C541.384 225.791 548.791 222.288 556.131 220.421C557.85 219.989 559.529 219.637 561.141 219.407L552.732 210.764Z" fill="#9CF5FE"/>
<path style="mix-blend-mode:lighten" opacity="0.2" d="M304.104 458.999C401.849 458.999 481.086 413.301 481.086 356.929C481.086 300.558 401.849 254.859 304.104 254.859C206.36 254.859 127.123 300.558 127.123 356.929C127.123 413.301 206.36 458.999 304.104 458.999Z" fill="url(#paint0_radial_1060_7305)"/>
<path d="M301.464 376.827C300.421 376.8 299.392 376.773 298.363 376.719L298.512 373.662C299.514 373.702 300.53 373.743 301.545 373.77L301.477 376.84L301.464 376.827ZM307.679 376.8L307.598 373.729C308.614 373.702 309.616 373.662 310.631 373.608L310.794 376.664C309.765 376.719 308.722 376.759 307.693 376.786L307.679 376.8ZM292.161 376.286C291.132 376.191 290.103 376.069 289.074 375.948L289.439 372.904C290.442 373.026 291.444 373.134 292.446 373.229L292.148 376.286H292.161ZM316.982 376.191L316.671 373.148C317.673 373.039 318.675 372.931 319.677 372.796L320.069 375.839C319.04 375.975 318.011 376.096 316.982 376.205V376.191ZM282.913 375.028C281.884 374.852 280.868 374.649 279.852 374.446L280.475 371.443C281.464 371.646 282.452 371.836 283.454 372.011L282.926 375.028H282.913ZM326.217 374.865L325.662 371.849C326.65 371.673 327.639 371.47 328.627 371.267L329.264 374.27C328.248 374.487 327.233 374.69 326.217 374.879V374.865ZM273.8 373.026C272.784 372.755 271.795 372.471 270.793 372.187L271.674 369.252C272.635 369.536 273.61 369.807 274.585 370.064L273.8 373.026ZM335.317 372.782L334.504 369.82C335.479 369.55 336.44 369.266 337.402 368.981L338.309 371.917C337.321 372.228 336.319 372.512 335.317 372.782ZM264.876 370.199C263.901 369.834 262.926 369.455 261.965 369.063L263.129 366.222C264.05 366.601 264.984 366.966 265.932 367.318L264.862 370.185L264.876 370.199ZM344.213 369.874L343.116 367.007C344.064 366.641 344.985 366.276 345.906 365.884L347.111 368.711C346.163 369.117 345.188 369.509 344.213 369.874ZM256.277 366.466C255.343 365.992 254.422 365.505 253.515 364.991L255.018 362.313C255.885 362.8 256.765 363.273 257.672 363.72L256.291 366.452L256.277 366.466ZM352.771 366.046L351.349 363.327C352.243 362.854 353.123 362.381 353.99 361.88C354.613 361.515 355.235 361.15 355.831 360.771L357.456 363.382C356.833 363.774 356.183 364.153 355.52 364.531C354.626 365.045 353.705 365.546 352.771 366.033V366.046ZM248.18 361.677C247.3 361.069 246.447 360.446 245.634 359.811L247.516 357.389C248.288 357.985 249.087 358.58 249.927 359.148L248.18 361.664V361.677ZM362.615 359.797L360.733 357.376C361.518 356.754 362.29 356.118 363.021 355.482L365.053 357.782C364.281 358.458 363.455 359.134 362.615 359.797ZM240.881 355.645C240.123 354.874 239.392 354.089 238.728 353.304L241.057 351.316C241.68 352.046 242.357 352.777 243.061 353.48L240.881 355.645ZM369.521 353.277L367.192 351.289C367.842 350.532 368.451 349.747 369.007 348.976L371.498 350.761C370.889 351.6 370.225 352.452 369.521 353.277ZM234.991 348.124C234.449 347.19 233.935 346.23 233.501 345.27L236.291 343.985C236.684 344.85 237.144 345.716 237.645 346.568L235.005 348.124H234.991ZM374.734 345.229L371.945 343.958C372.351 343.079 372.703 342.172 373.001 341.266L375.913 342.226C375.574 343.241 375.181 344.255 374.734 345.243V345.229ZM231.47 339.115C231.254 338.047 231.105 336.965 231.023 335.896L234.084 335.666C234.151 336.613 234.287 337.573 234.476 338.507L231.47 339.115ZM377.185 335.855L374.125 335.639C374.166 335.098 374.179 334.557 374.179 334.016C374.179 333.61 374.179 333.191 374.139 332.771L377.199 332.596C377.226 333.069 377.24 333.542 377.24 334.016C377.24 334.638 377.212 335.247 377.172 335.855H377.185ZM234.395 329.958L231.375 329.403C231.565 328.348 231.822 327.28 232.147 326.252L235.072 327.158C234.788 328.078 234.558 329.011 234.382 329.958H234.395ZM373.11 327.131C372.825 326.225 372.487 325.318 372.094 324.426L374.897 323.195C375.344 324.196 375.723 325.224 376.034 326.225L373.096 327.131H373.11ZM237.401 321.869L234.734 320.354C235.248 319.448 235.83 318.542 236.453 317.649L238.972 319.407C238.403 320.219 237.875 321.058 237.401 321.883V321.869ZM369.21 319.38C368.655 318.596 368.059 317.811 367.422 317.054L369.778 315.079C370.469 315.904 371.119 316.756 371.728 317.608L369.21 319.367V319.38ZM242.736 314.89L240.543 312.752C241.274 312.008 242.046 311.265 242.831 310.561L244.876 312.847C244.131 313.51 243.413 314.2 242.736 314.89ZM363.306 312.82C362.575 312.171 361.803 311.522 361.031 310.913L362.94 308.505C363.766 309.154 364.579 309.844 365.364 310.534L363.319 312.82H363.306ZM249.548 309.154L247.774 306.652C248.613 306.057 249.493 305.475 250.387 304.907L252.026 307.504C251.172 308.045 250.333 308.6 249.534 309.168L249.548 309.154ZM356.156 307.477C355.452 307.031 354.721 306.598 353.976 306.165L353.57 305.935L355.1 303.27L355.506 303.5C356.292 303.947 357.05 304.407 357.781 304.88L356.143 307.477H356.156ZM257.252 304.528L255.844 301.796C256.765 301.323 257.699 300.863 258.661 300.43L259.947 303.216C259.026 303.636 258.133 304.082 257.239 304.542L257.252 304.528ZM348.235 303.189C347.327 302.77 346.407 302.364 345.472 301.972L346.664 299.145C347.625 299.551 348.587 299.97 349.521 300.403L348.235 303.189ZM265.512 300.876L264.429 298.009C265.391 297.643 266.379 297.292 267.368 296.954L268.356 299.862C267.395 300.186 266.447 300.525 265.512 300.876ZM339.839 299.848C338.891 299.524 337.93 299.226 336.969 298.928L337.862 295.993C338.864 296.291 339.853 296.615 340.828 296.94L339.839 299.848ZM274.138 298.103L273.339 295.141C274.341 294.871 275.343 294.614 276.359 294.37L277.077 297.359C276.088 297.589 275.113 297.846 274.152 298.103H274.138ZM331.132 297.346C330.157 297.116 329.169 296.9 328.18 296.683L328.803 293.68C329.819 293.897 330.834 294.113 331.836 294.357L331.132 297.346ZM282.994 296.115L282.452 293.099C283.468 292.909 284.497 292.747 285.526 292.585L285.987 295.615C284.984 295.763 283.996 295.926 283.007 296.115H282.994ZM322.209 295.615C321.22 295.466 320.218 295.33 319.203 295.195L319.582 292.152C320.611 292.287 321.64 292.422 322.656 292.585L322.195 295.615H322.209ZM291.985 294.871L291.674 291.814C292.703 291.705 293.732 291.624 294.775 291.543L295.005 294.6C294.003 294.681 292.987 294.762 291.985 294.871ZM313.177 294.6C312.175 294.532 311.159 294.465 310.157 294.411L310.306 291.354C311.349 291.408 312.378 291.462 313.407 291.543L313.177 294.6ZM301.058 294.302L300.976 291.232C302.006 291.205 303.048 291.191 304.077 291.191V294.262C303.062 294.262 302.06 294.262 301.044 294.302H301.058Z" fill="#76D6FD"/>
<path opacity="0.1" d="M304.105 375.326C343.651 375.326 375.71 356.837 375.71 334.03C375.71 311.223 343.651 292.734 304.105 292.734C264.559 292.734 232.5 311.223 232.5 334.03C232.5 356.837 264.559 375.326 304.105 375.326Z" fill="#53A5F8"/>
<path d="M304.107 315.051C285.623 315.051 267.14 310.993 253.057 302.878C239.272 294.924 231.676 284.292 231.676 272.957C231.676 261.622 239.272 250.99 253.057 243.037C281.209 226.805 327.005 226.805 355.157 243.037C368.941 250.99 376.538 261.622 376.538 272.957C376.538 284.292 368.941 294.924 355.157 302.878C341.087 310.993 322.59 315.051 304.107 315.051ZM304.107 232.486C285.921 232.486 267.736 236.477 253.883 244.457C240.626 252.1 233.328 262.217 233.328 272.944C233.328 283.67 240.626 293.788 253.897 301.43C281.588 317.405 326.653 317.405 354.344 301.43C367.601 293.788 374.899 283.67 374.899 272.944C374.899 262.217 367.601 252.1 354.331 244.457C340.478 236.477 322.292 232.473 304.107 232.473V232.486Z" fill="#53A5F8"/>
<path opacity="0.5" d="M304.107 273.743C285.623 273.743 267.14 269.685 253.057 261.569C239.272 253.615 231.676 242.984 231.676 231.649C231.676 220.314 239.272 209.682 253.057 201.728C281.209 185.497 327.005 185.497 355.157 201.728C368.941 209.682 376.538 220.314 376.538 231.649C376.538 242.984 368.941 253.615 355.157 261.569C341.087 269.685 322.59 273.743 304.107 273.743ZM304.107 191.178C285.921 191.178 267.736 195.168 253.883 203.162C240.626 210.805 233.328 220.922 233.328 231.649C233.328 242.375 240.626 252.493 253.897 260.135C281.588 276.11 326.653 276.11 354.344 260.135C367.601 252.493 374.899 242.375 374.899 231.649C374.899 220.922 367.601 210.805 354.331 203.162C340.478 195.182 322.292 191.178 304.107 191.178Z" fill="#53A5F8"/>
<path opacity="0.3" d="M304.119 232.446C285.635 232.446 267.138 228.388 253.069 220.272C239.284 212.319 231.688 201.7 231.688 190.352C231.688 179.017 239.284 168.385 253.069 160.432C281.221 144.2 327.016 144.2 355.168 160.432C368.953 168.385 376.55 179.017 376.55 190.352C376.55 201.687 368.953 212.319 355.168 220.272C341.099 228.388 322.602 232.446 304.119 232.446ZM304.119 149.881C285.933 149.881 267.747 153.871 253.895 161.865C240.638 169.508 233.34 179.625 233.34 190.352C233.34 201.078 240.638 211.196 253.908 218.838C281.6 234.813 326.664 234.813 354.356 218.838C367.612 211.196 374.911 201.078 374.911 190.352C374.911 179.625 367.612 169.508 354.342 161.865C340.49 153.885 322.304 149.881 304.119 149.881Z" fill="#53A5F8"/>
<path opacity="0.1" d="M304.119 191.151C285.635 191.151 267.138 187.093 253.069 178.977C239.284 171.024 231.688 160.392 231.688 149.057C231.688 137.722 239.284 127.09 253.069 119.137C281.221 102.905 327.016 102.905 355.168 119.137C368.953 127.09 376.55 137.722 376.55 149.057C376.55 160.392 368.953 171.024 355.168 178.977C341.099 187.093 322.602 191.151 304.119 191.151ZM304.119 108.586C285.933 108.586 267.747 112.576 253.895 120.57C240.638 128.213 233.34 138.331 233.34 149.057C233.34 159.783 240.638 169.901 253.908 177.543C281.6 193.518 326.664 193.518 354.356 177.543C367.612 169.901 374.911 159.783 374.911 149.057C374.911 138.331 367.612 128.213 354.342 120.57C340.49 112.59 322.304 108.586 304.119 108.586Z" fill="#53A5F8"/>
<path d="M238.959 261.245C238.959 263.193 237.375 264.776 235.425 264.776C233.475 264.776 231.891 263.193 231.891 261.245C231.891 259.297 233.475 257.715 235.425 257.715C237.375 257.715 238.959 259.297 238.959 261.245Z" fill="#6BD2FE"/>
<path d="M346.19 243.227C348.142 243.227 349.725 241.646 349.725 239.696C349.725 237.747 348.142 236.166 346.19 236.166C344.239 236.166 342.656 237.747 342.656 239.696C342.656 241.646 344.239 243.227 346.19 243.227Z" fill="#6BD2FE"/>
<path d="M313.098 190.353C313.098 192.3 311.513 193.883 309.564 193.883C307.614 193.883 306.029 192.3 306.029 190.353C306.029 188.405 307.614 186.822 309.564 186.822C311.513 186.822 313.098 188.405 313.098 190.353Z" fill="#6BD2FE"/>
<path d="M257.443 160.974C257.443 162.922 255.859 164.504 253.909 164.504C251.959 164.504 250.375 162.922 250.375 160.974C250.375 159.026 251.959 157.443 253.909 157.443C255.859 157.443 257.443 159.026 257.443 160.974Z" fill="#6BD2FE"/>
<path d="M341.68 154.523C341.68 156.47 340.095 158.053 338.146 158.053C336.196 158.053 334.611 156.47 334.611 154.523C334.611 152.575 336.196 150.992 338.146 150.992C340.095 150.992 341.68 152.575 341.68 154.523Z" fill="#6BD2FE"/>
<path d="M371.647 130.648C371.647 132.595 370.062 134.178 368.112 134.178C366.162 134.178 364.578 132.595 364.578 130.648C364.578 128.7 366.162 127.117 368.112 127.117C370.062 127.117 371.647 128.7 371.647 130.648Z" fill="#6BD2FE"/>
<path d="M297.931 28.1044C299.285 27.5634 305.988 23.6002 304.011 16.6341C302.034 9.65448 293.869 12.5221 291.526 13.6448C289.183 14.7674 289.955 15.0921 284.823 16.4177C279.691 17.7432 278.202 16.9046 271.093 18.3249C263.97 19.7587 259.637 19.4746 259.637 19.4746C265.906 14.9703 269.711 6.61105 268.344 2.72899C266.976 -1.15308 260.002 -0.449709 257.321 2.07972C254.64 4.60915 248.195 10.2091 245.107 10.8989C242.02 11.5887 235.344 14.294 235.344 14.294C235.344 14.294 234.83 10.4931 231.011 9.80327C227.192 9.12695 223.97 11.8052 222.67 13.8612C221.37 15.9172 216.333 17.6891 216.333 17.6891C213.882 20.0968 212.893 21.8417 208.628 23.4649C206.488 24.2765 203.211 24.2629 199.163 25.8455C187.016 30.5933 189.887 34.6647 186.082 36.9371C182.277 39.2096 176.319 43.2404 176.319 43.2404C162.317 62.8266 140.611 82.6698 123.604 96.7913C142.439 109.655 158.526 137.83 161.099 164.125C161.261 165.749 161.342 167.318 161.397 168.846C176.576 163.341 190.537 164.355 200.733 161.555C215.209 157.592 235.276 138.141 235.276 138.141C244.376 135.896 245.419 135.166 250.199 132.609C254.965 130.039 275.967 124.507 281.641 123.993C287.315 123.479 293.53 122.315 295.548 118.745C298.621 113.307 294.938 106.895 294.938 106.895C294.938 106.895 296.726 107.22 299.813 104.352C302.914 101.485 300.368 95.114 294.41 85.6185C288.439 76.123 285.974 58.4846 281.248 55.2248C276.522 51.9649 262.548 43.1593 262.548 43.1593C270.537 41.6578 283.726 35.4763 287.626 34.056C291.526 32.6222 296.563 28.659 297.917 28.118L297.931 28.1044ZM265.378 76.4206C266.556 83.1432 272.541 90.2445 273.868 91.7595C275.195 93.2744 277.254 97.5487 277.254 97.5487C276.143 97.3729 271.675 98.1845 271.675 98.1845C260.937 101.011 256.319 100.254 251.621 99.226C246.922 98.198 237.944 89.6358 241.329 85.2398C244.715 80.8302 245.513 70.3878 245.513 70.3878C246.651 71.4158 252.731 70.4149 252.731 70.4149C254.41 73.9858 265.378 76.4476 265.378 76.4476V76.4206Z" fill="url(#paint1_radial_1060_7305)"/>
<path d="M200.204 156.536C208.938 153.452 227.841 139.507 235.261 138.141C235.261 138.141 215.194 157.578 200.718 161.555C192.986 163.678 183.101 163.597 172.16 165.843L176.629 158.849C176.629 158.849 191.47 159.634 200.204 156.55V156.536Z" fill="#4B95FA"/>
<path d="M254.49 72.2541C253.677 71.6725 253.041 71.0503 252.729 70.401C252.729 70.401 252.364 70.4551 251.809 70.5363C257.455 68.8455 260.583 62.1094 260.583 62.1094C260.949 67.2088 254.503 72.2541 254.49 72.2677V72.2541Z" fill="#67E2E8"/>
<path d="M245.525 70.3746C245.525 70.3746 245.416 71.8219 245.105 73.8644C243.575 68.278 245.579 60.7168 245.579 60.7168C245.173 64.1254 247.19 70.7939 247.204 70.8075C246.446 70.7669 245.823 70.6316 245.525 70.3611V70.3746Z" fill="#67E2E8"/>
<path d="M265.891 78.5038C265.674 77.8139 265.498 77.1105 265.376 76.4207C265.376 76.4207 264.428 76.2043 263.061 75.8255C263.101 75.8255 272.241 75.6903 278.728 70.3203C278.728 70.3203 274.909 75.7579 265.891 78.5038Z" fill="#67E2E8"/>
<g opacity="0.52">
<path d="M275.641 97.5898C274.612 97.8063 273.827 97.9009 273.258 97.9145C273.989 97.7927 274.869 97.671 275.641 97.5898Z" fill="#E28C61"/>
</g>
<path d="M275.02 93.3828C275.02 93.3828 292.555 99.2262 294.952 106.896C290.835 101.485 284.701 98.0359 277.931 97.4678L277.213 97.4137C276.969 96.9132 275.994 94.9654 275.033 93.3828H275.02Z" fill="#67E2E8"/>
<path d="M267.504 41.8728C267.504 41.8728 240.097 31.3629 236.955 30.416L262.561 43.1443L267.517 41.8728H267.504Z" fill="#67E2E8"/>
<path d="M265.04 13.8887C263.591 15.9717 261.749 17.9466 259.623 19.4751C259.623 19.4751 261.573 19.5833 264.945 19.2451L254.41 20.5842C260.761 19.0557 264.146 15.0655 265.026 13.8887H265.04Z" fill="#67E2E8"/>
<path d="M233.84 15.2956C235.424 14.5246 234.625 12.5362 234.422 12.0898C235.153 13.2125 235.316 14.2946 235.316 14.2946C235.316 14.2946 236.738 13.7265 238.566 13.0367C237.13 13.5642 233.84 15.2956 233.84 15.2956Z" fill="#67E2E8"/>
<path d="M294.95 106.895C294.95 106.895 285.986 95.4386 270.996 98.3603C270.996 98.3603 277.36 96.6425 279.717 96.6966C280.976 96.7236 284.781 98.4956 287.773 100.308C290.387 101.891 292.31 103.541 292.31 103.541L294.95 106.909V106.895Z" fill="#67E2E8"/>
<path d="M167.109 106.666C167.109 106.666 191.036 133.381 182.736 159.676L172.282 159.581L167.109 106.666Z" fill="#4B95FA"/>
<path d="M141.572 81.6824C133.461 78.0033 126.379 78.4091 121.084 82.0476L109.412 90.3934C111.673 90.8668 114.016 91.6243 116.467 92.7335C138.227 102.608 158.214 134.57 161.098 164.139C161.843 171.754 161.369 178.45 159.907 184.05L171.755 175.569C178.729 170.442 182.439 159.513 180.99 144.729C178.431 118.623 160.787 90.4069 141.586 81.696L141.572 81.6824Z" fill="white"/>
<g style="mix-blend-mode:lighten">
<path d="M17.1419 148.895L17.1961 148.854C17.2367 148.814 17.2909 148.787 17.3451 148.746L93.2561 93.0985C99.2548 89 107.285 88.5401 116.465 92.7062C138.226 102.58 158.212 134.543 161.097 164.112C162.735 180.858 158.537 193.234 150.629 199.037L75.4632 254.143C75.3955 254.184 75.3413 254.224 75.2736 254.279L74.6101 254.752C68.625 258.756 60.6628 259.162 51.5633 255.036C29.8028 245.162 9.81624 213.199 6.932 183.63C5.30708 167.061 9.41001 154.765 17.1555 148.895H17.1419Z" fill="url(#paint2_linear_1060_7305)"/>
</g>
<path d="M500.084 200.213C499.583 199.442 499.109 198.617 498.663 197.751C498.663 197.751 473.544 153.209 472.163 146.635C470.782 140.048 465.27 136.991 463.131 136.571C463.131 136.571 459.529 133.433 454.966 133.325C454.966 133.325 450.646 127.171 435.155 128.374C419.664 129.578 420.003 128.699 420.003 128.699C420.003 128.699 397.999 100.104 392.609 98.7382C387.22 97.3585 385.622 98.9952 379.217 98.5759C372.812 98.1701 364.958 97.0339 359.407 99.1981C353.855 101.362 352.121 101.308 352.121 101.308C352.121 101.308 343.103 102.187 345.568 108.775C348.032 115.362 355.466 116.309 356.888 115.998C358.323 115.7 363.713 114.523 364.999 114.943C366.272 115.362 372.433 120.597 380.91 119.785C380.91 119.785 383.428 128.009 388.33 132.987C388.33 132.987 383.686 135.084 384.051 143.213C384.43 151.342 392.081 175.73 393.327 176.839C394.573 177.949 395.128 179.355 402.223 181.141C402.223 181.141 401.384 186.105 391.634 188.093C391.634 188.093 380.923 188.404 367.992 185.604C367.992 185.604 365.906 183.251 361.37 182.236C356.82 181.235 346.813 178.584 340.246 182.832C333.679 187.079 333.462 191.191 338.418 194.816C343.374 198.441 349.968 198.089 349.968 198.089C349.968 198.089 354.464 204.447 357.308 206.354C360.151 208.261 379.61 211.616 392.487 219.542C392.487 219.542 394.315 221.003 402.711 224.29C411.106 227.577 417.931 235.003 417.931 235.003C417.931 235.003 432.433 246.297 447.748 250.477C450.213 251.153 452.515 251.924 454.695 252.749C462.792 230.255 481.357 209.046 500.071 200.213H500.084Z" fill="url(#paint3_radial_1060_7305)"/>
<path d="M405.771 173.174L405.704 169.467L402.847 159.35L399.353 149.327L397.01 143.429L393.111 138.438L387.951 133.217C386.841 133.934 383.767 136.531 384.065 143.213C384.444 151.342 392.095 175.73 393.341 176.839C394.559 177.935 395.142 179.301 401.872 181.046L402.318 180.532L404.512 177.177L405.785 173.187L405.771 173.174Z" fill="#67E2E8"/>
<path d="M388.345 132.975C388.345 132.975 395.63 139.819 397.553 143.904C399.475 147.989 405.434 164.991 405.555 166.953C405.677 168.914 408.426 173.878 402.251 181.128L401.331 180.885C401.331 180.885 406.205 175.583 405.19 170.104C403.727 162.219 397.566 145.257 396.483 143.295C395.413 141.347 387.844 133.286 387.844 133.286L388.358 132.975H388.345Z" fill="#42D3D3"/>
<path d="M401.195 155.239C401.195 155.239 391.905 148.665 390.199 147.826C390.199 147.826 399.299 154.292 399.258 155.82C399.204 157.349 397.755 158.025 397.755 158.025C397.755 158.025 401.1 156.442 402.142 157.714C403.185 158.985 401.208 155.252 401.208 155.252L401.195 155.239Z" fill="#42D3D3"/>
<path d="M404.241 164.693C404.241 164.693 395.832 169.089 394.654 171.348C394.654 171.348 402.197 166.993 404.607 167.534L404.241 164.693Z" fill="#42D3D3"/>
<path d="M381.317 120.922C381.317 120.922 380.423 117.391 380.166 113.645L380.247 119.826L380.802 120.07L381.317 120.922Z" fill="#67E2E8"/>
<path d="M442.671 242.97C442.671 242.97 423.7 236.883 415.494 229.336C407.289 221.788 399.651 222.64 393.287 220.043C394.452 220.719 397.119 222.099 402.725 224.29C411.121 227.577 417.945 235.003 417.945 235.003C417.945 235.003 431.337 245.432 445.989 249.963L442.685 242.984L442.671 242.97Z" fill="#4B95FA"/>
<path d="M487.357 181.642C495.807 179.626 502.523 181.331 506.924 185.795L516.551 195.953C514.304 195.98 511.907 196.277 509.361 196.886C486.68 202.297 461.575 229.214 453.301 256.997C451.175 264.153 450.376 270.659 450.742 276.299L440.965 265.965C435.238 259.757 433.721 248.597 437.851 234.706C445.163 210.169 467.316 186.417 487.343 181.642H487.357Z" fill="white"/>
<g style="mix-blend-mode:lighten">
<path d="M594.047 269.159L594.006 269.118C593.966 269.078 593.925 269.037 593.885 268.996L531.528 201.581C526.545 196.536 518.948 194.615 509.375 196.887C486.694 202.298 461.589 229.215 453.315 256.999C448.63 272.743 450.35 285.377 456.836 292.397L518.583 359.163C518.637 359.217 518.691 359.271 518.732 359.326L519.287 359.907C524.27 364.858 531.826 366.724 541.318 364.466C563.999 359.055 589.105 332.138 597.378 304.354C602.023 288.772 600.384 276.233 594.061 269.172L594.047 269.159Z" fill="url(#paint4_linear_1060_7305)"/>
</g>
<path opacity="0.4" d="M579.977 246.919C580.18 246.27 580.369 245.621 580.559 244.972C582.861 236.666 582.739 229.47 580.599 223.816L589.008 232.46C591.148 238.114 591.283 245.31 588.968 253.615C588.792 254.264 588.589 254.913 588.386 255.563L579.977 246.919Z" fill="#4B95FA"/>
<path opacity="0.2" d="M558.201 280.304C565.798 272.959 572.216 264.383 576.522 255.523L584.931 264.167C580.625 273.027 574.207 281.602 566.61 288.947L558.201 280.304Z" fill="#4B95FA"/>
<path opacity="0.05" d="M524.094 300.943C533.166 298.414 542.293 293.45 550.553 286.971L558.962 295.614C550.702 302.093 541.575 307.057 532.503 309.587L524.094 300.943Z" fill="#4B95FA"/>
<g style="mix-blend-mode:lighten" opacity="0.15">
<path d="M605.393 210.046C575.102 182.75 513.463 215.835 484.255 262.069L471.229 248.677C508.196 192.53 568.738 173.133 592.367 196.655L605.393 210.046Z" fill="url(#paint5_linear_1060_7305)"/>
</g>
<g style="mix-blend-mode:lighten" opacity="0.3">
<path d="M612 254.847C590.781 317.812 512.812 363.734 479.569 332.84L466.475 319.516C500.612 349.937 578.581 304.015 598.906 241.523L612 254.847Z" fill="url(#paint6_linear_1060_7305)"/>
</g>
<g style="mix-blend-mode:lighten" opacity="0.15">
<path d="M479.583 332.826C452.962 301.945 487.518 241.158 534.479 213.064L521.385 199.74C464.323 235.342 443.497 295.345 466.489 319.503L479.583 332.826Z" fill="url(#paint7_linear_1060_7305)"/>
</g>
<g opacity="0.2">
<path d="M584.607 225.482C580.856 221.627 575.494 219.341 568.886 218.989L560.477 210.346C567.098 210.697 572.46 212.983 576.198 216.838L584.607 225.482Z" fill="#81DAFE"/>
</g>
<g style="mix-blend-mode:lighten">
<path d="M114.205 247.826C146.447 222.856 124.727 156.415 84.3203 119.528L99.8113 109.086C148.627 155.346 157.049 218.284 129.696 237.383L114.205 247.826Z" fill="url(#paint8_linear_1060_7305)"/>
</g>
<path opacity="0.4" d="M32.9726 143.646C32.9049 142.97 32.8372 142.293 32.7966 141.63C32.1872 133.028 33.758 126.007 36.9808 120.895L27.0146 127.685C23.7918 132.798 22.221 139.818 22.8304 148.421C22.871 149.097 22.9387 149.76 23.0064 150.436L32.9726 143.646Z" fill="#4B95FA"/>
<path opacity="0.2" d="M47.6375 180.696C41.6659 171.985 37.0755 162.3 34.6381 152.764L24.6719 159.554C27.1228 169.104 31.6997 178.775 37.6713 187.486L47.6375 180.696Z" fill="#4B95FA"/>
<path opacity="0.05" d="M76.9399 207.72C68.558 203.432 60.5958 196.75 53.7982 188.756L43.832 195.546C50.6296 203.54 58.5918 210.222 66.9737 214.51L76.9399 207.72Z" fill="#4B95FA"/>
<g style="mix-blend-mode:lighten" opacity="0.15">
<path d="M15.4238 102.444C50.5493 81.7217 104.348 126.426 123.752 177.556L139.189 167.032C114.179 104.649 58.7145 73.5924 30.8606 91.9206L15.4238 102.444Z" fill="url(#paint9_linear_1060_7305)"/>
</g>
<g style="mix-blend-mode:lighten" opacity="0.3">
<path d="M0 145.026C8.21941 210.954 75.4642 271.484 114.205 247.827L129.696 237.384C90.1833 260.393 22.9385 199.862 15.4909 134.584L0 145.026Z" fill="url(#paint10_linear_1060_7305)"/>
</g>
<g style="mix-blend-mode:lighten" opacity="0.15">
<path d="M114.205 247.826C146.447 222.856 124.727 156.415 84.3203 119.528L99.8113 109.086C148.627 155.346 157.049 218.284 129.696 237.383L114.205 247.826Z" fill="url(#paint11_linear_1060_7305)"/>
</g>
<g opacity="0.2">
<path d="M32.7148 121.721C37.1563 118.691 42.8706 117.514 49.4245 118.501L59.3907 111.711C52.8368 110.737 47.1225 111.9 42.681 114.93L32.7148 121.721Z" fill="#81DAFE"/>
</g>
<defs>
<radialGradient id="paint0_radial_1060_7305" cx="0" cy="0" r="1" gradientUnits="userSpaceOnUse" gradientTransform="translate(695.616 586.91) rotate(29.9731) scale(144.471 125.621)">
<stop stop-color="#FC2FFD"/>
<stop offset="0.11" stop-color="#D626DB"/>
<stop offset="0.27" stop-color="#A31BAD"/>
<stop offset="0.44" stop-color="#781287"/>
<stop offset="0.59" stop-color="#570B6A"/>
<stop offset="0.74" stop-color="#400655"/>
<stop offset="0.88" stop-color="#310348"/>
<stop offset="1" stop-color="#2D0244"/>
</radialGradient>
<radialGradient id="paint1_radial_1060_7305" cx="0" cy="0" r="1" gradientUnits="userSpaceOnUse" gradientTransform="translate(267.464 59.4044) scale(132.553 132.409)">
<stop stop-color="#9CF5FE"/>
<stop offset="0.25" stop-color="#98F2FD"/>
<stop offset="0.44" stop-color="#8FE8FD"/>
<stop offset="0.61" stop-color="#7FD8FC"/>
<stop offset="0.76" stop-color="#68C2FB"/>
<stop offset="0.91" stop-color="#4BA6FA"/>
<stop offset="0.94" stop-color="#449FFA"/>
</radialGradient>
<linearGradient id="paint2_linear_1060_7305" x1="181.029" y1="99.1583" x2="84.5326" y2="173.627" gradientUnits="userSpaceOnUse">
<stop stop-color="#3874DA"/>
<stop offset="1" stop-color="#2A023F"/>
</linearGradient>
<radialGradient id="paint3_radial_1060_7305" cx="0" cy="0" r="1" gradientUnits="userSpaceOnUse" gradientTransform="translate(362.02 109.505) scale(183.955 183.756)">
<stop stop-color="#9CF5FE"/>
<stop offset="0.36" stop-color="#9AF3FD"/>
<stop offset="0.49" stop-color="#93ECFD"/>
<stop offset="0.59" stop-color="#87E0FD"/>
<stop offset="0.66" stop-color="#76D0FC"/>
<stop offset="0.73" stop-color="#60BBFB"/>
<stop offset="0.78" stop-color="#46A1FA"/>
<stop offset="0.79" stop-color="#449FFA"/>
</radialGradient>
<linearGradient id="paint4_linear_1060_7305" x1="446.277" y1="191.037" x2="524.846" y2="280.32" gradientUnits="userSpaceOnUse">
<stop stop-color="#3874DA"/>
<stop offset="1" stop-color="#2A023F"/>
</linearGradient>
<linearGradient id="paint5_linear_1060_7305" x1="580.995" y1="184.915" x2="493.021" y2="270.949" gradientUnits="userSpaceOnUse">
<stop stop-color="#2A023F"/>
<stop offset="0.1" stop-color="#2C0844"/>
<stop offset="0.24" stop-color="#321954"/>
<stop offset="0.41" stop-color="#3C366D"/>
<stop offset="0.59" stop-color="#4A5D91"/>
<stop offset="0.78" stop-color="#5D91BF"/>
<stop offset="0.98" stop-color="#73CEF6"/>
<stop offset="1" stop-color="#76D6FD"/>
</linearGradient>
<linearGradient id="paint6_linear_1060_7305" x1="490.785" y1="344.225" x2="597.492" y2="239.871" gradientUnits="userSpaceOnUse">
<stop stop-color="#2A023F"/>
<stop offset="0.13" stop-color="#2A0645"/>
<stop offset="0.3" stop-color="#2C1356"/>
<stop offset="0.5" stop-color="#2E2873"/>
<stop offset="0.72" stop-color="#32459A"/>
<stop offset="0.95" stop-color="#366ACD"/>
<stop offset="1" stop-color="#3874DA"/>
</linearGradient>
<linearGradient id="paint7_linear_1060_7305" x1="55.9605" y1="697.344" x2="542.702" y2="221.338" gradientUnits="userSpaceOnUse">
<stop stop-color="#2A023F"/>
<stop offset="0.13" stop-color="#2A0645"/>
<stop offset="0.3" stop-color="#2C1356"/>
<stop offset="0.5" stop-color="#2E2873"/>
<stop offset="0.72" stop-color="#32459A"/>
<stop offset="0.95" stop-color="#366ACD"/>
<stop offset="1" stop-color="#3874DA"/>
</linearGradient>
<linearGradient id="paint8_linear_1060_7305" x1="143" y1="228.207" x2="73.9625" y2="126.396" gradientUnits="userSpaceOnUse">
<stop stop-color="#2A023F"/>
<stop offset="0.06" stop-color="#2C0844"/>
<stop offset="0.14" stop-color="#341953"/>
<stop offset="0.23" stop-color="#40366B"/>
<stop offset="0.32" stop-color="#525D8D"/>
<stop offset="0.43" stop-color="#6891B9"/>
<stop offset="0.54" stop-color="#83CEED"/>
<stop offset="0.57" stop-color="#8CE2FE"/>
</linearGradient>
<linearGradient id="paint9_linear_1060_7305" x1="44.279" y1="82.6944" x2="113.316" y2="184.505" gradientUnits="userSpaceOnUse">
<stop stop-color="#2A023F"/>
<stop offset="0.1" stop-color="#2C0844"/>
<stop offset="0.24" stop-color="#321954"/>
<stop offset="0.41" stop-color="#3C366D"/>
<stop offset="0.59" stop-color="#4A5D91"/>
<stop offset="0.78" stop-color="#5D91BF"/>
<stop offset="0.98" stop-color="#73CEF6"/>
<stop offset="1" stop-color="#76D6FD"/>
</linearGradient>
<linearGradient id="paint10_linear_1060_7305" x1="100.818" y1="256.81" x2="17.0637" y2="133.296" gradientUnits="userSpaceOnUse">
<stop stop-color="#2A023F"/>
<stop offset="0.13" stop-color="#2A0645"/>
<stop offset="0.3" stop-color="#2C1356"/>
<stop offset="0.5" stop-color="#2E2873"/>
<stop offset="0.72" stop-color="#32459A"/>
<stop offset="0.95" stop-color="#366ACD"/>
<stop offset="1" stop-color="#3874DA"/>
</linearGradient>
<linearGradient id="paint11_linear_1060_7305" x1="143" y1="228.207" x2="73.9625" y2="126.396" gradientUnits="userSpaceOnUse">
<stop stop-color="#2A023F"/>
<stop offset="0.13" stop-color="#2A0645"/>
<stop offset="0.3" stop-color="#2C1356"/>
<stop offset="0.5" stop-color="#2E2873"/>
<stop offset="0.72" stop-color="#32459A"/>
<stop offset="0.95" stop-color="#366ACD"/>
<stop offset="1" stop-color="#3874DA"/>
</linearGradient>
</defs>
</svg>
