<svg width="612" height="459" viewBox="0 0 612 459" fill="none" xmlns="http://www.w3.org/2000/svg">
<path d="M303.04 235.111C296.616 235.128 290.242 233.98 284.228 231.722C278.655 229.638 273.519 226.532 269.086 222.562C264.909 218.833 261.548 214.281 259.213 209.191C256.927 204.165 255.835 198.677 256.02 193.158C256.212 187.685 257.643 182.327 260.205 177.486C262.769 172.673 266.256 168.413 270.468 164.95C274.858 161.33 279.852 158.512 285.22 156.626C296.758 152.591 309.323 152.591 320.86 156.626C326.229 158.512 331.223 161.33 335.612 164.95C339.825 168.413 343.313 172.673 345.876 177.486C348.438 182.326 349.869 187.684 350.061 193.157C350.247 198.677 349.154 204.164 346.867 209.191C344.533 214.281 341.173 218.834 336.996 222.563C332.563 226.533 327.428 229.639 321.854 231.723C315.839 233.981 309.465 235.129 303.04 235.111Z" fill="#DA8102"/>
<path d="M300.994 225.067C296.108 225.079 291.26 224.212 286.682 222.506C282.435 220.929 278.517 218.577 275.129 215.57C271.93 212.738 269.348 209.278 267.544 205.406C265.771 201.57 264.909 197.377 265.024 193.154C265.144 188.958 266.217 184.844 268.16 181.123C270.11 177.412 272.775 174.124 276.003 171.449C279.374 168.646 283.215 166.464 287.349 165.003C296.237 161.871 305.928 161.871 314.817 165.003C318.943 166.463 322.777 168.646 326.139 171.449C329.359 174.124 332.015 177.412 333.954 181.123C335.9 184.858 336.961 188.99 337.056 193.2C337.151 197.411 336.277 201.587 334.501 205.406C332.685 209.279 330.093 212.739 326.886 215.57C323.49 218.577 319.566 220.928 315.313 222.506C310.732 224.211 305.882 225.079 300.994 225.067Z" fill="#DA8102"/>
<path d="M299.464 223.255C294.787 223.267 290.147 222.438 285.764 220.807C281.7 219.299 277.951 217.05 274.708 214.174C271.647 211.465 269.176 208.156 267.449 204.451C265.753 200.78 264.927 196.767 265.037 192.725C265.152 188.703 266.179 184.76 268.042 181.194C269.912 177.636 272.468 174.483 275.562 171.919C278.794 169.231 282.477 167.137 286.44 165.736C294.962 162.731 304.256 162.731 312.778 165.736C316.732 167.136 320.405 169.23 323.625 171.919C326.707 174.484 329.248 177.637 331.099 181.194C332.956 184.774 333.965 188.734 334.047 192.767C334.129 196.799 333.283 200.797 331.574 204.451C329.827 208.157 327.339 211.467 324.264 214.175C321.008 217.05 317.248 219.299 313.174 220.808C308.787 222.438 304.144 223.267 299.464 223.255Z" fill="#DA8102"/>
<path d="M303.062 231.063C296.657 231.08 290.302 229.939 284.303 227.693C278.748 225.623 273.627 222.534 269.203 218.585C265.039 214.88 261.686 210.352 259.355 205.288C257.076 200.291 255.986 194.833 256.17 189.343C256.362 183.899 257.788 178.57 260.342 173.758C262.9 168.969 266.379 164.732 270.577 161.289C274.957 157.687 279.937 154.885 285.288 153.01C296.797 148.997 309.324 148.997 320.832 153.01C326.185 154.885 331.165 157.687 335.545 161.289C339.744 164.732 343.223 168.969 345.78 173.758C348.336 178.57 349.763 183.899 349.955 189.343C350.14 194.833 349.049 200.291 346.769 205.288C344.44 210.353 341.088 214.882 336.923 218.588C332.5 222.537 327.379 225.626 321.823 227.696C315.824 229.941 309.468 231.082 303.062 231.063Z" fill="#FECB03"/>
<path d="M303.062 221.076C298.19 221.088 293.354 220.226 288.786 218.53C284.55 216.962 280.64 214.622 277.255 211.63C274.063 208.817 271.483 205.377 269.676 201.525C267.911 197.725 267.044 193.57 267.145 189.382C267.245 185.194 268.309 181.085 270.254 177.375C272.194 173.682 274.848 170.412 278.061 167.753C281.42 164.965 285.245 162.794 289.361 161.342C298.227 158.227 307.89 158.227 316.755 161.342C320.871 162.794 324.697 164.965 328.055 167.753C331.269 170.412 333.923 173.682 335.863 177.375C337.809 181.085 338.873 185.194 338.974 189.382C339.074 193.57 338.208 197.725 336.442 201.525C334.636 205.378 332.056 208.818 328.863 211.632C325.479 214.624 321.569 216.964 317.332 218.532C312.766 220.227 307.933 221.088 303.062 221.076Z" fill="#DA8102"/>
<path d="M303.018 221.184C298.348 221.196 293.713 220.37 289.335 218.745C285.273 217.242 281.524 214.999 278.278 212.131C275.214 209.43 272.738 206.128 271.003 202.431C269.306 198.784 268.471 194.795 268.564 190.773C268.656 186.752 269.673 182.806 271.536 179.241C273.395 175.692 275.939 172.549 279.022 169.992C282.245 167.312 285.917 165.226 289.869 163.831C298.38 160.835 307.658 160.835 316.169 163.831C320.122 165.227 323.795 167.315 327.017 169.997C330.101 172.553 332.646 175.697 334.505 179.245C336.368 182.81 337.385 186.756 337.477 190.778C337.57 194.799 336.735 198.788 335.037 202.435C333.302 206.133 330.826 209.434 327.761 212.135C324.515 215.002 320.767 217.243 316.705 218.745C312.326 220.371 307.69 221.197 303.018 221.184Z" fill="#F0AA00"/>
<path d="M292.548 201.468C292.754 201.793 292.98 202.105 293.226 202.401C293.462 202.685 293.718 202.953 293.991 203.201C294.526 203.685 295.13 204.087 295.783 204.392C296.111 204.545 296.456 204.686 296.819 204.814C297.183 204.942 297.563 205.057 297.96 205.159C298.36 205.261 298.776 205.351 299.207 205.428C299.639 205.505 300.09 205.569 300.56 205.62L300.555 208.697H304.742V205.62C305.035 205.591 305.324 205.558 305.609 205.52C305.895 205.482 306.176 205.435 306.454 205.38C306.732 205.327 307.007 205.269 307.277 205.204C307.548 205.139 307.815 205.069 308.077 204.992C308.341 204.915 308.599 204.831 308.852 204.74C309.106 204.649 309.354 204.549 309.597 204.44C309.841 204.333 310.079 204.219 310.312 204.098C310.546 203.977 310.774 203.848 310.997 203.712C311.217 203.578 311.429 203.432 311.632 203.275C311.83 203.122 312.018 202.957 312.195 202.781C312.546 202.434 312.852 202.044 313.107 201.622C313.362 201.201 313.556 200.746 313.681 200.271C313.745 200.029 313.792 199.784 313.821 199.536C313.852 199.279 313.866 199.02 313.864 198.762C313.864 198.548 313.854 198.34 313.834 198.137C313.814 197.934 313.787 197.738 313.753 197.547C313.718 197.356 313.674 197.17 313.621 196.991C313.57 196.814 313.509 196.639 313.439 196.469C313.371 196.303 313.293 196.141 313.206 195.985C313.121 195.832 313.027 195.684 312.923 195.543C312.821 195.403 312.71 195.269 312.59 195.143C312.47 195.016 312.341 194.897 312.206 194.786C312.073 194.674 311.935 194.566 311.792 194.463C311.65 194.36 311.509 194.26 311.369 194.163C311.227 194.068 311.083 193.977 310.937 193.89C310.792 193.803 310.645 193.721 310.495 193.643C310.347 193.565 310.188 193.49 310.018 193.418C309.849 193.346 309.67 193.277 309.481 193.212C309.293 193.145 309.093 193.083 308.881 193.025C308.67 192.967 308.451 192.912 308.224 192.859C307.995 192.806 307.772 192.756 307.556 192.709C307.34 192.662 307.131 192.619 306.927 192.578C306.727 192.537 306.531 192.5 306.337 192.466C306.144 192.432 305.96 192.401 305.786 192.373C305.609 192.345 305.42 192.317 305.219 192.289C305.019 192.261 304.806 192.233 304.582 192.205C304.358 192.177 304.123 192.149 303.875 192.121C303.628 192.093 303.369 192.065 303.098 192.037C302.828 192.004 302.567 191.97 302.315 191.937C302.064 191.904 301.822 191.868 301.59 191.83C301.358 191.794 301.136 191.757 300.923 191.719C300.711 191.681 300.508 191.643 300.314 191.604C300.121 191.565 299.929 191.522 299.737 191.475C299.546 191.428 299.355 191.378 299.165 191.324C298.975 191.27 298.786 191.212 298.598 191.15C298.41 191.088 298.223 191.021 298.036 190.95C297.857 190.884 297.682 190.809 297.51 190.725C297.353 190.648 297.2 190.561 297.052 190.466C296.916 190.378 296.785 190.28 296.662 190.174C296.547 190.074 296.439 189.965 296.34 189.849C296.246 189.738 296.162 189.619 296.088 189.494C295.946 189.25 295.849 188.982 295.803 188.703C295.78 188.559 295.768 188.413 295.769 188.267C295.768 187.943 295.814 187.62 295.904 187.309C295.99 187.018 296.123 186.744 296.298 186.497C296.48 186.243 296.701 186.018 296.951 185.831C297.233 185.621 297.539 185.447 297.862 185.311C298.22 185.158 298.588 185.027 298.962 184.92C299.361 184.804 299.765 184.711 300.174 184.639C300.598 184.564 301.04 184.508 301.501 184.471C301.963 184.434 302.443 184.415 302.943 184.415C303.373 184.415 303.798 184.435 304.218 184.474C304.639 184.513 305.055 184.572 305.467 184.651C305.879 184.73 306.287 184.828 306.69 184.946C307.094 185.064 307.494 185.202 307.89 185.359C308.264 185.507 308.628 185.679 308.98 185.874C309.296 186.049 309.597 186.25 309.88 186.474C310.14 186.679 310.378 186.909 310.593 187.16C310.795 187.397 310.971 187.656 311.116 187.932L314.764 186.271C314.557 185.876 314.316 185.5 314.043 185.147C313.769 184.793 313.464 184.464 313.132 184.163C312.789 183.852 312.421 183.57 312.032 183.319C311.619 183.055 311.188 182.821 310.741 182.619C310.279 182.407 309.807 182.217 309.325 182.049C308.843 181.881 308.351 181.734 307.848 181.609C307.346 181.484 306.833 181.381 306.31 181.299C305.788 181.217 305.254 181.157 304.71 181.119V177.965H300.648L300.642 181.246C300.022 181.282 299.404 181.353 298.792 181.459C298.213 181.56 297.642 181.697 297.08 181.871C296.542 182.037 296.015 182.241 295.505 182.481C295.007 182.715 294.526 182.986 294.067 183.29C293.632 183.575 293.229 183.908 292.867 184.282C292.531 184.63 292.242 185.02 292.005 185.442C291.773 185.859 291.597 186.305 291.481 186.769C291.36 187.26 291.299 187.763 291.297 188.269C291.295 188.517 291.307 188.766 291.334 189.013C291.36 189.249 291.402 189.482 291.458 189.713C291.513 189.937 291.584 190.157 291.67 190.371C291.755 190.583 291.856 190.788 291.97 190.986C292.085 191.186 292.206 191.374 292.333 191.551C292.458 191.727 292.591 191.897 292.733 192.06C292.872 192.219 293.019 192.37 293.174 192.513C293.327 192.655 293.488 192.788 293.655 192.913C293.829 193.04 294.01 193.159 294.196 193.269C294.39 193.384 294.597 193.494 294.817 193.6C295.038 193.706 295.271 193.808 295.517 193.906C295.765 194.004 296.025 194.098 296.298 194.187C296.572 194.276 296.84 194.36 297.104 194.438C297.371 194.515 297.629 194.587 297.879 194.653C298.129 194.719 298.377 194.779 298.623 194.832C298.866 194.886 299.104 194.934 299.336 194.976C299.569 195.018 299.813 195.06 300.067 195.101C300.323 195.142 300.589 195.183 300.867 195.224C301.145 195.265 301.434 195.305 301.734 195.345C302.035 195.385 302.347 195.425 302.669 195.464C302.953 195.497 303.222 195.531 303.475 195.564C303.729 195.597 303.966 195.629 304.186 195.659C304.408 195.69 304.613 195.72 304.803 195.749C304.993 195.778 305.167 195.807 305.325 195.835C305.484 195.863 305.646 195.896 305.81 195.935C305.975 195.974 306.142 196.014 306.31 196.057C306.482 196.102 306.656 196.151 306.834 196.204C307.012 196.257 307.194 196.315 307.378 196.377C307.563 196.439 307.735 196.506 307.894 196.577C308.046 196.643 308.193 196.719 308.335 196.803C308.463 196.878 308.586 196.963 308.701 197.057C308.806 197.142 308.904 197.236 308.992 197.338C309.16 197.532 309.289 197.757 309.373 198C309.418 198.125 309.451 198.254 309.473 198.385C309.495 198.524 309.507 198.665 309.507 198.806C309.518 199.095 309.485 199.385 309.407 199.664C309.33 199.932 309.208 200.185 309.047 200.413C308.874 200.655 308.667 200.87 308.431 201.052C308.161 201.26 307.868 201.438 307.558 201.582C307.218 201.743 306.869 201.882 306.511 201.998C306.138 202.12 305.759 202.22 305.374 202.298C304.968 202.379 304.558 202.438 304.146 202.476C303.722 202.515 303.282 202.535 302.828 202.535C302.465 202.53 302.107 202.51 301.755 202.476C301.403 202.442 301.058 202.394 300.719 202.332C300.38 202.27 300.047 202.194 299.719 202.103C299.392 202.012 299.071 201.908 298.757 201.789C298.458 201.677 298.165 201.547 297.881 201.401C297.624 201.268 297.376 201.118 297.14 200.95C296.924 200.796 296.721 200.623 296.533 200.435C296.358 200.258 296.2 200.064 296.061 199.857L292.548 201.468Z" fill="#DA8102"/>
<path d="M292.574 199.6C292.779 199.925 293.005 200.236 293.251 200.531C293.486 200.816 293.741 201.083 294.015 201.331C294.548 201.814 295.151 202.215 295.804 202.519C296.131 202.672 296.476 202.812 296.838 202.939C297.2 203.067 297.58 203.181 297.978 203.283C298.378 203.385 298.793 203.475 299.223 203.551C299.653 203.628 300.103 203.692 300.574 203.742L300.569 206.811H304.752V203.742C305.044 203.714 305.333 203.68 305.618 203.642C305.902 203.604 306.184 203.558 306.462 203.503C306.739 203.451 307.013 203.392 307.284 203.328C307.554 203.264 307.821 203.194 308.084 203.117C308.346 203.041 308.604 202.957 308.858 202.865C309.111 202.774 309.359 202.674 309.602 202.565C309.844 202.459 310.082 202.346 310.316 202.224C310.549 202.103 310.777 201.975 311 201.839C311.219 201.706 311.431 201.561 311.634 201.403C311.831 201.25 312.018 201.086 312.196 200.91C312.546 200.564 312.852 200.176 313.107 199.754C313.361 199.335 313.554 198.881 313.68 198.406C313.743 198.165 313.79 197.921 313.82 197.673C313.85 197.417 313.865 197.159 313.863 196.901C313.863 196.688 313.853 196.48 313.833 196.278C313.813 196.076 313.786 195.88 313.752 195.689C313.716 195.499 313.673 195.314 313.621 195.134C313.569 194.958 313.508 194.784 313.439 194.613C313.371 194.448 313.293 194.287 313.207 194.13C313.121 193.978 313.027 193.831 312.924 193.69C312.821 193.55 312.71 193.416 312.591 193.29C312.47 193.164 312.342 193.045 312.208 192.934C312.074 192.823 311.937 192.716 311.795 192.612C311.653 192.509 311.512 192.409 311.373 192.312C311.23 192.218 311.086 192.127 310.941 192.04C310.795 191.954 310.648 191.871 310.5 191.793C310.351 191.715 310.192 191.64 310.024 191.568C309.855 191.496 309.676 191.428 309.488 191.362C309.299 191.296 309.099 191.233 308.888 191.175C308.676 191.117 308.458 191.061 308.232 191.007C308.003 190.955 307.781 190.905 307.565 190.858C307.349 190.812 307.139 190.768 306.937 190.728C306.737 190.688 306.54 190.65 306.348 190.616C306.155 190.582 305.971 190.551 305.797 190.523C305.619 190.495 305.431 190.468 305.231 190.44C305.031 190.413 304.819 190.385 304.595 190.357C304.371 190.329 304.135 190.302 303.889 190.274C303.642 190.247 303.383 190.219 303.113 190.19C302.843 190.157 302.582 190.124 302.331 190.09C302.079 190.057 301.838 190.022 301.607 189.984C301.375 189.948 301.153 189.912 300.941 189.874C300.728 189.837 300.524 189.797 300.33 189.754C300.137 189.716 299.945 189.673 299.754 189.626C299.562 189.58 299.372 189.529 299.183 189.475C298.993 189.421 298.805 189.363 298.617 189.301C298.429 189.239 298.242 189.173 298.056 189.101C297.877 189.035 297.702 188.96 297.531 188.876C297.373 188.799 297.221 188.713 297.074 188.618C296.937 188.53 296.807 188.433 296.685 188.327C296.569 188.228 296.462 188.119 296.364 188.003C296.27 187.893 296.186 187.774 296.113 187.649C295.97 187.406 295.873 187.139 295.828 186.86C295.804 186.717 295.792 186.571 295.794 186.425C295.793 186.102 295.838 185.78 295.929 185.469C296.015 185.18 296.148 184.907 296.323 184.66C296.505 184.407 296.724 184.183 296.975 183.996C297.256 183.787 297.561 183.613 297.885 183.477C298.243 183.325 298.61 183.194 298.985 183.087C299.383 182.973 299.787 182.879 300.196 182.808C300.618 182.734 301.06 182.679 301.521 182.641C301.981 182.604 302.461 182.585 302.961 182.585C303.389 182.585 303.814 182.605 304.234 182.644C304.654 182.684 305.069 182.742 305.481 182.82C305.892 182.899 306.299 182.997 306.702 183.114C307.104 183.232 307.504 183.369 307.902 183.526C308.275 183.673 308.639 183.845 308.991 184.039C309.306 184.215 309.607 184.415 309.891 184.639C310.15 184.844 310.388 185.073 310.603 185.323C310.805 185.56 310.98 185.818 311.126 186.093L314.77 184.436C314.563 184.042 314.322 183.667 314.05 183.315C313.775 182.962 313.471 182.634 313.14 182.334C312.796 182.024 312.428 181.743 312.04 181.492C311.627 181.228 311.197 180.994 310.751 180.792C310.289 180.581 309.818 180.391 309.337 180.223C308.855 180.055 308.36 179.911 307.852 179.789C307.35 179.665 306.838 179.562 306.316 179.48C305.794 179.399 305.26 179.339 304.716 179.3V176.154H300.662L300.652 179.431C300.032 179.468 299.416 179.539 298.805 179.645C298.228 179.745 297.659 179.882 297.1 180.054C296.562 180.221 296.036 180.424 295.527 180.663C295.029 180.897 294.549 181.167 294.091 181.47C293.655 181.755 293.253 182.086 292.891 182.459C292.555 182.807 292.266 183.196 292.031 183.617C291.799 184.033 291.623 184.478 291.508 184.94C291.388 185.429 291.326 185.929 291.325 186.432C291.322 186.68 291.334 186.928 291.362 187.174C291.387 187.41 291.429 187.644 291.486 187.874C291.541 188.098 291.611 188.317 291.697 188.53C291.782 188.742 291.882 188.946 291.997 189.143C292.111 189.343 292.231 189.531 292.359 189.707C292.483 189.883 292.617 190.053 292.759 190.215C292.897 190.374 293.045 190.525 293.2 190.667C293.352 190.809 293.512 190.943 293.68 191.067C293.853 191.195 294.034 191.313 294.22 191.422C294.413 191.536 294.62 191.646 294.84 191.752C295.06 191.858 295.293 191.96 295.54 192.057C295.786 192.155 296.046 192.248 296.32 192.337C296.593 192.427 296.861 192.51 297.125 192.587C297.388 192.665 297.646 192.736 297.899 192.802C298.151 192.868 298.399 192.928 298.642 192.981C298.884 193.035 299.122 193.083 299.354 193.124C299.586 193.166 299.829 193.207 300.084 193.249C300.338 193.291 300.605 193.332 300.884 193.372C301.162 193.413 301.451 193.453 301.75 193.492C302.05 193.532 302.361 193.572 302.684 193.61C302.968 193.644 303.234 193.677 303.484 193.71C303.733 193.744 303.97 193.775 304.194 193.804C304.415 193.835 304.62 193.865 304.81 193.894C304.999 193.924 305.173 193.952 305.332 193.98C305.49 194.008 305.651 194.042 305.816 194.08C305.98 194.119 306.147 194.16 306.316 194.202C306.487 194.247 306.661 194.296 306.839 194.349C307.016 194.403 307.197 194.46 307.382 194.521C307.566 194.583 307.737 194.649 307.897 194.721C308.048 194.788 308.194 194.863 308.337 194.947C308.465 195.023 308.587 195.107 308.703 195.2C308.808 195.285 308.905 195.379 308.994 195.481C309.161 195.675 309.29 195.899 309.375 196.141C309.419 196.266 309.453 196.395 309.475 196.525C309.496 196.664 309.507 196.805 309.508 196.945C309.519 197.234 309.485 197.523 309.408 197.801C309.33 198.069 309.208 198.321 309.048 198.548C308.875 198.79 308.668 199.005 308.433 199.186C308.162 199.394 307.87 199.571 307.561 199.714C307.221 199.875 306.872 200.013 306.516 200.129C306.143 200.251 305.764 200.352 305.38 200.429C304.973 200.504 304.563 200.558 304.152 200.59C303.728 200.63 303.289 200.649 302.835 200.649C302.471 200.644 302.114 200.624 301.764 200.59C301.413 200.556 301.069 200.508 300.732 200.446C300.393 200.384 300.06 200.308 299.732 200.217C299.404 200.127 299.084 200.022 298.772 199.904C298.473 199.793 298.18 199.663 297.897 199.517C297.639 199.385 297.392 199.235 297.157 199.067C296.941 198.914 296.738 198.742 296.552 198.554C296.376 198.378 296.218 198.185 296.08 197.978L292.574 199.6Z" fill="#FDCA05"/>
<path d="M552.732 210.764C551.107 211.007 549.441 211.345 547.722 211.778C540.382 213.645 532.975 217.148 525.988 221.774L534.397 230.417C541.384 225.791 548.791 222.288 556.131 220.421C557.85 219.989 559.529 219.637 561.141 219.407L552.732 210.764Z" fill="#9CF5FE"/>
<path style="mix-blend-mode:lighten" opacity="0.2" d="M304.104 458.999C401.849 458.999 481.086 413.301 481.086 356.929C481.086 300.558 401.849 254.859 304.104 254.859C206.36 254.859 127.123 300.558 127.123 356.929C127.123 413.301 206.36 458.999 304.104 458.999Z" fill="url(#paint0_radial_1060_7420)"/>
<path d="M301.464 376.827C300.421 376.8 299.392 376.773 298.363 376.719L298.512 373.662C299.514 373.702 300.53 373.743 301.545 373.77L301.477 376.84L301.464 376.827ZM307.679 376.8L307.598 373.729C308.614 373.702 309.616 373.662 310.631 373.608L310.794 376.664C309.765 376.719 308.722 376.759 307.693 376.786L307.679 376.8ZM292.161 376.286C291.132 376.191 290.103 376.069 289.074 375.948L289.439 372.904C290.442 373.026 291.444 373.134 292.446 373.229L292.148 376.286H292.161ZM316.982 376.191L316.671 373.148C317.673 373.039 318.675 372.931 319.677 372.796L320.069 375.839C319.04 375.975 318.011 376.096 316.982 376.205V376.191ZM282.913 375.028C281.884 374.852 280.868 374.649 279.852 374.446L280.475 371.443C281.464 371.646 282.452 371.836 283.454 372.011L282.926 375.028H282.913ZM326.217 374.865L325.662 371.849C326.65 371.673 327.639 371.47 328.627 371.267L329.264 374.27C328.248 374.487 327.233 374.69 326.217 374.879V374.865ZM273.8 373.026C272.784 372.755 271.795 372.471 270.793 372.187L271.674 369.252C272.635 369.536 273.61 369.807 274.585 370.064L273.8 373.026ZM335.317 372.782L334.504 369.82C335.479 369.55 336.44 369.266 337.402 368.981L338.309 371.917C337.321 372.228 336.319 372.512 335.317 372.782ZM264.876 370.199C263.901 369.834 262.926 369.455 261.965 369.063L263.129 366.222C264.05 366.601 264.984 366.966 265.932 367.318L264.862 370.185L264.876 370.199ZM344.213 369.874L343.116 367.007C344.064 366.641 344.985 366.276 345.906 365.884L347.111 368.711C346.163 369.117 345.188 369.509 344.213 369.874ZM256.277 366.466C255.343 365.992 254.422 365.505 253.515 364.991L255.018 362.313C255.885 362.8 256.765 363.273 257.672 363.72L256.291 366.452L256.277 366.466ZM352.771 366.046L351.349 363.327C352.243 362.854 353.123 362.381 353.99 361.88C354.613 361.515 355.235 361.15 355.831 360.771L357.456 363.382C356.833 363.774 356.183 364.153 355.52 364.531C354.626 365.045 353.705 365.546 352.771 366.033V366.046ZM248.18 361.677C247.3 361.069 246.447 360.446 245.634 359.811L247.516 357.389C248.288 357.985 249.087 358.58 249.927 359.148L248.18 361.664V361.677ZM362.615 359.797L360.733 357.376C361.518 356.754 362.29 356.118 363.021 355.482L365.053 357.782C364.281 358.458 363.455 359.134 362.615 359.797ZM240.881 355.645C240.123 354.874 239.392 354.089 238.728 353.304L241.057 351.316C241.68 352.046 242.357 352.777 243.061 353.48L240.881 355.645ZM369.521 353.277L367.192 351.289C367.842 350.532 368.451 349.747 369.007 348.976L371.498 350.761C370.889 351.6 370.225 352.452 369.521 353.277ZM234.991 348.124C234.449 347.19 233.935 346.23 233.501 345.27L236.291 343.985C236.684 344.85 237.144 345.716 237.645 346.568L235.005 348.124H234.991ZM374.734 345.229L371.945 343.958C372.351 343.079 372.703 342.172 373.001 341.266L375.913 342.226C375.574 343.241 375.181 344.255 374.734 345.243V345.229ZM231.47 339.115C231.254 338.047 231.105 336.965 231.023 335.896L234.084 335.666C234.151 336.613 234.287 337.573 234.476 338.507L231.47 339.115ZM377.185 335.855L374.125 335.639C374.166 335.098 374.179 334.557 374.179 334.016C374.179 333.61 374.179 333.191 374.139 332.771L377.199 332.596C377.226 333.069 377.24 333.542 377.24 334.016C377.24 334.638 377.212 335.247 377.172 335.855H377.185ZM234.395 329.958L231.375 329.403C231.565 328.348 231.822 327.28 232.147 326.252L235.072 327.158C234.788 328.078 234.558 329.011 234.382 329.958H234.395ZM373.11 327.131C372.825 326.225 372.487 325.318 372.094 324.426L374.897 323.195C375.344 324.196 375.723 325.224 376.034 326.225L373.096 327.131H373.11ZM237.401 321.869L234.734 320.354C235.248 319.448 235.83 318.542 236.453 317.649L238.972 319.407C238.403 320.219 237.875 321.058 237.401 321.883V321.869ZM369.21 319.38C368.655 318.596 368.059 317.811 367.422 317.054L369.778 315.079C370.469 315.904 371.119 316.756 371.728 317.608L369.21 319.367V319.38ZM242.736 314.89L240.543 312.752C241.274 312.008 242.046 311.265 242.831 310.561L244.876 312.847C244.131 313.51 243.413 314.2 242.736 314.89ZM363.306 312.82C362.575 312.171 361.803 311.522 361.031 310.913L362.94 308.505C363.766 309.154 364.579 309.844 365.364 310.534L363.319 312.82H363.306ZM249.548 309.154L247.774 306.652C248.613 306.057 249.493 305.475 250.387 304.907L252.026 307.504C251.172 308.045 250.333 308.6 249.534 309.168L249.548 309.154ZM356.156 307.477C355.452 307.031 354.721 306.598 353.976 306.165L353.57 305.935L355.1 303.27L355.506 303.5C356.292 303.947 357.05 304.407 357.781 304.88L356.143 307.477H356.156ZM257.252 304.528L255.844 301.796C256.765 301.323 257.699 300.863 258.661 300.43L259.947 303.216C259.026 303.636 258.133 304.082 257.239 304.542L257.252 304.528ZM348.235 303.189C347.327 302.77 346.407 302.364 345.472 301.972L346.664 299.145C347.625 299.551 348.587 299.97 349.521 300.403L348.235 303.189ZM265.512 300.876L264.429 298.009C265.391 297.643 266.379 297.292 267.368 296.954L268.356 299.862C267.395 300.186 266.447 300.525 265.512 300.876ZM339.839 299.848C338.891 299.524 337.93 299.226 336.969 298.928L337.862 295.993C338.864 296.291 339.853 296.615 340.828 296.94L339.839 299.848ZM274.138 298.103L273.339 295.141C274.341 294.871 275.343 294.614 276.359 294.37L277.077 297.359C276.088 297.589 275.113 297.846 274.152 298.103H274.138ZM331.132 297.346C330.157 297.116 329.169 296.9 328.18 296.683L328.803 293.68C329.819 293.897 330.834 294.113 331.836 294.357L331.132 297.346ZM282.994 296.115L282.452 293.099C283.468 292.909 284.497 292.747 285.526 292.585L285.987 295.615C284.984 295.763 283.996 295.926 283.007 296.115H282.994ZM322.209 295.615C321.22 295.466 320.218 295.33 319.203 295.195L319.582 292.152C320.611 292.287 321.64 292.422 322.656 292.585L322.195 295.615H322.209ZM291.985 294.871L291.674 291.814C292.703 291.705 293.732 291.624 294.775 291.543L295.005 294.6C294.003 294.681 292.987 294.762 291.985 294.871ZM313.177 294.6C312.175 294.532 311.159 294.465 310.157 294.411L310.306 291.354C311.349 291.408 312.378 291.462 313.407 291.543L313.177 294.6ZM301.058 294.302L300.976 291.232C302.006 291.205 303.048 291.191 304.077 291.191V294.262C303.062 294.262 302.06 294.262 301.044 294.302H301.058Z" fill="#76D6FD"/>
<path opacity="0.1" d="M304.105 375.326C343.651 375.326 375.71 356.837 375.71 334.03C375.71 311.223 343.651 292.734 304.105 292.734C264.559 292.734 232.5 311.223 232.5 334.03C232.5 356.837 264.559 375.326 304.105 375.326Z" fill="#53A5F8"/>
<path d="M304.107 315.051C285.623 315.051 267.14 310.993 253.057 302.878C239.272 294.924 231.676 284.292 231.676 272.957C231.676 261.622 239.272 250.99 253.057 243.037C281.209 226.805 327.005 226.805 355.157 243.037C368.941 250.99 376.538 261.622 376.538 272.957C376.538 284.292 368.941 294.924 355.157 302.878C341.087 310.993 322.59 315.051 304.107 315.051ZM304.107 232.486C285.921 232.486 267.736 236.477 253.883 244.457C240.626 252.1 233.328 262.217 233.328 272.944C233.328 283.67 240.626 293.788 253.897 301.43C281.588 317.405 326.653 317.405 354.344 301.43C367.601 293.788 374.899 283.67 374.899 272.944C374.899 262.217 367.601 252.1 354.331 244.457C340.478 236.477 322.292 232.473 304.107 232.473V232.486Z" fill="#53A5F8"/>
<path opacity="0.5" d="M304.107 273.743C285.623 273.743 267.14 269.685 253.057 261.569C239.272 253.615 231.676 242.984 231.676 231.649C231.676 220.314 239.272 209.682 253.057 201.728C281.209 185.497 327.005 185.497 355.157 201.728C368.941 209.682 376.538 220.314 376.538 231.649C376.538 242.984 368.941 253.615 355.157 261.569C341.087 269.685 322.59 273.743 304.107 273.743ZM304.107 191.178C285.921 191.178 267.736 195.168 253.883 203.162C240.626 210.805 233.328 220.922 233.328 231.649C233.328 242.375 240.626 252.493 253.897 260.135C281.588 276.11 326.653 276.11 354.344 260.135C367.601 252.493 374.899 242.375 374.899 231.649C374.899 220.922 367.601 210.805 354.331 203.162C340.478 195.182 322.292 191.178 304.107 191.178Z" fill="#53A5F8"/>
<path opacity="0.3" d="M304.119 232.446C285.635 232.446 267.138 228.388 253.069 220.272C239.284 212.319 231.688 201.7 231.688 190.352C231.688 179.017 239.284 168.385 253.069 160.432C281.221 144.2 327.016 144.2 355.168 160.432C368.953 168.385 376.55 179.017 376.55 190.352C376.55 201.687 368.953 212.319 355.168 220.272C341.099 228.388 322.602 232.446 304.119 232.446ZM304.119 149.881C285.933 149.881 267.747 153.871 253.895 161.865C240.638 169.508 233.34 179.625 233.34 190.352C233.34 201.078 240.638 211.196 253.908 218.838C281.6 234.813 326.664 234.813 354.356 218.838C367.612 211.196 374.911 201.078 374.911 190.352C374.911 179.625 367.612 169.508 354.342 161.865C340.49 153.885 322.304 149.881 304.119 149.881Z" fill="#53A5F8"/>
<path opacity="0.1" d="M304.119 191.151C285.635 191.151 267.138 187.093 253.069 178.977C239.284 171.024 231.688 160.392 231.688 149.057C231.688 137.722 239.284 127.09 253.069 119.137C281.221 102.905 327.016 102.905 355.168 119.137C368.953 127.09 376.55 137.722 376.55 149.057C376.55 160.392 368.953 171.024 355.168 178.977C341.099 187.093 322.602 191.151 304.119 191.151ZM304.119 108.586C285.933 108.586 267.747 112.576 253.895 120.57C240.638 128.213 233.34 138.331 233.34 149.057C233.34 159.783 240.638 169.901 253.908 177.543C281.6 193.518 326.664 193.518 354.356 177.543C367.612 169.901 374.911 159.783 374.911 149.057C374.911 138.331 367.612 128.213 354.342 120.57C340.49 112.59 322.304 108.586 304.119 108.586Z" fill="#53A5F8"/>
<path d="M238.959 261.245C238.959 263.193 237.375 264.776 235.425 264.776C233.475 264.776 231.891 263.193 231.891 261.245C231.891 259.297 233.475 257.715 235.425 257.715C237.375 257.715 238.959 259.297 238.959 261.245Z" fill="#6BD2FE"/>
<path d="M346.19 243.227C348.142 243.227 349.725 241.646 349.725 239.696C349.725 237.747 348.142 236.166 346.19 236.166C344.239 236.166 342.656 237.747 342.656 239.696C342.656 241.646 344.239 243.227 346.19 243.227Z" fill="#6BD2FE"/>
<path d="M313.098 190.353C313.098 192.3 311.513 193.883 309.564 193.883C307.614 193.883 306.029 192.3 306.029 190.353C306.029 188.405 307.614 186.822 309.564 186.822C311.513 186.822 313.098 188.405 313.098 190.353Z" fill="#6BD2FE"/>
<path d="M257.443 160.974C257.443 162.922 255.859 164.504 253.909 164.504C251.959 164.504 250.375 162.922 250.375 160.974C250.375 159.026 251.959 157.443 253.909 157.443C255.859 157.443 257.443 159.026 257.443 160.974Z" fill="#6BD2FE"/>
<path d="M341.68 154.523C341.68 156.47 340.095 158.053 338.146 158.053C336.196 158.053 334.611 156.47 334.611 154.523C334.611 152.575 336.196 150.992 338.146 150.992C340.095 150.992 341.68 152.575 341.68 154.523Z" fill="#6BD2FE"/>
<path d="M371.647 130.648C371.647 132.595 370.062 134.178 368.112 134.178C366.162 134.178 364.578 132.595 364.578 130.648C364.578 128.7 366.162 127.117 368.112 127.117C370.062 127.117 371.647 128.7 371.647 130.648Z" fill="#6BD2FE"/>
<path d="M297.931 28.1044C299.285 27.5634 305.988 23.6002 304.011 16.6341C302.034 9.65448 293.869 12.5221 291.526 13.6448C289.183 14.7674 289.955 15.0921 284.823 16.4177C279.691 17.7432 278.202 16.9046 271.093 18.3249C263.97 19.7587 259.637 19.4746 259.637 19.4746C265.906 14.9703 269.711 6.61105 268.344 2.72899C266.976 -1.15308 260.002 -0.449709 257.321 2.07972C254.64 4.60915 248.195 10.2091 245.107 10.8989C242.02 11.5887 235.344 14.294 235.344 14.294C235.344 14.294 234.83 10.4931 231.011 9.80327C227.192 9.12695 223.97 11.8052 222.67 13.8612C221.37 15.9172 216.333 17.6891 216.333 17.6891C213.882 20.0968 212.893 21.8417 208.628 23.4649C206.488 24.2765 203.211 24.2629 199.163 25.8455C187.016 30.5933 189.887 34.6647 186.082 36.9371C182.277 39.2096 176.319 43.2404 176.319 43.2404C162.317 62.8266 140.611 82.6698 123.604 96.7913C142.439 109.655 158.526 137.83 161.099 164.125C161.261 165.749 161.342 167.318 161.397 168.846C176.576 163.341 190.537 164.355 200.733 161.555C215.209 157.592 235.276 138.141 235.276 138.141C244.376 135.896 245.419 135.166 250.199 132.609C254.965 130.039 275.967 124.507 281.641 123.993C287.315 123.479 293.53 122.315 295.548 118.745C298.621 113.307 294.938 106.895 294.938 106.895C294.938 106.895 296.726 107.22 299.813 104.352C302.914 101.485 300.368 95.114 294.41 85.6185C288.439 76.123 285.974 58.4846 281.248 55.2248C276.522 51.9649 262.548 43.1593 262.548 43.1593C270.537 41.6578 283.726 35.4763 287.626 34.056C291.526 32.6222 296.563 28.659 297.917 28.118L297.931 28.1044ZM265.378 76.4206C266.556 83.1432 272.541 90.2445 273.868 91.7595C275.195 93.2744 277.254 97.5487 277.254 97.5487C276.143 97.3729 271.675 98.1845 271.675 98.1845C260.937 101.011 256.319 100.254 251.621 99.226C246.922 98.198 237.944 89.6358 241.329 85.2398C244.715 80.8302 245.513 70.3878 245.513 70.3878C246.651 71.4158 252.731 70.4149 252.731 70.4149C254.41 73.9858 265.378 76.4476 265.378 76.4476V76.4206Z" fill="url(#paint1_radial_1060_7420)"/>
<path d="M200.204 156.536C208.938 153.452 227.841 139.507 235.261 138.141C235.261 138.141 215.194 157.578 200.718 161.555C192.986 163.678 183.101 163.597 172.16 165.843L176.629 158.849C176.629 158.849 191.47 159.634 200.204 156.55V156.536Z" fill="#4B95FA"/>
<path d="M254.49 72.2541C253.677 71.6725 253.041 71.0503 252.729 70.401C252.729 70.401 252.364 70.4551 251.809 70.5363C257.455 68.8455 260.583 62.1094 260.583 62.1094C260.949 67.2088 254.503 72.2541 254.49 72.2677V72.2541Z" fill="#67E2E8"/>
<path d="M245.525 70.3746C245.525 70.3746 245.416 71.8219 245.105 73.8644C243.575 68.278 245.579 60.7168 245.579 60.7168C245.173 64.1254 247.19 70.7939 247.204 70.8075C246.446 70.7669 245.823 70.6316 245.525 70.3611V70.3746Z" fill="#67E2E8"/>
<path d="M265.891 78.5038C265.674 77.8139 265.498 77.1105 265.376 76.4207C265.376 76.4207 264.428 76.2043 263.061 75.8255C263.101 75.8255 272.241 75.6903 278.728 70.3203C278.728 70.3203 274.909 75.7579 265.891 78.5038Z" fill="#67E2E8"/>
<g opacity="0.52">
<path d="M275.641 97.5898C274.612 97.8063 273.827 97.9009 273.258 97.9145C273.989 97.7927 274.869 97.671 275.641 97.5898Z" fill="#E28C61"/>
</g>
<path d="M275.02 93.3828C275.02 93.3828 292.555 99.2262 294.952 106.896C290.835 101.485 284.701 98.0359 277.931 97.4678L277.213 97.4137C276.969 96.9132 275.994 94.9654 275.033 93.3828H275.02Z" fill="#67E2E8"/>
<path d="M267.504 41.8728C267.504 41.8728 240.097 31.3629 236.955 30.416L262.561 43.1443L267.517 41.8728H267.504Z" fill="#67E2E8"/>
<path d="M265.04 13.8887C263.591 15.9717 261.749 17.9466 259.623 19.4751C259.623 19.4751 261.573 19.5833 264.945 19.2451L254.41 20.5842C260.761 19.0557 264.146 15.0655 265.026 13.8887H265.04Z" fill="#67E2E8"/>
<path d="M233.84 15.2956C235.424 14.5246 234.625 12.5362 234.422 12.0898C235.153 13.2125 235.316 14.2946 235.316 14.2946C235.316 14.2946 236.738 13.7265 238.566 13.0367C237.13 13.5642 233.84 15.2956 233.84 15.2956Z" fill="#67E2E8"/>
<path d="M294.95 106.895C294.95 106.895 285.986 95.4386 270.996 98.3603C270.996 98.3603 277.36 96.6425 279.717 96.6966C280.976 96.7236 284.781 98.4956 287.773 100.308C290.387 101.891 292.31 103.541 292.31 103.541L294.95 106.909V106.895Z" fill="#67E2E8"/>
<path d="M167.109 106.666C167.109 106.666 191.036 133.381 182.736 159.676L172.282 159.581L167.109 106.666Z" fill="#4B95FA"/>
<path d="M141.572 81.6824C133.461 78.0033 126.379 78.4091 121.084 82.0476L109.412 90.3934C111.673 90.8668 114.016 91.6243 116.467 92.7335C138.227 102.608 158.214 134.57 161.098 164.139C161.843 171.754 161.369 178.45 159.907 184.05L171.755 175.569C178.729 170.442 182.439 159.513 180.99 144.729C178.431 118.623 160.787 90.4069 141.586 81.696L141.572 81.6824Z" fill="white"/>
<g style="mix-blend-mode:lighten">
<path d="M17.1419 148.895L17.1961 148.854C17.2367 148.814 17.2909 148.787 17.3451 148.746L93.2561 93.0985C99.2548 89 107.285 88.5401 116.465 92.7062C138.226 102.58 158.212 134.543 161.097 164.112C162.735 180.858 158.537 193.234 150.629 199.037L75.4632 254.143C75.3955 254.184 75.3413 254.224 75.2736 254.279L74.6101 254.752C68.625 258.756 60.6628 259.162 51.5633 255.036C29.8028 245.162 9.81624 213.199 6.932 183.63C5.30708 167.061 9.41001 154.765 17.1555 148.895H17.1419Z" fill="url(#paint2_linear_1060_7420)"/>
</g>
<path d="M500.084 200.213C499.583 199.442 499.109 198.617 498.663 197.751C498.663 197.751 473.544 153.209 472.163 146.635C470.782 140.048 465.27 136.991 463.131 136.571C463.131 136.571 459.529 133.433 454.966 133.325C454.966 133.325 450.646 127.171 435.155 128.374C419.664 129.578 420.003 128.699 420.003 128.699C420.003 128.699 397.999 100.104 392.609 98.7382C387.22 97.3585 385.622 98.9952 379.217 98.5759C372.812 98.1701 364.958 97.0339 359.407 99.1981C353.855 101.362 352.121 101.308 352.121 101.308C352.121 101.308 343.103 102.187 345.568 108.775C348.032 115.362 355.466 116.309 356.888 115.998C358.323 115.7 363.713 114.523 364.999 114.943C366.272 115.362 372.433 120.597 380.91 119.785C380.91 119.785 383.428 128.009 388.33 132.987C388.33 132.987 383.686 135.084 384.051 143.213C384.43 151.342 392.081 175.73 393.327 176.839C394.573 177.949 395.128 179.355 402.223 181.141C402.223 181.141 401.384 186.105 391.634 188.093C391.634 188.093 380.923 188.404 367.992 185.604C367.992 185.604 365.906 183.251 361.37 182.236C356.82 181.235 346.813 178.584 340.246 182.832C333.679 187.079 333.462 191.191 338.418 194.816C343.374 198.441 349.968 198.089 349.968 198.089C349.968 198.089 354.464 204.447 357.308 206.354C360.151 208.261 379.61 211.616 392.487 219.542C392.487 219.542 394.315 221.003 402.711 224.29C411.106 227.577 417.931 235.003 417.931 235.003C417.931 235.003 432.433 246.297 447.748 250.477C450.213 251.153 452.515 251.924 454.695 252.749C462.792 230.255 481.357 209.046 500.071 200.213H500.084Z" fill="url(#paint3_radial_1060_7420)"/>
<path d="M405.771 173.174L405.704 169.467L402.847 159.35L399.353 149.327L397.01 143.429L393.111 138.438L387.951 133.217C386.841 133.934 383.767 136.531 384.065 143.213C384.444 151.342 392.095 175.73 393.341 176.839C394.559 177.935 395.142 179.301 401.872 181.046L402.318 180.532L404.512 177.177L405.785 173.187L405.771 173.174Z" fill="#67E2E8"/>
<path d="M388.345 132.975C388.345 132.975 395.63 139.819 397.553 143.904C399.475 147.989 405.434 164.991 405.555 166.953C405.677 168.914 408.426 173.878 402.251 181.128L401.331 180.885C401.331 180.885 406.205 175.583 405.19 170.104C403.727 162.219 397.566 145.257 396.483 143.295C395.413 141.347 387.844 133.286 387.844 133.286L388.358 132.975H388.345Z" fill="#42D3D3"/>
<path d="M401.195 155.239C401.195 155.239 391.905 148.665 390.199 147.826C390.199 147.826 399.299 154.292 399.258 155.82C399.204 157.349 397.755 158.025 397.755 158.025C397.755 158.025 401.1 156.442 402.142 157.714C403.185 158.985 401.208 155.252 401.208 155.252L401.195 155.239Z" fill="#42D3D3"/>
<path d="M404.241 164.693C404.241 164.693 395.832 169.089 394.654 171.348C394.654 171.348 402.197 166.993 404.607 167.534L404.241 164.693Z" fill="#42D3D3"/>
<path d="M381.317 120.922C381.317 120.922 380.423 117.391 380.166 113.645L380.247 119.826L380.802 120.07L381.317 120.922Z" fill="#67E2E8"/>
<path d="M442.671 242.97C442.671 242.97 423.7 236.883 415.494 229.336C407.289 221.788 399.651 222.64 393.287 220.043C394.452 220.719 397.119 222.099 402.725 224.29C411.121 227.577 417.945 235.003 417.945 235.003C417.945 235.003 431.337 245.432 445.989 249.963L442.685 242.984L442.671 242.97Z" fill="#4B95FA"/>
<path d="M487.357 181.642C495.807 179.626 502.523 181.331 506.924 185.795L516.551 195.953C514.304 195.98 511.907 196.277 509.361 196.886C486.68 202.297 461.575 229.214 453.301 256.997C451.175 264.153 450.376 270.659 450.742 276.299L440.965 265.965C435.238 259.757 433.721 248.597 437.851 234.706C445.163 210.169 467.316 186.417 487.343 181.642H487.357Z" fill="white"/>
<g style="mix-blend-mode:lighten">
<path d="M594.047 269.159L594.006 269.118C593.966 269.078 593.925 269.037 593.885 268.996L531.528 201.581C526.545 196.536 518.948 194.615 509.375 196.887C486.694 202.298 461.589 229.215 453.315 256.999C448.63 272.743 450.35 285.377 456.836 292.397L518.583 359.163C518.637 359.217 518.691 359.271 518.732 359.326L519.287 359.907C524.27 364.858 531.826 366.724 541.318 364.466C563.999 359.055 589.105 332.138 597.378 304.354C602.023 288.772 600.384 276.233 594.061 269.172L594.047 269.159Z" fill="url(#paint4_linear_1060_7420)"/>
</g>
<path opacity="0.4" d="M579.977 246.919C580.18 246.27 580.369 245.621 580.559 244.972C582.861 236.666 582.739 229.47 580.599 223.816L589.008 232.46C591.148 238.114 591.283 245.31 588.968 253.615C588.792 254.264 588.589 254.913 588.386 255.563L579.977 246.919Z" fill="#4B95FA"/>
<path opacity="0.2" d="M558.201 280.304C565.798 272.959 572.216 264.383 576.522 255.523L584.931 264.167C580.625 273.027 574.207 281.602 566.61 288.947L558.201 280.304Z" fill="#4B95FA"/>
<path opacity="0.05" d="M524.094 300.943C533.166 298.414 542.293 293.45 550.553 286.971L558.962 295.614C550.702 302.093 541.575 307.057 532.503 309.587L524.094 300.943Z" fill="#4B95FA"/>
<g style="mix-blend-mode:lighten" opacity="0.15">
<path d="M605.393 210.046C575.102 182.75 513.463 215.835 484.255 262.069L471.229 248.677C508.196 192.53 568.738 173.133 592.367 196.655L605.393 210.046Z" fill="url(#paint5_linear_1060_7420)"/>
</g>
<g style="mix-blend-mode:lighten" opacity="0.3">
<path d="M612 254.847C590.781 317.812 512.812 363.734 479.569 332.84L466.475 319.516C500.612 349.937 578.581 304.015 598.906 241.523L612 254.847Z" fill="url(#paint6_linear_1060_7420)"/>
</g>
<g style="mix-blend-mode:lighten" opacity="0.15">
<path d="M479.583 332.826C452.962 301.945 487.518 241.158 534.479 213.064L521.385 199.74C464.323 235.342 443.497 295.345 466.489 319.503L479.583 332.826Z" fill="url(#paint7_linear_1060_7420)"/>
</g>
<g opacity="0.2">
<path d="M584.607 225.482C580.856 221.627 575.494 219.341 568.886 218.989L560.477 210.346C567.098 210.697 572.46 212.983 576.198 216.838L584.607 225.482Z" fill="#81DAFE"/>
</g>
<g style="mix-blend-mode:lighten">
<path d="M114.205 247.826C146.447 222.856 124.727 156.415 84.3203 119.528L99.8113 109.086C148.627 155.346 157.049 218.284 129.696 237.383L114.205 247.826Z" fill="url(#paint8_linear_1060_7420)"/>
</g>
<path opacity="0.4" d="M32.9726 143.646C32.9049 142.97 32.8372 142.293 32.7966 141.63C32.1872 133.028 33.758 126.007 36.9808 120.895L27.0146 127.685C23.7918 132.798 22.221 139.818 22.8304 148.421C22.871 149.097 22.9387 149.76 23.0064 150.436L32.9726 143.646Z" fill="#4B95FA"/>
<path opacity="0.2" d="M47.6375 180.696C41.6659 171.985 37.0755 162.3 34.6381 152.764L24.6719 159.554C27.1228 169.104 31.6997 178.775 37.6713 187.486L47.6375 180.696Z" fill="#4B95FA"/>
<path opacity="0.05" d="M76.9399 207.72C68.558 203.432 60.5958 196.75 53.7982 188.756L43.832 195.546C50.6296 203.54 58.5918 210.222 66.9737 214.51L76.9399 207.72Z" fill="#4B95FA"/>
<g style="mix-blend-mode:lighten" opacity="0.15">
<path d="M15.4238 102.444C50.5493 81.7217 104.348 126.426 123.752 177.556L139.189 167.032C114.179 104.649 58.7145 73.5924 30.8606 91.9206L15.4238 102.444Z" fill="url(#paint9_linear_1060_7420)"/>
</g>
<g style="mix-blend-mode:lighten" opacity="0.3">
<path d="M0 145.026C8.21941 210.954 75.4642 271.484 114.205 247.827L129.696 237.384C90.1833 260.393 22.9385 199.862 15.4909 134.584L0 145.026Z" fill="url(#paint10_linear_1060_7420)"/>
</g>
<g style="mix-blend-mode:lighten" opacity="0.15">
<path d="M114.205 247.826C146.447 222.856 124.727 156.415 84.3203 119.528L99.8113 109.086C148.627 155.346 157.049 218.284 129.696 237.383L114.205 247.826Z" fill="url(#paint11_linear_1060_7420)"/>
</g>
<g opacity="0.2">
<path d="M32.7148 121.721C37.1563 118.691 42.8706 117.514 49.4245 118.501L59.3907 111.711C52.8368 110.737 47.1225 111.9 42.681 114.93L32.7148 121.721Z" fill="#81DAFE"/>
</g>
<defs>
<radialGradient id="paint0_radial_1060_7420" cx="0" cy="0" r="1" gradientUnits="userSpaceOnUse" gradientTransform="translate(695.616 586.91) rotate(29.9731) scale(144.471 125.621)">
<stop stop-color="#FC2FFD"/>
<stop offset="0.11" stop-color="#D626DB"/>
<stop offset="0.27" stop-color="#A31BAD"/>
<stop offset="0.44" stop-color="#781287"/>
<stop offset="0.59" stop-color="#570B6A"/>
<stop offset="0.74" stop-color="#400655"/>
<stop offset="0.88" stop-color="#310348"/>
<stop offset="1" stop-color="#2D0244"/>
</radialGradient>
<radialGradient id="paint1_radial_1060_7420" cx="0" cy="0" r="1" gradientUnits="userSpaceOnUse" gradientTransform="translate(267.464 59.4044) scale(132.553 132.409)">
<stop stop-color="#9CF5FE"/>
<stop offset="0.25" stop-color="#98F2FD"/>
<stop offset="0.44" stop-color="#8FE8FD"/>
<stop offset="0.61" stop-color="#7FD8FC"/>
<stop offset="0.76" stop-color="#68C2FB"/>
<stop offset="0.91" stop-color="#4BA6FA"/>
<stop offset="0.94" stop-color="#449FFA"/>
</radialGradient>
<linearGradient id="paint2_linear_1060_7420" x1="181.029" y1="99.1583" x2="84.5326" y2="173.627" gradientUnits="userSpaceOnUse">
<stop stop-color="#3874DA"/>
<stop offset="1" stop-color="#2A023F"/>
</linearGradient>
<radialGradient id="paint3_radial_1060_7420" cx="0" cy="0" r="1" gradientUnits="userSpaceOnUse" gradientTransform="translate(362.02 109.505) scale(183.955 183.756)">
<stop stop-color="#9CF5FE"/>
<stop offset="0.36" stop-color="#9AF3FD"/>
<stop offset="0.49" stop-color="#93ECFD"/>
<stop offset="0.59" stop-color="#87E0FD"/>
<stop offset="0.66" stop-color="#76D0FC"/>
<stop offset="0.73" stop-color="#60BBFB"/>
<stop offset="0.78" stop-color="#46A1FA"/>
<stop offset="0.79" stop-color="#449FFA"/>
</radialGradient>
<linearGradient id="paint4_linear_1060_7420" x1="446.277" y1="191.037" x2="524.846" y2="280.32" gradientUnits="userSpaceOnUse">
<stop stop-color="#3874DA"/>
<stop offset="1" stop-color="#2A023F"/>
</linearGradient>
<linearGradient id="paint5_linear_1060_7420" x1="580.995" y1="184.915" x2="493.021" y2="270.949" gradientUnits="userSpaceOnUse">
<stop stop-color="#2A023F"/>
<stop offset="0.1" stop-color="#2C0844"/>
<stop offset="0.24" stop-color="#321954"/>
<stop offset="0.41" stop-color="#3C366D"/>
<stop offset="0.59" stop-color="#4A5D91"/>
<stop offset="0.78" stop-color="#5D91BF"/>
<stop offset="0.98" stop-color="#73CEF6"/>
<stop offset="1" stop-color="#76D6FD"/>
</linearGradient>
<linearGradient id="paint6_linear_1060_7420" x1="490.785" y1="344.225" x2="597.492" y2="239.871" gradientUnits="userSpaceOnUse">
<stop stop-color="#2A023F"/>
<stop offset="0.13" stop-color="#2A0645"/>
<stop offset="0.3" stop-color="#2C1356"/>
<stop offset="0.5" stop-color="#2E2873"/>
<stop offset="0.72" stop-color="#32459A"/>
<stop offset="0.95" stop-color="#366ACD"/>
<stop offset="1" stop-color="#3874DA"/>
</linearGradient>
<linearGradient id="paint7_linear_1060_7420" x1="55.9605" y1="697.344" x2="542.702" y2="221.338" gradientUnits="userSpaceOnUse">
<stop stop-color="#2A023F"/>
<stop offset="0.13" stop-color="#2A0645"/>
<stop offset="0.3" stop-color="#2C1356"/>
<stop offset="0.5" stop-color="#2E2873"/>
<stop offset="0.72" stop-color="#32459A"/>
<stop offset="0.95" stop-color="#366ACD"/>
<stop offset="1" stop-color="#3874DA"/>
</linearGradient>
<linearGradient id="paint8_linear_1060_7420" x1="143" y1="228.207" x2="73.9625" y2="126.396" gradientUnits="userSpaceOnUse">
<stop stop-color="#2A023F"/>
<stop offset="0.06" stop-color="#2C0844"/>
<stop offset="0.14" stop-color="#341953"/>
<stop offset="0.23" stop-color="#40366B"/>
<stop offset="0.32" stop-color="#525D8D"/>
<stop offset="0.43" stop-color="#6891B9"/>
<stop offset="0.54" stop-color="#83CEED"/>
<stop offset="0.57" stop-color="#8CE2FE"/>
</linearGradient>
<linearGradient id="paint9_linear_1060_7420" x1="44.279" y1="82.6944" x2="113.316" y2="184.505" gradientUnits="userSpaceOnUse">
<stop stop-color="#2A023F"/>
<stop offset="0.1" stop-color="#2C0844"/>
<stop offset="0.24" stop-color="#321954"/>
<stop offset="0.41" stop-color="#3C366D"/>
<stop offset="0.59" stop-color="#4A5D91"/>
<stop offset="0.78" stop-color="#5D91BF"/>
<stop offset="0.98" stop-color="#73CEF6"/>
<stop offset="1" stop-color="#76D6FD"/>
</linearGradient>
<linearGradient id="paint10_linear_1060_7420" x1="100.818" y1="256.81" x2="17.0637" y2="133.296" gradientUnits="userSpaceOnUse">
<stop stop-color="#2A023F"/>
<stop offset="0.13" stop-color="#2A0645"/>
<stop offset="0.3" stop-color="#2C1356"/>
<stop offset="0.5" stop-color="#2E2873"/>
<stop offset="0.72" stop-color="#32459A"/>
<stop offset="0.95" stop-color="#366ACD"/>
<stop offset="1" stop-color="#3874DA"/>
</linearGradient>
<linearGradient id="paint11_linear_1060_7420" x1="143" y1="228.207" x2="73.9625" y2="126.396" gradientUnits="userSpaceOnUse">
<stop stop-color="#2A023F"/>
<stop offset="0.13" stop-color="#2A0645"/>
<stop offset="0.3" stop-color="#2C1356"/>
<stop offset="0.5" stop-color="#2E2873"/>
<stop offset="0.72" stop-color="#32459A"/>
<stop offset="0.95" stop-color="#366ACD"/>
<stop offset="1" stop-color="#3874DA"/>
</linearGradient>
</defs>
</svg>
