<svg width="612" height="459" viewBox="0 0 612 459" fill="none" xmlns="http://www.w3.org/2000/svg">
<path d="M306.158 247.302C299.698 247.323 293.277 246.289 287.15 244.241C281.624 242.412 276.466 239.618 271.916 235.987C267.819 232.739 264.466 228.65 262.084 223.995C259.85 219.575 258.798 214.652 259.032 209.704C259.297 204.79 260.788 200.02 263.368 195.828C266.048 191.5 269.563 187.749 273.707 184.792C278.187 181.572 283.163 179.107 288.438 177.492C299.992 173.964 312.337 173.964 323.891 177.492C329.166 179.107 334.142 181.572 338.621 184.792C342.765 187.749 346.279 191.5 348.959 195.828C351.538 200.02 353.028 204.79 353.292 209.704C353.524 214.652 352.472 219.575 350.237 223.995C347.854 228.65 344.501 232.739 340.403 235.987C335.852 239.618 330.694 242.412 325.168 244.241C319.04 246.29 312.619 247.324 306.158 247.302Z" fill="#DA8102"/>
<path d="M304.19 236.276C299.298 236.292 294.435 235.517 289.79 233.981C285.594 232.61 281.672 230.511 278.202 227.781C275.071 225.333 272.498 222.244 270.654 218.722C268.92 215.371 268.083 211.627 268.224 207.856C268.39 204.1 269.499 200.445 271.447 197.229C273.48 193.898 276.159 191.008 279.327 188.729C282.765 186.239 286.589 184.331 290.646 183.082C299.547 180.345 309.065 180.345 317.966 183.082C322.016 184.33 325.832 186.238 329.26 188.729C332.419 191.008 335.087 193.899 337.105 197.229C339.041 200.447 340.134 204.101 340.284 207.853C340.409 211.628 339.556 215.371 337.808 218.719C335.949 222.242 333.364 225.33 330.222 227.778C326.743 230.507 322.812 232.606 318.608 233.978C313.957 235.515 309.089 236.291 304.19 236.276Z" fill="#DA8102"/>
<path d="M302.655 234.654C297.974 234.669 293.321 233.928 288.875 232.46C284.862 231.149 281.109 229.142 277.79 226.531C274.794 224.191 272.331 221.238 270.566 217.869C268.906 214.662 268.104 211.079 268.239 207.469C268.399 203.872 269.462 200.372 271.329 197.292C273.278 194.098 275.848 191.327 278.885 189.141C282.182 186.753 285.85 184.923 289.741 183.724C298.277 181.097 307.406 181.097 315.941 183.724C319.82 184.921 323.474 186.752 326.755 189.141C329.778 191.326 332.329 194.099 334.255 197.292C336.101 200.377 337.138 203.878 337.27 207.47C337.379 211.086 336.552 214.668 334.87 217.87C333.08 221.24 330.596 224.192 327.582 226.532C324.246 229.142 320.48 231.148 316.453 232.461C312.001 233.928 307.343 234.669 302.655 234.654Z" fill="#DA8102"/>
<path d="M306.279 241.661C299.857 241.682 293.474 240.659 287.379 238.634C281.888 236.827 276.759 234.065 272.229 230.473C268.157 227.266 264.821 223.222 262.447 218.615C260.224 214.247 259.176 209.376 259.406 204.481C259.669 199.617 261.15 194.897 263.713 190.755C266.381 186.469 269.876 182.758 273.993 179.837C278.452 176.651 283.401 174.213 288.644 172.619C300.14 169.127 312.414 169.127 323.91 172.619C329.154 174.213 334.103 176.651 338.562 179.837C342.68 182.758 346.175 186.469 348.843 190.755C351.407 194.897 352.888 199.617 353.151 204.481C353.381 209.376 352.333 214.247 350.11 218.615C347.736 223.222 344.401 227.266 340.329 230.473C335.799 234.065 330.671 236.828 325.179 238.634C319.084 240.659 312.701 241.682 306.279 241.661Z" fill="#FECB03"/>
<path d="M306.28 232.701C301.403 232.716 296.555 231.947 291.923 230.423C287.74 229.06 283.828 226.976 280.364 224.264C277.24 221.835 274.67 218.769 272.823 215.27C271.088 211.946 270.245 208.228 270.377 204.481C270.534 200.752 271.631 197.124 273.565 193.932C275.584 190.622 278.248 187.751 281.399 185.49C284.821 183.016 288.628 181.121 292.666 179.883C301.537 177.164 311.02 177.164 319.892 179.883C323.929 181.121 327.735 183.016 331.158 185.49C334.308 187.751 336.973 190.622 338.993 193.932C340.927 197.124 342.024 200.752 342.182 204.481C342.313 208.228 341.471 211.945 339.737 215.27C337.89 218.769 335.319 221.835 332.196 224.264C328.732 226.976 324.82 229.06 320.637 230.423C316.004 231.947 311.156 232.716 306.28 232.701Z" fill="#DA8102"/>
<path d="M306.234 232.796C301.56 232.811 296.913 232.074 292.473 230.612C288.461 229.305 284.709 227.306 281.387 224.705C278.389 222.374 275.92 219.433 274.145 216.075C272.477 212.885 271.663 209.317 271.783 205.719C271.929 202.137 272.976 198.649 274.829 195.579C276.764 192.396 279.319 189.634 282.342 187.457C285.626 185.075 289.281 183.251 293.159 182.057C301.68 179.439 310.791 179.439 319.312 182.057C323.19 183.251 326.844 185.075 330.128 187.457C333.151 189.634 335.706 192.396 337.64 195.579C339.493 198.649 340.54 202.137 340.686 205.719C340.806 209.319 339.993 212.888 338.324 216.08C336.548 219.438 334.08 222.379 331.081 224.71C327.758 227.311 324.007 229.31 319.995 230.617C315.555 232.077 310.908 232.813 306.234 232.796Z" fill="#F0AA00"/>
<path d="M295.743 215.219C295.95 215.51 296.177 215.787 296.421 216.048C296.659 216.302 296.915 216.539 297.187 216.757C297.457 216.974 297.742 217.171 298.04 217.347C298.342 217.525 298.657 217.682 298.981 217.816C299.309 217.95 299.655 218.075 300.019 218.191C300.383 218.308 300.764 218.41 301.163 218.498C301.563 218.589 301.98 218.669 302.413 218.737C302.846 218.806 303.299 218.863 303.77 218.908L303.763 221.646H307.963V218.907C308.256 218.882 308.546 218.851 308.833 218.815C309.12 218.779 309.402 218.738 309.681 218.691C309.96 218.645 310.235 218.593 310.506 218.535C310.777 218.478 311.044 218.415 311.306 218.346C311.573 218.28 311.832 218.205 312.083 218.122C312.334 218.04 312.583 217.952 312.83 217.858C313.074 217.764 313.313 217.664 313.547 217.558C313.781 217.453 314.01 217.339 314.233 217.215C314.452 217.098 314.663 216.968 314.868 216.827C315.064 216.692 315.253 216.546 315.432 216.388C315.606 216.236 315.77 216.072 315.924 215.899C316.075 215.728 316.216 215.548 316.344 215.359C316.47 215.174 316.582 214.98 316.679 214.777C316.774 214.578 316.853 214.372 316.916 214.16C316.979 213.947 317.026 213.729 317.055 213.508C317.085 213.281 317.099 213.051 317.096 212.821C317.096 212.631 317.085 212.447 317.064 212.267C317.046 212.091 317.018 211.916 316.982 211.743C316.947 211.577 316.902 211.412 316.849 211.25C316.797 211.093 316.735 210.938 316.665 210.787C316.596 210.639 316.518 210.496 316.431 210.358C316.345 210.222 316.25 210.091 316.147 209.967C316.043 209.842 315.931 209.724 315.812 209.613C315.69 209.5 315.562 209.395 315.427 209.297C315.294 209.198 315.155 209.103 315.012 209.011C314.869 208.92 314.727 208.832 314.588 208.746C314.445 208.662 314.301 208.582 314.155 208.505C314.009 208.429 313.862 208.356 313.713 208.286C313.564 208.22 313.405 208.153 313.236 208.086C313.067 208.02 312.888 207.959 312.699 207.903C312.51 207.845 312.31 207.79 312.099 207.737C311.888 207.685 311.669 207.635 311.441 207.588C311.212 207.542 310.989 207.498 310.773 207.456C310.557 207.415 310.347 207.376 310.144 207.34C309.944 207.304 309.747 207.271 309.554 207.24C309.361 207.21 309.177 207.182 309.002 207.158C308.825 207.134 308.636 207.109 308.435 207.084C308.234 207.06 308.022 207.035 307.798 207.01C307.574 206.986 307.338 206.961 307.091 206.936C306.844 206.912 306.585 206.887 306.314 206.862C306.043 206.833 305.782 206.803 305.531 206.771C305.28 206.74 305.038 206.709 304.806 206.677C304.574 206.645 304.352 206.612 304.139 206.577C303.926 206.543 303.723 206.509 303.53 206.477C303.337 206.443 303.144 206.405 302.953 206.363C302.762 206.322 302.571 206.277 302.381 206.229C302.191 206.181 302.002 206.13 301.814 206.075C301.626 206.021 301.439 205.963 301.252 205.901C301.065 205.84 300.89 205.773 300.727 205.701C300.571 205.633 300.418 205.557 300.27 205.472C300.135 205.395 300.005 205.309 299.881 205.214C299.767 205.127 299.659 205.031 299.56 204.927C299.467 204.83 299.383 204.725 299.309 204.613C299.239 204.507 299.179 204.394 299.131 204.275C299.084 204.159 299.048 204.038 299.025 203.914C299.002 203.787 298.991 203.658 298.992 203.529C298.992 203.242 299.037 202.956 299.128 202.683C299.217 202.423 299.35 202.181 299.523 201.967C299.709 201.74 299.93 201.542 300.176 201.38C300.461 201.193 300.767 201.039 301.087 200.921C301.447 200.786 301.814 200.671 302.187 200.576C302.57 200.476 302.973 200.394 303.398 200.328C303.823 200.263 304.264 200.214 304.723 200.18C305.184 200.148 305.664 200.131 306.163 200.131C306.592 200.131 307.016 200.149 307.436 200.183C307.856 200.218 308.272 200.27 308.683 200.339C309.093 200.411 309.498 200.497 309.898 200.599C310.298 200.701 310.698 200.823 311.098 200.963C311.47 201.093 311.834 201.244 312.188 201.417C312.501 201.571 312.802 201.748 313.088 201.947C313.345 202.126 313.583 202.328 313.801 202.552C314.001 202.759 314.177 202.987 314.325 203.233L317.967 201.767C317.757 201.415 317.515 201.083 317.244 200.775C316.966 200.46 316.661 200.17 316.332 199.907C315.985 199.631 315.617 199.382 315.232 199.163C314.816 198.928 314.385 198.72 313.942 198.542C313.481 198.356 313.009 198.189 312.527 198.042C312.045 197.896 311.553 197.767 311.052 197.655C310.549 197.544 310.038 197.452 309.518 197.38C308.998 197.308 308.465 197.255 307.918 197.221V194.445H303.871L303.864 197.338C303.246 197.37 302.63 197.433 302.018 197.526C301.442 197.615 300.871 197.736 300.309 197.889C299.774 198.035 299.249 198.215 298.736 198.427C298.241 198.632 297.761 198.87 297.298 199.14C296.868 199.388 296.466 199.681 296.098 200.014C295.767 200.316 295.476 200.659 295.235 201.036C295.004 201.399 294.827 201.794 294.709 202.207C294.588 202.637 294.525 203.081 294.522 203.527C294.519 203.747 294.531 203.966 294.557 204.184C294.583 204.393 294.624 204.6 294.68 204.803C294.79 205.203 294.962 205.582 295.188 205.929C295.302 206.104 295.422 206.271 295.549 206.429C295.674 206.586 295.808 206.736 295.949 206.879C296.228 207.162 296.537 207.414 296.87 207.631C297.037 207.74 297.217 207.845 297.41 207.946C297.603 208.048 297.81 208.145 298.031 208.239C298.251 208.333 298.484 208.424 298.731 208.51C298.978 208.597 299.238 208.68 299.513 208.759C299.787 208.839 300.056 208.913 300.319 208.981C300.582 209.05 300.841 209.113 301.094 209.171C301.347 209.229 301.595 209.282 301.838 209.33C302.081 209.378 302.318 209.421 302.551 209.457C302.784 209.495 303.028 209.532 303.283 209.568C303.538 209.605 303.805 209.641 304.083 209.677C304.361 209.713 304.65 209.749 304.951 209.784C305.252 209.82 305.564 209.855 305.887 209.889C306.172 209.919 306.44 209.948 306.693 209.976C306.946 210.004 307.183 210.032 307.405 210.06C307.626 210.088 307.832 210.114 308.022 210.14C308.212 210.166 308.386 210.192 308.545 210.216C308.704 210.241 308.865 210.27 309.03 210.302C309.195 210.335 309.361 210.371 309.53 210.41C309.701 210.45 309.876 210.494 310.055 210.54C310.234 210.587 310.415 210.638 310.599 210.693C310.784 210.748 310.956 210.807 311.116 210.869C311.267 210.928 311.414 210.995 311.558 211.069C311.685 211.136 311.808 211.211 311.925 211.294C312.029 211.369 312.127 211.452 312.217 211.543C312.3 211.628 312.375 211.721 312.44 211.82C312.504 211.918 312.557 212.021 312.6 212.129C312.644 212.239 312.678 212.354 312.7 212.47C312.722 212.594 312.734 212.719 312.734 212.844C312.745 213.102 312.711 213.359 312.634 213.605C312.555 213.847 312.433 214.072 312.274 214.27C312.097 214.489 311.889 214.68 311.657 214.838C311.383 215.025 311.09 215.183 310.783 215.308C310.441 215.452 310.091 215.575 309.735 215.677C309.36 215.785 308.979 215.873 308.595 215.941C308.2 216.012 307.789 216.065 307.364 216.099C306.939 216.134 306.498 216.152 306.042 216.152C305.677 216.147 305.319 216.129 304.967 216.099C304.615 216.069 304.269 216.027 303.929 215.971C303.589 215.916 303.256 215.849 302.929 215.771C302.602 215.693 302.281 215.6 301.965 215.492C301.667 215.393 301.374 215.278 301.088 215.147C300.832 215.031 300.584 214.897 300.346 214.747C300.131 214.612 299.928 214.459 299.739 214.29C299.565 214.135 299.407 213.963 299.267 213.777L295.743 215.219Z" fill="#DA8102"/>
<path d="M295.783 212.975C295.99 213.265 296.215 213.54 296.459 213.8C296.697 214.053 296.952 214.289 297.223 214.506C297.492 214.722 297.777 214.918 298.074 215.093C298.376 215.27 298.689 215.426 299.013 215.56C299.34 215.693 299.685 215.818 300.048 215.933C300.411 216.048 300.791 216.15 301.19 216.238C301.59 216.329 302.006 216.408 302.438 216.476C302.87 216.544 303.321 216.601 303.791 216.646L303.784 219.372H307.976V216.646C308.269 216.621 308.558 216.59 308.844 216.554C309.13 216.518 309.412 216.477 309.69 216.43C309.968 216.383 310.242 216.331 310.513 216.274C310.784 216.217 311.05 216.154 311.313 216.086C311.576 216.019 311.835 215.945 312.088 215.863C312.341 215.781 312.59 215.693 312.833 215.6C313.076 215.506 313.315 215.406 313.548 215.3C313.781 215.194 314.01 215.08 314.233 214.958C314.451 214.841 314.663 214.712 314.867 214.572C315.063 214.437 315.25 214.291 315.429 214.135C315.603 213.983 315.767 213.82 315.92 213.648C316.071 213.478 316.211 213.299 316.339 213.111C316.465 212.926 316.577 212.732 316.673 212.531C316.768 212.333 316.847 212.127 316.909 211.917C316.972 211.704 317.018 211.487 317.047 211.268C317.077 211.041 317.091 210.813 317.088 210.584C317.088 210.395 317.077 210.212 317.056 210.033C317.038 209.858 317.01 209.684 316.974 209.512C316.939 209.346 316.894 209.182 316.841 209.021C316.789 208.864 316.728 208.71 316.658 208.56C316.589 208.413 316.512 208.27 316.425 208.133C316.339 207.997 316.244 207.867 316.141 207.744C316.037 207.62 315.926 207.502 315.807 207.392C315.685 207.279 315.557 207.174 315.423 207.077C315.29 206.978 315.152 206.883 315.009 206.792C314.866 206.701 314.725 206.613 314.586 206.529C314.443 206.445 314.299 206.365 314.154 206.289C314.009 206.213 313.862 206.14 313.713 206.071C313.564 206.004 313.406 205.938 313.237 205.871C313.068 205.804 312.89 205.744 312.701 205.689C312.512 205.631 312.312 205.576 312.101 205.524C311.89 205.472 311.671 205.423 311.445 205.376C311.216 205.329 310.994 205.285 310.778 205.244C310.562 205.203 310.353 205.164 310.15 205.129C309.95 205.094 309.754 205.06 309.561 205.029C309.368 204.998 309.185 204.97 309.011 204.947C308.834 204.922 308.646 204.898 308.445 204.873C308.244 204.848 308.032 204.824 307.809 204.799C307.586 204.774 307.35 204.75 307.103 204.725C306.856 204.7 306.597 204.676 306.328 204.651C306.058 204.622 305.798 204.592 305.547 204.561C305.296 204.53 305.055 204.499 304.824 204.467C304.593 204.435 304.371 204.402 304.159 204.367C303.947 204.332 303.745 204.299 303.552 204.267C303.359 204.232 303.167 204.195 302.976 204.154C302.785 204.113 302.594 204.069 302.405 204.021C302.216 203.973 302.027 203.922 301.839 203.867C301.651 203.812 301.464 203.754 301.279 203.693C301.093 203.632 300.918 203.565 300.755 203.493C300.599 203.425 300.447 203.349 300.299 203.265C300.164 203.188 300.034 203.102 299.911 203.008C299.797 202.921 299.689 202.825 299.59 202.722C299.499 202.628 299.416 202.526 299.342 202.417C299.272 202.311 299.212 202.198 299.164 202.081C299.117 201.965 299.082 201.844 299.059 201.721C299.036 201.595 299.025 201.466 299.026 201.338C299.026 201.053 299.071 200.769 299.161 200.499C299.249 200.24 299.383 199.998 299.555 199.786C299.741 199.558 299.96 199.36 300.206 199.199C300.491 199.013 300.796 198.859 301.115 198.742C301.473 198.607 301.838 198.493 302.209 198.399C302.593 198.301 302.996 198.219 303.417 198.154C303.838 198.089 304.28 198.039 304.742 198.006C305.202 197.973 305.681 197.957 306.179 197.957C306.607 197.957 307.03 197.974 307.449 198.009C307.868 198.044 308.282 198.095 308.693 198.164C309.104 198.231 309.51 198.317 309.912 198.423C310.314 198.529 310.712 198.65 311.106 198.786C311.477 198.915 311.84 199.066 312.193 199.238C312.506 199.39 312.807 199.566 313.093 199.765C313.349 199.942 313.587 200.143 313.804 200.365C314.004 200.57 314.179 200.798 314.327 201.043L317.96 199.584C317.75 199.233 317.509 198.903 317.239 198.597C316.961 198.283 316.657 197.994 316.329 197.733C315.982 197.458 315.614 197.21 315.229 196.992C314.814 196.758 314.384 196.552 313.942 196.376C313.481 196.19 313.011 196.023 312.531 195.876C312.051 195.729 311.561 195.6 311.06 195.49C310.559 195.381 310.049 195.29 309.528 195.218C309.007 195.146 308.476 195.093 307.935 195.06V192.297H303.892L303.885 195.177C303.268 195.208 302.653 195.271 302.042 195.364C301.469 195.452 300.901 195.573 300.342 195.725C299.808 195.87 299.284 196.049 298.773 196.26C298.279 196.464 297.8 196.701 297.339 196.97C296.909 197.216 296.507 197.508 296.139 197.84C295.808 198.14 295.517 198.482 295.276 198.858C295.046 199.219 294.869 199.611 294.751 200.023C294.63 200.451 294.568 200.893 294.565 201.338C294.562 201.556 294.573 201.775 294.6 201.992C294.625 202.2 294.666 202.406 294.722 202.608C294.832 203.005 295.003 203.383 295.229 203.728C295.342 203.902 295.463 204.069 295.59 204.228C295.715 204.384 295.849 204.534 295.99 204.676C296.269 204.957 296.577 205.208 296.909 205.424C297.075 205.532 297.255 205.637 297.448 205.738C297.641 205.839 297.848 205.937 298.067 206.03C298.287 206.123 298.52 206.213 298.767 206.3C299.014 206.387 299.274 206.469 299.547 206.548C299.82 206.627 300.087 206.7 300.347 206.769C300.607 206.838 300.865 206.901 301.121 206.959C301.374 207.017 301.621 207.07 301.864 207.117C302.107 207.164 302.344 207.207 302.576 207.244C302.808 207.281 303.051 207.318 303.306 207.354C303.561 207.39 303.827 207.426 304.106 207.462C304.383 207.498 304.672 207.534 304.972 207.569C305.272 207.604 305.583 207.638 305.906 207.669C306.19 207.698 306.457 207.727 306.706 207.756C306.955 207.785 307.192 207.812 307.416 207.839C307.637 207.866 307.843 207.893 308.032 207.919C308.221 207.945 308.395 207.97 308.554 207.995C308.712 208.02 308.873 208.048 309.038 208.08C309.203 208.112 309.369 208.148 309.538 208.188C309.709 208.227 309.884 208.271 310.061 208.318C310.238 208.365 310.419 208.416 310.604 208.47C310.788 208.525 310.96 208.583 311.119 208.645C311.269 208.703 311.417 208.77 311.56 208.845C311.687 208.911 311.809 208.986 311.926 209.069C312.03 209.143 312.127 209.226 312.217 209.317C312.3 209.401 312.374 209.494 312.439 209.593C312.503 209.69 312.556 209.793 312.599 209.901C312.643 210.011 312.677 210.125 312.699 210.241C312.721 210.364 312.733 210.488 312.733 210.613C312.744 210.869 312.71 211.125 312.633 211.37C312.554 211.61 312.432 211.834 312.274 212.031C312.098 212.248 311.89 212.439 311.659 212.596C311.385 212.782 311.093 212.939 310.787 213.064C310.446 213.206 310.096 213.329 309.741 213.431C309.367 213.538 308.987 213.626 308.604 213.694C308.21 213.764 307.801 213.817 307.376 213.852C306.951 213.887 306.512 213.905 306.058 213.905C305.695 213.9 305.337 213.882 304.985 213.852C304.633 213.822 304.288 213.779 303.949 213.724C303.61 213.669 303.276 213.602 302.949 213.524C302.622 213.446 302.301 213.353 301.988 213.246C301.69 213.147 301.398 213.033 301.113 212.903C300.857 212.786 300.61 212.653 300.372 212.503C300.158 212.368 299.955 212.216 299.766 212.048C299.593 211.894 299.435 211.723 299.295 211.538L295.783 212.975Z" fill="#FDCA05"/>
<path d="M552.732 210.764C551.107 211.007 549.441 211.345 547.722 211.778C540.382 213.645 532.975 217.148 525.988 221.774L534.397 230.417C541.384 225.791 548.791 222.288 556.131 220.421C557.85 219.989 559.529 219.637 561.141 219.407L552.732 210.764Z" fill="#9CF5FE"/>
<path style="mix-blend-mode:lighten" opacity="0.2" d="M304.104 458.999C401.849 458.999 481.086 413.301 481.086 356.929C481.086 300.558 401.849 254.859 304.104 254.859C206.36 254.859 127.123 300.558 127.123 356.929C127.123 413.301 206.36 458.999 304.104 458.999Z" fill="url(#paint0_radial_1060_7522)"/>
<path d="M301.464 376.827C300.421 376.8 299.392 376.773 298.363 376.719L298.512 373.662C299.514 373.702 300.53 373.743 301.545 373.77L301.477 376.84L301.464 376.827ZM307.679 376.8L307.598 373.729C308.614 373.702 309.616 373.662 310.631 373.608L310.794 376.664C309.765 376.719 308.722 376.759 307.693 376.786L307.679 376.8ZM292.161 376.286C291.132 376.191 290.103 376.069 289.074 375.948L289.439 372.904C290.442 373.026 291.444 373.134 292.446 373.229L292.148 376.286H292.161ZM316.982 376.191L316.671 373.148C317.673 373.039 318.675 372.931 319.677 372.796L320.069 375.839C319.04 375.975 318.011 376.096 316.982 376.205V376.191ZM282.913 375.028C281.884 374.852 280.868 374.649 279.852 374.446L280.475 371.443C281.464 371.646 282.452 371.836 283.454 372.011L282.926 375.028H282.913ZM326.217 374.865L325.662 371.849C326.65 371.673 327.639 371.47 328.627 371.267L329.264 374.27C328.248 374.487 327.233 374.69 326.217 374.879V374.865ZM273.8 373.026C272.784 372.755 271.795 372.471 270.793 372.187L271.674 369.252C272.635 369.536 273.61 369.807 274.585 370.064L273.8 373.026ZM335.317 372.782L334.504 369.82C335.479 369.55 336.44 369.266 337.402 368.981L338.309 371.917C337.321 372.228 336.319 372.512 335.317 372.782ZM264.876 370.199C263.901 369.834 262.926 369.455 261.965 369.063L263.129 366.222C264.05 366.601 264.984 366.966 265.932 367.318L264.862 370.185L264.876 370.199ZM344.213 369.874L343.116 367.007C344.064 366.641 344.985 366.276 345.906 365.884L347.111 368.711C346.163 369.117 345.188 369.509 344.213 369.874ZM256.277 366.466C255.343 365.992 254.422 365.505 253.515 364.991L255.018 362.313C255.885 362.8 256.765 363.273 257.672 363.72L256.291 366.452L256.277 366.466ZM352.771 366.046L351.349 363.327C352.243 362.854 353.123 362.381 353.99 361.88C354.613 361.515 355.235 361.15 355.831 360.771L357.456 363.382C356.833 363.774 356.183 364.153 355.52 364.531C354.626 365.045 353.705 365.546 352.771 366.033V366.046ZM248.18 361.677C247.3 361.069 246.447 360.446 245.634 359.811L247.516 357.389C248.288 357.985 249.087 358.58 249.927 359.148L248.18 361.664V361.677ZM362.615 359.797L360.733 357.376C361.518 356.754 362.29 356.118 363.021 355.482L365.053 357.782C364.281 358.458 363.455 359.134 362.615 359.797ZM240.881 355.645C240.123 354.874 239.392 354.089 238.728 353.304L241.057 351.316C241.68 352.046 242.357 352.777 243.061 353.48L240.881 355.645ZM369.521 353.277L367.192 351.289C367.842 350.532 368.451 349.747 369.007 348.976L371.498 350.761C370.889 351.6 370.225 352.452 369.521 353.277ZM234.991 348.124C234.449 347.19 233.935 346.23 233.501 345.27L236.291 343.985C236.684 344.85 237.144 345.716 237.645 346.568L235.005 348.124H234.991ZM374.734 345.229L371.945 343.958C372.351 343.079 372.703 342.172 373.001 341.266L375.913 342.226C375.574 343.241 375.181 344.255 374.734 345.243V345.229ZM231.47 339.115C231.254 338.047 231.105 336.965 231.023 335.896L234.084 335.666C234.151 336.613 234.287 337.573 234.476 338.507L231.47 339.115ZM377.185 335.855L374.125 335.639C374.166 335.098 374.179 334.557 374.179 334.016C374.179 333.61 374.179 333.191 374.139 332.771L377.199 332.596C377.226 333.069 377.24 333.542 377.24 334.016C377.24 334.638 377.212 335.247 377.172 335.855H377.185ZM234.395 329.958L231.375 329.403C231.565 328.348 231.822 327.28 232.147 326.252L235.072 327.158C234.788 328.078 234.558 329.011 234.382 329.958H234.395ZM373.11 327.131C372.825 326.225 372.487 325.318 372.094 324.426L374.897 323.195C375.344 324.196 375.723 325.224 376.034 326.225L373.096 327.131H373.11ZM237.401 321.869L234.734 320.354C235.248 319.448 235.83 318.542 236.453 317.649L238.972 319.407C238.403 320.219 237.875 321.058 237.401 321.883V321.869ZM369.21 319.38C368.655 318.596 368.059 317.811 367.422 317.054L369.778 315.079C370.469 315.904 371.119 316.756 371.728 317.608L369.21 319.367V319.38ZM242.736 314.89L240.543 312.752C241.274 312.008 242.046 311.265 242.831 310.561L244.876 312.847C244.131 313.51 243.413 314.2 242.736 314.89ZM363.306 312.82C362.575 312.171 361.803 311.522 361.031 310.913L362.94 308.505C363.766 309.154 364.579 309.844 365.364 310.534L363.319 312.82H363.306ZM249.548 309.154L247.774 306.652C248.613 306.057 249.493 305.475 250.387 304.907L252.026 307.504C251.172 308.045 250.333 308.6 249.534 309.168L249.548 309.154ZM356.156 307.477C355.452 307.031 354.721 306.598 353.976 306.165L353.57 305.935L355.1 303.27L355.506 303.5C356.292 303.947 357.05 304.407 357.781 304.88L356.143 307.477H356.156ZM257.252 304.528L255.844 301.796C256.765 301.323 257.699 300.863 258.661 300.43L259.947 303.216C259.026 303.636 258.133 304.082 257.239 304.542L257.252 304.528ZM348.235 303.189C347.327 302.77 346.407 302.364 345.472 301.972L346.664 299.145C347.625 299.551 348.587 299.97 349.521 300.403L348.235 303.189ZM265.512 300.876L264.429 298.009C265.391 297.643 266.379 297.292 267.368 296.954L268.356 299.862C267.395 300.186 266.447 300.525 265.512 300.876ZM339.839 299.848C338.891 299.524 337.93 299.226 336.969 298.928L337.862 295.993C338.864 296.291 339.853 296.615 340.828 296.94L339.839 299.848ZM274.138 298.103L273.339 295.141C274.341 294.871 275.343 294.614 276.359 294.37L277.077 297.359C276.088 297.589 275.113 297.846 274.152 298.103H274.138ZM331.132 297.346C330.157 297.116 329.169 296.9 328.18 296.683L328.803 293.68C329.819 293.897 330.834 294.113 331.836 294.357L331.132 297.346ZM282.994 296.115L282.452 293.099C283.468 292.909 284.497 292.747 285.526 292.585L285.987 295.615C284.984 295.763 283.996 295.926 283.007 296.115H282.994ZM322.209 295.615C321.22 295.466 320.218 295.33 319.203 295.195L319.582 292.152C320.611 292.287 321.64 292.422 322.656 292.585L322.195 295.615H322.209ZM291.985 294.871L291.674 291.814C292.703 291.705 293.732 291.624 294.775 291.543L295.005 294.6C294.003 294.681 292.987 294.762 291.985 294.871ZM313.177 294.6C312.175 294.532 311.159 294.465 310.157 294.411L310.306 291.354C311.349 291.408 312.378 291.462 313.407 291.543L313.177 294.6ZM301.058 294.302L300.976 291.232C302.006 291.205 303.048 291.191 304.077 291.191V294.262C303.062 294.262 302.06 294.262 301.044 294.302H301.058Z" fill="#76D6FD"/>
<path opacity="0.1" d="M304.105 375.326C343.651 375.326 375.71 356.837 375.71 334.03C375.71 311.223 343.651 292.734 304.105 292.734C264.559 292.734 232.5 311.223 232.5 334.03C232.5 356.837 264.559 375.326 304.105 375.326Z" fill="#53A5F8"/>
<path d="M304.107 315.051C285.623 315.051 267.14 310.993 253.057 302.878C239.272 294.924 231.676 284.292 231.676 272.957C231.676 261.622 239.272 250.99 253.057 243.037C281.209 226.805 327.005 226.805 355.157 243.037C368.941 250.99 376.538 261.622 376.538 272.957C376.538 284.292 368.941 294.924 355.157 302.878C341.087 310.993 322.59 315.051 304.107 315.051ZM304.107 232.486C285.921 232.486 267.736 236.477 253.883 244.457C240.626 252.1 233.328 262.217 233.328 272.944C233.328 283.67 240.626 293.788 253.897 301.43C281.588 317.405 326.653 317.405 354.344 301.43C367.601 293.788 374.899 283.67 374.899 272.944C374.899 262.217 367.601 252.1 354.331 244.457C340.478 236.477 322.292 232.473 304.107 232.473V232.486Z" fill="#53A5F8"/>
<path opacity="0.5" d="M304.107 273.743C285.623 273.743 267.14 269.685 253.057 261.569C239.272 253.615 231.676 242.984 231.676 231.649C231.676 220.314 239.272 209.682 253.057 201.728C281.209 185.497 327.005 185.497 355.157 201.728C368.941 209.682 376.538 220.314 376.538 231.649C376.538 242.984 368.941 253.615 355.157 261.569C341.087 269.685 322.59 273.743 304.107 273.743ZM304.107 191.178C285.921 191.178 267.736 195.168 253.883 203.162C240.626 210.805 233.328 220.922 233.328 231.649C233.328 242.375 240.626 252.493 253.897 260.135C281.588 276.11 326.653 276.11 354.344 260.135C367.601 252.493 374.899 242.375 374.899 231.649C374.899 220.922 367.601 210.805 354.331 203.162C340.478 195.182 322.292 191.178 304.107 191.178Z" fill="#53A5F8"/>
<path opacity="0.3" d="M304.119 232.446C285.635 232.446 267.138 228.388 253.069 220.272C239.284 212.319 231.688 201.7 231.688 190.352C231.688 179.017 239.284 168.385 253.069 160.432C281.221 144.2 327.016 144.2 355.168 160.432C368.953 168.385 376.55 179.017 376.55 190.352C376.55 201.687 368.953 212.319 355.168 220.272C341.099 228.388 322.602 232.446 304.119 232.446ZM304.119 149.881C285.933 149.881 267.747 153.871 253.895 161.865C240.638 169.508 233.34 179.625 233.34 190.352C233.34 201.078 240.638 211.196 253.908 218.838C281.6 234.813 326.664 234.813 354.356 218.838C367.612 211.196 374.911 201.078 374.911 190.352C374.911 179.625 367.612 169.508 354.342 161.865C340.49 153.885 322.304 149.881 304.119 149.881Z" fill="#53A5F8"/>
<path opacity="0.1" d="M304.119 191.151C285.635 191.151 267.138 187.093 253.069 178.977C239.284 171.024 231.688 160.392 231.688 149.057C231.688 137.722 239.284 127.09 253.069 119.137C281.221 102.905 327.016 102.905 355.168 119.137C368.953 127.09 376.55 137.722 376.55 149.057C376.55 160.392 368.953 171.024 355.168 178.977C341.099 187.093 322.602 191.151 304.119 191.151ZM304.119 108.586C285.933 108.586 267.747 112.576 253.895 120.57C240.638 128.213 233.34 138.331 233.34 149.057C233.34 159.783 240.638 169.901 253.908 177.543C281.6 193.518 326.664 193.518 354.356 177.543C367.612 169.901 374.911 159.783 374.911 149.057C374.911 138.331 367.612 128.213 354.342 120.57C340.49 112.59 322.304 108.586 304.119 108.586Z" fill="#53A5F8"/>
<path d="M238.959 261.245C238.959 263.193 237.375 264.776 235.425 264.776C233.475 264.776 231.891 263.193 231.891 261.245C231.891 259.297 233.475 257.715 235.425 257.715C237.375 257.715 238.959 259.297 238.959 261.245Z" fill="#6BD2FE"/>
<path d="M346.19 243.227C348.142 243.227 349.725 241.646 349.725 239.696C349.725 237.747 348.142 236.166 346.19 236.166C344.239 236.166 342.656 237.747 342.656 239.696C342.656 241.646 344.239 243.227 346.19 243.227Z" fill="#6BD2FE"/>
<path d="M313.098 190.353C313.098 192.3 311.513 193.883 309.564 193.883C307.614 193.883 306.029 192.3 306.029 190.353C306.029 188.405 307.614 186.822 309.564 186.822C311.513 186.822 313.098 188.405 313.098 190.353Z" fill="#6BD2FE"/>
<path d="M257.443 160.974C257.443 162.922 255.859 164.504 253.909 164.504C251.959 164.504 250.375 162.922 250.375 160.974C250.375 159.026 251.959 157.443 253.909 157.443C255.859 157.443 257.443 159.026 257.443 160.974Z" fill="#6BD2FE"/>
<path d="M341.68 154.523C341.68 156.47 340.095 158.053 338.146 158.053C336.196 158.053 334.611 156.47 334.611 154.523C334.611 152.575 336.196 150.992 338.146 150.992C340.095 150.992 341.68 152.575 341.68 154.523Z" fill="#6BD2FE"/>
<path d="M371.647 130.648C371.647 132.595 370.062 134.178 368.112 134.178C366.162 134.178 364.578 132.595 364.578 130.648C364.578 128.7 366.162 127.117 368.112 127.117C370.062 127.117 371.647 128.7 371.647 130.648Z" fill="#6BD2FE"/>
<path d="M297.931 28.1044C299.285 27.5634 305.988 23.6002 304.011 16.6341C302.034 9.65448 293.869 12.5221 291.526 13.6448C289.183 14.7674 289.955 15.0921 284.823 16.4177C279.691 17.7432 278.202 16.9046 271.093 18.3249C263.97 19.7587 259.637 19.4746 259.637 19.4746C265.906 14.9703 269.711 6.61105 268.344 2.72899C266.976 -1.15308 260.002 -0.449709 257.321 2.07972C254.64 4.60915 248.195 10.2091 245.107 10.8989C242.02 11.5887 235.344 14.294 235.344 14.294C235.344 14.294 234.83 10.4931 231.011 9.80327C227.192 9.12695 223.97 11.8052 222.67 13.8612C221.37 15.9172 216.333 17.6891 216.333 17.6891C213.882 20.0968 212.893 21.8417 208.628 23.4649C206.488 24.2765 203.211 24.2629 199.163 25.8455C187.016 30.5933 189.887 34.6647 186.082 36.9371C182.277 39.2096 176.319 43.2404 176.319 43.2404C162.317 62.8266 140.611 82.6698 123.604 96.7913C142.439 109.655 158.526 137.83 161.099 164.125C161.261 165.749 161.342 167.318 161.397 168.846C176.576 163.341 190.537 164.355 200.733 161.555C215.209 157.592 235.276 138.141 235.276 138.141C244.376 135.896 245.419 135.166 250.199 132.609C254.965 130.039 275.967 124.507 281.641 123.993C287.315 123.479 293.53 122.315 295.548 118.745C298.621 113.307 294.938 106.895 294.938 106.895C294.938 106.895 296.726 107.22 299.813 104.352C302.914 101.485 300.368 95.114 294.41 85.6185C288.439 76.123 285.974 58.4846 281.248 55.2248C276.522 51.9649 262.548 43.1593 262.548 43.1593C270.537 41.6578 283.726 35.4763 287.626 34.056C291.526 32.6222 296.563 28.659 297.917 28.118L297.931 28.1044ZM265.378 76.4206C266.556 83.1432 272.541 90.2445 273.868 91.7595C275.195 93.2744 277.254 97.5487 277.254 97.5487C276.143 97.3729 271.675 98.1845 271.675 98.1845C260.937 101.011 256.319 100.254 251.621 99.226C246.922 98.198 237.944 89.6358 241.329 85.2398C244.715 80.8302 245.513 70.3878 245.513 70.3878C246.651 71.4158 252.731 70.4149 252.731 70.4149C254.41 73.9858 265.378 76.4476 265.378 76.4476V76.4206Z" fill="url(#paint1_radial_1060_7522)"/>
<path d="M200.204 156.536C208.938 153.452 227.841 139.507 235.261 138.141C235.261 138.141 215.194 157.578 200.718 161.555C192.986 163.678 183.101 163.597 172.16 165.843L176.629 158.849C176.629 158.849 191.47 159.634 200.204 156.55V156.536Z" fill="#4B95FA"/>
<path d="M254.49 72.2541C253.677 71.6725 253.041 71.0503 252.729 70.401C252.729 70.401 252.364 70.4551 251.809 70.5363C257.455 68.8455 260.583 62.1094 260.583 62.1094C260.949 67.2088 254.503 72.2541 254.49 72.2677V72.2541Z" fill="#67E2E8"/>
<path d="M245.525 70.3746C245.525 70.3746 245.416 71.8219 245.105 73.8644C243.575 68.278 245.579 60.7168 245.579 60.7168C245.173 64.1254 247.19 70.7939 247.204 70.8075C246.446 70.7669 245.823 70.6316 245.525 70.3611V70.3746Z" fill="#67E2E8"/>
<path d="M265.891 78.5038C265.674 77.8139 265.498 77.1105 265.376 76.4207C265.376 76.4207 264.428 76.2043 263.061 75.8255C263.101 75.8255 272.241 75.6903 278.728 70.3203C278.728 70.3203 274.909 75.7579 265.891 78.5038Z" fill="#67E2E8"/>
<g opacity="0.52">
<path d="M275.641 97.5898C274.612 97.8063 273.827 97.9009 273.258 97.9145C273.989 97.7927 274.869 97.671 275.641 97.5898Z" fill="#E28C61"/>
</g>
<path d="M275.02 93.3828C275.02 93.3828 292.555 99.2262 294.952 106.896C290.835 101.485 284.701 98.0359 277.931 97.4678L277.213 97.4137C276.969 96.9132 275.994 94.9654 275.033 93.3828H275.02Z" fill="#67E2E8"/>
<path d="M267.504 41.8728C267.504 41.8728 240.097 31.3629 236.955 30.416L262.561 43.1443L267.517 41.8728H267.504Z" fill="#67E2E8"/>
<path d="M265.04 13.8887C263.591 15.9717 261.749 17.9466 259.623 19.4751C259.623 19.4751 261.573 19.5833 264.945 19.2451L254.41 20.5842C260.761 19.0557 264.146 15.0655 265.026 13.8887H265.04Z" fill="#67E2E8"/>
<path d="M233.84 15.2956C235.424 14.5246 234.625 12.5362 234.422 12.0898C235.153 13.2125 235.316 14.2946 235.316 14.2946C235.316 14.2946 236.738 13.7265 238.566 13.0367C237.13 13.5642 233.84 15.2956 233.84 15.2956Z" fill="#67E2E8"/>
<path d="M294.95 106.895C294.95 106.895 285.986 95.4386 270.996 98.3603C270.996 98.3603 277.36 96.6425 279.717 96.6966C280.976 96.7236 284.781 98.4956 287.773 100.308C290.387 101.891 292.31 103.541 292.31 103.541L294.95 106.909V106.895Z" fill="#67E2E8"/>
<path d="M167.109 106.666C167.109 106.666 191.036 133.381 182.736 159.676L172.282 159.581L167.109 106.666Z" fill="#4B95FA"/>
<path d="M141.572 81.6824C133.461 78.0033 126.379 78.4091 121.084 82.0476L109.412 90.3934C111.673 90.8668 114.016 91.6243 116.467 92.7335C138.227 102.608 158.214 134.57 161.098 164.139C161.843 171.754 161.369 178.45 159.907 184.05L171.755 175.569C178.729 170.442 182.439 159.513 180.99 144.729C178.431 118.623 160.787 90.4069 141.586 81.696L141.572 81.6824Z" fill="white"/>
<g style="mix-blend-mode:lighten">
<path d="M17.1419 148.895L17.1961 148.854C17.2367 148.814 17.2909 148.787 17.3451 148.746L93.2561 93.0985C99.2548 89 107.285 88.5401 116.465 92.7062C138.226 102.58 158.212 134.543 161.097 164.112C162.735 180.858 158.537 193.234 150.629 199.037L75.4632 254.143C75.3955 254.184 75.3413 254.224 75.2736 254.279L74.6101 254.752C68.625 258.756 60.6628 259.162 51.5633 255.036C29.8028 245.162 9.81624 213.199 6.932 183.63C5.30708 167.061 9.41001 154.765 17.1555 148.895H17.1419Z" fill="url(#paint2_linear_1060_7522)"/>
</g>
<path d="M500.084 200.213C499.583 199.442 499.109 198.617 498.663 197.751C498.663 197.751 473.544 153.209 472.163 146.635C470.782 140.048 465.27 136.991 463.131 136.571C463.131 136.571 459.529 133.433 454.966 133.325C454.966 133.325 450.646 127.171 435.155 128.374C419.664 129.578 420.003 128.699 420.003 128.699C420.003 128.699 397.999 100.104 392.609 98.7382C387.22 97.3585 385.622 98.9952 379.217 98.5759C372.812 98.1701 364.958 97.0339 359.407 99.1981C353.855 101.362 352.121 101.308 352.121 101.308C352.121 101.308 343.103 102.187 345.568 108.775C348.032 115.362 355.466 116.309 356.888 115.998C358.323 115.7 363.713 114.523 364.999 114.943C366.272 115.362 372.433 120.597 380.91 119.785C380.91 119.785 383.428 128.009 388.33 132.987C388.33 132.987 383.686 135.084 384.051 143.213C384.43 151.342 392.081 175.73 393.327 176.839C394.573 177.949 395.128 179.355 402.223 181.141C402.223 181.141 401.384 186.105 391.634 188.093C391.634 188.093 380.923 188.404 367.992 185.604C367.992 185.604 365.906 183.251 361.37 182.236C356.82 181.235 346.813 178.584 340.246 182.832C333.679 187.079 333.462 191.191 338.418 194.816C343.374 198.441 349.968 198.089 349.968 198.089C349.968 198.089 354.464 204.447 357.308 206.354C360.151 208.261 379.61 211.616 392.487 219.542C392.487 219.542 394.315 221.003 402.711 224.29C411.106 227.577 417.931 235.003 417.931 235.003C417.931 235.003 432.433 246.297 447.748 250.477C450.213 251.153 452.515 251.924 454.695 252.749C462.792 230.255 481.357 209.046 500.071 200.213H500.084Z" fill="url(#paint3_radial_1060_7522)"/>
<path d="M405.771 173.174L405.704 169.467L402.847 159.35L399.353 149.327L397.01 143.429L393.111 138.438L387.951 133.217C386.841 133.934 383.767 136.531 384.065 143.213C384.444 151.342 392.095 175.73 393.341 176.839C394.559 177.935 395.142 179.301 401.872 181.046L402.318 180.532L404.512 177.177L405.785 173.187L405.771 173.174Z" fill="#67E2E8"/>
<path d="M388.345 132.975C388.345 132.975 395.63 139.819 397.553 143.904C399.475 147.989 405.434 164.991 405.555 166.953C405.677 168.914 408.426 173.878 402.251 181.128L401.331 180.885C401.331 180.885 406.205 175.583 405.19 170.104C403.727 162.219 397.566 145.257 396.483 143.295C395.413 141.347 387.844 133.286 387.844 133.286L388.358 132.975H388.345Z" fill="#42D3D3"/>
<path d="M401.195 155.239C401.195 155.239 391.905 148.665 390.199 147.826C390.199 147.826 399.299 154.292 399.258 155.82C399.204 157.349 397.755 158.025 397.755 158.025C397.755 158.025 401.1 156.442 402.142 157.714C403.185 158.985 401.208 155.252 401.208 155.252L401.195 155.239Z" fill="#42D3D3"/>
<path d="M404.241 164.693C404.241 164.693 395.832 169.089 394.654 171.348C394.654 171.348 402.197 166.993 404.607 167.534L404.241 164.693Z" fill="#42D3D3"/>
<path d="M381.317 120.922C381.317 120.922 380.423 117.391 380.166 113.645L380.247 119.826L380.802 120.07L381.317 120.922Z" fill="#67E2E8"/>
<path d="M442.671 242.97C442.671 242.97 423.7 236.883 415.494 229.336C407.289 221.788 399.651 222.64 393.287 220.043C394.452 220.719 397.119 222.099 402.725 224.29C411.121 227.577 417.945 235.003 417.945 235.003C417.945 235.003 431.337 245.432 445.989 249.963L442.685 242.984L442.671 242.97Z" fill="#4B95FA"/>
<path d="M487.357 181.642C495.807 179.626 502.523 181.331 506.924 185.795L516.551 195.953C514.304 195.98 511.907 196.277 509.361 196.886C486.68 202.297 461.575 229.214 453.301 256.997C451.175 264.153 450.376 270.659 450.742 276.299L440.965 265.965C435.238 259.757 433.721 248.597 437.851 234.706C445.163 210.169 467.316 186.417 487.343 181.642H487.357Z" fill="white"/>
<g style="mix-blend-mode:lighten">
<path d="M594.047 269.159L594.006 269.118C593.966 269.078 593.925 269.037 593.885 268.996L531.528 201.581C526.545 196.536 518.948 194.615 509.375 196.887C486.694 202.298 461.589 229.215 453.315 256.999C448.63 272.743 450.35 285.377 456.836 292.397L518.583 359.163C518.637 359.217 518.691 359.271 518.732 359.326L519.287 359.907C524.27 364.858 531.826 366.724 541.318 364.466C563.999 359.055 589.105 332.138 597.378 304.354C602.023 288.772 600.384 276.233 594.061 269.172L594.047 269.159Z" fill="url(#paint4_linear_1060_7522)"/>
</g>
<path opacity="0.4" d="M579.977 246.919C580.18 246.27 580.369 245.621 580.559 244.972C582.861 236.666 582.739 229.47 580.599 223.816L589.008 232.46C591.148 238.114 591.283 245.31 588.968 253.615C588.792 254.264 588.589 254.913 588.386 255.563L579.977 246.919Z" fill="#4B95FA"/>
<path opacity="0.2" d="M558.201 280.304C565.798 272.959 572.216 264.383 576.522 255.523L584.931 264.167C580.625 273.027 574.207 281.602 566.61 288.947L558.201 280.304Z" fill="#4B95FA"/>
<path opacity="0.05" d="M524.094 300.943C533.166 298.414 542.293 293.45 550.553 286.971L558.962 295.614C550.702 302.093 541.575 307.057 532.503 309.587L524.094 300.943Z" fill="#4B95FA"/>
<g style="mix-blend-mode:lighten" opacity="0.15">
<path d="M605.393 210.046C575.102 182.75 513.463 215.835 484.255 262.069L471.229 248.677C508.196 192.53 568.738 173.133 592.367 196.655L605.393 210.046Z" fill="url(#paint5_linear_1060_7522)"/>
</g>
<g style="mix-blend-mode:lighten" opacity="0.3">
<path d="M612 254.847C590.781 317.812 512.812 363.734 479.569 332.84L466.475 319.516C500.612 349.937 578.581 304.015 598.906 241.523L612 254.847Z" fill="url(#paint6_linear_1060_7522)"/>
</g>
<g style="mix-blend-mode:lighten" opacity="0.15">
<path d="M479.583 332.826C452.962 301.945 487.518 241.158 534.479 213.064L521.385 199.74C464.323 235.342 443.497 295.345 466.489 319.503L479.583 332.826Z" fill="url(#paint7_linear_1060_7522)"/>
</g>
<g opacity="0.2">
<path d="M584.607 225.482C580.856 221.627 575.494 219.341 568.886 218.989L560.477 210.346C567.098 210.697 572.46 212.983 576.198 216.838L584.607 225.482Z" fill="#81DAFE"/>
</g>
<g style="mix-blend-mode:lighten">
<path d="M114.205 247.826C146.447 222.856 124.727 156.415 84.3203 119.528L99.8113 109.086C148.627 155.346 157.049 218.284 129.696 237.383L114.205 247.826Z" fill="url(#paint8_linear_1060_7522)"/>
</g>
<path opacity="0.4" d="M32.9726 143.646C32.9049 142.97 32.8372 142.293 32.7966 141.63C32.1872 133.028 33.758 126.007 36.9808 120.895L27.0146 127.685C23.7918 132.798 22.221 139.818 22.8304 148.421C22.871 149.097 22.9387 149.76 23.0064 150.436L32.9726 143.646Z" fill="#4B95FA"/>
<path opacity="0.2" d="M47.6375 180.696C41.6659 171.985 37.0755 162.3 34.6381 152.764L24.6719 159.554C27.1228 169.104 31.6997 178.775 37.6713 187.486L47.6375 180.696Z" fill="#4B95FA"/>
<path opacity="0.05" d="M76.9399 207.72C68.558 203.432 60.5958 196.75 53.7982 188.756L43.832 195.546C50.6296 203.54 58.5918 210.222 66.9737 214.51L76.9399 207.72Z" fill="#4B95FA"/>
<g style="mix-blend-mode:lighten" opacity="0.15">
<path d="M15.4238 102.444C50.5493 81.7217 104.348 126.426 123.752 177.556L139.189 167.032C114.179 104.649 58.7145 73.5924 30.8606 91.9206L15.4238 102.444Z" fill="url(#paint9_linear_1060_7522)"/>
</g>
<g style="mix-blend-mode:lighten" opacity="0.3">
<path d="M0 145.026C8.21941 210.954 75.4642 271.484 114.205 247.827L129.696 237.384C90.1833 260.393 22.9385 199.862 15.4909 134.584L0 145.026Z" fill="url(#paint10_linear_1060_7522)"/>
</g>
<g style="mix-blend-mode:lighten" opacity="0.15">
<path d="M114.205 247.826C146.447 222.856 124.727 156.415 84.3203 119.528L99.8113 109.086C148.627 155.346 157.049 218.284 129.696 237.383L114.205 247.826Z" fill="url(#paint11_linear_1060_7522)"/>
</g>
<g opacity="0.2">
<path d="M32.7148 121.721C37.1563 118.691 42.8706 117.514 49.4245 118.501L59.3907 111.711C52.8368 110.737 47.1225 111.9 42.681 114.93L32.7148 121.721Z" fill="#81DAFE"/>
</g>
<defs>
<radialGradient id="paint0_radial_1060_7522" cx="0" cy="0" r="1" gradientUnits="userSpaceOnUse" gradientTransform="translate(695.616 586.91) rotate(29.9731) scale(144.471 125.621)">
<stop stop-color="#FC2FFD"/>
<stop offset="0.11" stop-color="#D626DB"/>
<stop offset="0.27" stop-color="#A31BAD"/>
<stop offset="0.44" stop-color="#781287"/>
<stop offset="0.59" stop-color="#570B6A"/>
<stop offset="0.74" stop-color="#400655"/>
<stop offset="0.88" stop-color="#310348"/>
<stop offset="1" stop-color="#2D0244"/>
</radialGradient>
<radialGradient id="paint1_radial_1060_7522" cx="0" cy="0" r="1" gradientUnits="userSpaceOnUse" gradientTransform="translate(267.464 59.4044) scale(132.553 132.409)">
<stop stop-color="#9CF5FE"/>
<stop offset="0.25" stop-color="#98F2FD"/>
<stop offset="0.44" stop-color="#8FE8FD"/>
<stop offset="0.61" stop-color="#7FD8FC"/>
<stop offset="0.76" stop-color="#68C2FB"/>
<stop offset="0.91" stop-color="#4BA6FA"/>
<stop offset="0.94" stop-color="#449FFA"/>
</radialGradient>
<linearGradient id="paint2_linear_1060_7522" x1="181.029" y1="99.1583" x2="84.5326" y2="173.627" gradientUnits="userSpaceOnUse">
<stop stop-color="#3874DA"/>
<stop offset="1" stop-color="#2A023F"/>
</linearGradient>
<radialGradient id="paint3_radial_1060_7522" cx="0" cy="0" r="1" gradientUnits="userSpaceOnUse" gradientTransform="translate(362.02 109.505) scale(183.955 183.756)">
<stop stop-color="#9CF5FE"/>
<stop offset="0.36" stop-color="#9AF3FD"/>
<stop offset="0.49" stop-color="#93ECFD"/>
<stop offset="0.59" stop-color="#87E0FD"/>
<stop offset="0.66" stop-color="#76D0FC"/>
<stop offset="0.73" stop-color="#60BBFB"/>
<stop offset="0.78" stop-color="#46A1FA"/>
<stop offset="0.79" stop-color="#449FFA"/>
</radialGradient>
<linearGradient id="paint4_linear_1060_7522" x1="446.277" y1="191.037" x2="524.846" y2="280.32" gradientUnits="userSpaceOnUse">
<stop stop-color="#3874DA"/>
<stop offset="1" stop-color="#2A023F"/>
</linearGradient>
<linearGradient id="paint5_linear_1060_7522" x1="580.995" y1="184.915" x2="493.021" y2="270.949" gradientUnits="userSpaceOnUse">
<stop stop-color="#2A023F"/>
<stop offset="0.1" stop-color="#2C0844"/>
<stop offset="0.24" stop-color="#321954"/>
<stop offset="0.41" stop-color="#3C366D"/>
<stop offset="0.59" stop-color="#4A5D91"/>
<stop offset="0.78" stop-color="#5D91BF"/>
<stop offset="0.98" stop-color="#73CEF6"/>
<stop offset="1" stop-color="#76D6FD"/>
</linearGradient>
<linearGradient id="paint6_linear_1060_7522" x1="490.785" y1="344.225" x2="597.492" y2="239.871" gradientUnits="userSpaceOnUse">
<stop stop-color="#2A023F"/>
<stop offset="0.13" stop-color="#2A0645"/>
<stop offset="0.3" stop-color="#2C1356"/>
<stop offset="0.5" stop-color="#2E2873"/>
<stop offset="0.72" stop-color="#32459A"/>
<stop offset="0.95" stop-color="#366ACD"/>
<stop offset="1" stop-color="#3874DA"/>
</linearGradient>
<linearGradient id="paint7_linear_1060_7522" x1="55.9605" y1="697.344" x2="542.702" y2="221.338" gradientUnits="userSpaceOnUse">
<stop stop-color="#2A023F"/>
<stop offset="0.13" stop-color="#2A0645"/>
<stop offset="0.3" stop-color="#2C1356"/>
<stop offset="0.5" stop-color="#2E2873"/>
<stop offset="0.72" stop-color="#32459A"/>
<stop offset="0.95" stop-color="#366ACD"/>
<stop offset="1" stop-color="#3874DA"/>
</linearGradient>
<linearGradient id="paint8_linear_1060_7522" x1="143" y1="228.207" x2="73.9625" y2="126.396" gradientUnits="userSpaceOnUse">
<stop stop-color="#2A023F"/>
<stop offset="0.06" stop-color="#2C0844"/>
<stop offset="0.14" stop-color="#341953"/>
<stop offset="0.23" stop-color="#40366B"/>
<stop offset="0.32" stop-color="#525D8D"/>
<stop offset="0.43" stop-color="#6891B9"/>
<stop offset="0.54" stop-color="#83CEED"/>
<stop offset="0.57" stop-color="#8CE2FE"/>
</linearGradient>
<linearGradient id="paint9_linear_1060_7522" x1="44.279" y1="82.6944" x2="113.316" y2="184.505" gradientUnits="userSpaceOnUse">
<stop stop-color="#2A023F"/>
<stop offset="0.1" stop-color="#2C0844"/>
<stop offset="0.24" stop-color="#321954"/>
<stop offset="0.41" stop-color="#3C366D"/>
<stop offset="0.59" stop-color="#4A5D91"/>
<stop offset="0.78" stop-color="#5D91BF"/>
<stop offset="0.98" stop-color="#73CEF6"/>
<stop offset="1" stop-color="#76D6FD"/>
</linearGradient>
<linearGradient id="paint10_linear_1060_7522" x1="100.818" y1="256.81" x2="17.0637" y2="133.296" gradientUnits="userSpaceOnUse">
<stop stop-color="#2A023F"/>
<stop offset="0.13" stop-color="#2A0645"/>
<stop offset="0.3" stop-color="#2C1356"/>
<stop offset="0.5" stop-color="#2E2873"/>
<stop offset="0.72" stop-color="#32459A"/>
<stop offset="0.95" stop-color="#366ACD"/>
<stop offset="1" stop-color="#3874DA"/>
</linearGradient>
<linearGradient id="paint11_linear_1060_7522" x1="143" y1="228.207" x2="73.9625" y2="126.396" gradientUnits="userSpaceOnUse">
<stop stop-color="#2A023F"/>
<stop offset="0.13" stop-color="#2A0645"/>
<stop offset="0.3" stop-color="#2C1356"/>
<stop offset="0.5" stop-color="#2E2873"/>
<stop offset="0.72" stop-color="#32459A"/>
<stop offset="0.95" stop-color="#366ACD"/>
<stop offset="1" stop-color="#3874DA"/>
</linearGradient>
</defs>
</svg>
