<svg width="612" height="459" viewBox="0 0 612 459" fill="none" xmlns="http://www.w3.org/2000/svg">
<path d="M552.732 210.764C551.107 211.007 549.441 211.345 547.722 211.778C540.382 213.645 532.975 217.148 525.988 221.774L534.397 230.417C541.384 225.791 548.791 222.288 556.131 220.421C557.85 219.989 559.529 219.637 561.141 219.407L552.732 210.764Z" fill="#9CF5FE"/>
<path d="M301.464 315.635C300.421 315.608 299.392 315.581 298.363 315.527L298.512 312.47C299.514 312.511 300.53 312.551 301.545 312.578L301.477 315.649L301.464 315.635ZM307.679 315.608L307.598 312.538C308.614 312.511 309.616 312.47 310.631 312.416L310.794 315.473C309.765 315.527 308.722 315.568 307.693 315.595L307.679 315.608ZM292.161 315.094C291.132 315 290.103 314.878 289.074 314.756L289.439 311.713C290.442 311.834 291.444 311.943 292.446 312.037L292.148 315.094H292.161ZM316.982 315L316.671 311.956C317.673 311.848 318.675 311.74 319.677 311.605L320.069 314.648C319.04 314.783 318.011 314.905 316.982 315.013V315ZM282.913 313.836C281.884 313.661 280.868 313.458 279.852 313.255L280.475 310.252C281.464 310.455 282.452 310.644 283.454 310.82L282.926 313.836H282.913ZM326.217 313.674L325.662 310.658C326.65 310.482 327.639 310.279 328.627 310.076L329.264 313.079C328.248 313.295 327.233 313.498 326.217 313.688V313.674ZM273.8 311.834C272.784 311.564 271.795 311.28 270.793 310.996L271.674 308.061C272.635 308.345 273.61 308.615 274.585 308.872L273.8 311.834ZM335.317 311.591L334.504 308.629C335.479 308.358 336.44 308.074 337.402 307.79L338.309 310.725C337.321 311.036 336.319 311.32 335.317 311.591ZM264.876 309.007C263.901 308.642 262.926 308.263 261.965 307.871L263.129 305.031C264.05 305.409 264.984 305.775 265.932 306.126L264.862 308.994L264.876 309.007ZM344.213 308.683L343.116 305.815C344.064 305.45 344.985 305.085 345.906 304.693L347.111 307.52C346.163 307.925 345.188 308.318 344.213 308.683ZM256.277 305.274C255.343 304.801 254.422 304.314 253.515 303.8L255.018 301.122C255.885 301.609 256.765 302.082 257.672 302.528L256.291 305.261L256.277 305.274ZM352.771 304.855L351.349 302.136C352.243 301.663 353.123 301.189 353.99 300.689C354.613 300.324 355.235 299.958 355.831 299.58L357.456 302.19C356.833 302.582 356.183 302.961 355.52 303.34C354.626 303.854 353.705 304.354 352.771 304.841V304.855ZM248.18 300.486C247.3 299.877 246.447 299.255 245.634 298.619L247.516 296.198C248.288 296.793 249.087 297.388 249.927 297.956L248.18 300.472V300.486ZM362.615 298.606L360.733 296.184C361.518 295.562 362.29 294.926 363.021 294.291L365.053 296.59C364.281 297.267 363.455 297.943 362.615 298.606ZM240.881 294.453C240.123 293.682 239.392 292.898 238.728 292.113L241.057 290.125C241.68 290.855 242.357 291.586 243.061 292.289L240.881 294.453ZM369.521 292.086L367.192 290.098C367.842 289.34 368.451 288.556 369.007 287.785L371.498 289.57C370.889 290.409 370.225 291.261 369.521 292.086ZM234.991 286.932C234.449 285.999 233.935 285.039 233.501 284.078L236.291 282.793C236.684 283.659 237.144 284.525 237.645 285.377L235.005 286.932H234.991ZM374.734 284.038L371.945 282.766C372.351 281.887 372.703 280.981 373.001 280.075L375.913 281.035C375.574 282.049 375.181 283.064 374.734 284.051V284.038ZM231.47 277.924C231.254 276.855 231.105 275.773 231.023 274.705L234.084 274.475C234.151 275.421 234.287 276.382 234.476 277.315L231.47 277.924ZM377.185 274.664L374.125 274.448C374.166 273.907 374.179 273.365 374.179 272.824C374.179 272.419 374.179 271.999 374.139 271.58L377.199 271.404C377.226 271.878 377.24 272.351 377.24 272.824C377.24 273.447 377.212 274.055 377.172 274.664H377.185ZM234.395 268.767L231.375 268.212C231.565 267.157 231.822 266.088 232.147 265.06L235.072 265.967C234.788 266.886 234.558 267.82 234.382 268.767H234.395ZM373.11 265.94C372.825 265.033 372.487 264.127 372.094 263.234L374.897 262.003C375.344 263.004 375.723 264.032 376.034 265.033L373.096 265.94H373.11ZM237.401 260.678L234.734 259.163C235.248 258.257 235.83 257.35 236.453 256.458L238.972 258.216C238.403 259.028 237.875 259.866 237.401 260.691V260.678ZM369.21 258.189C368.655 257.404 368.059 256.62 367.422 255.862L369.778 253.888C370.469 254.713 371.119 255.565 371.728 256.417L369.21 258.175V258.189ZM242.736 253.698L240.543 251.561C241.274 250.817 242.046 250.073 242.831 249.37L244.876 251.656C244.131 252.318 243.413 253.008 242.736 253.698ZM363.306 251.629C362.575 250.979 361.803 250.33 361.031 249.721L362.94 247.314C363.766 247.963 364.579 248.653 365.364 249.343L363.319 251.629H363.306ZM249.548 247.963L247.774 245.461C248.613 244.865 249.493 244.284 250.387 243.716L252.026 246.313C251.172 246.854 250.333 247.408 249.534 247.977L249.548 247.963ZM356.156 246.286C355.452 245.839 354.721 245.407 353.976 244.974L353.57 244.744L355.1 242.079L355.506 242.309C356.292 242.755 357.05 243.215 357.781 243.689L356.143 246.286H356.156ZM257.252 243.337L255.844 240.605C256.765 240.131 257.699 239.671 258.661 239.239L259.947 242.025C259.026 242.444 258.133 242.891 257.239 243.351L257.252 243.337ZM348.235 241.998C347.327 241.579 346.407 241.173 345.472 240.781L346.664 237.953C347.625 238.359 348.587 238.779 349.521 239.211L348.235 241.998ZM265.512 239.685L264.429 236.817C265.391 236.452 266.379 236.1 267.368 235.762L268.356 238.67C267.395 238.995 266.447 239.333 265.512 239.685ZM339.839 238.657C338.891 238.332 337.93 238.035 336.969 237.737L337.862 234.802C338.864 235.099 339.853 235.424 340.828 235.749L339.839 238.657ZM274.138 236.912L273.339 233.95C274.341 233.679 275.343 233.422 276.359 233.179L277.077 236.168C276.088 236.398 275.113 236.655 274.152 236.912H274.138ZM331.132 236.154C330.157 235.925 329.169 235.708 328.18 235.492L328.803 232.489C329.819 232.705 330.834 232.922 331.836 233.165L331.132 236.154ZM282.994 234.924L282.452 231.907C283.468 231.718 284.497 231.556 285.526 231.393L285.987 234.423C284.984 234.572 283.996 234.734 283.007 234.924H282.994ZM322.209 234.423C321.22 234.274 320.218 234.139 319.203 234.004L319.582 230.96C320.611 231.096 321.64 231.231 322.656 231.393L322.195 234.423H322.209ZM291.985 233.679L291.674 230.622C292.703 230.514 293.732 230.433 294.775 230.352L295.005 233.409C294.003 233.49 292.987 233.571 291.985 233.679ZM313.177 233.409C312.175 233.341 311.159 233.273 310.157 233.219L310.306 230.162C311.349 230.216 312.378 230.271 313.407 230.352L313.177 233.409ZM301.058 233.111L300.976 230.041C302.006 230.014 303.048 230 304.077 230V233.07C303.062 233.07 302.06 233.07 301.044 233.111H301.058Z" fill="#76D6FD"/>
<path opacity="0.1" d="M304.105 314.592C343.651 314.592 375.71 296.103 375.71 273.296C375.71 250.489 343.651 232 304.105 232C264.559 232 232.5 250.489 232.5 273.296C232.5 296.103 264.559 314.592 304.105 314.592Z" fill="#53A5F8"/>
<path d="M304.107 315.051C285.623 315.051 267.14 310.993 253.057 302.878C239.272 294.924 231.676 284.292 231.676 272.957C231.676 261.622 239.272 250.99 253.057 243.037C281.209 226.805 327.005 226.805 355.157 243.037C368.941 250.99 376.538 261.622 376.538 272.957C376.538 284.292 368.941 294.924 355.157 302.878C341.087 310.993 322.59 315.051 304.107 315.051ZM304.107 232.486C285.921 232.486 267.736 236.477 253.883 244.457C240.626 252.1 233.328 262.217 233.328 272.944C233.328 283.67 240.626 293.788 253.897 301.43C281.588 317.405 326.653 317.405 354.344 301.43C367.601 293.788 374.899 283.67 374.899 272.944C374.899 262.217 367.601 252.1 354.331 244.457C340.478 236.477 322.292 232.473 304.107 232.473V232.486Z" fill="#53A5F8"/>
<path d="M306.253 259.897C299.77 259.921 293.315 259.04 287.075 257.281C281.626 255.775 276.456 253.399 271.764 250.246C267.789 247.615 264.444 244.137 261.97 240.062C259.794 236.428 258.773 232.219 259.042 227.992C259.392 223.762 260.941 219.72 263.508 216.339C266.338 212.614 269.871 209.481 273.908 207.118C278.495 204.395 283.451 202.35 288.623 201.046C300.204 198.115 312.332 198.115 323.912 201.046C329.082 202.35 334.036 204.395 338.62 207.118C342.658 209.481 346.191 212.614 349.02 216.339C351.585 219.72 353.133 223.763 353.48 227.992C353.747 232.22 352.724 236.429 350.546 240.062C348.07 244.137 344.723 247.614 340.746 250.244C336.053 253.398 330.881 255.774 325.431 257.281C319.191 259.04 312.736 259.921 306.253 259.897Z" fill="#DA8102"/>
<path d="M304.348 249.517C299.455 249.535 294.582 248.88 289.867 247.57C285.742 246.446 281.821 244.672 278.252 242.315C275.22 240.344 272.655 237.733 270.737 234.665C269.047 231.927 268.226 228.74 268.384 225.526C268.606 222.304 269.752 219.214 271.684 216.626C273.826 213.763 276.514 211.353 279.594 209.536C283.111 207.429 286.915 205.846 290.888 204.836C299.809 202.562 309.157 202.562 318.077 204.836C322.042 205.845 325.837 207.428 329.342 209.536C332.411 211.353 335.086 213.764 337.21 216.628C339.128 219.22 340.255 222.311 340.455 225.528C340.593 228.748 339.754 231.933 338.048 234.667C336.113 237.735 333.533 240.345 330.488 242.317C326.908 244.673 322.977 246.447 318.841 247.572C314.122 248.88 309.246 249.535 304.348 249.517Z" fill="#DA8102"/>
<path d="M302.805 248.135C298.126 248.152 293.466 247.527 288.957 246.276C285.012 245.203 281.262 243.509 277.849 241.257C274.948 239.374 272.494 236.878 270.659 233.945C269.04 231.327 268.254 228.278 268.405 225.203C268.618 222.118 269.715 219.159 271.566 216.68C273.62 213.934 276.198 211.623 279.152 209.88C282.525 207.86 286.175 206.341 289.987 205.373C298.542 203.191 307.509 203.191 316.064 205.373C319.861 206.339 323.496 207.857 326.852 209.879C329.787 211.621 332.342 213.933 334.367 216.679C336.194 219.163 337.261 222.124 337.439 225.202C337.556 228.287 336.739 231.335 335.095 233.947C333.229 236.881 330.75 239.375 327.829 241.259C324.396 243.509 320.63 245.203 316.669 246.278C312.154 247.527 307.489 248.152 302.805 248.135Z" fill="#DA8102"/>
<path d="M306.447 254.095C300.018 254.118 293.617 253.251 287.426 251.521C282.025 250.041 276.896 247.705 272.235 244.601C268.295 242.017 264.976 238.595 262.513 234.579C260.354 231.009 259.337 226.865 259.599 222.701C259.944 218.532 261.478 214.55 264.02 211.228C266.831 207.555 270.337 204.47 274.337 202.148C278.891 199.463 283.809 197.449 288.937 196.166C300.433 193.278 312.464 193.278 323.96 196.166C329.089 197.449 334.006 199.463 338.56 202.148C342.561 204.47 346.066 207.555 348.878 211.228C351.42 214.55 352.954 218.532 353.299 222.701C353.562 226.865 352.545 231.011 350.385 234.581C347.921 238.597 344.6 242.018 340.659 244.601C335.998 247.705 330.87 250.041 325.469 251.521C319.277 253.252 312.876 254.118 306.447 254.095Z" fill="#FECB03"/>
<path d="M306.447 246.485C301.574 246.502 296.721 245.852 292.023 244.555C287.912 243.44 284.004 241.682 280.442 239.345C277.419 237.392 274.857 234.804 272.935 231.761C271.244 229.05 270.417 225.89 270.563 222.699C270.774 219.505 271.905 216.441 273.819 213.877C275.945 211.034 278.615 208.643 281.674 206.844C285.172 204.754 288.956 203.185 292.906 202.186C301.792 199.93 311.099 199.93 319.984 202.186C323.935 203.184 327.719 204.754 331.217 206.844C334.277 208.643 336.948 211.035 339.073 213.878C340.988 216.442 342.12 219.506 342.33 222.7C342.477 225.891 341.65 229.051 339.959 231.762C338.038 234.805 335.477 237.393 332.453 239.346C328.892 241.683 324.984 243.441 320.872 244.556C316.174 245.853 311.321 246.502 306.447 246.485Z" fill="#DA8102"/>
<path d="M306.402 246.57C301.73 246.586 297.078 245.963 292.575 244.719C288.631 243.648 284.882 241.961 281.466 239.719C278.562 237.844 276.101 235.36 274.254 232.44C272.626 229.836 271.826 226.801 271.96 223.734C272.155 220.664 273.235 217.717 275.069 215.248C277.105 212.512 279.666 210.21 282.603 208.477C285.961 206.464 289.596 204.953 293.392 203.992C301.93 201.818 310.876 201.818 319.414 203.992C323.209 204.954 326.843 206.466 330.202 208.48C333.138 210.213 335.7 212.515 337.736 215.251C339.57 217.72 340.65 220.667 340.845 223.737C340.978 226.804 340.178 229.839 338.551 232.443C336.703 235.363 334.242 237.847 331.338 239.722C327.922 241.964 324.172 243.651 320.229 244.722C315.725 245.965 311.073 246.587 306.402 246.57Z" fill="#F0AA00"/>
<path d="M295.892 231.719C296.311 232.216 296.797 232.654 297.335 233.019C297.609 233.204 297.894 233.371 298.189 233.519C298.495 233.671 298.809 233.805 299.131 233.919C299.46 234.033 299.807 234.139 300.171 234.235C300.536 234.331 300.918 234.417 301.317 234.494C301.717 234.57 302.135 234.637 302.57 234.694C303.006 234.75 303.459 234.798 303.93 234.838L303.922 237.148H308.137L308.131 234.838C308.426 234.816 308.717 234.79 309.003 234.76C309.29 234.729 309.573 234.696 309.853 234.66C310.133 234.62 310.408 234.576 310.68 234.528C310.952 234.479 311.219 234.426 311.48 234.369C311.747 234.311 312.006 234.248 312.258 234.18C312.51 234.111 312.76 234.037 313.006 233.957C313.25 233.877 313.49 233.791 313.724 233.701C313.959 233.61 314.188 233.514 314.411 233.412C314.635 233.31 314.847 233.201 315.047 233.085C315.242 232.972 315.43 232.848 315.611 232.715C315.784 232.588 315.948 232.45 316.103 232.303C316.253 232.161 316.393 232.009 316.523 231.849C316.648 231.695 316.76 231.531 316.857 231.359C316.951 231.193 317.03 231.019 317.093 230.84C317.156 230.661 317.202 230.477 317.231 230.291C317.261 230.099 317.274 229.906 317.27 229.713C317.268 229.557 317.257 229.401 317.237 229.247C317.218 229.098 317.19 228.951 317.153 228.807C317.118 228.666 317.073 228.528 317.019 228.393C316.966 228.259 316.904 228.129 316.834 228.004C316.764 227.878 316.686 227.758 316.599 227.644C316.512 227.528 316.417 227.418 316.314 227.315C316.209 227.208 316.097 227.107 315.979 227.015C315.856 226.919 315.727 226.83 315.593 226.75C315.457 226.666 315.318 226.586 315.178 226.51C315.038 226.433 314.897 226.359 314.754 226.289C314.612 226.218 314.467 226.151 314.32 226.089C314.174 226.026 314.026 225.965 313.877 225.905C313.728 225.847 313.569 225.791 313.399 225.738C313.23 225.684 313.051 225.633 312.861 225.585C312.672 225.536 312.472 225.49 312.261 225.446C312.051 225.402 311.834 225.355 311.61 225.307C311.381 225.267 311.158 225.23 310.942 225.196C310.726 225.161 310.517 225.128 310.313 225.096C310.113 225.066 309.916 225.038 309.722 225.013C309.528 224.987 309.344 224.964 309.17 224.944C308.993 224.923 308.804 224.902 308.603 224.882C308.403 224.861 308.19 224.84 307.966 224.82C307.742 224.799 307.507 224.778 307.259 224.758L306.482 224.696C306.212 224.671 305.951 224.646 305.699 224.62C305.448 224.594 305.206 224.567 304.974 224.541C304.742 224.514 304.52 224.487 304.307 224.459C304.095 224.431 303.892 224.402 303.698 224.374C303.505 224.345 303.313 224.312 303.121 224.274C302.93 224.236 302.739 224.199 302.549 224.164C302.359 224.124 302.17 224.081 301.982 224.035C301.794 223.989 301.607 223.94 301.42 223.889C301.234 223.837 301.059 223.782 300.895 223.722C300.731 223.662 300.579 223.598 300.439 223.53C300.305 223.466 300.175 223.394 300.05 223.314C299.937 223.241 299.83 223.161 299.729 223.073C299.638 222.992 299.554 222.903 299.479 222.807C299.41 222.719 299.35 222.624 299.301 222.524C299.255 222.428 299.22 222.327 299.196 222.224C299.173 222.118 299.162 222.009 299.163 221.901C299.164 221.658 299.211 221.417 299.301 221.192C299.395 220.968 299.531 220.764 299.701 220.592C299.894 220.396 300.114 220.231 300.354 220.1C300.644 219.941 300.949 219.813 301.264 219.716C301.61 219.606 301.977 219.509 302.364 219.427C302.752 219.344 303.155 219.275 303.573 219.221C303.995 219.166 304.437 219.125 304.897 219.097C305.358 219.069 305.835 219.055 306.329 219.057C306.757 219.057 307.181 219.071 307.6 219.1C308.02 219.128 308.435 219.172 308.846 219.23C309.257 219.288 309.664 219.36 310.066 219.448C310.469 219.535 310.869 219.635 311.266 219.748C311.636 219.855 311.999 219.982 312.355 220.128C312.665 220.254 312.966 220.402 313.255 220.571C313.508 220.717 313.747 220.887 313.968 221.078C314.165 221.247 314.341 221.438 314.493 221.649L318.124 220.427C317.91 220.127 317.667 219.85 317.399 219.597C317.116 219.329 316.811 219.086 316.486 218.871C316.135 218.637 315.767 218.429 315.386 218.249C314.967 218.05 314.537 217.877 314.097 217.73C313.637 217.574 313.166 217.434 312.684 217.31C312.203 217.186 311.712 217.078 311.212 216.986C310.712 216.894 310.201 216.818 309.679 216.758C309.158 216.698 308.627 216.653 308.086 216.625L308.079 214.307H304.044L304.035 216.722C303.399 216.75 302.785 216.802 302.193 216.88C301.602 216.957 301.033 217.057 300.487 217.18C299.956 217.301 299.432 217.451 298.917 217.629C298.427 217.8 297.947 218 297.481 218.229C297.058 218.432 296.656 218.677 296.281 218.96C295.956 219.205 295.665 219.492 295.416 219.815C295.189 220.111 295.011 220.442 294.888 220.795C294.767 221.151 294.703 221.524 294.698 221.901C294.694 222.085 294.704 222.269 294.729 222.452C294.755 222.628 294.795 222.801 294.85 222.971C294.906 223.139 294.976 223.302 295.059 223.458C295.146 223.618 295.247 223.77 295.359 223.914C295.472 224.059 295.592 224.199 295.719 224.333C295.846 224.466 295.979 224.592 296.119 224.711C296.26 224.83 296.407 224.942 296.559 225.047C296.714 225.153 296.874 225.251 297.039 225.341C297.206 225.432 297.386 225.52 297.579 225.605C297.773 225.689 297.979 225.771 298.199 225.851C298.419 225.929 298.653 226.005 298.899 226.078C299.146 226.15 299.406 226.22 299.68 226.287C299.954 226.353 300.223 226.415 300.486 226.473C300.75 226.53 301.008 226.583 301.261 226.633C301.515 226.681 301.763 226.726 302.005 226.766C302.248 226.806 302.486 226.841 302.718 226.873C302.951 226.904 303.195 226.935 303.45 226.966C303.706 226.996 303.972 227.027 304.25 227.057C304.528 227.087 304.818 227.117 305.118 227.147C305.419 227.177 305.731 227.206 306.054 227.235L306.861 227.308C307.115 227.332 307.352 227.355 307.573 227.378C307.795 227.4 308.001 227.423 308.191 227.445C308.381 227.467 308.556 227.488 308.714 227.509C308.873 227.529 309.035 227.553 309.2 227.581C309.366 227.608 309.534 227.638 309.705 227.672C309.877 227.705 310.052 227.742 310.23 227.782C310.408 227.822 310.59 227.864 310.775 227.91C310.961 227.955 311.133 228.004 311.292 228.058C311.452 228.11 311.6 228.167 311.734 228.227C311.861 228.282 311.983 228.345 312.101 228.416C312.204 228.477 312.302 228.548 312.393 228.626C312.475 228.696 312.55 228.774 312.616 228.859C312.679 228.939 312.733 229.026 312.777 229.119C312.821 229.21 312.855 229.307 312.877 229.406C312.9 229.509 312.912 229.614 312.912 229.72C312.923 229.938 312.889 230.155 312.812 230.36C312.73 230.568 312.608 230.758 312.453 230.919C312.271 231.107 312.064 231.267 311.836 231.397C311.558 231.557 311.265 231.691 310.961 231.797C310.617 231.918 310.266 232.022 309.911 232.108C309.546 232.196 309.165 232.27 308.769 232.33C308.373 232.389 307.962 232.433 307.536 232.463C307.11 232.492 306.669 232.507 306.212 232.507C305.847 232.503 305.488 232.488 305.135 232.463C304.783 232.437 304.436 232.401 304.095 232.355C303.755 232.308 303.421 232.251 303.095 232.184C302.769 232.116 302.448 232.038 302.13 231.949C301.815 231.86 301.522 231.763 301.251 231.659C300.997 231.561 300.749 231.449 300.508 231.322C300.296 231.21 300.093 231.081 299.9 230.938C299.729 230.81 299.571 230.665 299.428 230.507L295.892 231.719Z" fill="#DA8102"/>
<path d="M295.939 229.83C296.358 230.322 296.843 230.754 297.381 231.114C297.653 231.297 297.938 231.462 298.233 231.608C298.537 231.758 298.851 231.889 299.173 232.001C299.501 232.115 299.846 232.219 300.21 232.315C300.573 232.41 300.954 232.496 301.353 232.572C301.753 232.648 302.169 232.714 302.603 232.772C303.036 232.829 303.488 232.877 303.959 232.915L303.951 235.215H308.151L308.145 232.915C308.438 232.893 308.728 232.868 309.014 232.838C309.3 232.808 309.582 232.774 309.861 232.738C310.139 232.698 310.414 232.655 310.686 232.607C310.957 232.559 311.224 232.506 311.486 232.449C311.752 232.391 312.011 232.329 312.262 232.261C312.512 232.193 312.761 232.119 313.008 232.04C313.251 231.96 313.49 231.876 313.724 231.786C313.958 231.696 314.186 231.6 314.409 231.499C314.632 231.397 314.843 231.289 315.043 231.174C315.237 231.062 315.424 230.939 315.605 230.806C315.776 230.679 315.94 230.542 316.095 230.396C316.244 230.254 316.384 230.103 316.514 229.944C316.638 229.791 316.749 229.628 316.847 229.457C316.94 229.292 317.019 229.119 317.082 228.94C317.144 228.762 317.189 228.579 317.219 228.394C317.248 228.204 317.261 228.012 317.258 227.82C317.255 227.665 317.244 227.51 317.225 227.357C317.206 227.209 317.178 227.063 317.142 226.919C317.106 226.779 317.061 226.641 317.008 226.507C316.955 226.374 316.893 226.244 316.824 226.12C316.754 225.995 316.676 225.875 316.59 225.762C316.502 225.646 316.407 225.537 316.306 225.435C316.201 225.328 316.089 225.227 315.972 225.135C315.848 225.039 315.72 224.951 315.587 224.871C315.453 224.788 315.315 224.708 315.173 224.632C315.03 224.555 314.889 224.482 314.75 224.412C314.607 224.342 314.463 224.275 314.318 224.212C314.172 224.148 314.025 224.087 313.876 224.029C313.727 223.971 313.568 223.915 313.4 223.863C313.231 223.81 313.052 223.759 312.864 223.711C312.675 223.662 312.475 223.616 312.264 223.573C312.052 223.529 311.834 223.488 311.608 223.449C311.379 223.409 311.157 223.373 310.941 223.339C310.725 223.305 310.515 223.271 310.313 223.239C310.113 223.209 309.916 223.181 309.724 223.156C309.531 223.13 309.348 223.107 309.174 223.087C308.997 223.066 308.808 223.045 308.608 223.025C308.407 223.004 308.195 222.983 307.973 222.963C307.749 222.942 307.514 222.921 307.268 222.901L306.493 222.839C306.226 222.814 305.966 222.789 305.712 222.763C305.458 222.737 305.217 222.71 304.989 222.684C304.757 222.657 304.536 222.63 304.324 222.602C304.112 222.574 303.909 222.545 303.717 222.517C303.524 222.488 303.332 222.456 303.142 222.422C302.951 222.387 302.764 222.351 302.581 222.314C302.391 222.274 302.203 222.231 302.016 222.185C301.828 222.139 301.642 222.09 301.456 222.039C301.27 221.987 301.095 221.932 300.933 221.873C300.77 221.813 300.618 221.75 300.477 221.682C300.343 221.618 300.213 221.546 300.089 221.467C299.976 221.395 299.869 221.315 299.769 221.227C299.677 221.147 299.594 221.059 299.519 220.965C299.45 220.878 299.39 220.783 299.342 220.684C299.297 220.588 299.263 220.487 299.242 220.384C299.218 220.278 299.207 220.171 299.209 220.063C299.207 219.576 299.398 219.109 299.741 218.763C299.929 218.57 300.145 218.406 300.381 218.276C300.67 218.118 300.974 217.99 301.289 217.894C301.634 217.784 301.998 217.689 302.382 217.607C302.765 217.525 303.168 217.456 303.591 217.402C304.011 217.347 304.451 217.306 304.911 217.279C305.37 217.251 305.848 217.238 306.345 217.238C306.772 217.238 307.195 217.252 307.613 217.281C308.031 217.309 308.445 217.353 308.855 217.411C309.265 217.469 309.67 217.541 310.072 217.627C310.473 217.713 310.87 217.813 311.264 217.927C311.632 218.034 311.994 218.16 312.35 218.305C312.659 218.431 312.96 218.578 313.25 218.746C313.501 218.89 313.739 219.058 313.961 219.246C314.156 219.417 314.33 219.61 314.481 219.822L318.107 218.601C317.892 218.303 317.65 218.026 317.384 217.775C317.103 217.509 316.801 217.267 316.481 217.053C316.129 216.82 315.762 216.613 315.381 216.434C314.962 216.235 314.532 216.061 314.093 215.914C313.633 215.758 313.163 215.619 312.684 215.496C312.204 215.372 311.715 215.265 311.216 215.174C310.716 215.082 310.207 215.007 309.688 214.947C309.168 214.887 308.639 214.843 308.099 214.815L308.092 212.514H304.068L304.059 214.914C303.423 214.942 302.811 214.994 302.222 215.071C301.632 215.147 301.066 215.247 300.522 215.371C299.992 215.491 299.469 215.64 298.956 215.818C298.466 215.987 297.988 216.186 297.523 216.414C297.099 216.615 296.697 216.859 296.323 217.141C295.999 217.385 295.709 217.671 295.461 217.992C295.234 218.286 295.056 218.616 294.934 218.967C294.813 219.321 294.749 219.692 294.745 220.067C294.742 220.25 294.754 220.433 294.781 220.614C294.806 220.789 294.846 220.961 294.902 221.13C294.956 221.297 295.025 221.459 295.109 221.614C295.196 221.773 295.296 221.924 295.409 222.067C295.521 222.212 295.641 222.351 295.768 222.484C295.894 222.616 296.028 222.741 296.168 222.86C296.308 222.978 296.455 223.09 296.607 223.194C296.759 223.298 296.919 223.396 297.085 223.487C297.251 223.577 297.43 223.665 297.623 223.75C297.815 223.834 298.022 223.916 298.242 223.995C298.462 224.073 298.695 224.149 298.942 224.221C299.188 224.293 299.448 224.362 299.721 224.429C299.993 224.495 300.26 224.557 300.521 224.614C300.783 224.671 301.041 224.724 301.294 224.773C301.546 224.821 301.794 224.866 302.036 224.906C302.278 224.946 302.515 224.981 302.747 225.012C302.979 225.042 303.223 225.073 303.481 225.104C303.735 225.134 304.002 225.165 304.281 225.195C304.559 225.225 304.848 225.254 305.147 225.284C305.447 225.313 305.758 225.342 306.081 225.372L306.881 225.445C307.133 225.469 307.37 225.492 307.591 225.515C307.811 225.537 308.017 225.56 308.207 225.582C308.396 225.604 308.57 225.625 308.729 225.646C308.887 225.666 309.049 225.69 309.213 225.718C309.377 225.744 309.544 225.774 309.713 225.808C309.881 225.841 310.056 225.877 310.237 225.917C310.415 225.956 310.596 225.999 310.78 226.045C310.964 226.091 311.136 226.14 311.296 226.192C311.455 226.244 311.602 226.3 311.737 226.36C311.862 226.415 311.985 226.477 312.103 226.548C312.205 226.609 312.303 226.678 312.394 226.756C312.475 226.825 312.55 226.903 312.617 226.988C312.679 227.068 312.733 227.155 312.777 227.247C312.82 227.338 312.854 227.433 312.877 227.532C312.899 227.634 312.911 227.739 312.912 227.844C312.922 228.061 312.888 228.277 312.812 228.481C312.73 228.688 312.608 228.877 312.454 229.037C312.272 229.223 312.065 229.383 311.839 229.512C311.561 229.67 311.268 229.802 310.966 229.906C310.622 230.026 310.273 230.129 309.919 230.215C309.555 230.303 309.175 230.377 308.781 230.436C308.386 230.494 307.976 230.539 307.551 230.569C307.125 230.598 306.685 230.613 306.231 230.613C305.867 230.609 305.509 230.594 305.157 230.569C304.805 230.543 304.459 230.508 304.12 230.462C303.78 230.416 303.447 230.359 303.12 230.292C302.792 230.224 302.472 230.147 302.158 230.059C301.843 229.971 301.551 229.875 301.282 229.771C301.028 229.674 300.781 229.562 300.541 229.436C300.329 229.324 300.126 229.197 299.935 229.054C299.764 228.926 299.606 228.783 299.464 228.625L295.939 229.83Z" fill="#FDCA05"/>
<path opacity="0.5" d="M304.107 273.743C285.623 273.743 267.14 269.685 253.057 261.569C239.272 253.615 231.676 242.984 231.676 231.649C231.676 220.314 239.272 209.682 253.057 201.728C281.209 185.497 327.005 185.497 355.157 201.728C368.941 209.682 376.538 220.314 376.538 231.649C376.538 242.984 368.941 253.615 355.157 261.569C341.087 269.685 322.59 273.743 304.107 273.743ZM304.107 191.178C285.921 191.178 267.736 195.168 253.883 203.162C240.626 210.805 233.328 220.922 233.328 231.649C233.328 242.375 240.626 252.493 253.897 260.135C281.588 276.11 326.653 276.11 354.344 260.135C367.601 252.493 374.899 242.375 374.899 231.649C374.899 220.922 367.601 210.805 354.331 203.162C340.478 195.182 322.292 191.178 304.107 191.178Z" fill="#53A5F8"/>
<path opacity="0.3" d="M304.119 232.446C285.635 232.446 267.138 228.388 253.069 220.272C239.284 212.319 231.688 201.7 231.688 190.352C231.688 179.017 239.284 168.385 253.069 160.432C281.221 144.2 327.016 144.2 355.168 160.432C368.953 168.385 376.55 179.017 376.55 190.352C376.55 201.687 368.953 212.319 355.168 220.272C341.099 228.388 322.602 232.446 304.119 232.446ZM304.119 149.881C285.933 149.881 267.747 153.871 253.895 161.865C240.638 169.508 233.34 179.625 233.34 190.352C233.34 201.078 240.638 211.196 253.908 218.838C281.6 234.813 326.664 234.813 354.356 218.838C367.612 211.196 374.911 201.078 374.911 190.352C374.911 179.625 367.612 169.508 354.342 161.865C340.49 153.885 322.304 149.881 304.119 149.881Z" fill="#53A5F8"/>
<path opacity="0.1" d="M304.119 191.151C285.635 191.151 267.138 187.093 253.069 178.977C239.284 171.024 231.688 160.392 231.688 149.057C231.688 137.722 239.284 127.09 253.069 119.137C281.221 102.905 327.016 102.905 355.168 119.137C368.953 127.09 376.55 137.722 376.55 149.057C376.55 160.392 368.953 171.024 355.168 178.977C341.099 187.093 322.602 191.151 304.119 191.151ZM304.119 108.586C285.933 108.586 267.747 112.576 253.895 120.57C240.638 128.213 233.34 138.331 233.34 149.057C233.34 159.783 240.638 169.901 253.908 177.543C281.6 193.518 326.664 193.518 354.356 177.543C367.612 169.901 374.911 159.783 374.911 149.057C374.911 138.331 367.612 128.213 354.342 120.57C340.49 112.59 322.304 108.586 304.119 108.586Z" fill="#53A5F8"/>
<path d="M238.959 261.245C238.959 263.193 237.375 264.776 235.425 264.776C233.475 264.776 231.891 263.193 231.891 261.245C231.891 259.297 233.475 257.715 235.425 257.715C237.375 257.715 238.959 259.297 238.959 261.245Z" fill="#6BD2FE"/>
<path d="M313.098 190.353C313.098 192.3 311.513 193.883 309.564 193.883C307.614 193.883 306.029 192.3 306.029 190.353C306.029 188.405 307.614 186.822 309.564 186.822C311.513 186.822 313.098 188.405 313.098 190.353Z" fill="#6BD2FE"/>
<path d="M257.443 160.974C257.443 162.922 255.859 164.504 253.909 164.504C251.959 164.504 250.375 162.922 250.375 160.974C250.375 159.026 251.959 157.443 253.909 157.443C255.859 157.443 257.443 159.026 257.443 160.974Z" fill="#6BD2FE"/>
<path d="M341.68 154.523C341.68 156.47 340.095 158.053 338.146 158.053C336.196 158.053 334.611 156.47 334.611 154.523C334.611 152.575 336.196 150.992 338.146 150.992C340.095 150.992 341.68 152.575 341.68 154.523Z" fill="#6BD2FE"/>
<path d="M371.647 130.648C371.647 132.595 370.062 134.178 368.112 134.178C366.162 134.178 364.578 132.595 364.578 130.648C364.578 128.7 366.162 127.117 368.112 127.117C370.062 127.117 371.647 128.7 371.647 130.648Z" fill="#6BD2FE"/>
<path d="M297.931 28.1044C299.285 27.5634 305.988 23.6002 304.011 16.6341C302.034 9.65448 293.869 12.5221 291.526 13.6448C289.183 14.7674 289.955 15.0921 284.823 16.4177C279.691 17.7432 278.202 16.9046 271.093 18.3249C263.97 19.7587 259.637 19.4746 259.637 19.4746C265.906 14.9703 269.711 6.61105 268.344 2.72899C266.976 -1.15308 260.002 -0.449709 257.321 2.07972C254.64 4.60915 248.195 10.2091 245.107 10.8989C242.02 11.5887 235.344 14.294 235.344 14.294C235.344 14.294 234.83 10.4931 231.011 9.80327C227.192 9.12695 223.97 11.8052 222.67 13.8612C221.37 15.9172 216.333 17.6891 216.333 17.6891C213.882 20.0968 212.893 21.8417 208.628 23.4649C206.488 24.2765 203.211 24.2629 199.163 25.8455C187.016 30.5933 189.887 34.6647 186.082 36.9371C182.277 39.2096 176.319 43.2404 176.319 43.2404C162.317 62.8266 140.611 82.6698 123.604 96.7913C142.439 109.655 158.526 137.83 161.099 164.125C161.261 165.749 161.342 167.318 161.397 168.846C176.576 163.341 190.537 164.355 200.733 161.555C215.209 157.592 235.276 138.141 235.276 138.141C244.376 135.896 245.419 135.166 250.199 132.609C254.965 130.039 275.967 124.507 281.641 123.993C287.315 123.479 293.53 122.315 295.548 118.745C298.621 113.307 294.938 106.895 294.938 106.895C294.938 106.895 296.726 107.22 299.813 104.352C302.914 101.485 300.368 95.114 294.41 85.6185C288.439 76.123 285.974 58.4846 281.248 55.2248C276.522 51.9649 262.548 43.1593 262.548 43.1593C270.537 41.6578 283.726 35.4763 287.626 34.056C291.526 32.6222 296.563 28.659 297.917 28.118L297.931 28.1044ZM265.378 76.4206C266.556 83.1432 272.541 90.2445 273.868 91.7595C275.195 93.2744 277.254 97.5487 277.254 97.5487C276.143 97.3729 271.675 98.1845 271.675 98.1845C260.937 101.011 256.319 100.254 251.621 99.226C246.922 98.198 237.944 89.6358 241.329 85.2398C244.715 80.8302 245.513 70.3878 245.513 70.3878C246.651 71.4158 252.731 70.4149 252.731 70.4149C254.41 73.9858 265.378 76.4476 265.378 76.4476V76.4206Z" fill="url(#paint0_radial_1060_7613)"/>
<path d="M200.204 156.536C208.938 153.452 227.841 139.507 235.261 138.141C235.261 138.141 215.194 157.578 200.718 161.555C192.986 163.678 183.101 163.597 172.16 165.843L176.629 158.849C176.629 158.849 191.47 159.634 200.204 156.55V156.536Z" fill="#4B95FA"/>
<path d="M254.49 72.2541C253.677 71.6725 253.041 71.0503 252.729 70.401C252.729 70.401 252.364 70.4551 251.809 70.5363C257.455 68.8455 260.583 62.1094 260.583 62.1094C260.949 67.2088 254.503 72.2541 254.49 72.2677V72.2541Z" fill="#67E2E8"/>
<path d="M245.525 70.3746C245.525 70.3746 245.416 71.8219 245.105 73.8644C243.575 68.278 245.579 60.7168 245.579 60.7168C245.173 64.1254 247.19 70.7939 247.204 70.8075C246.446 70.7669 245.823 70.6316 245.525 70.3611V70.3746Z" fill="#67E2E8"/>
<path d="M265.891 78.5038C265.674 77.8139 265.498 77.1105 265.376 76.4207C265.376 76.4207 264.428 76.2043 263.061 75.8255C263.101 75.8255 272.241 75.6903 278.728 70.3203C278.728 70.3203 274.909 75.7579 265.891 78.5038Z" fill="#67E2E8"/>
<g opacity="0.52">
<path d="M275.641 97.5898C274.612 97.8063 273.827 97.9009 273.258 97.9145C273.989 97.7927 274.869 97.671 275.641 97.5898Z" fill="#E28C61"/>
</g>
<path d="M275.02 93.3828C275.02 93.3828 292.555 99.2262 294.952 106.896C290.835 101.485 284.701 98.0359 277.931 97.4678L277.213 97.4137C276.969 96.9132 275.994 94.9654 275.033 93.3828H275.02Z" fill="#67E2E8"/>
<path d="M267.504 41.8728C267.504 41.8728 240.097 31.3629 236.955 30.416L262.561 43.1443L267.517 41.8728H267.504Z" fill="#67E2E8"/>
<path d="M265.04 13.8887C263.591 15.9717 261.749 17.9466 259.623 19.4751C259.623 19.4751 261.573 19.5833 264.945 19.2451L254.41 20.5842C260.761 19.0557 264.146 15.0655 265.026 13.8887H265.04Z" fill="#67E2E8"/>
<path d="M233.84 15.2956C235.424 14.5246 234.625 12.5362 234.422 12.0898C235.153 13.2125 235.316 14.2946 235.316 14.2946C235.316 14.2946 236.738 13.7265 238.566 13.0367C237.13 13.5642 233.84 15.2956 233.84 15.2956Z" fill="#67E2E8"/>
<path d="M294.95 106.895C294.95 106.895 285.986 95.4386 270.996 98.3603C270.996 98.3603 277.36 96.6425 279.717 96.6966C280.976 96.7236 284.781 98.4956 287.773 100.308C290.387 101.891 292.31 103.541 292.31 103.541L294.95 106.909V106.895Z" fill="#67E2E8"/>
<path d="M167.109 106.666C167.109 106.666 191.036 133.381 182.736 159.676L172.282 159.581L167.109 106.666Z" fill="#4B95FA"/>
<path d="M141.572 81.6824C133.461 78.0033 126.379 78.4091 121.084 82.0476L109.412 90.3934C111.673 90.8668 114.016 91.6243 116.467 92.7335C138.227 102.608 158.214 134.57 161.098 164.139C161.843 171.754 161.369 178.45 159.907 184.05L171.755 175.569C178.729 170.442 182.439 159.513 180.99 144.729C178.431 118.623 160.787 90.4069 141.586 81.696L141.572 81.6824Z" fill="white"/>
<g style="mix-blend-mode:lighten">
<path d="M17.1419 148.895L17.1961 148.854C17.2367 148.814 17.2909 148.787 17.3451 148.746L93.2561 93.0985C99.2548 89 107.285 88.5401 116.465 92.7062C138.226 102.58 158.212 134.543 161.097 164.112C162.735 180.858 158.537 193.234 150.629 199.037L75.4632 254.143C75.3955 254.184 75.3413 254.224 75.2736 254.279L74.6101 254.752C68.625 258.756 60.6628 259.162 51.5633 255.036C29.8028 245.162 9.81624 213.199 6.932 183.63C5.30708 167.061 9.41001 154.765 17.1555 148.895H17.1419Z" fill="url(#paint1_linear_1060_7613)"/>
</g>
<path d="M500.084 200.213C499.583 199.442 499.109 198.617 498.663 197.751C498.663 197.751 473.544 153.209 472.163 146.635C470.782 140.048 465.27 136.991 463.131 136.571C463.131 136.571 459.529 133.433 454.966 133.325C454.966 133.325 450.646 127.171 435.155 128.374C419.664 129.578 420.003 128.699 420.003 128.699C420.003 128.699 397.999 100.104 392.609 98.7382C387.22 97.3585 385.622 98.9952 379.217 98.5759C372.812 98.1701 364.958 97.0339 359.407 99.1981C353.855 101.362 352.121 101.308 352.121 101.308C352.121 101.308 343.103 102.187 345.568 108.775C348.032 115.362 355.466 116.309 356.888 115.998C358.323 115.7 363.713 114.523 364.999 114.943C366.272 115.362 372.433 120.597 380.91 119.785C380.91 119.785 383.428 128.009 388.33 132.987C388.33 132.987 383.686 135.084 384.051 143.213C384.43 151.342 392.081 175.73 393.327 176.839C394.573 177.949 395.128 179.355 402.223 181.141C402.223 181.141 401.384 186.105 391.634 188.093C391.634 188.093 380.923 188.404 367.992 185.604C367.992 185.604 365.906 183.251 361.37 182.236C356.82 181.235 346.813 178.584 340.246 182.832C333.679 187.079 333.462 191.191 338.418 194.816C343.374 198.441 349.968 198.089 349.968 198.089C349.968 198.089 354.464 204.447 357.308 206.354C360.151 208.261 379.61 211.616 392.487 219.542C392.487 219.542 394.315 221.003 402.711 224.29C411.106 227.577 417.931 235.003 417.931 235.003C417.931 235.003 432.433 246.297 447.748 250.477C450.213 251.153 452.515 251.924 454.695 252.749C462.792 230.255 481.357 209.046 500.071 200.213H500.084Z" fill="url(#paint2_radial_1060_7613)"/>
<path d="M405.771 173.174L405.704 169.467L402.847 159.35L399.353 149.327L397.01 143.429L393.111 138.438L387.951 133.217C386.841 133.934 383.767 136.531 384.065 143.213C384.444 151.342 392.095 175.73 393.341 176.839C394.559 177.935 395.142 179.301 401.872 181.046L402.318 180.532L404.512 177.177L405.785 173.187L405.771 173.174Z" fill="#67E2E8"/>
<path d="M388.345 132.975C388.345 132.975 395.63 139.819 397.553 143.904C399.475 147.989 405.434 164.991 405.555 166.953C405.677 168.914 408.426 173.878 402.251 181.128L401.331 180.885C401.331 180.885 406.205 175.583 405.19 170.104C403.727 162.219 397.566 145.257 396.483 143.295C395.413 141.347 387.844 133.286 387.844 133.286L388.358 132.975H388.345Z" fill="#42D3D3"/>
<path d="M401.195 155.239C401.195 155.239 391.905 148.665 390.199 147.826C390.199 147.826 399.299 154.292 399.258 155.82C399.204 157.349 397.755 158.025 397.755 158.025C397.755 158.025 401.1 156.442 402.142 157.714C403.185 158.985 401.208 155.252 401.208 155.252L401.195 155.239Z" fill="#42D3D3"/>
<path d="M404.241 164.693C404.241 164.693 395.832 169.089 394.654 171.348C394.654 171.348 402.197 166.993 404.607 167.534L404.241 164.693Z" fill="#42D3D3"/>
<path d="M381.317 120.922C381.317 120.922 380.423 117.391 380.166 113.645L380.247 119.826L380.802 120.07L381.317 120.922Z" fill="#67E2E8"/>
<path d="M442.671 242.97C442.671 242.97 423.7 236.883 415.494 229.336C407.289 221.788 399.651 222.64 393.287 220.043C394.452 220.719 397.119 222.099 402.725 224.29C411.121 227.577 417.945 235.003 417.945 235.003C417.945 235.003 431.337 245.432 445.989 249.963L442.685 242.984L442.671 242.97Z" fill="#4B95FA"/>
<path d="M487.357 181.642C495.807 179.626 502.523 181.331 506.924 185.795L516.551 195.953C514.304 195.98 511.907 196.277 509.361 196.886C486.68 202.297 461.575 229.214 453.301 256.997C451.175 264.153 450.376 270.659 450.742 276.299L440.965 265.965C435.238 259.757 433.721 248.597 437.851 234.706C445.163 210.169 467.316 186.417 487.343 181.642H487.357Z" fill="white"/>
<g style="mix-blend-mode:lighten">
<path d="M594.047 269.159L594.006 269.118C593.966 269.078 593.925 269.037 593.885 268.996L531.528 201.581C526.545 196.536 518.948 194.615 509.375 196.887C486.694 202.298 461.589 229.215 453.315 256.999C448.63 272.743 450.35 285.377 456.836 292.397L518.583 359.163C518.637 359.217 518.691 359.271 518.732 359.326L519.287 359.907C524.27 364.858 531.826 366.724 541.318 364.466C563.999 359.055 589.105 332.138 597.378 304.354C602.023 288.772 600.384 276.233 594.061 269.172L594.047 269.159Z" fill="url(#paint3_linear_1060_7613)"/>
</g>
<path opacity="0.4" d="M579.977 246.919C580.18 246.27 580.369 245.621 580.559 244.972C582.861 236.666 582.739 229.47 580.599 223.816L589.008 232.46C591.148 238.114 591.283 245.31 588.968 253.615C588.792 254.264 588.589 254.913 588.386 255.563L579.977 246.919Z" fill="#4B95FA"/>
<path opacity="0.2" d="M558.201 280.304C565.798 272.959 572.216 264.383 576.522 255.523L584.931 264.167C580.625 273.027 574.207 281.602 566.61 288.947L558.201 280.304Z" fill="#4B95FA"/>
<path opacity="0.05" d="M524.094 300.943C533.166 298.414 542.293 293.45 550.553 286.971L558.962 295.614C550.702 302.093 541.575 307.057 532.503 309.587L524.094 300.943Z" fill="#4B95FA"/>
<g style="mix-blend-mode:lighten" opacity="0.15">
<path d="M605.393 210.046C575.102 182.75 513.463 215.835 484.255 262.069L471.229 248.677C508.196 192.53 568.738 173.133 592.367 196.655L605.393 210.046Z" fill="url(#paint4_linear_1060_7613)"/>
</g>
<g style="mix-blend-mode:lighten" opacity="0.3">
<path d="M612 254.847C590.781 317.812 512.812 363.734 479.569 332.84L466.475 319.516C500.612 349.937 578.581 304.015 598.906 241.523L612 254.847Z" fill="url(#paint5_linear_1060_7613)"/>
</g>
<g style="mix-blend-mode:lighten" opacity="0.15">
<path d="M479.583 332.826C452.962 301.945 487.518 241.158 534.479 213.064L521.385 199.74C464.323 235.342 443.497 295.345 466.489 319.503L479.583 332.826Z" fill="url(#paint6_linear_1060_7613)"/>
</g>
<g opacity="0.2">
<path d="M584.607 225.482C580.856 221.627 575.494 219.341 568.886 218.989L560.477 210.346C567.098 210.697 572.46 212.983 576.198 216.838L584.607 225.482Z" fill="#81DAFE"/>
</g>
<g style="mix-blend-mode:lighten">
<path d="M114.205 247.826C146.447 222.856 124.727 156.415 84.3203 119.528L99.8113 109.086C148.627 155.346 157.049 218.284 129.696 237.383L114.205 247.826Z" fill="url(#paint7_linear_1060_7613)"/>
</g>
<path opacity="0.4" d="M32.9726 143.646C32.9049 142.97 32.8372 142.293 32.7966 141.63C32.1872 133.028 33.758 126.007 36.9808 120.895L27.0146 127.685C23.7918 132.798 22.221 139.818 22.8304 148.421C22.871 149.097 22.9387 149.76 23.0064 150.436L32.9726 143.646Z" fill="#4B95FA"/>
<path opacity="0.2" d="M47.6375 180.696C41.6659 171.985 37.0755 162.3 34.6381 152.764L24.6719 159.554C27.1228 169.104 31.6997 178.775 37.6713 187.486L47.6375 180.696Z" fill="#4B95FA"/>
<path opacity="0.05" d="M76.9399 207.72C68.558 203.432 60.5958 196.75 53.7982 188.756L43.832 195.546C50.6296 203.54 58.5918 210.222 66.9737 214.51L76.9399 207.72Z" fill="#4B95FA"/>
<g style="mix-blend-mode:lighten" opacity="0.15">
<path d="M15.4238 102.444C50.5493 81.7217 104.348 126.426 123.752 177.556L139.189 167.032C114.179 104.649 58.7145 73.5924 30.8606 91.9206L15.4238 102.444Z" fill="url(#paint8_linear_1060_7613)"/>
</g>
<g style="mix-blend-mode:lighten" opacity="0.3">
<path d="M0 145.026C8.21941 210.954 75.4642 271.484 114.205 247.827L129.696 237.384C90.1833 260.393 22.9385 199.862 15.4909 134.584L0 145.026Z" fill="url(#paint9_linear_1060_7613)"/>
</g>
<g style="mix-blend-mode:lighten" opacity="0.15">
<path d="M114.205 247.826C146.447 222.856 124.727 156.415 84.3203 119.528L99.8113 109.086C148.627 155.346 157.049 218.284 129.696 237.383L114.205 247.826Z" fill="url(#paint10_linear_1060_7613)"/>
</g>
<g opacity="0.2">
<path d="M32.7148 121.721C37.1563 118.691 42.8706 117.514 49.4245 118.501L59.3907 111.711C52.8368 110.737 47.1225 111.9 42.681 114.93L32.7148 121.721Z" fill="#81DAFE"/>
</g>
<defs>
<radialGradient id="paint0_radial_1060_7613" cx="0" cy="0" r="1" gradientUnits="userSpaceOnUse" gradientTransform="translate(267.464 59.4044) scale(132.553 132.409)">
<stop stop-color="#9CF5FE"/>
<stop offset="0.25" stop-color="#98F2FD"/>
<stop offset="0.44" stop-color="#8FE8FD"/>
<stop offset="0.61" stop-color="#7FD8FC"/>
<stop offset="0.76" stop-color="#68C2FB"/>
<stop offset="0.91" stop-color="#4BA6FA"/>
<stop offset="0.94" stop-color="#449FFA"/>
</radialGradient>
<linearGradient id="paint1_linear_1060_7613" x1="181.029" y1="99.1583" x2="84.5326" y2="173.627" gradientUnits="userSpaceOnUse">
<stop stop-color="#3874DA"/>
<stop offset="1" stop-color="#2A023F"/>
</linearGradient>
<radialGradient id="paint2_radial_1060_7613" cx="0" cy="0" r="1" gradientUnits="userSpaceOnUse" gradientTransform="translate(362.02 109.505) scale(183.955 183.756)">
<stop stop-color="#9CF5FE"/>
<stop offset="0.36" stop-color="#9AF3FD"/>
<stop offset="0.49" stop-color="#93ECFD"/>
<stop offset="0.59" stop-color="#87E0FD"/>
<stop offset="0.66" stop-color="#76D0FC"/>
<stop offset="0.73" stop-color="#60BBFB"/>
<stop offset="0.78" stop-color="#46A1FA"/>
<stop offset="0.79" stop-color="#449FFA"/>
</radialGradient>
<linearGradient id="paint3_linear_1060_7613" x1="446.277" y1="191.037" x2="524.846" y2="280.32" gradientUnits="userSpaceOnUse">
<stop stop-color="#3874DA"/>
<stop offset="1" stop-color="#2A023F"/>
</linearGradient>
<linearGradient id="paint4_linear_1060_7613" x1="580.995" y1="184.915" x2="493.021" y2="270.949" gradientUnits="userSpaceOnUse">
<stop stop-color="#2A023F"/>
<stop offset="0.1" stop-color="#2C0844"/>
<stop offset="0.24" stop-color="#321954"/>
<stop offset="0.41" stop-color="#3C366D"/>
<stop offset="0.59" stop-color="#4A5D91"/>
<stop offset="0.78" stop-color="#5D91BF"/>
<stop offset="0.98" stop-color="#73CEF6"/>
<stop offset="1" stop-color="#76D6FD"/>
</linearGradient>
<linearGradient id="paint5_linear_1060_7613" x1="490.785" y1="344.225" x2="597.492" y2="239.871" gradientUnits="userSpaceOnUse">
<stop stop-color="#2A023F"/>
<stop offset="0.13" stop-color="#2A0645"/>
<stop offset="0.3" stop-color="#2C1356"/>
<stop offset="0.5" stop-color="#2E2873"/>
<stop offset="0.72" stop-color="#32459A"/>
<stop offset="0.95" stop-color="#366ACD"/>
<stop offset="1" stop-color="#3874DA"/>
</linearGradient>
<linearGradient id="paint6_linear_1060_7613" x1="55.9605" y1="697.344" x2="542.702" y2="221.338" gradientUnits="userSpaceOnUse">
<stop stop-color="#2A023F"/>
<stop offset="0.13" stop-color="#2A0645"/>
<stop offset="0.3" stop-color="#2C1356"/>
<stop offset="0.5" stop-color="#2E2873"/>
<stop offset="0.72" stop-color="#32459A"/>
<stop offset="0.95" stop-color="#366ACD"/>
<stop offset="1" stop-color="#3874DA"/>
</linearGradient>
<linearGradient id="paint7_linear_1060_7613" x1="143" y1="228.207" x2="73.9625" y2="126.396" gradientUnits="userSpaceOnUse">
<stop stop-color="#2A023F"/>
<stop offset="0.06" stop-color="#2C0844"/>
<stop offset="0.14" stop-color="#341953"/>
<stop offset="0.23" stop-color="#40366B"/>
<stop offset="0.32" stop-color="#525D8D"/>
<stop offset="0.43" stop-color="#6891B9"/>
<stop offset="0.54" stop-color="#83CEED"/>
<stop offset="0.57" stop-color="#8CE2FE"/>
</linearGradient>
<linearGradient id="paint8_linear_1060_7613" x1="44.279" y1="82.6944" x2="113.316" y2="184.505" gradientUnits="userSpaceOnUse">
<stop stop-color="#2A023F"/>
<stop offset="0.1" stop-color="#2C0844"/>
<stop offset="0.24" stop-color="#321954"/>
<stop offset="0.41" stop-color="#3C366D"/>
<stop offset="0.59" stop-color="#4A5D91"/>
<stop offset="0.78" stop-color="#5D91BF"/>
<stop offset="0.98" stop-color="#73CEF6"/>
<stop offset="1" stop-color="#76D6FD"/>
</linearGradient>
<linearGradient id="paint9_linear_1060_7613" x1="100.818" y1="256.81" x2="17.0637" y2="133.296" gradientUnits="userSpaceOnUse">
<stop stop-color="#2A023F"/>
<stop offset="0.13" stop-color="#2A0645"/>
<stop offset="0.3" stop-color="#2C1356"/>
<stop offset="0.5" stop-color="#2E2873"/>
<stop offset="0.72" stop-color="#32459A"/>
<stop offset="0.95" stop-color="#366ACD"/>
<stop offset="1" stop-color="#3874DA"/>
</linearGradient>
<linearGradient id="paint10_linear_1060_7613" x1="143" y1="228.207" x2="73.9625" y2="126.396" gradientUnits="userSpaceOnUse">
<stop stop-color="#2A023F"/>
<stop offset="0.13" stop-color="#2A0645"/>
<stop offset="0.3" stop-color="#2C1356"/>
<stop offset="0.5" stop-color="#2E2873"/>
<stop offset="0.72" stop-color="#32459A"/>
<stop offset="0.95" stop-color="#366ACD"/>
<stop offset="1" stop-color="#3874DA"/>
</linearGradient>
</defs>
</svg>
