<svg width="612" height="459" viewBox="0 0 612 459" fill="none" xmlns="http://www.w3.org/2000/svg">
<path d="M552.732 210.764C551.107 211.007 549.441 211.345 547.722 211.778C540.382 213.645 532.975 217.148 525.988 221.774L534.397 230.417C541.384 225.791 548.791 222.288 556.131 220.421C557.85 219.989 559.529 219.637 561.141 219.407L552.732 210.764Z" fill="#9CF5FE"/>
<path d="M301.464 315.635C300.421 315.608 299.392 315.581 298.363 315.527L298.512 312.47C299.514 312.511 300.53 312.551 301.545 312.578L301.477 315.649L301.464 315.635ZM307.679 315.608L307.598 312.538C308.614 312.511 309.616 312.47 310.631 312.416L310.794 315.473C309.765 315.527 308.722 315.568 307.693 315.595L307.679 315.608ZM292.161 315.094C291.132 315 290.103 314.878 289.074 314.756L289.439 311.713C290.442 311.834 291.444 311.943 292.446 312.037L292.148 315.094H292.161ZM316.982 315L316.671 311.956C317.673 311.848 318.675 311.74 319.677 311.605L320.069 314.648C319.04 314.783 318.011 314.905 316.982 315.013V315ZM282.913 313.836C281.884 313.661 280.868 313.458 279.852 313.255L280.475 310.252C281.464 310.455 282.452 310.644 283.454 310.82L282.926 313.836H282.913ZM326.217 313.674L325.662 310.658C326.65 310.482 327.639 310.279 328.627 310.076L329.264 313.079C328.248 313.295 327.233 313.498 326.217 313.688V313.674ZM273.8 311.834C272.784 311.564 271.795 311.28 270.793 310.996L271.674 308.061C272.635 308.345 273.61 308.615 274.585 308.872L273.8 311.834ZM335.317 311.591L334.504 308.629C335.479 308.358 336.44 308.074 337.402 307.79L338.309 310.725C337.321 311.036 336.319 311.32 335.317 311.591ZM264.876 309.007C263.901 308.642 262.926 308.263 261.965 307.871L263.129 305.031C264.05 305.409 264.984 305.775 265.932 306.126L264.862 308.994L264.876 309.007ZM344.213 308.683L343.116 305.815C344.064 305.45 344.985 305.085 345.906 304.693L347.111 307.52C346.163 307.925 345.188 308.318 344.213 308.683ZM256.277 305.274C255.343 304.801 254.422 304.314 253.515 303.8L255.018 301.122C255.885 301.609 256.765 302.082 257.672 302.528L256.291 305.261L256.277 305.274ZM352.771 304.855L351.349 302.136C352.243 301.663 353.123 301.189 353.99 300.689C354.613 300.324 355.235 299.958 355.831 299.58L357.456 302.19C356.833 302.582 356.183 302.961 355.52 303.34C354.626 303.854 353.705 304.354 352.771 304.841V304.855ZM248.18 300.486C247.3 299.877 246.447 299.255 245.634 298.619L247.516 296.198C248.288 296.793 249.087 297.388 249.927 297.956L248.18 300.472V300.486ZM362.615 298.606L360.733 296.184C361.518 295.562 362.29 294.926 363.021 294.291L365.053 296.59C364.281 297.267 363.455 297.943 362.615 298.606ZM240.881 294.453C240.123 293.682 239.392 292.898 238.728 292.113L241.057 290.125C241.68 290.855 242.357 291.586 243.061 292.289L240.881 294.453ZM369.521 292.086L367.192 290.098C367.842 289.34 368.451 288.556 369.007 287.785L371.498 289.57C370.889 290.409 370.225 291.261 369.521 292.086ZM234.991 286.932C234.449 285.999 233.935 285.039 233.501 284.078L236.291 282.793C236.684 283.659 237.144 284.525 237.645 285.377L235.005 286.932H234.991ZM374.734 284.038L371.945 282.766C372.351 281.887 372.703 280.981 373.001 280.075L375.913 281.035C375.574 282.049 375.181 283.064 374.734 284.051V284.038ZM231.47 277.924C231.254 276.855 231.105 275.773 231.023 274.705L234.084 274.475C234.151 275.421 234.287 276.382 234.476 277.315L231.47 277.924ZM377.185 274.664L374.125 274.448C374.166 273.907 374.179 273.365 374.179 272.824C374.179 272.419 374.179 271.999 374.139 271.58L377.199 271.404C377.226 271.878 377.24 272.351 377.24 272.824C377.24 273.447 377.212 274.055 377.172 274.664H377.185ZM234.395 268.767L231.375 268.212C231.565 267.157 231.822 266.088 232.147 265.06L235.072 265.967C234.788 266.886 234.558 267.82 234.382 268.767H234.395ZM373.11 265.94C372.825 265.033 372.487 264.127 372.094 263.234L374.897 262.003C375.344 263.004 375.723 264.032 376.034 265.033L373.096 265.94H373.11ZM237.401 260.678L234.734 259.163C235.248 258.257 235.83 257.35 236.453 256.458L238.972 258.216C238.403 259.028 237.875 259.866 237.401 260.691V260.678ZM369.21 258.189C368.655 257.404 368.059 256.62 367.422 255.862L369.778 253.888C370.469 254.713 371.119 255.565 371.728 256.417L369.21 258.175V258.189ZM242.736 253.698L240.543 251.561C241.274 250.817 242.046 250.073 242.831 249.37L244.876 251.656C244.131 252.318 243.413 253.008 242.736 253.698ZM363.306 251.629C362.575 250.979 361.803 250.33 361.031 249.721L362.94 247.314C363.766 247.963 364.579 248.653 365.364 249.343L363.319 251.629H363.306ZM249.548 247.963L247.774 245.461C248.613 244.865 249.493 244.284 250.387 243.716L252.026 246.313C251.172 246.854 250.333 247.408 249.534 247.977L249.548 247.963ZM356.156 246.286C355.452 245.839 354.721 245.407 353.976 244.974L353.57 244.744L355.1 242.079L355.506 242.309C356.292 242.755 357.05 243.215 357.781 243.689L356.143 246.286H356.156ZM257.252 243.337L255.844 240.605C256.765 240.131 257.699 239.671 258.661 239.239L259.947 242.025C259.026 242.444 258.133 242.891 257.239 243.351L257.252 243.337ZM348.235 241.998C347.327 241.579 346.407 241.173 345.472 240.781L346.664 237.953C347.625 238.359 348.587 238.779 349.521 239.211L348.235 241.998ZM265.512 239.685L264.429 236.817C265.391 236.452 266.379 236.1 267.368 235.762L268.356 238.67C267.395 238.995 266.447 239.333 265.512 239.685ZM339.839 238.657C338.891 238.332 337.93 238.035 336.969 237.737L337.862 234.802C338.864 235.099 339.853 235.424 340.828 235.749L339.839 238.657ZM274.138 236.912L273.339 233.95C274.341 233.679 275.343 233.422 276.359 233.179L277.077 236.168C276.088 236.398 275.113 236.655 274.152 236.912H274.138ZM331.132 236.154C330.157 235.925 329.169 235.708 328.18 235.492L328.803 232.489C329.819 232.705 330.834 232.922 331.836 233.165L331.132 236.154ZM282.994 234.924L282.452 231.907C283.468 231.718 284.497 231.556 285.526 231.393L285.987 234.423C284.984 234.572 283.996 234.734 283.007 234.924H282.994ZM322.209 234.423C321.22 234.274 320.218 234.139 319.203 234.004L319.582 230.96C320.611 231.096 321.64 231.231 322.656 231.393L322.195 234.423H322.209ZM291.985 233.679L291.674 230.622C292.703 230.514 293.732 230.433 294.775 230.352L295.005 233.409C294.003 233.49 292.987 233.571 291.985 233.679ZM313.177 233.409C312.175 233.341 311.159 233.273 310.157 233.219L310.306 230.162C311.349 230.216 312.378 230.271 313.407 230.352L313.177 233.409ZM301.058 233.111L300.976 230.041C302.006 230.014 303.048 230 304.077 230V233.07C303.062 233.07 302.06 233.07 301.044 233.111H301.058Z" fill="#76D6FD"/>
<path opacity="0.1" d="M304.105 314.592C343.651 314.592 375.71 296.103 375.71 273.296C375.71 250.489 343.651 232 304.105 232C264.559 232 232.5 250.489 232.5 273.296C232.5 296.103 264.559 314.592 304.105 314.592Z" fill="#53A5F8"/>
<path d="M304.107 315.051C285.623 315.051 267.14 310.993 253.057 302.878C239.272 294.924 231.676 284.292 231.676 272.957C231.676 261.622 239.272 250.99 253.057 243.037C281.209 226.805 327.005 226.805 355.157 243.037C368.941 250.99 376.538 261.622 376.538 272.957C376.538 284.292 368.941 294.924 355.157 302.878C341.087 310.993 322.59 315.051 304.107 315.051ZM304.107 232.486C285.921 232.486 267.736 236.477 253.883 244.457C240.626 252.1 233.328 262.217 233.328 272.944C233.328 283.67 240.626 293.788 253.897 301.43C281.588 317.405 326.653 317.405 354.344 301.43C367.601 293.788 374.899 283.67 374.899 272.944C374.899 262.217 367.601 252.1 354.331 244.457C340.478 236.477 322.292 232.473 304.107 232.473V232.486Z" fill="#53A5F8"/>
<path opacity="0.5" d="M304.107 273.743C285.623 273.743 267.14 269.685 253.057 261.569C239.272 253.615 231.676 242.984 231.676 231.649C231.676 220.314 239.272 209.682 253.057 201.728C281.209 185.497 327.005 185.497 355.157 201.728C368.941 209.682 376.538 220.314 376.538 231.649C376.538 242.984 368.941 253.615 355.157 261.569C341.087 269.685 322.59 273.743 304.107 273.743ZM304.107 191.178C285.921 191.178 267.736 195.168 253.883 203.162C240.626 210.805 233.328 220.922 233.328 231.649C233.328 242.375 240.626 252.493 253.897 260.135C281.588 276.11 326.653 276.11 354.344 260.135C367.601 252.493 374.899 242.375 374.899 231.649C374.899 220.922 367.601 210.805 354.331 203.162C340.478 195.182 322.292 191.178 304.107 191.178Z" fill="#53A5F8"/>
<path d="M306.375 269.301C299.873 269.324 293.387 268.63 287.037 267.231C281.678 266.087 276.501 264.217 271.647 261.673C267.843 259.749 264.508 257.014 261.876 253.66C259.773 250.978 258.763 247.599 259.047 244.202C259.512 240.747 261.123 237.547 263.622 235.115C266.641 232.107 270.186 229.678 274.082 227.95C278.783 225.806 283.722 224.229 288.795 223.25C300.415 220.984 312.363 220.984 323.982 223.25C329.053 224.229 333.99 225.807 338.689 227.95C342.585 229.677 346.131 232.104 349.149 235.112C351.647 237.545 353.256 240.745 353.719 244.2C354.001 247.599 352.987 250.978 350.882 253.66C348.249 257.014 344.912 259.75 341.106 261.674C336.251 264.218 331.073 266.088 325.713 267.232C319.363 268.631 312.878 269.324 306.375 269.301Z" fill="#DA8102"/>
<path d="M304.448 260.125C299.559 260.142 294.683 259.629 289.904 258.597C285.859 257.749 281.945 256.363 278.267 254.478C275.371 253.045 272.818 251.005 270.781 248.497C269.15 246.495 268.333 243.952 268.492 241.375C268.791 238.757 269.975 236.319 271.848 234.466C274.129 232.159 276.819 230.297 279.782 228.976C283.383 227.321 287.168 226.103 291.058 225.349C300 223.595 309.197 223.595 318.139 225.349C322.018 226.102 325.792 227.32 329.38 228.976C332.33 230.295 335.005 232.158 337.267 234.466C339.127 236.322 340.292 238.761 340.567 241.375C340.702 243.959 339.863 246.5 338.216 248.497C336.158 251.004 333.588 253.043 330.678 254.478C326.987 256.362 323.062 257.747 319.006 258.597C314.223 259.629 309.342 260.141 304.448 260.125Z" fill="#DA8102"/>
<path d="M302.895 259.044C298.223 259.06 293.562 258.571 288.995 257.586C285.128 256.777 281.386 255.455 277.87 253.654C275.099 252.286 272.656 250.336 270.706 247.938C269.145 246.024 268.362 243.591 268.515 241.125C268.803 238.617 269.938 236.282 271.734 234.507C273.92 232.295 276.499 230.51 279.339 229.242C282.794 227.654 286.427 226.485 290.16 225.761C298.737 224.077 307.559 224.077 316.136 225.761C319.851 226.484 323.465 227.653 326.9 229.242C329.719 230.507 332.274 232.293 334.43 234.507C336.201 236.288 337.302 238.626 337.548 241.125C337.659 243.603 336.84 246.033 335.253 247.938C333.268 250.335 330.798 252.283 328.005 253.653C324.466 255.452 320.705 256.774 316.82 257.585C312.244 258.57 307.575 259.059 302.895 259.044Z" fill="#DA8102"/>
<path d="M306.554 263.722C300.127 263.745 293.716 263.067 287.435 261.7C282.14 260.583 277.019 258.755 272.213 256.267C268.456 254.391 265.155 251.717 262.54 248.431C260.46 245.816 259.455 242.507 259.73 239.177C260.189 235.788 261.78 232.654 264.244 230.283C267.235 227.334 270.741 224.957 274.588 223.271C279.241 221.169 284.125 219.623 289.139 218.665C300.642 216.445 312.463 216.445 323.965 218.665C328.98 219.623 333.864 221.169 338.516 223.271C342.364 224.957 345.871 227.334 348.862 230.283C351.327 232.654 352.918 235.788 353.377 239.177C353.652 242.506 352.646 245.815 350.566 248.429C347.952 251.715 344.651 254.39 340.894 256.265C336.088 258.754 330.968 260.582 325.673 261.7C319.393 263.067 312.982 263.745 306.554 263.722Z" fill="#FECB03"/>
<path d="M306.554 257.746C301.688 257.762 296.834 257.255 292.076 256.233C288.046 255.393 284.145 254.021 280.476 252.154C277.59 250.736 275.041 248.716 273 246.231C271.369 244.254 270.544 241.736 270.688 239.178C270.974 236.584 272.142 234.168 273.998 232.334C276.26 230.047 278.93 228.203 281.87 226.898C285.448 225.255 289.209 224.046 293.074 223.298C301.975 221.56 311.129 221.56 320.03 223.298C323.897 224.046 327.66 225.254 331.24 226.898C334.18 228.204 336.85 230.049 339.112 232.337C340.968 234.171 342.137 236.587 342.423 239.181C342.568 241.739 341.743 244.258 340.112 246.235C338.071 248.72 335.522 250.74 332.635 252.158C328.966 254.025 325.065 255.397 321.035 256.237C316.276 257.258 311.421 257.764 306.554 257.746Z" fill="#DA8102"/>
<path d="M306.507 257.813C301.842 257.828 297.189 257.342 292.628 256.362C288.763 255.556 285.021 254.24 281.501 252.45C278.728 251.088 276.278 249.149 274.314 246.764C272.744 244.865 271.946 242.445 272.076 239.985C272.343 237.492 273.458 235.167 275.236 233.4C277.404 231.196 279.965 229.419 282.787 228.16C286.224 226.578 289.838 225.415 293.552 224.695C302.109 223.018 310.91 223.018 319.466 224.695C323.18 225.415 326.794 226.578 330.23 228.16C333.053 229.419 335.613 231.196 337.78 233.4C339.559 235.166 340.676 237.492 340.943 239.985C341.074 242.445 340.275 244.865 338.704 246.764C336.741 249.149 334.291 251.088 331.517 252.45C327.998 254.24 324.256 255.556 320.39 256.362C315.828 257.342 311.174 257.828 306.507 257.813Z" fill="#F0AA00"/>
<path d="M295.986 246.197C296.2 246.393 296.426 246.575 296.663 246.741C296.909 246.912 297.165 247.068 297.429 247.207C297.707 247.352 297.992 247.482 298.284 247.594C298.593 247.713 298.908 247.816 299.227 247.902C299.557 247.991 299.904 248.074 300.268 248.149C300.633 248.224 301.016 248.291 301.416 248.349C301.816 248.409 302.235 248.461 302.671 248.506C303.108 248.551 303.562 248.588 304.033 248.618L304.023 250.418H308.247L308.24 248.618C308.535 248.601 308.826 248.581 309.113 248.557C309.401 248.533 309.684 248.506 309.964 248.475C310.244 248.444 310.52 248.411 310.792 248.375C311.064 248.339 311.333 248.298 311.598 248.251C311.865 248.206 312.125 248.157 312.377 248.103C312.63 248.049 312.88 247.991 313.126 247.929C313.371 247.867 313.61 247.8 313.844 247.729C314.078 247.658 314.308 247.582 314.532 247.503C314.756 247.424 314.969 247.339 315.169 247.248C315.37 247.157 315.558 247.061 315.733 246.96C315.903 246.862 316.068 246.755 316.225 246.639C316.373 246.53 316.513 246.412 316.644 246.285C316.767 246.168 316.879 246.04 316.978 245.903C317.07 245.778 317.149 245.644 317.213 245.503C317.275 245.366 317.321 245.222 317.35 245.075C317.38 244.927 317.392 244.776 317.388 244.625C317.386 244.503 317.374 244.382 317.354 244.262C317.335 244.146 317.306 244.031 317.269 243.919C317.233 243.808 317.188 243.7 317.134 243.596C317.08 243.492 317.018 243.391 316.948 243.296C316.877 243.197 316.798 243.103 316.712 243.016C316.623 242.924 316.527 242.839 316.426 242.76C316.319 242.676 316.207 242.599 316.09 242.529C315.967 242.452 315.84 242.38 315.709 242.316C315.572 242.249 315.433 242.187 315.293 242.129C315.153 242.071 315.012 242.014 314.868 241.957C314.725 241.902 314.58 241.85 314.434 241.799C314.288 241.748 314.14 241.701 313.989 241.656C313.84 241.611 313.681 241.567 313.511 241.526C313.342 241.485 313.163 241.445 312.973 241.407C312.784 241.369 312.584 241.333 312.373 241.299C312.163 241.265 311.943 241.232 311.715 241.199L311.046 241.113C310.83 241.086 310.621 241.061 310.417 241.037C310.214 241.013 310.017 240.991 309.826 240.972C309.636 240.952 309.452 240.934 309.274 240.918L308.709 240.872L308.072 240.824L307.365 240.776L306.588 240.728C306.318 240.709 306.058 240.688 305.809 240.666C305.561 240.644 305.319 240.623 305.084 240.604C304.852 240.583 304.63 240.562 304.417 240.54C304.205 240.518 304.002 240.497 303.809 240.477C303.616 240.454 303.424 240.43 303.232 240.403C303.041 240.376 302.85 240.347 302.66 240.316C302.47 240.285 302.282 240.251 302.094 240.216C301.907 240.181 301.72 240.143 301.533 240.102C301.347 240.062 301.172 240.019 301.008 239.972C300.844 239.925 300.691 239.875 300.549 239.822C300.417 239.773 300.288 239.717 300.161 239.654C300.051 239.599 299.944 239.537 299.841 239.467C299.752 239.408 299.669 239.341 299.591 239.267C299.524 239.201 299.465 239.127 299.414 239.047C299.37 238.974 299.337 238.895 299.314 238.812C299.292 238.73 299.281 238.646 299.282 238.561C299.284 238.369 299.331 238.181 299.42 238.011C299.52 237.83 299.656 237.671 299.82 237.545C300.02 237.389 300.24 237.261 300.473 237.163C300.768 237.038 301.072 236.938 301.383 236.863C301.729 236.778 302.094 236.703 302.478 236.639C302.862 236.575 303.265 236.522 303.686 236.479C304.108 236.436 304.548 236.403 305.008 236.379C305.468 236.355 305.947 236.344 306.444 236.347C306.872 236.347 307.296 236.358 307.714 236.381C308.133 236.404 308.548 236.437 308.958 236.481C309.369 236.526 309.775 236.583 310.177 236.65C310.579 236.717 310.977 236.796 311.371 236.887C311.765 236.977 312.128 237.077 312.459 237.187C312.766 237.284 313.066 237.399 313.359 237.531C313.608 237.643 313.846 237.774 314.072 237.925C314.264 238.052 314.44 238.201 314.597 238.368L318.227 237.415C318.007 237.178 317.763 236.962 317.501 236.771C317.212 236.56 316.907 236.372 316.588 236.208C316.232 236.024 315.865 235.863 315.488 235.725C315.088 235.578 314.659 235.444 314.2 235.325C313.742 235.206 313.271 235.097 312.789 234.999C312.309 234.903 311.819 234.819 311.319 234.748C310.819 234.677 310.306 234.616 309.78 234.566C309.26 234.519 308.73 234.486 308.189 234.466L308.183 232.666H304.156L304.146 234.537C303.51 234.556 302.898 234.597 302.309 234.659C301.721 234.721 301.154 234.799 300.609 234.894C300.064 234.991 299.541 235.107 299.04 235.242C298.54 235.377 298.061 235.531 297.605 235.704C297.19 235.858 296.788 236.048 296.405 236.271C296.089 236.454 295.798 236.677 295.539 236.935C295.319 237.155 295.139 237.413 295.009 237.696C294.886 237.966 294.818 238.259 294.809 238.556C294.805 238.699 294.816 238.843 294.841 238.984C294.867 239.121 294.907 239.255 294.961 239.384C295.018 239.518 295.089 239.646 295.172 239.766C295.262 239.893 295.362 240.011 295.472 240.12C295.586 240.235 295.706 240.344 295.831 240.446C295.958 240.549 296.091 240.647 296.231 240.74C296.371 240.833 296.518 240.92 296.67 241.001C296.824 241.083 296.983 241.159 297.149 241.23C297.315 241.301 297.495 241.369 297.688 241.436C297.882 241.503 298.088 241.566 298.308 241.627C298.528 241.688 298.762 241.747 299.008 241.804C299.255 241.861 299.515 241.915 299.789 241.967C300.063 242.019 300.332 242.067 300.595 242.112C300.862 242.157 301.12 242.198 301.37 242.236C301.62 242.274 301.869 242.307 302.115 242.336C302.359 242.367 302.597 242.395 302.829 242.419C303.062 242.443 303.306 242.467 303.561 242.491C303.817 242.515 304.083 242.539 304.361 242.562C304.639 242.585 304.929 242.609 305.229 242.632C305.53 242.655 305.842 242.678 306.166 242.701L306.973 242.758L307.686 242.813L308.304 242.865C308.494 242.882 308.669 242.899 308.827 242.915C308.986 242.931 309.148 242.95 309.313 242.971C309.479 242.992 309.647 243.016 309.819 243.042C309.991 243.068 310.166 243.096 310.344 243.127C310.523 243.158 310.705 243.191 310.889 243.227C311.074 243.263 311.247 243.301 311.407 243.342C311.567 243.383 311.715 243.427 311.85 243.473C311.976 243.515 312.099 243.564 312.218 243.62C312.32 243.667 312.418 243.721 312.511 243.783C312.592 243.836 312.667 243.897 312.735 243.965C312.797 244.025 312.851 244.092 312.896 244.165C312.94 244.235 312.973 244.31 312.996 244.389C313.019 244.469 313.031 244.551 313.031 244.634C313.042 244.807 313.007 244.979 312.931 245.134C312.844 245.303 312.722 245.452 312.572 245.57C312.384 245.72 312.176 245.845 311.955 245.942C311.672 246.068 311.379 246.171 311.079 246.251C310.746 246.343 310.396 246.424 310.028 246.493C309.661 246.562 309.28 246.62 308.885 246.666C308.489 246.712 308.077 246.745 307.65 246.766C307.224 246.787 306.782 246.798 306.324 246.801C305.959 246.801 305.6 246.789 305.246 246.766C304.893 246.743 304.546 246.715 304.205 246.682C303.865 246.646 303.531 246.601 303.205 246.548C302.879 246.495 302.557 246.434 302.239 246.365C301.923 246.298 301.63 246.223 301.36 246.139C301.108 246.064 300.86 245.976 300.616 245.876C300.407 245.79 300.204 245.69 300.008 245.576C299.841 245.479 299.683 245.366 299.536 245.24L295.986 246.197Z" fill="#DA8102"/>
<path d="M296.036 244.724C296.249 244.92 296.474 245.1 296.711 245.265C296.955 245.436 297.21 245.59 297.474 245.728C297.75 245.873 298.035 246.001 298.326 246.113C298.634 246.231 298.948 246.334 299.266 246.419C299.594 246.509 299.94 246.59 300.304 246.664C300.668 246.738 301.05 246.805 301.449 246.864C301.849 246.924 302.266 246.976 302.7 247.02C303.134 247.065 303.587 247.102 304.058 247.132L304.049 248.925H308.264L308.257 247.132C308.551 247.116 308.841 247.096 309.128 247.072C309.415 247.049 309.697 247.022 309.976 246.991C310.255 246.961 310.53 246.927 310.802 246.891C311.074 246.855 311.341 246.814 311.602 246.768C311.869 246.724 312.128 246.675 312.379 246.621C312.63 246.568 312.879 246.51 313.126 246.448C313.37 246.386 313.609 246.32 313.842 246.248C314.075 246.177 314.304 246.102 314.528 246.024C314.751 245.946 314.963 245.861 315.163 245.77C315.363 245.68 315.55 245.584 315.725 245.483C315.894 245.386 316.058 245.28 316.215 245.164C316.362 245.056 316.502 244.939 316.633 244.812C316.755 244.696 316.867 244.569 316.966 244.432C317.058 244.307 317.136 244.173 317.2 244.032C317.261 243.896 317.307 243.754 317.336 243.607C317.365 243.46 317.378 243.31 317.374 243.16C317.371 243.039 317.36 242.919 317.34 242.799C317.321 242.684 317.293 242.57 317.256 242.458C317.22 242.348 317.174 242.241 317.121 242.137C317.067 242.033 317.005 241.933 316.936 241.837C316.865 241.739 316.786 241.645 316.701 241.558C316.612 241.467 316.517 241.383 316.416 241.304C316.309 241.221 316.197 241.144 316.081 241.074C315.956 240.999 315.828 240.931 315.696 240.869C315.563 240.803 315.425 240.741 315.282 240.683C315.139 240.626 314.998 240.569 314.858 240.512C314.715 240.458 314.571 240.405 314.425 240.355C314.279 240.305 314.132 240.258 313.983 240.213C313.834 240.169 313.676 240.126 313.507 240.084C313.338 240.043 313.16 240.004 312.971 239.966C312.782 239.928 312.582 239.892 312.371 239.858C312.16 239.824 311.941 239.791 311.715 239.758L311.051 239.677C310.836 239.651 310.626 239.626 310.423 239.602C310.22 239.579 310.023 239.558 309.834 239.538C309.644 239.519 309.461 239.501 309.284 239.485L308.719 239.437L308.084 239.389L307.384 239.341L306.609 239.293C306.342 239.274 306.082 239.254 305.829 239.234C305.576 239.214 305.335 239.194 305.107 239.173C304.876 239.153 304.654 239.131 304.443 239.109C304.232 239.087 304.03 239.065 303.837 239.043C303.644 239.021 303.453 238.996 303.262 238.969C303.071 238.943 302.879 238.912 302.686 238.877C302.497 238.846 302.308 238.813 302.121 238.777C301.934 238.742 301.748 238.705 301.564 238.666C301.379 238.626 301.204 238.583 301.041 238.537C300.878 238.491 300.725 238.442 300.584 238.389C300.452 238.34 300.323 238.285 300.197 238.222C300.087 238.168 299.98 238.106 299.878 238.036C299.789 237.977 299.706 237.91 299.629 237.836C299.562 237.771 299.502 237.697 299.452 237.617C299.408 237.544 299.374 237.466 299.352 237.383C299.329 237.302 299.319 237.218 299.32 237.134C299.322 236.944 299.369 236.756 299.458 236.587C299.557 236.408 299.691 236.25 299.853 236.124C300.052 235.97 300.271 235.842 300.504 235.745C300.798 235.62 301.101 235.52 301.411 235.445C301.756 235.361 302.119 235.286 302.502 235.222C302.885 235.158 303.285 235.105 303.702 235.063C304.122 235.021 304.561 234.987 305.02 234.963C305.479 234.939 305.956 234.929 306.452 234.931C306.879 234.931 307.301 234.943 307.718 234.965C308.135 234.988 308.549 235.021 308.958 235.065C309.367 235.11 309.772 235.166 310.173 235.233C310.574 235.301 310.971 235.382 311.364 235.477C311.757 235.567 312.118 235.664 312.449 235.77C312.756 235.867 313.056 235.981 313.349 236.112C313.596 236.223 313.834 236.354 314.06 236.503C314.251 236.63 314.427 236.778 314.584 236.944L318.203 235.996C317.983 235.76 317.741 235.546 317.48 235.356C317.192 235.146 316.888 234.959 316.57 234.796C316.214 234.614 315.846 234.453 315.47 234.316C315.07 234.17 314.642 234.036 314.186 233.916C313.73 233.796 313.261 233.688 312.779 233.592C312.3 233.497 311.812 233.414 311.313 233.342C310.814 233.271 310.306 233.212 309.787 233.166C309.268 233.12 308.74 233.087 308.201 233.066L308.194 231.277H304.179L304.169 233.137C303.535 233.159 302.924 233.2 302.335 233.258C301.746 233.317 301.18 233.395 300.635 233.492C300.091 233.589 299.57 233.704 299.071 233.838C298.572 233.972 298.096 234.125 297.641 234.297C297.226 234.45 296.824 234.639 296.441 234.861C296.126 235.043 295.836 235.265 295.578 235.521C295.36 235.74 295.184 235.996 295.056 236.277C294.936 236.546 294.87 236.837 294.864 237.131C294.86 237.274 294.871 237.416 294.896 237.556C294.922 237.694 294.962 237.828 295.016 237.956C295.072 238.088 295.141 238.214 295.223 238.332C295.31 238.458 295.409 238.576 295.517 238.684C295.631 238.798 295.75 238.907 295.875 239.008C296.001 239.111 296.134 239.208 296.275 239.3C296.416 239.392 296.562 239.479 296.713 239.56C296.866 239.642 297.025 239.718 297.19 239.788C297.355 239.859 297.535 239.926 297.728 239.988C297.921 240.055 298.127 240.118 298.346 240.178C298.565 240.238 298.799 240.297 299.046 240.354C299.292 240.41 299.552 240.464 299.825 240.515C300.098 240.567 300.365 240.615 300.625 240.659C300.888 240.704 301.145 240.745 301.398 240.783C301.651 240.821 301.898 240.855 302.14 240.883C302.382 240.914 302.619 240.942 302.851 240.966C303.083 240.991 303.326 241.015 303.581 241.038C303.836 241.062 304.102 241.086 304.381 241.109C304.66 241.133 304.948 241.156 305.247 241.179C305.547 241.202 305.858 241.225 306.181 241.247L306.981 241.304L307.691 241.358L308.307 241.41C308.496 241.427 308.67 241.444 308.829 241.46C308.988 241.477 309.149 241.496 309.313 241.516C309.478 241.537 309.644 241.56 309.813 241.586C309.982 241.612 310.156 241.641 310.337 241.671C310.515 241.702 310.696 241.735 310.88 241.771C311.064 241.807 311.236 241.846 311.396 241.886C311.555 241.927 311.702 241.97 311.837 242.016C311.962 242.058 312.085 242.107 312.204 242.162C312.305 242.209 312.403 242.263 312.496 242.324C312.576 242.377 312.651 242.438 312.719 242.505C312.78 242.565 312.834 242.633 312.879 242.705C312.922 242.774 312.956 242.849 312.979 242.927C313.001 243.006 313.013 243.088 313.014 243.17C313.025 243.343 312.991 243.515 312.914 243.67C312.83 243.839 312.71 243.988 312.564 244.107C312.376 244.257 312.169 244.381 311.949 244.477C311.667 244.602 311.375 244.705 311.076 244.784C310.743 244.876 310.393 244.957 310.028 245.025C309.663 245.094 309.283 245.151 308.889 245.197C308.494 245.243 308.083 245.277 307.658 245.297C307.233 245.318 306.792 245.329 306.336 245.331C305.971 245.331 305.613 245.32 305.261 245.297C304.909 245.275 304.563 245.247 304.223 245.213C303.883 245.177 303.55 245.133 303.223 245.08C302.896 245.028 302.575 244.967 302.26 244.898C301.945 244.832 301.653 244.757 301.383 244.673C301.132 244.599 300.885 244.512 300.642 244.412C300.434 244.326 300.231 244.226 300.036 244.112C299.869 244.018 299.711 243.908 299.564 243.784L296.036 244.724Z" fill="#FDCA05"/>
<path opacity="0.3" d="M304.119 232.446C285.635 232.446 267.138 228.388 253.069 220.272C239.284 212.319 231.688 201.7 231.688 190.352C231.688 179.017 239.284 168.385 253.069 160.432C281.221 144.2 327.016 144.2 355.168 160.432C368.953 168.385 376.55 179.017 376.55 190.352C376.55 201.687 368.953 212.319 355.168 220.272C341.099 228.388 322.602 232.446 304.119 232.446ZM304.119 149.881C285.933 149.881 267.747 153.871 253.895 161.865C240.638 169.508 233.34 179.625 233.34 190.352C233.34 201.078 240.638 211.196 253.908 218.838C281.6 234.813 326.664 234.813 354.356 218.838C367.612 211.196 374.911 201.078 374.911 190.352C374.911 179.625 367.612 169.508 354.342 161.865C340.49 153.885 322.304 149.881 304.119 149.881Z" fill="#53A5F8"/>
<path opacity="0.1" d="M304.119 191.151C285.635 191.151 267.138 187.093 253.069 178.977C239.284 171.024 231.688 160.392 231.688 149.057C231.688 137.722 239.284 127.09 253.069 119.137C281.221 102.905 327.016 102.905 355.168 119.137C368.953 127.09 376.55 137.722 376.55 149.057C376.55 160.392 368.953 171.024 355.168 178.977C341.099 187.093 322.602 191.151 304.119 191.151ZM304.119 108.586C285.933 108.586 267.747 112.576 253.895 120.57C240.638 128.213 233.34 138.331 233.34 149.057C233.34 159.783 240.638 169.901 253.908 177.543C281.6 193.518 326.664 193.518 354.356 177.543C367.612 169.901 374.911 159.783 374.911 149.057C374.911 138.331 367.612 128.213 354.342 120.57C340.49 112.59 322.304 108.586 304.119 108.586Z" fill="#53A5F8"/>
<path d="M238.959 261.245C238.959 263.193 237.375 264.776 235.425 264.776C233.475 264.776 231.891 263.193 231.891 261.245C231.891 259.297 233.475 257.715 235.425 257.715C237.375 257.715 238.959 259.297 238.959 261.245Z" fill="#6BD2FE"/>
<path d="M346.19 243.227C348.142 243.227 349.725 241.646 349.725 239.696C349.725 237.747 348.142 236.166 346.19 236.166C344.239 236.166 342.656 237.747 342.656 239.696C342.656 241.646 344.239 243.227 346.19 243.227Z" fill="#6BD2FE"/>
<path d="M313.098 190.353C313.098 192.3 311.513 193.883 309.564 193.883C307.614 193.883 306.029 192.3 306.029 190.353C306.029 188.405 307.614 186.822 309.564 186.822C311.513 186.822 313.098 188.405 313.098 190.353Z" fill="#6BD2FE"/>
<path d="M257.443 160.974C257.443 162.922 255.859 164.504 253.909 164.504C251.959 164.504 250.375 162.922 250.375 160.974C250.375 159.026 251.959 157.443 253.909 157.443C255.859 157.443 257.443 159.026 257.443 160.974Z" fill="#6BD2FE"/>
<path d="M341.68 154.523C341.68 156.47 340.095 158.053 338.146 158.053C336.196 158.053 334.611 156.47 334.611 154.523C334.611 152.575 336.196 150.992 338.146 150.992C340.095 150.992 341.68 152.575 341.68 154.523Z" fill="#6BD2FE"/>
<path d="M371.647 130.648C371.647 132.595 370.062 134.178 368.112 134.178C366.162 134.178 364.578 132.595 364.578 130.648C364.578 128.7 366.162 127.117 368.112 127.117C370.062 127.117 371.647 128.7 371.647 130.648Z" fill="#6BD2FE"/>
<path d="M297.931 28.1044C299.285 27.5634 305.988 23.6002 304.011 16.6341C302.034 9.65448 293.869 12.5221 291.526 13.6448C289.183 14.7674 289.955 15.0921 284.823 16.4177C279.691 17.7432 278.202 16.9046 271.093 18.3249C263.97 19.7587 259.637 19.4746 259.637 19.4746C265.906 14.9703 269.711 6.61105 268.344 2.72899C266.976 -1.15308 260.002 -0.449709 257.321 2.07972C254.64 4.60915 248.195 10.2091 245.107 10.8989C242.02 11.5887 235.344 14.294 235.344 14.294C235.344 14.294 234.83 10.4931 231.011 9.80327C227.192 9.12695 223.97 11.8052 222.67 13.8612C221.37 15.9172 216.333 17.6891 216.333 17.6891C213.882 20.0968 212.893 21.8417 208.628 23.4649C206.488 24.2765 203.211 24.2629 199.163 25.8455C187.016 30.5933 189.887 34.6647 186.082 36.9371C182.277 39.2096 176.319 43.2404 176.319 43.2404C162.317 62.8266 140.611 82.6698 123.604 96.7913C142.439 109.655 158.526 137.83 161.099 164.125C161.261 165.749 161.342 167.318 161.397 168.846C176.576 163.341 190.537 164.355 200.733 161.555C215.209 157.592 235.276 138.141 235.276 138.141C244.376 135.896 245.419 135.166 250.199 132.609C254.965 130.039 275.967 124.507 281.641 123.993C287.315 123.479 293.53 122.315 295.548 118.745C298.621 113.307 294.938 106.895 294.938 106.895C294.938 106.895 296.726 107.22 299.813 104.352C302.914 101.485 300.368 95.114 294.41 85.6185C288.439 76.123 285.974 58.4846 281.248 55.2248C276.522 51.9649 262.548 43.1593 262.548 43.1593C270.537 41.6578 283.726 35.4763 287.626 34.056C291.526 32.6222 296.563 28.659 297.917 28.118L297.931 28.1044ZM265.378 76.4206C266.556 83.1432 272.541 90.2445 273.868 91.7595C275.195 93.2744 277.254 97.5487 277.254 97.5487C276.143 97.3729 271.675 98.1845 271.675 98.1845C260.937 101.011 256.319 100.254 251.621 99.226C246.922 98.198 237.944 89.6358 241.329 85.2398C244.715 80.8302 245.513 70.3878 245.513 70.3878C246.651 71.4158 252.731 70.4149 252.731 70.4149C254.41 73.9858 265.378 76.4476 265.378 76.4476V76.4206Z" fill="url(#paint0_radial_1060_7704)"/>
<path d="M200.204 156.536C208.938 153.452 227.841 139.507 235.261 138.141C235.261 138.141 215.194 157.578 200.718 161.555C192.986 163.678 183.101 163.597 172.16 165.843L176.629 158.849C176.629 158.849 191.47 159.634 200.204 156.55V156.536Z" fill="#4B95FA"/>
<path d="M254.49 72.2541C253.677 71.6725 253.041 71.0503 252.729 70.401C252.729 70.401 252.364 70.4551 251.809 70.5363C257.455 68.8455 260.583 62.1094 260.583 62.1094C260.949 67.2088 254.503 72.2541 254.49 72.2677V72.2541Z" fill="#67E2E8"/>
<path d="M245.525 70.3746C245.525 70.3746 245.416 71.8219 245.105 73.8644C243.575 68.278 245.579 60.7168 245.579 60.7168C245.173 64.1254 247.19 70.7939 247.204 70.8075C246.446 70.7669 245.823 70.6316 245.525 70.3611V70.3746Z" fill="#67E2E8"/>
<path d="M265.891 78.5038C265.674 77.8139 265.498 77.1105 265.376 76.4207C265.376 76.4207 264.428 76.2043 263.061 75.8255C263.101 75.8255 272.241 75.6903 278.728 70.3203C278.728 70.3203 274.909 75.7579 265.891 78.5038Z" fill="#67E2E8"/>
<g opacity="0.52">
<path d="M275.641 97.5898C274.612 97.8063 273.827 97.9009 273.258 97.9145C273.989 97.7927 274.869 97.671 275.641 97.5898Z" fill="#E28C61"/>
</g>
<path d="M275.02 93.3828C275.02 93.3828 292.555 99.2262 294.952 106.896C290.835 101.485 284.701 98.0359 277.931 97.4678L277.213 97.4137C276.969 96.9132 275.994 94.9654 275.033 93.3828H275.02Z" fill="#67E2E8"/>
<path d="M267.504 41.8728C267.504 41.8728 240.097 31.3629 236.955 30.416L262.561 43.1443L267.517 41.8728H267.504Z" fill="#67E2E8"/>
<path d="M265.04 13.8887C263.591 15.9717 261.749 17.9466 259.623 19.4751C259.623 19.4751 261.573 19.5833 264.945 19.2451L254.41 20.5842C260.761 19.0557 264.146 15.0655 265.026 13.8887H265.04Z" fill="#67E2E8"/>
<path d="M233.84 15.2956C235.424 14.5246 234.625 12.5362 234.422 12.0898C235.153 13.2125 235.316 14.2946 235.316 14.2946C235.316 14.2946 236.738 13.7265 238.566 13.0367C237.13 13.5642 233.84 15.2956 233.84 15.2956Z" fill="#67E2E8"/>
<path d="M294.95 106.895C294.95 106.895 285.986 95.4386 270.996 98.3603C270.996 98.3603 277.36 96.6425 279.717 96.6966C280.976 96.7236 284.781 98.4956 287.773 100.308C290.387 101.891 292.31 103.541 292.31 103.541L294.95 106.909V106.895Z" fill="#67E2E8"/>
<path d="M167.109 106.666C167.109 106.666 191.036 133.381 182.736 159.676L172.282 159.581L167.109 106.666Z" fill="#4B95FA"/>
<path d="M141.572 81.6824C133.461 78.0033 126.379 78.4091 121.084 82.0476L109.412 90.3934C111.673 90.8668 114.016 91.6243 116.467 92.7335C138.227 102.608 158.214 134.57 161.098 164.139C161.843 171.754 161.369 178.45 159.907 184.05L171.755 175.569C178.729 170.442 182.439 159.513 180.99 144.729C178.431 118.623 160.787 90.4069 141.586 81.696L141.572 81.6824Z" fill="white"/>
<g style="mix-blend-mode:lighten">
<path d="M17.1419 148.895L17.1961 148.854C17.2367 148.814 17.2909 148.787 17.3451 148.746L93.2561 93.0985C99.2548 89 107.285 88.5401 116.465 92.7062C138.226 102.58 158.212 134.543 161.097 164.112C162.735 180.858 158.537 193.234 150.629 199.037L75.4632 254.143C75.3955 254.184 75.3413 254.224 75.2736 254.279L74.6101 254.752C68.625 258.756 60.6628 259.162 51.5633 255.036C29.8028 245.162 9.81624 213.199 6.932 183.63C5.30708 167.061 9.41001 154.765 17.1555 148.895H17.1419Z" fill="url(#paint1_linear_1060_7704)"/>
</g>
<path d="M500.084 200.213C499.583 199.442 499.109 198.617 498.663 197.751C498.663 197.751 473.544 153.209 472.163 146.635C470.782 140.048 465.27 136.991 463.131 136.571C463.131 136.571 459.529 133.433 454.966 133.325C454.966 133.325 450.646 127.171 435.155 128.374C419.664 129.578 420.003 128.699 420.003 128.699C420.003 128.699 397.999 100.104 392.609 98.7382C387.22 97.3585 385.622 98.9952 379.217 98.5759C372.812 98.1701 364.958 97.0339 359.407 99.1981C353.855 101.362 352.121 101.308 352.121 101.308C352.121 101.308 343.103 102.187 345.568 108.775C348.032 115.362 355.466 116.309 356.888 115.998C358.323 115.7 363.713 114.523 364.999 114.943C366.272 115.362 372.433 120.597 380.91 119.785C380.91 119.785 383.428 128.009 388.33 132.987C388.33 132.987 383.686 135.084 384.051 143.213C384.43 151.342 392.081 175.73 393.327 176.839C394.573 177.949 395.128 179.355 402.223 181.141C402.223 181.141 401.384 186.105 391.634 188.093C391.634 188.093 380.923 188.404 367.992 185.604C367.992 185.604 365.906 183.251 361.37 182.236C356.82 181.235 346.813 178.584 340.246 182.832C333.679 187.079 333.462 191.191 338.418 194.816C343.374 198.441 349.968 198.089 349.968 198.089C349.968 198.089 354.464 204.447 357.308 206.354C360.151 208.261 379.61 211.616 392.487 219.542C392.487 219.542 394.315 221.003 402.711 224.29C411.106 227.577 417.931 235.003 417.931 235.003C417.931 235.003 432.433 246.297 447.748 250.477C450.213 251.153 452.515 251.924 454.695 252.749C462.792 230.255 481.357 209.046 500.071 200.213H500.084Z" fill="url(#paint2_radial_1060_7704)"/>
<path d="M405.771 173.174L405.704 169.467L402.847 159.35L399.353 149.327L397.01 143.429L393.111 138.438L387.951 133.217C386.841 133.934 383.767 136.531 384.065 143.213C384.444 151.342 392.095 175.73 393.341 176.839C394.559 177.935 395.142 179.301 401.872 181.046L402.318 180.532L404.512 177.177L405.785 173.187L405.771 173.174Z" fill="#67E2E8"/>
<path d="M388.345 132.975C388.345 132.975 395.63 139.819 397.553 143.904C399.475 147.989 405.434 164.991 405.555 166.953C405.677 168.914 408.426 173.878 402.251 181.128L401.331 180.885C401.331 180.885 406.205 175.583 405.19 170.104C403.727 162.219 397.566 145.257 396.483 143.295C395.413 141.347 387.844 133.286 387.844 133.286L388.358 132.975H388.345Z" fill="#42D3D3"/>
<path d="M401.195 155.239C401.195 155.239 391.905 148.665 390.199 147.826C390.199 147.826 399.299 154.292 399.258 155.82C399.204 157.349 397.755 158.025 397.755 158.025C397.755 158.025 401.1 156.442 402.142 157.714C403.185 158.985 401.208 155.252 401.208 155.252L401.195 155.239Z" fill="#42D3D3"/>
<path d="M404.241 164.693C404.241 164.693 395.832 169.089 394.654 171.348C394.654 171.348 402.197 166.993 404.607 167.534L404.241 164.693Z" fill="#42D3D3"/>
<path d="M381.317 120.922C381.317 120.922 380.423 117.391 380.166 113.645L380.247 119.826L380.802 120.07L381.317 120.922Z" fill="#67E2E8"/>
<path d="M442.671 242.97C442.671 242.97 423.7 236.883 415.494 229.336C407.289 221.788 399.651 222.64 393.287 220.043C394.452 220.719 397.119 222.099 402.725 224.29C411.121 227.577 417.945 235.003 417.945 235.003C417.945 235.003 431.337 245.432 445.989 249.963L442.685 242.984L442.671 242.97Z" fill="#4B95FA"/>
<path d="M487.357 181.642C495.807 179.626 502.523 181.331 506.924 185.795L516.551 195.953C514.304 195.98 511.907 196.277 509.361 196.886C486.68 202.297 461.575 229.214 453.301 256.997C451.175 264.153 450.376 270.659 450.742 276.299L440.965 265.965C435.238 259.757 433.721 248.597 437.851 234.706C445.163 210.169 467.316 186.417 487.343 181.642H487.357Z" fill="white"/>
<g style="mix-blend-mode:lighten">
<path d="M594.047 269.159L594.006 269.118C593.966 269.078 593.925 269.037 593.885 268.996L531.528 201.581C526.545 196.536 518.948 194.615 509.375 196.887C486.694 202.298 461.589 229.215 453.315 256.999C448.63 272.743 450.35 285.377 456.836 292.397L518.583 359.163C518.637 359.217 518.691 359.271 518.732 359.326L519.287 359.907C524.27 364.858 531.826 366.724 541.318 364.466C563.999 359.055 589.105 332.138 597.378 304.354C602.023 288.772 600.384 276.233 594.061 269.172L594.047 269.159Z" fill="url(#paint3_linear_1060_7704)"/>
</g>
<path opacity="0.4" d="M579.977 246.919C580.18 246.27 580.369 245.621 580.559 244.972C582.861 236.666 582.739 229.47 580.599 223.816L589.008 232.46C591.148 238.114 591.283 245.31 588.968 253.615C588.792 254.264 588.589 254.913 588.386 255.563L579.977 246.919Z" fill="#4B95FA"/>
<path opacity="0.2" d="M558.201 280.304C565.798 272.959 572.216 264.383 576.522 255.523L584.931 264.167C580.625 273.027 574.207 281.602 566.61 288.947L558.201 280.304Z" fill="#4B95FA"/>
<path opacity="0.05" d="M524.094 300.943C533.166 298.414 542.293 293.45 550.553 286.971L558.962 295.614C550.702 302.093 541.575 307.057 532.503 309.587L524.094 300.943Z" fill="#4B95FA"/>
<g style="mix-blend-mode:lighten" opacity="0.15">
<path d="M605.393 210.046C575.102 182.75 513.463 215.835 484.255 262.069L471.229 248.677C508.196 192.53 568.738 173.133 592.367 196.655L605.393 210.046Z" fill="url(#paint4_linear_1060_7704)"/>
</g>
<g style="mix-blend-mode:lighten" opacity="0.3">
<path d="M612 254.847C590.781 317.812 512.812 363.734 479.569 332.84L466.475 319.516C500.612 349.937 578.581 304.015 598.906 241.523L612 254.847Z" fill="url(#paint5_linear_1060_7704)"/>
</g>
<g style="mix-blend-mode:lighten" opacity="0.15">
<path d="M479.583 332.826C452.962 301.945 487.518 241.158 534.479 213.064L521.385 199.74C464.323 235.342 443.497 295.345 466.489 319.503L479.583 332.826Z" fill="url(#paint6_linear_1060_7704)"/>
</g>
<g opacity="0.2">
<path d="M584.607 225.482C580.856 221.627 575.494 219.341 568.886 218.989L560.477 210.346C567.098 210.697 572.46 212.983 576.198 216.838L584.607 225.482Z" fill="#81DAFE"/>
</g>
<g style="mix-blend-mode:lighten">
<path d="M114.205 247.826C146.447 222.856 124.727 156.415 84.3203 119.528L99.8113 109.086C148.627 155.346 157.049 218.284 129.696 237.383L114.205 247.826Z" fill="url(#paint7_linear_1060_7704)"/>
</g>
<path opacity="0.4" d="M32.9726 143.646C32.9049 142.97 32.8372 142.293 32.7966 141.63C32.1872 133.028 33.758 126.007 36.9808 120.895L27.0146 127.685C23.7918 132.798 22.221 139.818 22.8304 148.421C22.871 149.097 22.9387 149.76 23.0064 150.436L32.9726 143.646Z" fill="#4B95FA"/>
<path opacity="0.2" d="M47.6375 180.696C41.6659 171.985 37.0755 162.3 34.6381 152.764L24.6719 159.554C27.1228 169.104 31.6997 178.775 37.6713 187.486L47.6375 180.696Z" fill="#4B95FA"/>
<path opacity="0.05" d="M76.9399 207.72C68.558 203.432 60.5958 196.75 53.7982 188.756L43.832 195.546C50.6296 203.54 58.5918 210.222 66.9737 214.51L76.9399 207.72Z" fill="#4B95FA"/>
<g style="mix-blend-mode:lighten" opacity="0.15">
<path d="M15.4238 102.444C50.5493 81.7217 104.348 126.426 123.752 177.556L139.189 167.032C114.179 104.649 58.7145 73.5924 30.8606 91.9206L15.4238 102.444Z" fill="url(#paint8_linear_1060_7704)"/>
</g>
<g style="mix-blend-mode:lighten" opacity="0.3">
<path d="M0 145.026C8.21941 210.954 75.4642 271.484 114.205 247.827L129.696 237.384C90.1833 260.393 22.9385 199.862 15.4909 134.584L0 145.026Z" fill="url(#paint9_linear_1060_7704)"/>
</g>
<g style="mix-blend-mode:lighten" opacity="0.15">
<path d="M114.205 247.826C146.447 222.856 124.727 156.415 84.3203 119.528L99.8113 109.086C148.627 155.346 157.049 218.284 129.696 237.383L114.205 247.826Z" fill="url(#paint10_linear_1060_7704)"/>
</g>
<g opacity="0.2">
<path d="M32.7148 121.721C37.1563 118.691 42.8706 117.514 49.4245 118.501L59.3907 111.711C52.8368 110.737 47.1225 111.9 42.681 114.93L32.7148 121.721Z" fill="#81DAFE"/>
</g>
<defs>
<radialGradient id="paint0_radial_1060_7704" cx="0" cy="0" r="1" gradientUnits="userSpaceOnUse" gradientTransform="translate(267.464 59.4044) scale(132.553 132.409)">
<stop stop-color="#9CF5FE"/>
<stop offset="0.25" stop-color="#98F2FD"/>
<stop offset="0.44" stop-color="#8FE8FD"/>
<stop offset="0.61" stop-color="#7FD8FC"/>
<stop offset="0.76" stop-color="#68C2FB"/>
<stop offset="0.91" stop-color="#4BA6FA"/>
<stop offset="0.94" stop-color="#449FFA"/>
</radialGradient>
<linearGradient id="paint1_linear_1060_7704" x1="181.029" y1="99.1583" x2="84.5326" y2="173.627" gradientUnits="userSpaceOnUse">
<stop stop-color="#3874DA"/>
<stop offset="1" stop-color="#2A023F"/>
</linearGradient>
<radialGradient id="paint2_radial_1060_7704" cx="0" cy="0" r="1" gradientUnits="userSpaceOnUse" gradientTransform="translate(362.02 109.505) scale(183.955 183.756)">
<stop stop-color="#9CF5FE"/>
<stop offset="0.36" stop-color="#9AF3FD"/>
<stop offset="0.49" stop-color="#93ECFD"/>
<stop offset="0.59" stop-color="#87E0FD"/>
<stop offset="0.66" stop-color="#76D0FC"/>
<stop offset="0.73" stop-color="#60BBFB"/>
<stop offset="0.78" stop-color="#46A1FA"/>
<stop offset="0.79" stop-color="#449FFA"/>
</radialGradient>
<linearGradient id="paint3_linear_1060_7704" x1="446.277" y1="191.037" x2="524.846" y2="280.32" gradientUnits="userSpaceOnUse">
<stop stop-color="#3874DA"/>
<stop offset="1" stop-color="#2A023F"/>
</linearGradient>
<linearGradient id="paint4_linear_1060_7704" x1="580.995" y1="184.915" x2="493.021" y2="270.949" gradientUnits="userSpaceOnUse">
<stop stop-color="#2A023F"/>
<stop offset="0.1" stop-color="#2C0844"/>
<stop offset="0.24" stop-color="#321954"/>
<stop offset="0.41" stop-color="#3C366D"/>
<stop offset="0.59" stop-color="#4A5D91"/>
<stop offset="0.78" stop-color="#5D91BF"/>
<stop offset="0.98" stop-color="#73CEF6"/>
<stop offset="1" stop-color="#76D6FD"/>
</linearGradient>
<linearGradient id="paint5_linear_1060_7704" x1="490.785" y1="344.225" x2="597.492" y2="239.871" gradientUnits="userSpaceOnUse">
<stop stop-color="#2A023F"/>
<stop offset="0.13" stop-color="#2A0645"/>
<stop offset="0.3" stop-color="#2C1356"/>
<stop offset="0.5" stop-color="#2E2873"/>
<stop offset="0.72" stop-color="#32459A"/>
<stop offset="0.95" stop-color="#366ACD"/>
<stop offset="1" stop-color="#3874DA"/>
</linearGradient>
<linearGradient id="paint6_linear_1060_7704" x1="55.9605" y1="697.344" x2="542.702" y2="221.338" gradientUnits="userSpaceOnUse">
<stop stop-color="#2A023F"/>
<stop offset="0.13" stop-color="#2A0645"/>
<stop offset="0.3" stop-color="#2C1356"/>
<stop offset="0.5" stop-color="#2E2873"/>
<stop offset="0.72" stop-color="#32459A"/>
<stop offset="0.95" stop-color="#366ACD"/>
<stop offset="1" stop-color="#3874DA"/>
</linearGradient>
<linearGradient id="paint7_linear_1060_7704" x1="143" y1="228.207" x2="73.9625" y2="126.396" gradientUnits="userSpaceOnUse">
<stop stop-color="#2A023F"/>
<stop offset="0.06" stop-color="#2C0844"/>
<stop offset="0.14" stop-color="#341953"/>
<stop offset="0.23" stop-color="#40366B"/>
<stop offset="0.32" stop-color="#525D8D"/>
<stop offset="0.43" stop-color="#6891B9"/>
<stop offset="0.54" stop-color="#83CEED"/>
<stop offset="0.57" stop-color="#8CE2FE"/>
</linearGradient>
<linearGradient id="paint8_linear_1060_7704" x1="44.279" y1="82.6944" x2="113.316" y2="184.505" gradientUnits="userSpaceOnUse">
<stop stop-color="#2A023F"/>
<stop offset="0.1" stop-color="#2C0844"/>
<stop offset="0.24" stop-color="#321954"/>
<stop offset="0.41" stop-color="#3C366D"/>
<stop offset="0.59" stop-color="#4A5D91"/>
<stop offset="0.78" stop-color="#5D91BF"/>
<stop offset="0.98" stop-color="#73CEF6"/>
<stop offset="1" stop-color="#76D6FD"/>
</linearGradient>
<linearGradient id="paint9_linear_1060_7704" x1="100.818" y1="256.81" x2="17.0637" y2="133.296" gradientUnits="userSpaceOnUse">
<stop stop-color="#2A023F"/>
<stop offset="0.13" stop-color="#2A0645"/>
<stop offset="0.3" stop-color="#2C1356"/>
<stop offset="0.5" stop-color="#2E2873"/>
<stop offset="0.72" stop-color="#32459A"/>
<stop offset="0.95" stop-color="#366ACD"/>
<stop offset="1" stop-color="#3874DA"/>
</linearGradient>
<linearGradient id="paint10_linear_1060_7704" x1="143" y1="228.207" x2="73.9625" y2="126.396" gradientUnits="userSpaceOnUse">
<stop stop-color="#2A023F"/>
<stop offset="0.13" stop-color="#2A0645"/>
<stop offset="0.3" stop-color="#2C1356"/>
<stop offset="0.5" stop-color="#2E2873"/>
<stop offset="0.72" stop-color="#32459A"/>
<stop offset="0.95" stop-color="#366ACD"/>
<stop offset="1" stop-color="#3874DA"/>
</linearGradient>
</defs>
</svg>
