<svg width="612" height="459" viewBox="0 0 612 459" fill="none" xmlns="http://www.w3.org/2000/svg">
<path d="M304.375 291.301C297.873 291.324 291.387 290.63 285.037 289.231C279.678 288.087 274.501 286.217 269.647 283.673C265.843 281.749 262.508 279.014 259.876 275.66C257.773 272.978 256.763 269.599 257.047 266.202C257.512 262.747 259.123 259.547 261.622 257.115C264.641 254.107 268.186 251.678 272.082 249.95C276.783 247.806 281.722 246.229 286.795 245.25C298.415 242.984 310.363 242.984 321.982 245.25C327.053 246.229 331.99 247.807 336.689 249.95C340.585 251.677 344.131 254.104 347.149 257.112C349.647 259.545 351.256 262.745 351.719 266.2C352.001 269.599 350.987 272.978 348.882 275.66C346.249 279.014 342.912 281.75 339.106 283.674C334.251 286.218 329.073 288.088 323.713 289.232C317.363 290.631 310.878 291.324 304.375 291.301Z" fill="#DA8102"/>
<path d="M302.448 282.125C297.559 282.142 292.683 281.629 287.904 280.597C283.859 279.749 279.945 278.363 276.267 276.478C273.371 275.045 270.818 273.005 268.781 270.497C267.15 268.495 266.333 265.952 266.492 263.375C266.791 260.757 267.975 258.319 269.848 256.466C272.129 254.159 274.819 252.297 277.782 250.976C281.383 249.321 285.168 248.103 289.058 247.349C298 245.595 307.197 245.595 316.139 247.349C320.018 248.102 323.792 249.32 327.38 250.976C330.33 252.295 333.005 254.158 335.267 256.466C337.127 258.322 338.292 260.761 338.567 263.375C338.702 265.959 337.863 268.5 336.216 270.497C334.158 273.004 331.588 275.043 328.678 276.478C324.987 278.362 321.062 279.747 317.006 280.597C312.223 281.629 307.342 282.141 302.448 282.125Z" fill="#DA8102"/>
<path d="M300.895 281.044C296.223 281.06 291.562 280.571 286.995 279.586C283.128 278.777 279.386 277.455 275.87 275.654C273.099 274.286 270.656 272.336 268.706 269.938C267.145 268.024 266.362 265.591 266.515 263.125C266.803 260.617 267.938 258.282 269.734 256.507C271.92 254.295 274.499 252.51 277.339 251.242C280.794 249.654 284.427 248.485 288.16 247.761C296.737 246.077 305.559 246.077 314.136 247.761C317.851 248.484 321.465 249.653 324.9 251.242C327.719 252.507 330.274 254.293 332.43 256.507C334.201 258.288 335.302 260.626 335.548 263.125C335.659 265.603 334.84 268.033 333.253 269.938C331.268 272.335 328.798 274.283 326.005 275.653C322.466 277.452 318.705 278.774 314.82 279.585C310.244 280.57 305.575 281.059 300.895 281.044Z" fill="#DA8102"/>
<path d="M304.554 285.722C298.127 285.745 291.716 285.067 285.435 283.7C280.14 282.583 275.019 280.755 270.213 278.267C266.456 276.391 263.155 273.717 260.54 270.431C258.46 267.816 257.455 264.507 257.73 261.177C258.189 257.788 259.78 254.654 262.244 252.283C265.235 249.334 268.741 246.957 272.588 245.271C277.241 243.169 282.125 241.623 287.139 240.665C298.642 238.445 310.463 238.445 321.965 240.665C326.98 241.623 331.864 243.169 336.516 245.271C340.364 246.957 343.871 249.334 346.862 252.283C349.327 254.654 350.918 257.788 351.377 261.177C351.652 264.506 350.646 267.815 348.566 270.429C345.952 273.715 342.651 276.39 338.894 278.265C334.088 280.754 328.968 282.582 323.673 283.7C317.393 285.067 310.982 285.745 304.554 285.722Z" fill="#FECB03"/>
<path d="M304.554 279.746C299.688 279.762 294.834 279.255 290.076 278.233C286.046 277.393 282.145 276.021 278.476 274.154C275.59 272.736 273.041 270.716 271 268.231C269.369 266.254 268.544 263.736 268.688 261.178C268.974 258.584 270.142 256.168 271.998 254.334C274.26 252.047 276.93 250.203 279.87 248.898C283.448 247.255 287.209 246.046 291.074 245.298C299.975 243.56 309.129 243.56 318.03 245.298C321.897 246.046 325.66 247.254 329.24 248.898C332.18 250.204 334.85 252.049 337.112 254.337C338.968 256.171 340.137 258.587 340.423 261.181C340.568 263.739 339.743 266.258 338.112 268.235C336.071 270.72 333.522 272.74 330.635 274.158C326.966 276.025 323.065 277.397 319.035 278.237C314.276 279.258 309.421 279.764 304.554 279.746Z" fill="#DA8102"/>
<path d="M304.507 279.813C299.842 279.828 295.189 279.342 290.628 278.362C286.763 277.556 283.021 276.24 279.501 274.45C276.728 273.088 274.278 271.149 272.314 268.764C270.744 266.865 269.946 264.445 270.076 261.985C270.343 259.492 271.458 257.167 273.236 255.4C275.404 253.196 277.965 251.419 280.787 250.16C284.224 248.578 287.838 247.415 291.552 246.695C300.109 245.018 308.91 245.018 317.466 246.695C321.18 247.415 324.794 248.578 328.23 250.16C331.053 251.419 333.613 253.196 335.78 255.4C337.559 257.166 338.676 259.492 338.943 261.985C339.074 264.445 338.275 266.865 336.704 268.764C334.741 271.149 332.291 273.088 329.517 274.45C325.998 276.24 322.256 277.556 318.39 278.362C313.828 279.342 309.174 279.828 304.507 279.813Z" fill="#F0AA00"/>
<path d="M293.986 268.197C294.2 268.393 294.426 268.575 294.663 268.741C294.909 268.912 295.165 269.068 295.429 269.207C295.707 269.352 295.992 269.482 296.284 269.594C296.593 269.713 296.908 269.816 297.227 269.902C297.557 269.991 297.904 270.074 298.268 270.149C298.633 270.224 299.016 270.291 299.416 270.349C299.816 270.409 300.235 270.461 300.671 270.506C301.108 270.551 301.562 270.588 302.033 270.618L302.023 272.418H306.247L306.24 270.618C306.535 270.601 306.826 270.581 307.113 270.557C307.401 270.533 307.684 270.506 307.964 270.475C308.244 270.444 308.52 270.411 308.792 270.375C309.064 270.339 309.333 270.298 309.598 270.251C309.865 270.206 310.125 270.157 310.377 270.103C310.63 270.049 310.88 269.991 311.126 269.929C311.371 269.867 311.61 269.8 311.844 269.729C312.078 269.658 312.308 269.582 312.532 269.503C312.756 269.424 312.969 269.339 313.169 269.248C313.37 269.157 313.558 269.061 313.733 268.96C313.903 268.862 314.068 268.755 314.225 268.639C314.373 268.53 314.513 268.412 314.644 268.285C314.767 268.168 314.879 268.04 314.978 267.903C315.07 267.778 315.149 267.644 315.213 267.503C315.275 267.366 315.321 267.222 315.35 267.075C315.38 266.927 315.392 266.776 315.388 266.625C315.386 266.503 315.374 266.382 315.354 266.262C315.335 266.146 315.306 266.031 315.269 265.919C315.233 265.808 315.188 265.7 315.134 265.596C315.08 265.492 315.018 265.391 314.948 265.296C314.877 265.197 314.798 265.103 314.712 265.016C314.623 264.924 314.527 264.839 314.426 264.76C314.319 264.676 314.207 264.599 314.09 264.529C313.967 264.452 313.84 264.38 313.709 264.316C313.572 264.249 313.433 264.187 313.293 264.129C313.153 264.071 313.012 264.014 312.868 263.957C312.725 263.902 312.58 263.85 312.434 263.799C312.288 263.748 312.14 263.701 311.989 263.656C311.84 263.611 311.681 263.567 311.511 263.526C311.342 263.485 311.163 263.445 310.973 263.407C310.784 263.369 310.584 263.333 310.373 263.299C310.163 263.265 309.943 263.232 309.715 263.199L309.046 263.113C308.83 263.086 308.621 263.061 308.417 263.037C308.214 263.013 308.017 262.991 307.826 262.972C307.636 262.952 307.452 262.934 307.274 262.918L306.709 262.872L306.072 262.824L305.365 262.776L304.588 262.728C304.318 262.709 304.058 262.688 303.809 262.666C303.561 262.644 303.319 262.623 303.084 262.604C302.852 262.583 302.63 262.562 302.417 262.54C302.205 262.518 302.002 262.497 301.809 262.477C301.616 262.454 301.424 262.43 301.232 262.403C301.041 262.376 300.85 262.347 300.66 262.316C300.47 262.285 300.282 262.251 300.094 262.216C299.907 262.181 299.72 262.143 299.533 262.102C299.347 262.062 299.172 262.019 299.008 261.972C298.844 261.925 298.691 261.875 298.549 261.822C298.417 261.773 298.288 261.717 298.161 261.654C298.051 261.599 297.944 261.537 297.841 261.467C297.752 261.408 297.669 261.341 297.591 261.267C297.524 261.201 297.465 261.127 297.414 261.047C297.37 260.974 297.337 260.895 297.314 260.812C297.292 260.73 297.281 260.646 297.282 260.561C297.284 260.369 297.331 260.181 297.42 260.011C297.52 259.83 297.656 259.671 297.82 259.545C298.02 259.389 298.24 259.261 298.473 259.163C298.768 259.038 299.072 258.938 299.383 258.863C299.729 258.778 300.094 258.703 300.478 258.639C300.862 258.575 301.265 258.522 301.686 258.479C302.108 258.436 302.548 258.403 303.008 258.379C303.468 258.355 303.947 258.344 304.444 258.347C304.872 258.347 305.296 258.358 305.714 258.381C306.133 258.404 306.548 258.437 306.958 258.481C307.369 258.526 307.775 258.583 308.177 258.65C308.579 258.717 308.977 258.796 309.371 258.887C309.765 258.977 310.128 259.077 310.459 259.187C310.766 259.284 311.066 259.399 311.359 259.531C311.608 259.643 311.846 259.774 312.072 259.925C312.264 260.052 312.44 260.201 312.597 260.368L316.227 259.415C316.007 259.178 315.763 258.962 315.501 258.771C315.212 258.56 314.907 258.372 314.588 258.208C314.232 258.024 313.865 257.863 313.488 257.725C313.088 257.578 312.659 257.444 312.2 257.325C311.742 257.206 311.271 257.097 310.789 256.999C310.309 256.903 309.819 256.819 309.319 256.748C308.819 256.677 308.306 256.616 307.78 256.566C307.26 256.519 306.73 256.486 306.189 256.466L306.183 254.666H302.156L302.146 256.537C301.51 256.556 300.898 256.597 300.309 256.659C299.721 256.721 299.154 256.799 298.609 256.894C298.064 256.991 297.541 257.107 297.04 257.242C296.54 257.377 296.061 257.531 295.605 257.704C295.19 257.858 294.788 258.048 294.405 258.271C294.089 258.454 293.798 258.677 293.539 258.935C293.319 259.155 293.139 259.413 293.009 259.696C292.886 259.966 292.818 260.259 292.809 260.556C292.805 260.699 292.816 260.843 292.841 260.984C292.867 261.121 292.907 261.255 292.961 261.384C293.018 261.518 293.089 261.646 293.172 261.766C293.262 261.893 293.362 262.011 293.472 262.12C293.586 262.235 293.706 262.344 293.831 262.446C293.958 262.549 294.091 262.647 294.231 262.74C294.371 262.833 294.518 262.92 294.67 263.001C294.824 263.083 294.983 263.159 295.149 263.23C295.315 263.301 295.495 263.369 295.688 263.436C295.882 263.503 296.088 263.566 296.308 263.627C296.528 263.688 296.762 263.747 297.008 263.804C297.255 263.861 297.515 263.915 297.789 263.967C298.063 264.019 298.332 264.067 298.595 264.112C298.862 264.157 299.12 264.198 299.37 264.236C299.62 264.274 299.869 264.307 300.115 264.336C300.359 264.367 300.597 264.395 300.829 264.419C301.062 264.443 301.306 264.467 301.561 264.491C301.817 264.515 302.083 264.539 302.361 264.562C302.639 264.585 302.929 264.609 303.229 264.632C303.53 264.655 303.842 264.678 304.166 264.701L304.973 264.758L305.686 264.813L306.304 264.865C306.494 264.882 306.669 264.899 306.827 264.915C306.986 264.931 307.148 264.95 307.313 264.971C307.479 264.992 307.647 265.016 307.819 265.042C307.991 265.068 308.166 265.096 308.344 265.127C308.523 265.158 308.705 265.191 308.889 265.227C309.074 265.263 309.247 265.301 309.407 265.342C309.567 265.383 309.715 265.427 309.85 265.473C309.976 265.515 310.099 265.564 310.218 265.62C310.32 265.667 310.418 265.721 310.511 265.783C310.592 265.836 310.667 265.897 310.735 265.965C310.797 266.025 310.851 266.092 310.896 266.165C310.94 266.235 310.973 266.31 310.996 266.389C311.019 266.469 311.031 266.551 311.031 266.634C311.042 266.807 311.007 266.979 310.931 267.134C310.844 267.303 310.722 267.452 310.572 267.57C310.384 267.72 310.176 267.845 309.955 267.942C309.672 268.068 309.379 268.171 309.079 268.251C308.746 268.343 308.396 268.424 308.028 268.493C307.661 268.562 307.28 268.62 306.885 268.666C306.489 268.712 306.077 268.745 305.65 268.766C305.224 268.787 304.782 268.798 304.324 268.801C303.959 268.801 303.6 268.789 303.246 268.766C302.893 268.743 302.546 268.715 302.205 268.682C301.865 268.646 301.531 268.601 301.205 268.548C300.879 268.495 300.557 268.434 300.239 268.365C299.923 268.298 299.63 268.223 299.36 268.139C299.108 268.064 298.86 267.976 298.616 267.876C298.407 267.79 298.204 267.69 298.008 267.576C297.841 267.479 297.683 267.366 297.536 267.24L293.986 268.197Z" fill="#DA8102"/>
<path d="M294.036 266.724C294.249 266.92 294.474 267.1 294.711 267.265C294.955 267.436 295.21 267.59 295.474 267.728C295.75 267.873 296.035 268.001 296.326 268.113C296.634 268.231 296.948 268.334 297.266 268.419C297.594 268.509 297.94 268.59 298.304 268.664C298.668 268.738 299.05 268.805 299.449 268.864C299.849 268.924 300.266 268.976 300.7 269.02C301.134 269.065 301.587 269.102 302.058 269.132L302.049 270.925H306.264L306.257 269.132C306.551 269.116 306.841 269.096 307.128 269.072C307.415 269.049 307.697 269.022 307.976 268.991C308.255 268.961 308.53 268.927 308.802 268.891C309.074 268.855 309.341 268.814 309.602 268.768C309.869 268.724 310.128 268.675 310.379 268.621C310.63 268.568 310.879 268.51 311.126 268.448C311.37 268.386 311.609 268.32 311.842 268.248C312.075 268.177 312.304 268.102 312.528 268.024C312.751 267.946 312.963 267.861 313.163 267.77C313.363 267.68 313.55 267.584 313.725 267.483C313.894 267.386 314.058 267.28 314.215 267.164C314.362 267.056 314.502 266.939 314.633 266.812C314.755 266.696 314.867 266.569 314.966 266.432C315.058 266.307 315.136 266.173 315.2 266.032C315.261 265.896 315.307 265.754 315.336 265.607C315.365 265.46 315.378 265.31 315.374 265.16C315.371 265.039 315.36 264.919 315.34 264.799C315.321 264.684 315.293 264.57 315.256 264.458C315.22 264.348 315.174 264.241 315.121 264.137C315.067 264.033 315.005 263.933 314.936 263.837C314.865 263.739 314.786 263.645 314.701 263.558C314.612 263.467 314.517 263.383 314.416 263.304C314.309 263.221 314.197 263.144 314.081 263.074C313.956 262.999 313.828 262.931 313.696 262.869C313.563 262.803 313.425 262.741 313.282 262.683C313.139 262.626 312.998 262.569 312.858 262.512C312.715 262.458 312.571 262.405 312.425 262.355C312.279 262.305 312.132 262.258 311.983 262.213C311.834 262.169 311.676 262.126 311.507 262.084C311.338 262.043 311.16 262.004 310.971 261.966C310.782 261.928 310.582 261.892 310.371 261.858C310.16 261.824 309.941 261.791 309.715 261.758L309.051 261.677C308.836 261.651 308.626 261.626 308.423 261.602C308.22 261.579 308.023 261.558 307.834 261.538C307.644 261.519 307.461 261.501 307.284 261.485L306.719 261.437L306.084 261.389L305.384 261.341L304.609 261.293C304.342 261.274 304.082 261.254 303.829 261.234C303.576 261.214 303.335 261.194 303.107 261.173C302.876 261.153 302.654 261.131 302.443 261.109C302.232 261.087 302.03 261.065 301.837 261.043C301.644 261.021 301.453 260.996 301.262 260.969C301.071 260.943 300.879 260.912 300.686 260.877C300.497 260.846 300.308 260.813 300.121 260.777C299.934 260.742 299.748 260.705 299.564 260.666C299.379 260.626 299.204 260.583 299.041 260.537C298.878 260.491 298.725 260.442 298.584 260.389C298.452 260.34 298.323 260.285 298.197 260.222C298.087 260.168 297.98 260.106 297.878 260.036C297.789 259.977 297.706 259.91 297.629 259.836C297.562 259.771 297.502 259.697 297.452 259.617C297.408 259.544 297.374 259.466 297.352 259.383C297.329 259.302 297.319 259.218 297.32 259.134C297.322 258.944 297.369 258.756 297.458 258.587C297.557 258.408 297.691 258.25 297.853 258.124C298.052 257.97 298.271 257.842 298.504 257.745C298.798 257.62 299.101 257.52 299.411 257.445C299.756 257.361 300.119 257.286 300.502 257.222C300.885 257.158 301.285 257.105 301.702 257.063C302.122 257.021 302.561 256.987 303.02 256.963C303.479 256.939 303.956 256.929 304.452 256.931C304.879 256.931 305.301 256.943 305.718 256.965C306.135 256.988 306.549 257.021 306.958 257.065C307.367 257.11 307.772 257.166 308.173 257.233C308.574 257.301 308.971 257.382 309.364 257.477C309.757 257.567 310.118 257.664 310.449 257.77C310.756 257.867 311.056 257.981 311.349 258.112C311.596 258.223 311.834 258.354 312.06 258.503C312.251 258.63 312.427 258.778 312.584 258.944L316.203 257.996C315.983 257.76 315.741 257.546 315.48 257.356C315.192 257.146 314.888 256.959 314.57 256.796C314.214 256.614 313.846 256.453 313.47 256.316C313.07 256.17 312.642 256.036 312.186 255.916C311.73 255.796 311.261 255.688 310.779 255.592C310.3 255.497 309.812 255.414 309.313 255.342C308.814 255.271 308.306 255.212 307.787 255.166C307.268 255.12 306.74 255.087 306.201 255.066L306.194 253.277H302.179L302.169 255.137C301.535 255.159 300.924 255.2 300.335 255.258C299.746 255.317 299.18 255.395 298.635 255.492C298.091 255.589 297.57 255.704 297.071 255.838C296.572 255.972 296.096 256.125 295.641 256.297C295.226 256.45 294.824 256.639 294.441 256.861C294.126 257.043 293.836 257.265 293.578 257.521C293.36 257.74 293.184 257.996 293.056 258.277C292.936 258.546 292.87 258.837 292.864 259.131C292.86 259.274 292.871 259.416 292.896 259.556C292.922 259.694 292.962 259.828 293.016 259.956C293.072 260.088 293.141 260.214 293.223 260.332C293.31 260.458 293.409 260.576 293.517 260.684C293.631 260.798 293.75 260.907 293.875 261.008C294.001 261.111 294.134 261.208 294.275 261.3C294.416 261.392 294.562 261.479 294.713 261.56C294.866 261.642 295.025 261.718 295.19 261.788C295.355 261.859 295.535 261.926 295.728 261.988C295.921 262.055 296.127 262.118 296.346 262.178C296.565 262.238 296.799 262.297 297.046 262.354C297.292 262.41 297.552 262.464 297.825 262.515C298.098 262.567 298.365 262.615 298.625 262.659C298.888 262.704 299.145 262.745 299.398 262.783C299.651 262.821 299.898 262.855 300.14 262.883C300.382 262.914 300.619 262.942 300.851 262.966C301.083 262.991 301.326 263.015 301.581 263.038C301.836 263.062 302.102 263.086 302.381 263.109C302.66 263.133 302.948 263.156 303.247 263.179C303.547 263.202 303.858 263.225 304.181 263.247L304.981 263.304L305.691 263.358L306.307 263.41C306.496 263.427 306.67 263.444 306.829 263.46C306.988 263.477 307.149 263.496 307.313 263.516C307.478 263.537 307.644 263.56 307.813 263.586C307.982 263.612 308.156 263.641 308.337 263.671C308.515 263.702 308.696 263.735 308.88 263.771C309.064 263.807 309.236 263.846 309.396 263.886C309.555 263.927 309.702 263.97 309.837 264.016C309.962 264.058 310.085 264.107 310.204 264.162C310.305 264.209 310.403 264.263 310.496 264.324C310.576 264.377 310.651 264.438 310.719 264.505C310.78 264.565 310.834 264.633 310.879 264.705C310.922 264.774 310.956 264.849 310.979 264.927C311.001 265.006 311.013 265.088 311.014 265.17C311.025 265.343 310.991 265.515 310.914 265.67C310.83 265.839 310.71 265.988 310.564 266.107C310.376 266.257 310.169 266.381 309.949 266.477C309.667 266.602 309.375 266.705 309.076 266.784C308.743 266.876 308.393 266.957 308.028 267.025C307.663 267.094 307.283 267.151 306.889 267.197C306.494 267.243 306.083 267.277 305.658 267.297C305.233 267.318 304.792 267.329 304.336 267.331C303.971 267.331 303.613 267.32 303.261 267.297C302.909 267.275 302.563 267.247 302.223 267.213C301.883 267.177 301.55 267.133 301.223 267.08C300.896 267.028 300.575 266.967 300.26 266.898C299.945 266.832 299.653 266.757 299.383 266.673C299.132 266.599 298.885 266.512 298.642 266.412C298.434 266.326 298.231 266.226 298.036 266.112C297.869 266.018 297.711 265.908 297.564 265.784L294.036 266.724Z" fill="#FDCA05"/>
<path d="M552.732 210.764C551.107 211.007 549.441 211.345 547.722 211.778C540.382 213.645 532.975 217.148 525.988 221.774L534.397 230.417C541.384 225.791 548.791 222.288 556.131 220.421C557.85 219.989 559.529 219.637 561.141 219.407L552.732 210.764Z" fill="#9CF5FE"/>
<path d="M301.464 315.635C300.421 315.608 299.392 315.581 298.363 315.527L298.512 312.47C299.514 312.511 300.53 312.551 301.545 312.578L301.477 315.649L301.464 315.635ZM307.679 315.608L307.598 312.538C308.614 312.511 309.616 312.47 310.631 312.416L310.794 315.473C309.765 315.527 308.722 315.568 307.693 315.595L307.679 315.608ZM292.161 315.094C291.132 315 290.103 314.878 289.074 314.756L289.439 311.713C290.442 311.834 291.444 311.943 292.446 312.037L292.148 315.094H292.161ZM316.982 315L316.671 311.956C317.673 311.848 318.675 311.74 319.677 311.605L320.069 314.648C319.04 314.783 318.011 314.905 316.982 315.013V315ZM282.913 313.836C281.884 313.661 280.868 313.458 279.852 313.255L280.475 310.252C281.464 310.455 282.452 310.644 283.454 310.82L282.926 313.836H282.913ZM326.217 313.674L325.662 310.658C326.65 310.482 327.639 310.279 328.627 310.076L329.264 313.079C328.248 313.295 327.233 313.498 326.217 313.688V313.674ZM273.8 311.834C272.784 311.564 271.795 311.28 270.793 310.996L271.674 308.061C272.635 308.345 273.61 308.615 274.585 308.872L273.8 311.834ZM335.317 311.591L334.504 308.629C335.479 308.358 336.44 308.074 337.402 307.79L338.309 310.725C337.321 311.036 336.319 311.32 335.317 311.591ZM264.876 309.007C263.901 308.642 262.926 308.263 261.965 307.871L263.129 305.031C264.05 305.409 264.984 305.775 265.932 306.126L264.862 308.994L264.876 309.007ZM344.213 308.683L343.116 305.815C344.064 305.45 344.985 305.085 345.906 304.693L347.111 307.52C346.163 307.925 345.188 308.318 344.213 308.683ZM256.277 305.274C255.343 304.801 254.422 304.314 253.515 303.8L255.018 301.122C255.885 301.609 256.765 302.082 257.672 302.528L256.291 305.261L256.277 305.274ZM352.771 304.855L351.349 302.136C352.243 301.663 353.123 301.189 353.99 300.689C354.613 300.324 355.235 299.958 355.831 299.58L357.456 302.19C356.833 302.582 356.183 302.961 355.52 303.34C354.626 303.854 353.705 304.354 352.771 304.841V304.855ZM248.18 300.486C247.3 299.877 246.447 299.255 245.634 298.619L247.516 296.198C248.288 296.793 249.087 297.388 249.927 297.956L248.18 300.472V300.486ZM362.615 298.606L360.733 296.184C361.518 295.562 362.29 294.926 363.021 294.291L365.053 296.59C364.281 297.267 363.455 297.943 362.615 298.606ZM240.881 294.453C240.123 293.682 239.392 292.898 238.728 292.113L241.057 290.125C241.68 290.855 242.357 291.586 243.061 292.289L240.881 294.453ZM369.521 292.086L367.192 290.098C367.842 289.34 368.451 288.556 369.007 287.785L371.498 289.57C370.889 290.409 370.225 291.261 369.521 292.086ZM234.991 286.932C234.449 285.999 233.935 285.039 233.501 284.078L236.291 282.793C236.684 283.659 237.144 284.525 237.645 285.377L235.005 286.932H234.991ZM374.734 284.038L371.945 282.766C372.351 281.887 372.703 280.981 373.001 280.075L375.913 281.035C375.574 282.049 375.181 283.064 374.734 284.051V284.038ZM231.47 277.924C231.254 276.855 231.105 275.773 231.023 274.705L234.084 274.475C234.151 275.421 234.287 276.382 234.476 277.315L231.47 277.924ZM377.185 274.664L374.125 274.448C374.166 273.907 374.179 273.365 374.179 272.824C374.179 272.419 374.179 271.999 374.139 271.58L377.199 271.404C377.226 271.878 377.24 272.351 377.24 272.824C377.24 273.447 377.212 274.055 377.172 274.664H377.185ZM234.395 268.767L231.375 268.212C231.565 267.157 231.822 266.088 232.147 265.06L235.072 265.967C234.788 266.886 234.558 267.82 234.382 268.767H234.395ZM373.11 265.94C372.825 265.033 372.487 264.127 372.094 263.234L374.897 262.003C375.344 263.004 375.723 264.032 376.034 265.033L373.096 265.94H373.11ZM237.401 260.678L234.734 259.163C235.248 258.257 235.83 257.35 236.453 256.458L238.972 258.216C238.403 259.028 237.875 259.866 237.401 260.691V260.678ZM369.21 258.189C368.655 257.404 368.059 256.62 367.422 255.862L369.778 253.888C370.469 254.713 371.119 255.565 371.728 256.417L369.21 258.175V258.189ZM242.736 253.698L240.543 251.561C241.274 250.817 242.046 250.073 242.831 249.37L244.876 251.656C244.131 252.318 243.413 253.008 242.736 253.698ZM363.306 251.629C362.575 250.979 361.803 250.33 361.031 249.721L362.94 247.314C363.766 247.963 364.579 248.653 365.364 249.343L363.319 251.629H363.306ZM249.548 247.963L247.774 245.461C248.613 244.865 249.493 244.284 250.387 243.716L252.026 246.313C251.172 246.854 250.333 247.408 249.534 247.977L249.548 247.963ZM356.156 246.286C355.452 245.839 354.721 245.407 353.976 244.974L353.57 244.744L355.1 242.079L355.506 242.309C356.292 242.755 357.05 243.215 357.781 243.689L356.143 246.286H356.156ZM257.252 243.337L255.844 240.605C256.765 240.131 257.699 239.671 258.661 239.239L259.947 242.025C259.026 242.444 258.133 242.891 257.239 243.351L257.252 243.337ZM348.235 241.998C347.327 241.579 346.407 241.173 345.472 240.781L346.664 237.953C347.625 238.359 348.587 238.779 349.521 239.211L348.235 241.998ZM265.512 239.685L264.429 236.817C265.391 236.452 266.379 236.1 267.368 235.762L268.356 238.67C267.395 238.995 266.447 239.333 265.512 239.685ZM339.839 238.657C338.891 238.332 337.93 238.035 336.969 237.737L337.862 234.802C338.864 235.099 339.853 235.424 340.828 235.749L339.839 238.657ZM274.138 236.912L273.339 233.95C274.341 233.679 275.343 233.422 276.359 233.179L277.077 236.168C276.088 236.398 275.113 236.655 274.152 236.912H274.138ZM331.132 236.154C330.157 235.925 329.169 235.708 328.18 235.492L328.803 232.489C329.819 232.705 330.834 232.922 331.836 233.165L331.132 236.154ZM282.994 234.924L282.452 231.907C283.468 231.718 284.497 231.556 285.526 231.393L285.987 234.423C284.984 234.572 283.996 234.734 283.007 234.924H282.994ZM322.209 234.423C321.22 234.274 320.218 234.139 319.203 234.004L319.582 230.96C320.611 231.096 321.64 231.231 322.656 231.393L322.195 234.423H322.209ZM291.985 233.679L291.674 230.622C292.703 230.514 293.732 230.433 294.775 230.352L295.005 233.409C294.003 233.49 292.987 233.571 291.985 233.679ZM313.177 233.409C312.175 233.341 311.159 233.273 310.157 233.219L310.306 230.162C311.349 230.216 312.378 230.271 313.407 230.352L313.177 233.409ZM301.058 233.111L300.976 230.041C302.006 230.014 303.048 230 304.077 230V233.07C303.062 233.07 302.06 233.07 301.044 233.111H301.058Z" fill="#76D6FD"/>
<path opacity="0.1" d="M304.105 315.592C343.651 315.592 375.71 297.103 375.71 274.296C375.71 251.489 343.651 233 304.105 233C264.559 233 232.5 251.489 232.5 274.296C232.5 297.103 264.559 315.592 304.105 315.592Z" fill="#53A5F8"/>
<path d="M304.107 315.051C285.623 315.051 267.14 310.993 253.057 302.878C239.272 294.924 231.676 284.292 231.676 272.957C231.676 261.622 239.272 250.99 253.057 243.037C281.209 226.805 327.005 226.805 355.157 243.037C368.941 250.99 376.538 261.622 376.538 272.957C376.538 284.292 368.941 294.924 355.157 302.878C341.087 310.993 322.59 315.051 304.107 315.051ZM304.107 232.486C285.921 232.486 267.736 236.477 253.883 244.457C240.626 252.1 233.328 262.217 233.328 272.944C233.328 283.67 240.626 293.788 253.897 301.43C281.588 317.405 326.653 317.405 354.344 301.43C367.601 293.788 374.899 283.67 374.899 272.944C374.899 262.217 367.601 252.1 354.331 244.457C340.478 236.477 322.292 232.473 304.107 232.473V232.486Z" fill="#53A5F8"/>
<path opacity="0.5" d="M304.107 273.743C285.623 273.743 267.14 269.685 253.057 261.569C239.272 253.615 231.676 242.984 231.676 231.649C231.676 220.314 239.272 209.682 253.057 201.728C281.209 185.497 327.005 185.497 355.157 201.728C368.941 209.682 376.538 220.314 376.538 231.649C376.538 242.984 368.941 253.615 355.157 261.569C341.087 269.685 322.59 273.743 304.107 273.743ZM304.107 191.178C285.921 191.178 267.736 195.168 253.883 203.162C240.626 210.805 233.328 220.922 233.328 231.649C233.328 242.375 240.626 252.493 253.897 260.135C281.588 276.11 326.653 276.11 354.344 260.135C367.601 252.493 374.899 242.375 374.899 231.649C374.899 220.922 367.601 210.805 354.331 203.162C340.478 195.182 322.292 191.178 304.107 191.178Z" fill="#53A5F8"/>
<path opacity="0.3" d="M304.119 232.446C285.635 232.446 267.138 228.388 253.069 220.272C239.284 212.319 231.688 201.7 231.688 190.352C231.688 179.017 239.284 168.385 253.069 160.432C281.221 144.2 327.016 144.2 355.168 160.432C368.953 168.385 376.55 179.017 376.55 190.352C376.55 201.687 368.953 212.319 355.168 220.272C341.099 228.388 322.602 232.446 304.119 232.446ZM304.119 149.881C285.933 149.881 267.747 153.871 253.895 161.865C240.638 169.508 233.34 179.625 233.34 190.352C233.34 201.078 240.638 211.196 253.908 218.838C281.6 234.813 326.664 234.813 354.356 218.838C367.612 211.196 374.911 201.078 374.911 190.352C374.911 179.625 367.612 169.508 354.342 161.865C340.49 153.885 322.304 149.881 304.119 149.881Z" fill="#53A5F8"/>
<path opacity="0.1" d="M304.119 191.151C285.635 191.151 267.138 187.093 253.069 178.977C239.284 171.024 231.688 160.392 231.688 149.057C231.688 137.722 239.284 127.09 253.069 119.137C281.221 102.905 327.016 102.905 355.168 119.137C368.953 127.09 376.55 137.722 376.55 149.057C376.55 160.392 368.953 171.024 355.168 178.977C341.099 187.093 322.602 191.151 304.119 191.151ZM304.119 108.586C285.933 108.586 267.747 112.576 253.895 120.57C240.638 128.213 233.34 138.331 233.34 149.057C233.34 159.783 240.638 169.901 253.908 177.543C281.6 193.518 326.664 193.518 354.356 177.543C367.612 169.901 374.911 159.783 374.911 149.057C374.911 138.331 367.612 128.213 354.342 120.57C340.49 112.59 322.304 108.586 304.119 108.586Z" fill="#53A5F8"/>
<path d="M238.959 261.245C238.959 263.193 237.375 264.776 235.425 264.776C233.475 264.776 231.891 263.193 231.891 261.245C231.891 259.297 233.475 257.715 235.425 257.715C237.375 257.715 238.959 259.297 238.959 261.245Z" fill="#6BD2FE"/>
<path d="M346.19 243.227C348.142 243.227 349.725 241.646 349.725 239.696C349.725 237.747 348.142 236.166 346.19 236.166C344.239 236.166 342.656 237.747 342.656 239.696C342.656 241.646 344.239 243.227 346.19 243.227Z" fill="#6BD2FE"/>
<path d="M313.098 190.353C313.098 192.3 311.513 193.883 309.564 193.883C307.614 193.883 306.029 192.3 306.029 190.353C306.029 188.405 307.614 186.822 309.564 186.822C311.513 186.822 313.098 188.405 313.098 190.353Z" fill="#6BD2FE"/>
<path d="M257.443 160.974C257.443 162.922 255.859 164.504 253.909 164.504C251.959 164.504 250.375 162.922 250.375 160.974C250.375 159.026 251.959 157.443 253.909 157.443C255.859 157.443 257.443 159.026 257.443 160.974Z" fill="#6BD2FE"/>
<path d="M341.68 154.523C341.68 156.47 340.095 158.053 338.146 158.053C336.196 158.053 334.611 156.47 334.611 154.523C334.611 152.575 336.196 150.992 338.146 150.992C340.095 150.992 341.68 152.575 341.68 154.523Z" fill="#6BD2FE"/>
<path d="M371.647 130.648C371.647 132.595 370.062 134.178 368.112 134.178C366.162 134.178 364.578 132.595 364.578 130.648C364.578 128.7 366.162 127.117 368.112 127.117C370.062 127.117 371.647 128.7 371.647 130.648Z" fill="#6BD2FE"/>
<path d="M297.931 28.1044C299.285 27.5634 305.988 23.6002 304.011 16.6341C302.034 9.65448 293.869 12.5221 291.526 13.6448C289.183 14.7674 289.955 15.0921 284.823 16.4177C279.691 17.7432 278.202 16.9046 271.093 18.3249C263.97 19.7587 259.637 19.4746 259.637 19.4746C265.906 14.9703 269.711 6.61105 268.344 2.72899C266.976 -1.15308 260.002 -0.449709 257.321 2.07972C254.64 4.60915 248.195 10.2091 245.107 10.8989C242.02 11.5887 235.344 14.294 235.344 14.294C235.344 14.294 234.83 10.4931 231.011 9.80327C227.192 9.12695 223.97 11.8052 222.67 13.8612C221.37 15.9172 216.333 17.6891 216.333 17.6891C213.882 20.0968 212.893 21.8417 208.628 23.4649C206.488 24.2765 203.211 24.2629 199.163 25.8455C187.016 30.5933 189.887 34.6647 186.082 36.9371C182.277 39.2096 176.319 43.2404 176.319 43.2404C162.317 62.8266 140.611 82.6698 123.604 96.7913C142.439 109.655 158.526 137.83 161.099 164.125C161.261 165.749 161.342 167.318 161.397 168.846C176.576 163.341 190.537 164.355 200.733 161.555C215.209 157.592 235.276 138.141 235.276 138.141C244.376 135.896 245.419 135.166 250.199 132.609C254.965 130.039 275.967 124.507 281.641 123.993C287.315 123.479 293.53 122.315 295.548 118.745C298.621 113.307 294.938 106.895 294.938 106.895C294.938 106.895 296.726 107.22 299.813 104.352C302.914 101.485 300.368 95.114 294.41 85.6185C288.439 76.123 285.974 58.4846 281.248 55.2248C276.522 51.9649 262.548 43.1593 262.548 43.1593C270.537 41.6578 283.726 35.4763 287.626 34.056C291.526 32.6222 296.563 28.659 297.917 28.118L297.931 28.1044ZM265.378 76.4206C266.556 83.1432 272.541 90.2445 273.868 91.7595C275.195 93.2744 277.254 97.5487 277.254 97.5487C276.143 97.3729 271.675 98.1845 271.675 98.1845C260.937 101.011 256.319 100.254 251.621 99.226C246.922 98.198 237.944 89.6358 241.329 85.2398C244.715 80.8302 245.513 70.3878 245.513 70.3878C246.651 71.4158 252.731 70.4149 252.731 70.4149C254.41 73.9858 265.378 76.4476 265.378 76.4476V76.4206Z" fill="url(#paint0_radial_1060_7795)"/>
<path d="M200.204 156.536C208.938 153.452 227.841 139.507 235.261 138.141C235.261 138.141 215.194 157.578 200.718 161.555C192.986 163.678 183.101 163.597 172.16 165.843L176.629 158.849C176.629 158.849 191.47 159.634 200.204 156.55V156.536Z" fill="#4B95FA"/>
<path d="M254.49 72.2541C253.677 71.6725 253.041 71.0503 252.729 70.401C252.729 70.401 252.364 70.4551 251.809 70.5363C257.455 68.8455 260.583 62.1094 260.583 62.1094C260.949 67.2088 254.503 72.2541 254.49 72.2677V72.2541Z" fill="#67E2E8"/>
<path d="M245.525 70.3746C245.525 70.3746 245.416 71.8219 245.105 73.8644C243.575 68.278 245.579 60.7168 245.579 60.7168C245.173 64.1254 247.19 70.7939 247.204 70.8075C246.446 70.7669 245.823 70.6316 245.525 70.3611V70.3746Z" fill="#67E2E8"/>
<path d="M265.891 78.5038C265.674 77.8139 265.498 77.1105 265.376 76.4207C265.376 76.4207 264.428 76.2043 263.061 75.8255C263.101 75.8255 272.241 75.6903 278.728 70.3203C278.728 70.3203 274.909 75.7579 265.891 78.5038Z" fill="#67E2E8"/>
<g opacity="0.52">
<path d="M275.641 97.5898C274.612 97.8063 273.827 97.9009 273.258 97.9145C273.989 97.7927 274.869 97.671 275.641 97.5898Z" fill="#E28C61"/>
</g>
<path d="M275.02 93.3828C275.02 93.3828 292.555 99.2262 294.952 106.896C290.835 101.485 284.701 98.0359 277.931 97.4678L277.213 97.4137C276.969 96.9132 275.994 94.9654 275.033 93.3828H275.02Z" fill="#67E2E8"/>
<path d="M267.504 41.8728C267.504 41.8728 240.097 31.3629 236.955 30.416L262.561 43.1443L267.517 41.8728H267.504Z" fill="#67E2E8"/>
<path d="M265.04 13.8887C263.591 15.9717 261.749 17.9466 259.623 19.4751C259.623 19.4751 261.573 19.5833 264.945 19.2451L254.41 20.5842C260.761 19.0557 264.146 15.0655 265.026 13.8887H265.04Z" fill="#67E2E8"/>
<path d="M233.84 15.2956C235.424 14.5246 234.625 12.5362 234.422 12.0898C235.153 13.2125 235.316 14.2946 235.316 14.2946C235.316 14.2946 236.738 13.7265 238.566 13.0367C237.13 13.5642 233.84 15.2956 233.84 15.2956Z" fill="#67E2E8"/>
<path d="M294.95 106.895C294.95 106.895 285.986 95.4386 270.996 98.3603C270.996 98.3603 277.36 96.6425 279.717 96.6966C280.976 96.7236 284.781 98.4956 287.773 100.308C290.387 101.891 292.31 103.541 292.31 103.541L294.95 106.909V106.895Z" fill="#67E2E8"/>
<path d="M167.109 106.666C167.109 106.666 191.036 133.381 182.736 159.676L172.282 159.581L167.109 106.666Z" fill="#4B95FA"/>
<path d="M141.572 81.6824C133.461 78.0033 126.379 78.4091 121.084 82.0476L109.412 90.3934C111.673 90.8668 114.016 91.6243 116.467 92.7335C138.227 102.608 158.214 134.57 161.098 164.139C161.843 171.754 161.369 178.45 159.907 184.05L171.755 175.569C178.729 170.442 182.439 159.513 180.99 144.729C178.431 118.623 160.787 90.4069 141.586 81.696L141.572 81.6824Z" fill="white"/>
<g style="mix-blend-mode:lighten">
<path d="M17.1419 148.895L17.1961 148.854C17.2367 148.814 17.2909 148.787 17.3451 148.746L93.2561 93.0985C99.2548 89 107.285 88.5401 116.465 92.7062C138.226 102.58 158.212 134.543 161.097 164.112C162.735 180.858 158.537 193.234 150.629 199.037L75.4632 254.143C75.3955 254.184 75.3413 254.224 75.2736 254.279L74.6101 254.752C68.625 258.756 60.6628 259.162 51.5633 255.036C29.8028 245.162 9.81624 213.199 6.932 183.63C5.30708 167.061 9.41001 154.765 17.1555 148.895H17.1419Z" fill="url(#paint1_linear_1060_7795)"/>
</g>
<path d="M500.084 200.213C499.583 199.442 499.109 198.617 498.663 197.751C498.663 197.751 473.544 153.209 472.163 146.635C470.782 140.048 465.27 136.991 463.131 136.571C463.131 136.571 459.529 133.433 454.966 133.325C454.966 133.325 450.646 127.171 435.155 128.374C419.664 129.578 420.003 128.699 420.003 128.699C420.003 128.699 397.999 100.104 392.609 98.7382C387.22 97.3585 385.622 98.9952 379.217 98.5759C372.812 98.1701 364.958 97.0339 359.407 99.1981C353.855 101.362 352.121 101.308 352.121 101.308C352.121 101.308 343.103 102.187 345.568 108.775C348.032 115.362 355.466 116.309 356.888 115.998C358.323 115.7 363.713 114.523 364.999 114.943C366.272 115.362 372.433 120.597 380.91 119.785C380.91 119.785 383.428 128.009 388.33 132.987C388.33 132.987 383.686 135.084 384.051 143.213C384.43 151.342 392.081 175.73 393.327 176.839C394.573 177.949 395.128 179.355 402.223 181.141C402.223 181.141 401.384 186.105 391.634 188.093C391.634 188.093 380.923 188.404 367.992 185.604C367.992 185.604 365.906 183.251 361.37 182.236C356.82 181.235 346.813 178.584 340.246 182.832C333.679 187.079 333.462 191.191 338.418 194.816C343.374 198.441 349.968 198.089 349.968 198.089C349.968 198.089 354.464 204.447 357.308 206.354C360.151 208.261 379.61 211.616 392.487 219.542C392.487 219.542 394.315 221.003 402.711 224.29C411.106 227.577 417.931 235.003 417.931 235.003C417.931 235.003 432.433 246.297 447.748 250.477C450.213 251.153 452.515 251.924 454.695 252.749C462.792 230.255 481.357 209.046 500.071 200.213H500.084Z" fill="url(#paint2_radial_1060_7795)"/>
<path d="M405.771 173.174L405.704 169.467L402.847 159.35L399.353 149.327L397.01 143.429L393.111 138.438L387.951 133.217C386.841 133.934 383.767 136.531 384.065 143.213C384.444 151.342 392.095 175.73 393.341 176.839C394.559 177.935 395.142 179.301 401.872 181.046L402.318 180.532L404.512 177.177L405.785 173.187L405.771 173.174Z" fill="#67E2E8"/>
<path d="M388.345 132.975C388.345 132.975 395.63 139.819 397.553 143.904C399.475 147.989 405.434 164.991 405.555 166.953C405.677 168.914 408.426 173.878 402.251 181.128L401.331 180.885C401.331 180.885 406.205 175.583 405.19 170.104C403.727 162.219 397.566 145.257 396.483 143.295C395.413 141.347 387.844 133.286 387.844 133.286L388.358 132.975H388.345Z" fill="#42D3D3"/>
<path d="M401.195 155.239C401.195 155.239 391.905 148.665 390.199 147.826C390.199 147.826 399.299 154.292 399.258 155.82C399.204 157.349 397.755 158.025 397.755 158.025C397.755 158.025 401.1 156.442 402.142 157.714C403.185 158.985 401.208 155.252 401.208 155.252L401.195 155.239Z" fill="#42D3D3"/>
<path d="M404.241 164.693C404.241 164.693 395.832 169.089 394.654 171.348C394.654 171.348 402.197 166.993 404.607 167.534L404.241 164.693Z" fill="#42D3D3"/>
<path d="M381.317 120.922C381.317 120.922 380.423 117.391 380.166 113.645L380.247 119.826L380.802 120.07L381.317 120.922Z" fill="#67E2E8"/>
<path d="M442.671 242.97C442.671 242.97 423.7 236.883 415.494 229.336C407.289 221.788 399.651 222.64 393.287 220.043C394.452 220.719 397.119 222.099 402.725 224.29C411.121 227.577 417.945 235.003 417.945 235.003C417.945 235.003 431.337 245.432 445.989 249.963L442.685 242.984L442.671 242.97Z" fill="#4B95FA"/>
<path d="M487.357 181.642C495.807 179.626 502.523 181.331 506.924 185.795L516.551 195.953C514.304 195.98 511.907 196.277 509.361 196.886C486.68 202.297 461.575 229.214 453.301 256.997C451.175 264.153 450.376 270.659 450.742 276.299L440.965 265.965C435.238 259.757 433.721 248.597 437.851 234.706C445.163 210.169 467.316 186.417 487.343 181.642H487.357Z" fill="white"/>
<g style="mix-blend-mode:lighten">
<path d="M594.047 269.159L594.006 269.118C593.966 269.078 593.925 269.037 593.885 268.996L531.528 201.581C526.545 196.536 518.948 194.615 509.375 196.887C486.694 202.298 461.589 229.215 453.315 256.999C448.63 272.743 450.35 285.377 456.836 292.397L518.583 359.163C518.637 359.217 518.691 359.271 518.732 359.326L519.287 359.907C524.27 364.858 531.826 366.724 541.318 364.466C563.999 359.055 589.105 332.138 597.378 304.354C602.023 288.772 600.384 276.233 594.061 269.172L594.047 269.159Z" fill="url(#paint3_linear_1060_7795)"/>
</g>
<path opacity="0.4" d="M579.977 246.919C580.18 246.27 580.369 245.621 580.559 244.972C582.861 236.666 582.739 229.47 580.599 223.816L589.008 232.46C591.148 238.114 591.283 245.31 588.968 253.615C588.792 254.264 588.589 254.913 588.386 255.563L579.977 246.919Z" fill="#4B95FA"/>
<path opacity="0.2" d="M558.201 280.304C565.798 272.959 572.216 264.383 576.522 255.523L584.931 264.167C580.625 273.027 574.207 281.602 566.61 288.947L558.201 280.304Z" fill="#4B95FA"/>
<path opacity="0.05" d="M524.094 300.943C533.166 298.414 542.293 293.45 550.553 286.971L558.962 295.614C550.702 302.093 541.575 307.057 532.503 309.587L524.094 300.943Z" fill="#4B95FA"/>
<g style="mix-blend-mode:lighten" opacity="0.15">
<path d="M605.393 210.046C575.102 182.75 513.463 215.835 484.255 262.069L471.229 248.677C508.196 192.53 568.738 173.133 592.367 196.655L605.393 210.046Z" fill="url(#paint4_linear_1060_7795)"/>
</g>
<g style="mix-blend-mode:lighten" opacity="0.3">
<path d="M612 254.847C590.781 317.812 512.812 363.734 479.569 332.84L466.475 319.516C500.612 349.937 578.581 304.015 598.906 241.523L612 254.847Z" fill="url(#paint5_linear_1060_7795)"/>
</g>
<g style="mix-blend-mode:lighten" opacity="0.15">
<path d="M479.583 332.826C452.962 301.945 487.518 241.158 534.479 213.064L521.385 199.74C464.323 235.342 443.497 295.345 466.489 319.503L479.583 332.826Z" fill="url(#paint6_linear_1060_7795)"/>
</g>
<g opacity="0.2">
<path d="M584.607 225.482C580.856 221.627 575.494 219.341 568.886 218.989L560.477 210.346C567.098 210.697 572.46 212.983 576.198 216.838L584.607 225.482Z" fill="#81DAFE"/>
</g>
<g style="mix-blend-mode:lighten">
<path d="M114.205 247.826C146.447 222.856 124.727 156.415 84.3203 119.528L99.8113 109.086C148.627 155.346 157.049 218.284 129.696 237.383L114.205 247.826Z" fill="url(#paint7_linear_1060_7795)"/>
</g>
<path opacity="0.4" d="M32.9726 143.646C32.9049 142.97 32.8372 142.293 32.7966 141.63C32.1872 133.028 33.758 126.007 36.9808 120.895L27.0146 127.685C23.7918 132.798 22.221 139.818 22.8304 148.421C22.871 149.097 22.9387 149.76 23.0064 150.436L32.9726 143.646Z" fill="#4B95FA"/>
<path opacity="0.2" d="M47.6375 180.696C41.6659 171.985 37.0755 162.3 34.6381 152.764L24.6719 159.554C27.1228 169.104 31.6997 178.775 37.6713 187.486L47.6375 180.696Z" fill="#4B95FA"/>
<path opacity="0.05" d="M76.9399 207.72C68.558 203.432 60.5958 196.75 53.7982 188.756L43.832 195.546C50.6296 203.54 58.5918 210.222 66.9737 214.51L76.9399 207.72Z" fill="#4B95FA"/>
<g style="mix-blend-mode:lighten" opacity="0.15">
<path d="M15.4238 102.444C50.5493 81.7217 104.348 126.426 123.752 177.556L139.189 167.032C114.179 104.649 58.7145 73.5924 30.8606 91.9206L15.4238 102.444Z" fill="url(#paint8_linear_1060_7795)"/>
</g>
<g style="mix-blend-mode:lighten" opacity="0.3">
<path d="M0 145.026C8.21941 210.954 75.4642 271.484 114.205 247.827L129.696 237.384C90.1833 260.393 22.9385 199.862 15.4909 134.584L0 145.026Z" fill="url(#paint9_linear_1060_7795)"/>
</g>
<g style="mix-blend-mode:lighten" opacity="0.15">
<path d="M114.205 247.826C146.447 222.856 124.727 156.415 84.3203 119.528L99.8113 109.086C148.627 155.346 157.049 218.284 129.696 237.383L114.205 247.826Z" fill="url(#paint10_linear_1060_7795)"/>
</g>
<g opacity="0.2">
<path d="M32.7148 121.721C37.1563 118.691 42.8706 117.514 49.4245 118.501L59.3907 111.711C52.8368 110.737 47.1225 111.9 42.681 114.93L32.7148 121.721Z" fill="#81DAFE"/>
</g>
<defs>
<radialGradient id="paint0_radial_1060_7795" cx="0" cy="0" r="1" gradientUnits="userSpaceOnUse" gradientTransform="translate(267.464 59.4044) scale(132.553 132.409)">
<stop stop-color="#9CF5FE"/>
<stop offset="0.25" stop-color="#98F2FD"/>
<stop offset="0.44" stop-color="#8FE8FD"/>
<stop offset="0.61" stop-color="#7FD8FC"/>
<stop offset="0.76" stop-color="#68C2FB"/>
<stop offset="0.91" stop-color="#4BA6FA"/>
<stop offset="0.94" stop-color="#449FFA"/>
</radialGradient>
<linearGradient id="paint1_linear_1060_7795" x1="181.029" y1="99.1583" x2="84.5326" y2="173.627" gradientUnits="userSpaceOnUse">
<stop stop-color="#3874DA"/>
<stop offset="1" stop-color="#2A023F"/>
</linearGradient>
<radialGradient id="paint2_radial_1060_7795" cx="0" cy="0" r="1" gradientUnits="userSpaceOnUse" gradientTransform="translate(362.02 109.505) scale(183.955 183.756)">
<stop stop-color="#9CF5FE"/>
<stop offset="0.36" stop-color="#9AF3FD"/>
<stop offset="0.49" stop-color="#93ECFD"/>
<stop offset="0.59" stop-color="#87E0FD"/>
<stop offset="0.66" stop-color="#76D0FC"/>
<stop offset="0.73" stop-color="#60BBFB"/>
<stop offset="0.78" stop-color="#46A1FA"/>
<stop offset="0.79" stop-color="#449FFA"/>
</radialGradient>
<linearGradient id="paint3_linear_1060_7795" x1="446.277" y1="191.037" x2="524.846" y2="280.32" gradientUnits="userSpaceOnUse">
<stop stop-color="#3874DA"/>
<stop offset="1" stop-color="#2A023F"/>
</linearGradient>
<linearGradient id="paint4_linear_1060_7795" x1="580.995" y1="184.915" x2="493.021" y2="270.949" gradientUnits="userSpaceOnUse">
<stop stop-color="#2A023F"/>
<stop offset="0.1" stop-color="#2C0844"/>
<stop offset="0.24" stop-color="#321954"/>
<stop offset="0.41" stop-color="#3C366D"/>
<stop offset="0.59" stop-color="#4A5D91"/>
<stop offset="0.78" stop-color="#5D91BF"/>
<stop offset="0.98" stop-color="#73CEF6"/>
<stop offset="1" stop-color="#76D6FD"/>
</linearGradient>
<linearGradient id="paint5_linear_1060_7795" x1="490.785" y1="344.225" x2="597.492" y2="239.871" gradientUnits="userSpaceOnUse">
<stop stop-color="#2A023F"/>
<stop offset="0.13" stop-color="#2A0645"/>
<stop offset="0.3" stop-color="#2C1356"/>
<stop offset="0.5" stop-color="#2E2873"/>
<stop offset="0.72" stop-color="#32459A"/>
<stop offset="0.95" stop-color="#366ACD"/>
<stop offset="1" stop-color="#3874DA"/>
</linearGradient>
<linearGradient id="paint6_linear_1060_7795" x1="55.9605" y1="697.344" x2="542.702" y2="221.338" gradientUnits="userSpaceOnUse">
<stop stop-color="#2A023F"/>
<stop offset="0.13" stop-color="#2A0645"/>
<stop offset="0.3" stop-color="#2C1356"/>
<stop offset="0.5" stop-color="#2E2873"/>
<stop offset="0.72" stop-color="#32459A"/>
<stop offset="0.95" stop-color="#366ACD"/>
<stop offset="1" stop-color="#3874DA"/>
</linearGradient>
<linearGradient id="paint7_linear_1060_7795" x1="143" y1="228.207" x2="73.9625" y2="126.396" gradientUnits="userSpaceOnUse">
<stop stop-color="#2A023F"/>
<stop offset="0.06" stop-color="#2C0844"/>
<stop offset="0.14" stop-color="#341953"/>
<stop offset="0.23" stop-color="#40366B"/>
<stop offset="0.32" stop-color="#525D8D"/>
<stop offset="0.43" stop-color="#6891B9"/>
<stop offset="0.54" stop-color="#83CEED"/>
<stop offset="0.57" stop-color="#8CE2FE"/>
</linearGradient>
<linearGradient id="paint8_linear_1060_7795" x1="44.279" y1="82.6944" x2="113.316" y2="184.505" gradientUnits="userSpaceOnUse">
<stop stop-color="#2A023F"/>
<stop offset="0.1" stop-color="#2C0844"/>
<stop offset="0.24" stop-color="#321954"/>
<stop offset="0.41" stop-color="#3C366D"/>
<stop offset="0.59" stop-color="#4A5D91"/>
<stop offset="0.78" stop-color="#5D91BF"/>
<stop offset="0.98" stop-color="#73CEF6"/>
<stop offset="1" stop-color="#76D6FD"/>
</linearGradient>
<linearGradient id="paint9_linear_1060_7795" x1="100.818" y1="256.81" x2="17.0637" y2="133.296" gradientUnits="userSpaceOnUse">
<stop stop-color="#2A023F"/>
<stop offset="0.13" stop-color="#2A0645"/>
<stop offset="0.3" stop-color="#2C1356"/>
<stop offset="0.5" stop-color="#2E2873"/>
<stop offset="0.72" stop-color="#32459A"/>
<stop offset="0.95" stop-color="#366ACD"/>
<stop offset="1" stop-color="#3874DA"/>
</linearGradient>
<linearGradient id="paint10_linear_1060_7795" x1="143" y1="228.207" x2="73.9625" y2="126.396" gradientUnits="userSpaceOnUse">
<stop stop-color="#2A023F"/>
<stop offset="0.13" stop-color="#2A0645"/>
<stop offset="0.3" stop-color="#2C1356"/>
<stop offset="0.5" stop-color="#2E2873"/>
<stop offset="0.72" stop-color="#32459A"/>
<stop offset="0.95" stop-color="#366ACD"/>
<stop offset="1" stop-color="#3874DA"/>
</linearGradient>
</defs>
</svg>
