<svg width="94" height="94" viewBox="0 0 94 94" fill="none" xmlns="http://www.w3.org/2000/svg">
<g clip-path="url(#clip0_1060_7395)">
<path d="M47 0C21.0426 0 0 21.0426 0 47C0 72.9574 21.0426 94 47 94C72.9574 94 94 72.9574 94 47C94 21.0426 72.9574 0 47 0Z" fill="#DA8102"/>
<path d="M45 11C25.1177 11 9 27.1177 9 47C9 66.8823 25.1177 83 45 83C64.8823 83 81 66.8823 81 47C81 27.1177 64.8823 11 45 11Z" fill="#DA8102"/>
<path d="M43.5 12C24.4462 12 9 27.4462 9 46.5C9 65.5538 24.4462 81 43.5 81C62.5538 81 78 65.5538 78 46.5C78 27.4462 62.5538 12 43.5 12Z" fill="#DA8102"/>
<path d="M47 0C21.0426 0 0 21.0426 0 47C0 72.9574 21.0426 94 47 94C72.9574 94 94 72.9574 94 47C94 21.0426 72.9574 0 47 0Z" fill="#FECB03"/>
<path d="M47 11C27.1177 11 11 27.1177 11 47C11 66.8823 27.1177 83 47 83C66.8823 83 83 66.8823 83 47C83 27.1177 66.8823 11 47 11Z" fill="#DA8102"/>
<path d="M47 12.5C27.9462 12.5 12.5 27.9462 12.5 47C12.5 66.0538 27.9462 81.5 47 81.5C66.0538 81.5 81.5 66.0538 81.5 47C81.5 27.9462 66.0538 12.5 47 12.5Z" fill="#F0AA00"/>
<path d="M36.5743 56.5353C37.3051 57.9344 38.4275 59.0905 39.8043 59.8623C41.2852 60.6124 42.8911 61.0846 44.5423 61.2553V64.7363H48.6823V61.2553C49.8069 61.134 50.9154 60.894 51.9893 60.5393C53.0206 60.1973 53.9973 59.7087 54.8893 59.0883C55.7729 58.4762 56.496 57.6602 56.9973 56.7093C57.5232 55.701 57.7893 54.5774 57.7713 53.4403C57.785 52.5471 57.6478 51.6579 57.3653 50.8103C57.1203 50.0773 56.7026 49.414 56.1473 48.8763C55.6293 48.3785 55.0594 47.9376 54.4473 47.5613C53.7389 47.153 52.9764 46.8466 52.1823 46.6513C51.267 46.4067 50.4547 46.2197 49.7453 46.0903C49.036 45.961 48.14 45.832 47.0573 45.7033C45.974 45.5487 45.0457 45.382 44.2723 45.2033C43.4908 45.0203 42.7271 44.7679 41.9903 44.4493C41.3193 44.1846 40.732 43.7438 40.2903 43.1733C39.9023 42.6404 39.6986 41.9955 39.7103 41.3363C39.6715 40.6188 39.8501 39.9063 40.2228 39.292C40.5956 38.6777 41.145 38.1902 41.7993 37.8933C43.396 37.1528 45.1431 36.7944 46.9023 36.8463C48.62 36.8433 50.3173 37.2188 51.8733 37.9463C53.2827 38.5145 54.4328 39.5827 55.1033 40.9463L58.7773 39.0123C57.965 37.1692 56.545 35.6606 54.7543 34.7383C52.8733 33.7384 50.8055 33.1392 48.6813 32.9783V29.2653H44.5823V33.1323C42.1857 33.2464 39.8796 34.0831 37.9673 35.5323C37.0768 36.2069 36.3622 37.0864 35.8842 38.0961C35.4061 39.1058 35.1787 40.216 35.2213 41.3323C35.2011 42.424 35.441 43.5048 35.9213 44.4853C36.3331 45.3332 36.9112 46.0895 37.6213 46.7093C38.415 47.346 39.3111 47.8431 40.2713 48.1793C41.2586 48.5596 42.2736 48.8635 43.3073 49.0883C44.236 49.2817 45.345 49.4687 46.6343 49.6493C47.7677 49.804 48.651 49.9457 49.2843 50.0743C49.9827 50.225 50.6674 50.4334 51.3313 50.6973C51.9593 50.9054 52.5157 51.2867 52.9363 51.7973C53.2829 52.2884 53.4586 52.8797 53.4363 53.4803C53.4604 54.1428 53.2876 54.7975 52.9398 55.3619C52.592 55.9263 52.0849 56.3749 51.4823 56.6513C50.0318 57.4023 48.4152 57.7748 46.7823 57.7343C45.3921 57.7199 44.0184 57.4307 42.7403 56.8833C41.6302 56.4596 40.6872 55.6878 40.0523 54.6833L36.5743 56.5353Z" fill="#DA8102"/>
<path d="M36.5743 56.5353C37.3051 57.9344 38.4275 59.0905 39.8043 59.8623C41.2852 60.6124 42.8911 61.0846 44.5423 61.2553V64.7363H48.6823V61.2553C49.8069 61.134 50.9154 60.894 51.9893 60.5393C53.0206 60.1973 53.9973 59.7087 54.8893 59.0883C55.7729 58.4762 56.496 57.6602 56.9973 56.7093C57.5232 55.701 57.7893 54.5774 57.7713 53.4403C57.785 52.5471 57.6478 51.6579 57.3653 50.8103C57.1203 50.0773 56.7026 49.414 56.1473 48.8763C55.6293 48.3785 55.0594 47.9376 54.4473 47.5613C53.7389 47.153 52.9764 46.8466 52.1823 46.6513C51.267 46.4067 50.4547 46.2197 49.7453 46.0903C49.036 45.961 48.14 45.832 47.0573 45.7033C45.974 45.5487 45.0457 45.382 44.2723 45.2033C43.4908 45.0203 42.7271 44.7679 41.9903 44.4493C41.3193 44.1846 40.732 43.7438 40.2903 43.1733C39.9023 42.6404 39.6986 41.9955 39.7103 41.3363C39.6715 40.6188 39.8501 39.9063 40.2228 39.292C40.5956 38.6777 41.145 38.1902 41.7993 37.8933C43.396 37.1528 45.1431 36.7944 46.9023 36.8463C48.62 36.8433 50.3173 37.2188 51.8733 37.9463C53.2827 38.5145 54.4328 39.5827 55.1033 40.9463L58.7773 39.0123C57.965 37.1692 56.545 35.6606 54.7543 34.7383C52.8733 33.7384 50.8055 33.1392 48.6813 32.9783V29.2653H44.5823V33.1323C42.1857 33.2464 39.8796 34.0831 37.9673 35.5323C37.0768 36.2069 36.3622 37.0864 35.8842 38.0961C35.4061 39.1058 35.1787 40.216 35.2213 41.3323C35.2011 42.424 35.441 43.5048 35.9213 44.4853C36.3331 45.3332 36.9112 46.0895 37.6213 46.7093C38.415 47.346 39.3111 47.8431 40.2713 48.1793C41.2586 48.5596 42.2736 48.8635 43.3073 49.0883C44.236 49.2817 45.345 49.4687 46.6343 49.6493C47.7677 49.804 48.651 49.9457 49.2843 50.0743C49.9827 50.225 50.6674 50.4334 51.3313 50.6973C51.9593 50.9054 52.5157 51.2867 52.9363 51.7973C53.2829 52.2884 53.4586 52.8797 53.4363 53.4803C53.4604 54.1428 53.2876 54.7975 52.9398 55.3619C52.592 55.9263 52.0849 56.3749 51.4823 56.6513C50.0318 57.4023 48.4152 57.7748 46.7823 57.7343C45.3921 57.7199 44.0184 57.4307 42.7403 56.8833C41.6302 56.4596 40.6872 55.6878 40.0523 54.6833L36.5743 56.5353Z" fill="#FDCA05"/>
</g>
<defs>
<clipPath id="clip0_1060_7395">
<rect width="94" height="94" fill="white"/>
</clipPath>
</defs>
</svg>
